<?xml version="1.0" encoding="UTF-8"?> <svg xmlns="http://www.w3.org/2000/svg" width="800" height="104" viewBox="0 0 800 104" fill="none"><path d="M394.83 77.6864C390.064 86.1197 384.27 92.4596 377.45 96.6862C370.61 100.933 362.77 103.06 353.924 103.06C337.557 103.06 324.891 96.9862 315.877 84.8463C312.524 80.3397 310.011 75.4331 308.338 70.1265C306.664 64.8265 305.824 59.1265 305.824 53.0399C305.824 48.26 306.344 43.66 307.384 39.24C308.424 34.8268 309.984 30.5935 312.064 26.5535C314.271 22.3069 316.931 18.5336 320.037 15.2336C323.137 11.9336 326.691 9.11363 330.691 6.76699C334.551 4.52701 338.591 2.85369 342.811 1.7337C347.037 0.613706 351.43 0.0537109 355.997 0.0537109C359.59 0.0537109 363.164 0.493707 366.704 1.36703C370.224 2.24036 373.704 3.54702 377.13 5.29367C378.097 5.79366 378.924 6.16033 379.597 6.40699C380.204 6.62699 380.65 6.73366 380.944 6.73366C382.117 6.73366 383.097 6.29366 383.89 5.41367C384.77 4.43367 385.45 2.90702 385.937 0.840371L386.124 0.0537109H390.51L392.837 34.9201H388.657L388.437 34.1868C385.71 25.1402 381.73 18.3736 376.504 13.8803C371.31 9.42697 364.85 7.19365 357.124 7.19365C350.291 7.19365 344.497 8.83364 339.737 12.1203C334.971 15.4136 331.211 20.3669 328.471 26.9868C327.004 30.4935 325.897 34.4201 325.164 38.7667C324.424 43.1267 324.057 47.9266 324.057 53.1733C324.057 62.0999 325.437 69.6131 328.197 75.7197C330.931 81.7664 335.031 86.4463 340.484 89.753C343.204 91.4129 346.124 92.6529 349.237 93.4863C352.364 94.3196 355.704 94.7329 359.237 94.7329C362.77 94.7329 366.104 94.2929 369.144 93.4063C372.184 92.5263 374.977 91.2063 377.524 89.4463C379.53 88.0663 381.644 86.193 383.87 83.8263C386.11 81.4397 388.457 78.5597 390.917 75.1731L391.483 74.3931L395.29 76.8464L394.817 77.6797L394.83 77.6864Z" fill="#535D62"></path><path d="M127.019 20.5328C127.019 18.0861 126.879 16.0861 126.792 14.5262C126.699 12.7462 126.526 10.3729 123.679 8.63954C121.306 7.19289 118.686 7.06622 117.606 7.06622H113.159V2.25293H156.485V7.06622H152.039C150.952 7.06622 148.339 7.19289 145.966 8.63954C143.119 10.3729 142.946 12.7462 142.852 14.5262C142.772 16.0928 142.626 18.0861 142.626 20.5328V47.1326H185.665C185.665 47.1326 185.665 29.746 185.665 20.5328C185.665 18.0861 185.525 16.0861 185.439 14.5262C185.345 12.7462 185.172 10.3729 182.325 8.63954C179.952 7.19289 177.332 7.06622 176.252 7.06622H171.805V2.25293H215.132V7.06622H210.685C209.598 7.06622 206.985 7.19289 204.612 8.63954C201.765 10.3729 201.592 12.7462 201.498 14.5262C201.418 16.0928 201.265 18.0861 201.272 20.5328V82.5856C201.272 85.0322 201.412 87.0322 201.498 88.5922C201.592 90.3722 201.765 92.7455 204.612 94.4788C206.985 95.9255 209.605 96.0521 210.685 96.0521H215.132V100.865H171.805V96.0521H176.252C177.339 96.0521 179.952 95.9255 182.325 94.4788C185.172 92.7455 185.345 90.3722 185.439 88.5922C185.519 87.0255 185.665 85.0322 185.665 82.5856V54.2058L142.626 54.3325V82.5856C142.626 85.0322 142.766 87.0322 142.852 88.5922C142.946 90.3722 143.119 92.7455 145.966 94.4788C148.339 95.9255 150.959 96.0521 152.039 96.0521H156.485V100.865H113.159V96.0521H117.606C118.692 96.0521 121.306 95.9255 123.679 94.4788C126.526 92.7455 126.699 90.3722 126.792 88.5922C126.872 87.0255 127.019 85.0322 127.019 82.5856V20.5328Z" fill="#535D62"></path><path d="M485.829 2.25293L486.996 26.9061H482.363L482.243 26.0194C481.983 24.0661 481.316 20.1928 480.216 17.8061C479.029 15.2328 477.016 13.4262 474.61 12.1795C472.163 10.9129 469.136 10.2729 465.53 10.2729H452.91V82.5856C452.91 85.0322 453.056 87.0322 453.136 88.5922C453.23 90.3722 453.403 92.7455 456.25 94.4788C458.623 95.9255 461.243 96.0521 462.323 96.0521H466.77V100.865H423.443V96.0521H427.89C428.977 96.0521 431.59 95.9255 433.963 94.4788C436.81 92.7455 436.983 90.3722 437.076 88.5922C437.156 87.0255 437.303 85.0322 437.303 82.5856V10.2729H424.683C421.077 10.2729 418.05 10.9062 415.603 12.1795C413.197 13.4262 411.177 15.2328 409.997 17.8061C408.897 20.1994 408.23 24.0661 407.97 26.0194L407.85 26.9061H404.283H403.217L404.383 2.25293H485.836H485.829Z" fill="#535D62"></path><path d="M299.391 2.25293L300.558 26.9061H295.924L295.804 26.0194C295.544 24.0661 294.878 20.1928 293.778 17.8061C292.591 15.2328 290.578 13.4262 288.171 12.1795C285.724 10.9129 282.698 10.2729 279.091 10.2729C273.124 10.2729 255.238 10.2729 255.238 10.2729C255.238 10.2729 255.238 64.5057 255.238 82.5856C255.238 85.0322 255.378 87.0322 255.465 88.5922C255.558 90.3722 255.731 92.7455 258.578 94.4788C260.951 95.9255 263.571 96.0521 264.651 96.0521H269.098V100.865H225.771V96.0521H230.218C231.305 96.0521 233.918 95.9255 236.291 94.4788C239.138 92.7455 239.311 90.3722 239.405 88.5922C239.485 87.0255 239.631 85.0322 239.631 82.5856C239.631 67.0724 239.631 36.046 239.631 20.5328C239.631 18.0861 239.491 16.0861 239.405 14.5262C239.311 12.7462 239.138 10.3729 236.291 8.63954C233.918 7.19289 231.298 7.06622 230.218 7.06622H225.771V2.25293H299.398H299.391Z" fill="#535D62"></path><path d="M569.842 21.5069C568.949 18.9003 567.609 16.4936 565.822 14.3003C563.822 11.8403 561.522 9.76701 558.929 8.08036C556.349 6.40037 553.482 5.10705 550.329 4.20705C548.016 3.54706 545.322 3.0604 542.236 2.73373C539.169 2.40707 535.736 2.24707 531.936 2.24707H495.463V7.06036H499.909C500.996 7.06036 503.609 7.18703 505.983 8.63368C508.829 10.367 509.003 12.7403 509.096 14.5203C509.176 16.087 509.323 18.0803 509.323 20.5269V82.6531C509.323 85.0997 509.183 87.033 509.096 88.5997C509.003 90.3797 508.829 92.753 505.983 94.4863C503.609 95.933 500.989 96.0596 499.909 96.0596H495.463V100.873H538.789V96.0596H534.342C533.256 96.0596 530.642 95.933 528.269 94.4863C525.422 92.753 525.249 90.3797 525.156 88.5997C525.076 87.033 524.929 85.0997 524.929 82.6531V55.7466C527.602 56.3066 530.122 56.7333 532.502 57.0266C535.256 57.3733 537.822 57.5466 540.196 57.5466C544.702 57.5466 548.789 56.9799 552.442 55.8466C556.122 54.7066 559.355 52.9867 562.142 50.7C565.149 48.2267 567.409 45.2534 568.922 41.7667C570.422 38.3001 571.175 34.3535 571.175 29.9268C571.175 26.9335 570.729 24.1269 569.835 21.5136L569.842 21.5069ZM551.796 38.7934C551.029 41.0534 549.876 43.1267 548.342 45.0134C546.716 47.0067 544.849 48.5 542.749 49.4933C540.649 50.4867 538.302 50.98 535.709 50.98C534.349 50.98 532.716 50.86 530.796 50.62C529.062 50.4067 527.109 50.1 524.942 49.6933V11.0937C526.509 10.7537 527.956 10.487 529.269 10.3003C530.776 10.087 532.122 9.98034 533.302 9.98034C535.249 9.98034 537.076 10.187 538.782 10.607C540.482 11.0203 542.076 11.6537 543.576 12.5003C546.696 14.267 549.029 16.7069 550.589 19.8136C552.162 22.9602 552.955 26.8202 552.955 31.3802C552.955 34.0535 552.576 36.5268 551.802 38.7934H551.796Z" fill="#535D62"></path><path d="M593.142 20.5328C593.142 18.0861 593.002 16.0861 592.915 14.5262C592.822 12.7462 592.649 10.3729 589.802 8.63954C587.429 7.19289 584.809 7.06622 583.729 7.06622H579.282V2.25293H655.628L656.795 25.4461H652.162L652.042 24.5594C651.782 22.6061 651.115 18.7328 650.015 16.3461C648.828 13.7728 647.248 12.1995 644.835 10.9529C642.388 9.6862 638.928 9.5462 635.322 9.5462H608.742V45.7259H628.995C631.688 45.7259 633.915 45.5259 635.675 45.1326C637.348 44.7592 638.582 44.2126 639.388 43.5059C640.495 42.5326 641.355 41.1659 641.988 39.406C642.642 37.5726 643.042 35.3327 643.182 32.6927L643.235 31.726H647.995V66.9391H643.235L643.182 65.9724C643.042 63.3324 642.648 61.0924 641.988 59.2591C641.362 57.4991 640.495 56.1325 639.388 55.1592C638.588 54.4525 637.348 53.9058 635.675 53.5325C633.915 53.1392 631.695 52.9392 628.995 52.9392H608.742V80.119C608.742 82.5656 608.782 85.0056 608.835 86.5722C608.889 88.1389 608.895 89.3655 609.429 90.7189C609.742 91.5122 610.735 92.8988 613.129 93.3122C614.842 93.6122 617.695 93.5788 618.149 93.5788C618.149 93.5788 636.402 93.5255 638.068 93.4122C639.728 93.2988 641.062 93.1322 642.068 92.9055C643.635 92.5522 645.095 91.9855 646.462 91.2189C647.842 90.4389 649.128 89.4455 650.328 88.2455C651.735 86.8322 653.175 85.0456 654.642 82.8789C656.128 80.6923 657.642 78.1256 659.188 75.1723L659.475 74.619H664.435L663.968 75.9723L655.415 100.879H579.262V96.0655H583.709C584.795 96.0655 587.409 95.9388 589.782 94.4922C592.629 92.7588 592.802 90.3855 592.895 88.6055C592.975 87.0389 593.122 85.0456 593.122 82.5989V20.5328H593.142Z" fill="#535D62"></path><path d="M800 2.25293V7.06622H795.553C794.467 7.06622 791.853 7.19289 789.48 8.63954C786.634 10.3729 786.46 12.7462 786.367 14.5262C786.287 16.0928 786.14 18.0861 786.14 20.5328V82.5856C786.14 85.0322 786.28 87.0322 786.367 88.5922C786.46 90.3722 786.634 92.7455 789.48 94.4788C791.853 95.9255 794.473 96.0521 795.553 96.0521H800V100.865H756.674V96.0521H761.12C762.207 96.0521 764.82 95.9255 767.194 94.4788C770.04 92.7455 770.214 90.3722 770.307 88.5922C770.387 87.0255 770.534 85.0322 770.534 82.5856V23.2528L734.907 100.872H731.247L695.534 23.2461V82.5856C695.534 85.0322 695.674 87.0322 695.761 88.5922C695.854 90.3722 696.028 92.7455 698.874 94.4788C701.248 95.9255 703.868 96.0521 704.948 96.0521H709.394V100.865H673.508V96.0521H677.954C679.041 96.0521 681.654 95.9255 684.028 94.4788C686.874 92.7455 687.048 90.3722 687.141 88.5922C687.221 87.0255 687.368 85.0322 687.368 82.5856V20.5328C687.368 18.0861 687.228 16.0861 687.141 14.5262C687.048 12.7462 686.874 10.3729 684.028 8.63954C681.654 7.19289 679.034 7.06622 677.954 7.06622H673.508V2.25293H702.761L737.114 76.4056L770.9 2.25293H800Z" fill="#535D62"></path><path d="M103.653 95.9992C99.3726 95.7259 95.9927 94.1925 93.6127 91.4392C92.0594 89.6393 90.0994 85.9726 87.9461 80.846L54.053 0H50.193L15.9667 79.9793C13.04 86.8193 10.4134 91.3659 8.15339 93.4992C7.42673 94.1859 5.54674 95.3059 0.846782 96.0059C0.640117 96.0392 0.00012207 96.0525 0.00012207 96.0525V100.866H32.4665V96.0592L31.5132 95.9925C24.7199 95.5259 21.2799 93.8392 21.2799 90.9792C21.2799 89.7926 21.6799 87.4393 23.6066 82.9926L29.9065 68.4128H65.9529L71.5262 81.646C73.3595 86.0059 74.2928 89.1926 74.2928 91.1192C74.2928 92.5592 73.6728 93.6059 72.3329 94.4059C70.8529 95.2925 68.5329 95.8192 65.4396 95.9859L64.4729 96.0392V100.866H104.619V96.0525L103.666 95.9925L103.653 95.9992ZM32.9998 61.1262L48.2397 25.7531L63.1063 61.1262H32.9998Z" fill="#535D62"></path></svg> 