<?xml version="1.0" encoding="UTF-8"?> <svg xmlns="http://www.w3.org/2000/svg" width="800" height="220" viewBox="0 0 800 220" fill="none"><path d="M800 0H0V219.811H800V0Z" fill="#0D0D0D"></path><path opacity="0.8" d="M799.707 0.848633H0.67923V219.122H799.707V0.848633Z" fill="#0D0D0D"></path><path d="M43.4623 81.9154H152.689V67.6324C152.689 63.8305 150.764 61.9343 146.934 61.9343H49.217C45.3773 61.9343 43.4623 63.8965 43.4623 67.8116V81.9154ZM167.264 119.453H152.698V96.3022H43.4717V119.453H29.1321V65.3305C29.1321 53.4343 34.9057 47.4814 46.4623 47.4814H149.877C161.472 47.4814 167.264 53.4909 167.264 65.5003V119.453Z" fill="white"></path><path d="M193.179 96.6035V119.575H178.613V47.6035H299.189C310.972 47.6035 316.868 53.3016 316.868 64.7073V78.8771C316.868 90.7356 311.028 96.6696 299.358 96.6696L193.179 96.613V96.6035ZM296.708 61.9998H193.179L193.123 82.0941H296.877C300.368 82.0941 302.16 80.1884 302.236 76.3959V67.5846C302.274 63.8582 300.434 61.9998 296.708 61.9998Z" fill="white"></path><path d="M469.33 47.4814H331.075V119.406H345.528V62.2267H469.33V47.4814Z" fill="white"></path><path d="M498.123 119.575C486.604 119.575 480.849 113.802 480.849 102.245V64.9337C480.849 53.4149 486.547 47.6602 497.953 47.6602H601.538C613.245 47.6602 619.104 53.5564 619.104 65.3394V102.594C619.104 113.802 613.443 119.405 602.113 119.405L498.123 119.575ZM604.708 99.5375V68.0375C604.708 64.0092 602.783 61.9903 598.953 61.9903H501.179C497.34 61.9903 495.425 63.8677 495.425 67.6318V99.3583C495.425 103.273 497.349 105.236 501.179 105.236H599.066C602.83 105.236 604.708 103.339 604.708 99.5375Z" fill="white"></path><path d="M768.802 119.576H647.651C636.33 119.576 630.66 113.736 630.66 102.066V64.6985C630.66 53.3401 636.321 47.6514 647.651 47.6514H768.802V61.9344H650.877C647.076 61.9344 645.179 63.774 645.179 67.4627V99.4155C645.179 103.331 647 105.293 650.651 105.293H768.802V119.576Z" fill="white"></path><path d="M72.3302 160.849H54.6132V165.547H72.283C73.1509 165.547 73.5849 165.095 73.5943 164.189V162.142C73.6132 161.274 73.1887 160.849 72.3302 160.849ZM54.6132 168.878V174.208H51.2358V168.878H32.9623C30.2547 168.868 28.9057 167.529 28.9057 164.868V161.5C28.9057 158.84 30.2358 157.51 32.8868 157.51H72.9057C75.6415 157.51 77.0094 158.831 77.0094 161.472V164.755C77.0094 167.51 75.6604 168.887 72.9528 168.887H54.6227L54.6132 168.878ZM33.6038 160.84C32.6698 160.84 32.2076 161.274 32.217 162.132V164.18C32.2359 165.085 32.6981 165.538 33.5943 165.538H51.2642V160.84H33.6038Z" fill="white"></path><path d="M83.066 165.472H108.406V162.161C108.406 161.283 107.962 160.84 107.066 160.84H84.3962C83.5095 160.84 83.0566 161.293 83.0566 162.208V165.481L83.066 165.472ZM111.783 174.18H108.406V168.812H83.066V174.18H79.7359V161.623C79.7359 158.859 81.0755 157.481 83.7547 157.481H107.745C110.434 157.481 111.783 158.878 111.783 161.661V174.18Z" fill="white"></path><path d="M117.811 170.84H141.821C142.736 170.84 143.198 170.387 143.198 169.491V168.821C143.198 167.962 142.736 167.538 141.811 167.538H117.802L117.811 170.84ZM146.491 170.104C146.491 172.84 145.132 174.208 142.406 174.208H114.425V157.472H146.5V160.821H117.792L117.821 164.189H142.415C145.141 164.189 146.5 165.509 146.5 168.141V170.104H146.491Z" fill="white"></path><path d="M152.528 168.878V174.208H149.151V157.51H177.123C179.858 157.51 181.226 158.831 181.226 161.472V164.755C181.226 167.51 179.877 168.887 177.17 168.887H152.538L152.528 168.878ZM176.547 160.84H152.528L152.509 165.5H176.585C177.396 165.5 177.811 165.057 177.83 164.18V162.132C177.83 161.264 177.415 160.84 176.547 160.84Z" fill="white"></path><path d="M187.264 174.161L183.887 174.208V157.519H187.255L187.274 170.18L212.594 157.481H215.943V174.208H212.566V161.34L187.264 174.161Z" fill="white"></path><path d="M248.67 165.83L253.387 157.453H249.358L245.33 164.189H222.009V157.481H218.632L218.67 174.208H222.009V167.538H245.349L249.311 174.208H253.387L248.67 165.83Z" fill="white"></path><path d="M259.425 165.472H284.764V162.161C284.764 161.283 284.321 160.84 283.425 160.84H260.755C259.868 160.84 259.415 161.293 259.415 162.208V165.481L259.425 165.472ZM288.142 174.18H284.764V168.812H259.425V174.18H256.094V161.623C256.094 158.859 257.434 157.481 260.113 157.481H284.104C286.792 157.481 288.142 158.878 288.142 161.661V174.18Z" fill="white"></path><path d="M332.557 168.886L312.877 161.462V174.207H309.481V157.519H312.83L332.491 164.868L351.576 157.519H354.943L354.953 174.207H351.576L351.604 161.49L332.557 168.886Z" fill="white"></path><path d="M362.396 160.83H386.321V165.491H362.292C361.377 165.519 360.924 165.029 360.934 164.038V162.18C360.953 161.283 361.443 160.83 362.406 160.83H362.396ZM357.604 174.208H361.66L365.698 168.849H386.368V174.208H389.67V157.51H361.613C358.972 157.51 357.651 158.821 357.651 161.453V164.868C357.651 167.519 359 168.849 361.689 168.849L357.613 174.208H357.604Z" fill="white"></path><path d="M425.085 157.481H393.009V174.161H396.368V160.897H425.085V157.481Z" fill="white"></path><path d="M457.802 165.83L462.519 157.453H458.481L454.462 164.189H431.142V157.481H427.764L427.802 174.208H431.142V167.538H454.481L458.443 174.208H462.519L457.802 165.83Z" fill="white"></path><path d="M469.189 174.207C466.519 174.207 465.179 172.868 465.179 170.188V161.528C465.179 158.858 466.5 157.519 469.142 157.519H493.17C495.887 157.519 497.245 158.886 497.245 161.622V170.264C497.245 172.868 495.934 174.16 493.302 174.16L469.179 174.198L469.189 174.207ZM493.915 169.556V162.245C493.915 161.311 493.472 160.839 492.575 160.839H469.896C469.009 160.839 468.557 161.273 468.557 162.151V169.509C468.557 170.415 469 170.868 469.896 170.868H492.604C493.472 170.868 493.915 170.424 493.915 169.547V169.556Z" fill="white"></path><path d="M512.604 156.16L519.321 156.188V158.858H512.604V156.16ZM503.292 174.17L499.915 174.207V157.519H503.283L503.311 170.179L528.623 157.471H531.981V174.198H528.604V161.33L503.302 174.151L503.292 174.17Z" fill="white"></path><path d="M576.425 168.886L556.755 161.462V174.207H553.359V157.519H556.708L576.358 164.868L595.453 157.519H598.821L598.83 174.207H595.453L595.481 161.49L576.425 168.886Z" fill="white"></path><path d="M633.547 174.208H601.491V157.481H633.547V160.83H604.887V164.189H633.547V167.538H604.887V170.878H633.547V174.208Z" fill="white"></path><path d="M639.575 170.84H663.585C664.5 170.84 664.962 170.387 664.962 169.491V168.821C664.962 167.962 664.5 167.538 663.575 167.538H639.575L639.585 170.84H639.575ZM668.255 170.104C668.255 172.84 666.896 174.208 664.17 174.208H636.179V157.472H668.255V160.821H639.547L639.575 164.189H664.17C666.896 164.189 668.255 165.509 668.255 168.141V170.104Z" fill="white"></path><path d="M702.991 174.208H670.925V157.481H702.991V160.83H674.321V164.189H702.991V167.538H674.321V170.878H702.991V174.208Z" fill="white"></path><path d="M735.726 174.188H739.028V157.49H710.962C708.292 157.481 706.953 158.839 706.953 161.575V169.481C706.953 170.32 706.528 170.792 705.67 170.896L704.962 170.868V174.179H706.236C708.972 174.179 710.34 172.868 710.34 170.236V162.17C710.34 161.236 710.774 160.764 711.651 160.764H735.736V174.179L735.726 174.188Z" fill="white"></path><path d="M745.066 174.161L741.689 174.208V157.519H745.057L745.085 170.18L770.396 157.481H773.745V174.208H770.368V161.34L745.066 174.161Z" fill="white"></path></svg> 