<?xml version="1.0" encoding="UTF-8"?> <svg xmlns="http://www.w3.org/2000/svg" width="800" height="194" viewBox="0 0 800 194" fill="none"><path d="M799.984 119.803C777.406 131.658 742.489 129.556 724.375 110.245C713.911 99.1342 708.703 84.4814 708.703 66.1574C708.703 46.6203 714.574 30.7384 726.38 18.738C738.073 6.86696 753.066 0.850586 771.18 0.850586C782.776 0.850586 792.415 2.51641 799.984 5.73485V22.2961C791.315 17.4118 781.741 14.9697 771.325 14.9697C757.756 14.9697 746.629 19.5143 738.073 28.6197C729.502 37.6119 725.297 49.8226 725.297 65.2517C725.297 79.8074 729.275 91.4682 737.168 100.008C752.969 116.989 781.433 116.1 800 104.665V119.787L799.984 119.803Z" fill="#6E767A"></path><path d="M684.864 124.882H669.306V23.9617L604.047 124.882H585.222V2.87207H600.797V103.129L665.311 2.87207H684.864V124.882Z" fill="#6E767A"></path><path d="M566.542 16.8618H531.285V124.882H515.5V16.8618H480.469V2.87207H566.542V16.8618Z" fill="#6E767A"></path><path d="M409.841 79.2574V124.882H394.153V2.87207H428.731C441.961 2.87207 452.199 6.10668 459.428 12.4142C466.641 18.754 470.329 27.8433 470.329 39.6172C470.329 51.3912 466.091 61.273 457.536 68.8096C449.077 76.1522 438.403 79.6941 425.723 79.2574H409.825H409.841ZM409.841 16.7485V65.3809H424.413C434.101 65.3809 441.314 63.2784 446.328 58.944C451.325 54.6097 453.767 48.3992 453.767 40.2965C453.767 24.641 444.533 16.7485 425.966 16.7485H409.841Z" fill="#6E767A"></path><path d="M376.476 124.882H359.009L346.556 91.4842H295.838L284.047 124.882H266.694L313.078 2.87207H329.979L376.476 124.882ZM341.656 77.7048L321.197 21.1961L300.738 77.7048H341.656Z" fill="#6E767A"></path><path d="M297.39 192.501H292.49V169.956L283.918 192.501H279.584L270.802 170.522V192.501H266.694V164.748H272.92L282.042 187.504L290.824 164.748H297.39V192.501ZM328.879 179.854H309.407C309.407 182.846 310.296 185.207 311.849 186.744C313.288 188.409 315.52 189.186 318.302 189.186C321.407 189.186 324.205 188.199 326.857 186.194V190.625C324.415 192.291 321.181 193.164 317.073 193.164C312.965 193.164 309.957 191.967 307.725 189.396C305.396 186.841 304.28 183.299 304.28 178.738C304.28 174.533 305.509 170.975 308.048 168.177C310.49 165.411 313.498 164.069 317.17 164.069C320.841 164.069 323.736 165.298 325.741 167.627C327.731 169.94 328.863 173.174 328.863 177.396V179.838L328.879 179.854ZM323.882 175.988C323.882 173.433 323.316 171.541 322.086 170.101C320.97 168.775 319.305 168.096 317.186 168.096C315.18 168.096 313.515 168.775 312.075 170.231C310.636 171.783 309.746 173.643 309.407 175.988H323.865H323.882ZM357.23 155.546C356.454 156.128 355.225 156.451 353.672 156.775C349.564 157.309 346.669 157.988 345.117 158.441C343.661 158.991 342.335 160.107 341.332 161.869C340.216 163.535 339.553 166.317 339.214 169.956H339.327C341.543 166.851 344.551 165.411 348.562 165.411C352.217 165.411 355.112 166.64 357.457 169.083C359.673 171.638 360.788 174.97 360.788 178.964C360.788 183.299 359.576 186.614 357.23 189.283C354.788 191.838 351.554 193.164 347.672 193.164C343.322 193.164 339.99 191.628 337.661 188.62C335.316 185.514 334.087 181.18 334.087 175.616C334.087 171.169 334.54 167.514 335.429 164.409C336.205 161.417 337.435 159.071 338.874 157.632C340.313 156.079 341.979 155.077 343.758 154.397C345.651 153.848 348.885 153.168 353.317 152.408C355.096 151.955 356.438 151.519 357.214 150.969V155.513L357.23 155.546ZM339.214 174.549C338.89 177.994 339.1 181.552 340.653 184.641C341.316 186.097 342.319 187.196 343.548 187.989C344.777 188.765 346.217 189.202 347.672 189.202C350.001 189.202 352.007 188.215 353.446 186.42C355.015 184.641 355.791 182.312 355.791 179.547C355.791 176.441 355.015 173.983 353.446 172.204C352.007 170.328 349.888 169.422 347.333 169.422C343.774 169.422 340.993 171.088 339.214 174.549ZM390.369 179.87H370.913C371.026 182.862 371.916 185.223 373.355 186.76C374.908 188.426 377.139 189.202 379.921 189.202C383.026 189.202 385.808 188.215 388.477 186.21V190.641C386.035 192.307 382.687 193.18 378.692 193.18C374.697 193.18 371.576 191.984 369.231 189.412C366.999 186.857 365.899 183.315 365.899 178.754C365.899 174.549 367.128 170.991 369.57 168.193C372.126 165.427 375.134 164.085 378.805 164.085C382.477 164.085 385.372 165.314 387.361 167.643C389.366 169.956 390.369 173.191 390.369 177.412V179.854V179.87ZM385.469 176.005C385.469 173.449 384.903 171.557 383.706 170.118C382.59 168.791 380.924 168.112 378.805 168.112C376.8 168.112 375.134 168.791 373.695 170.247C372.255 171.8 371.366 173.66 370.913 176.005H385.485H385.469ZM417.944 192.534H413.06V168.791H406.833C406.057 177.557 404.714 183.768 402.935 187.439C401.156 191.094 398.698 192.986 395.48 192.986C394.477 192.986 393.701 192.76 393.038 192.534V188.539C393.604 188.765 394.267 188.992 395.043 188.992C399.054 188.992 401.609 180.889 402.709 164.781H417.944V192.534ZM426.726 192.534V164.781H431.61V175.342H439.195C441.961 175.342 444.306 176.118 445.972 177.557C447.638 179.126 448.527 181.115 448.527 183.784C448.527 186.452 447.638 188.668 445.972 190.221C444.306 191.773 442.074 192.534 439.519 192.534H426.726ZM431.61 179.32V188.539H438.079C441.638 188.539 443.514 186.986 443.514 183.768C443.514 180.889 441.621 179.32 438.079 179.32H431.61ZM468.889 192.534V164.781H481.342C484.124 164.781 486.34 165.33 487.909 166.56C489.591 167.902 490.351 169.438 490.351 171.557C490.351 175.099 488.572 177.347 484.998 178.123C489.235 178.657 491.354 180.792 491.354 184.56C491.354 186.889 490.464 188.765 488.669 190.318C486.89 191.757 484.787 192.534 482.119 192.534H468.889ZM473.773 168.791V176.344H480.113C483.671 176.344 485.353 175.018 485.353 172.333C485.353 169.907 483.785 168.791 480.679 168.791H473.773ZM473.773 180.323V188.539H481.229C484.674 188.539 486.453 187.196 486.453 184.318C486.453 181.649 484.448 180.323 480.55 180.323H473.773ZM499.246 166.657C502.028 164.991 505.262 164.101 508.804 164.101C515.597 164.101 518.929 167.659 518.929 174.662V192.534H514.044V188.329C513.931 188.442 511.489 193.197 505.359 193.197C502.691 193.197 500.572 192.534 498.923 190.981C497.354 189.525 496.577 187.633 496.577 185.11C496.577 179.886 499.699 176.878 505.812 176.118L514.044 174.889C514.044 170.344 512.152 168.112 508.368 168.112C505.036 168.112 502.044 169.228 499.246 171.444V166.673V166.657ZM507.591 179.547C505.262 179.773 503.694 180.323 502.804 181.212C501.915 181.989 501.575 183.202 501.575 184.77C501.575 186.113 502.028 187.099 502.901 188.005C503.92 188.781 505.133 189.218 506.686 189.218C508.788 189.218 510.567 188.442 511.909 187.002C513.365 185.45 514.028 183.574 514.028 181.342V178.673L507.575 179.579L507.591 179.547ZM563.194 192.517H527.064V164.764H531.964V188.523H542.735V164.764H547.636V188.523H558.31V164.764H563.194V192.517ZM594.683 179.87H575.211C575.211 182.862 576.1 185.223 577.653 186.76C579.092 188.426 581.324 189.202 584.09 189.202C587.195 189.202 589.993 188.215 592.645 186.21V190.641C590.219 192.307 586.969 193.18 582.877 193.18C578.785 193.18 575.744 191.984 573.513 189.412C571.2 186.857 570.068 183.315 570.068 178.754C570.068 174.549 571.297 170.991 573.868 168.193C576.311 165.427 579.303 164.085 582.974 164.085C586.645 164.085 589.524 165.314 591.529 167.643C593.551 169.956 594.667 173.191 594.667 177.412V179.854L594.683 179.87ZM589.67 176.005C589.67 173.449 589.136 171.557 587.907 170.118C586.791 168.791 585.109 168.112 582.99 168.112C580.871 168.112 579.319 168.791 577.879 170.247C576.44 171.8 575.55 173.66 575.211 176.005H589.67ZM616.921 168.888H606.15V192.534H601.266V164.781H616.937V168.888H616.921ZM620.786 178.997C620.786 174.323 622.016 170.765 624.7 168.112C627.272 165.444 630.701 164.117 635.035 164.117C639.369 164.117 642.507 165.46 644.917 167.902C647.262 170.425 648.491 173.999 648.491 178.544C648.491 183.088 647.149 186.42 644.723 189.218C642.135 191.87 638.706 193.213 634.485 193.213C630.264 193.213 627.029 191.87 624.49 189.331C622.016 186.663 620.786 183.218 620.786 179.013V178.997ZM625.784 178.77C625.784 182.005 626.593 184.56 628.258 186.42C629.924 188.215 632.059 189.202 634.825 189.202C637.59 189.202 639.709 188.215 641.278 186.42C642.701 184.641 643.38 182.102 643.38 178.657C643.38 175.212 642.701 172.689 641.278 170.894C639.709 169.115 637.59 168.209 634.825 168.209C632.059 168.209 629.827 169.115 628.258 170.991C626.593 172.883 625.784 175.552 625.784 178.754V178.77ZM688.293 191.321C683.101 194.426 675.209 193.876 670.988 189.315C668.513 186.76 667.3 183.428 667.3 179.32C667.3 174.775 668.529 171.088 671.182 168.339C673.85 165.573 677.425 164.101 681.759 164.101C684.33 164.101 686.546 164.554 688.309 165.444V170.328C686.449 168.888 684.217 168.209 681.759 168.209C678.993 168.209 676.745 169.115 674.982 171.088C673.203 173.093 672.314 175.649 672.314 178.883C672.314 182.118 673.09 184.641 674.74 186.42C678.427 190.318 684.314 189.768 688.293 186.76V191.321ZM712.795 168.888H704.547V192.534H699.646V168.888H691.317V164.781H712.795V168.888ZM741.809 192.534H737.378V171.557L723.016 192.534H718.019V164.781H722.563V185.547L736.699 164.781H741.809V192.534ZM771.632 192.534H766.716V168.791H760.376C759.713 177.557 758.371 183.768 756.608 187.439C754.829 191.094 752.241 192.986 749.152 192.986C748.133 192.986 747.341 192.76 746.694 192.534V188.539C747.26 188.765 747.923 188.992 748.683 188.992C752.71 188.992 755.152 180.889 756.398 164.781H771.616V192.534H771.632ZM799.968 192.534H795.083V181.212H791.639C789.86 181.212 788.291 182.668 786.835 185.434L783.293 192.534H777.6L782.177 184.107C783.293 182.005 784.603 180.662 786.285 180.113C784.086 179.789 782.388 179.013 781.304 177.67C780.188 176.344 779.638 174.792 779.638 172.786C779.638 170.247 780.544 168.225 782.307 166.899C784.183 165.46 786.738 164.797 789.973 164.797H799.968V192.55V192.534ZM795.083 177.347V168.791H790.07C786.399 168.791 784.603 170.118 784.603 172.899C784.603 175.891 786.399 177.347 789.957 177.347H795.067H795.083Z" fill="#6E767A"></path><path d="M12.1298 2.87213H76.6279C79.9596 2.87213 83.081 4.31153 85.3128 6.54341C87.5286 8.77529 88.8709 11.7673 88.8709 15.099V79.5971C88.8709 82.9287 87.5286 86.034 85.3128 88.2497C83.081 90.4654 79.9596 91.8077 76.6279 91.8077H12.1298C8.78197 91.8077 5.78995 90.4654 3.55807 88.2497C1.32619 86.0501 0 82.9287 0 79.5971V15.0828C0 11.7511 1.32619 8.75912 3.55807 6.52724C5.78995 4.29536 8.78197 2.85596 12.1298 2.85596V2.87213ZM76.6279 6.52724H12.1298C9.80087 6.52724 7.6822 7.41676 6.01638 8.96937C4.46376 10.6514 3.57424 12.7539 3.57424 15.0828V79.5971C3.57424 81.926 4.46376 84.1417 6.01638 85.6943C7.6822 87.2631 9.80087 88.2497 12.1298 88.2497H76.6279C79.0862 88.2497 81.1887 87.2631 82.7413 85.6943C84.3101 84.1417 85.3128 81.926 85.3128 79.5971V15.0828C85.3128 12.7539 84.3101 10.6514 82.7413 8.96937C81.1887 7.41676 78.973 6.52724 76.6279 6.52724Z" fill="#6E767A"></path><path fill-rule="evenodd" clip-rule="evenodd" d="M10.7874 103.679H77.9541C83.9705 103.679 88.8547 108.563 88.8547 114.563V181.617C88.8547 187.617 83.9543 192.501 77.9541 192.501H10.7874C4.88426 192.501 0 187.617 0 181.617V114.563C0 108.563 4.88426 103.679 10.7874 103.679Z" fill="#6E767A"></path><path fill-rule="evenodd" clip-rule="evenodd" d="M111.546 2.87207H178.712C184.729 2.87207 189.613 7.86954 189.613 13.7565V80.9232C189.613 86.9072 184.729 91.8077 178.712 91.8077H111.546C105.545 91.8077 100.645 86.9234 100.645 80.9232V13.7565C100.645 7.86954 105.545 2.87207 111.546 2.87207Z" fill="#6E767A"></path><path fill-rule="evenodd" clip-rule="evenodd" d="M111.546 103.679H178.712C184.729 103.679 189.613 108.563 189.613 114.563V181.617C189.613 187.617 184.729 192.501 178.712 192.501H111.546C105.545 192.501 100.645 187.617 100.645 181.617V114.563C100.645 108.563 105.545 103.679 111.546 103.679Z" fill="#6E767A"></path></svg> 