<?xml version="1.0" encoding="UTF-8"?> <svg xmlns="http://www.w3.org/2000/svg" width="800" height="81" viewBox="0 0 800 81" fill="none"><path d="M74.3385 80.343H57.0663L51.4217 63.1272H22.1266L16.482 80.343H0L28.1098 0.980859H46.1723L74.2821 80.343H74.3385ZM47.3577 50.8221L36.8588 18.8176L26.36 50.8221H47.4141H47.3577ZM81.5071 75.8838V60.3614H83.0876C86.5307 62.7321 90.4819 64.7641 94.8846 66.401C99.2874 68.0379 103.351 68.8846 107.02 68.8846C118.705 68.8846 124.575 64.5383 124.575 55.7329C124.575 51.6688 123.559 48.7901 121.583 47.0403C119.551 45.2905 115.657 44.3873 109.843 44.3873H95.9007V32.7031H109.335C113.963 32.7031 117.293 31.9129 119.438 30.3324C121.583 28.752 122.599 25.9862 122.599 22.035C122.599 16.0518 117.914 13.0602 108.601 13.0602C102.335 13.0602 94.6589 15.9389 85.6841 21.7528H83.9342V6.0045C92.5704 2.67422 101.376 0.980859 110.52 0.980859C119.664 0.980859 127.228 2.56133 132.251 5.83516C137.219 9.05255 139.759 13.6811 139.759 19.6643C139.759 24.0106 138.46 27.736 135.92 30.8969C133.38 34.1143 129.937 36.2028 125.591 37.3317V38.1219C136.372 40.3233 141.734 46.4194 141.734 56.4666C141.734 64.1997 138.799 70.1829 132.985 74.4727C127.171 78.7061 118.817 80.851 107.98 80.851C98.61 80.851 89.8046 79.1577 81.5635 75.8274L81.5071 75.8838ZM152.177 80.343V0.980859H207.775V14.1326H168.376V30.5018H185.762C195.583 30.5018 202.639 32.5338 206.929 36.6543C211.219 40.7748 213.363 46.8145 213.363 54.8297C213.363 62.845 210.88 68.9975 205.913 73.5131C200.945 78.0288 194.116 80.2866 185.479 80.2866H152.177V80.343ZM168.376 43.202V67.8686H182.544C191.745 67.8686 196.373 63.7481 196.373 55.5635C196.373 47.3789 191.745 43.2584 182.544 43.2584H168.376V43.202ZM287.363 0.980859L261.116 64.9899C258.745 70.6909 255.867 74.6985 252.367 77.1821C248.868 79.6657 244.07 80.851 238.03 80.851C233.91 80.851 229.676 80.6817 225.33 80.2301V65.1028H226.459C228.66 65.7801 231.2 66.1752 234.079 66.1752C241.304 66.1752 245.537 64.7641 246.836 61.9983L217.202 0.980859H235.151L254.399 42.5811L270.26 0.980859H287.307H287.363ZM360.912 80.343H340.478L317.9 47.266H311.183V80.343H294.871V0.980859H311.183V34.3401C315.53 34.1143 318.521 33.2676 320.271 31.8C322.021 30.3324 324.166 27.3408 326.706 22.8817C328.964 18.366 330.713 14.9793 332.012 12.665C333.31 10.3508 334.834 8.20587 336.527 6.17383C338.277 4.1418 340.309 2.78711 342.68 1.99688C345.05 1.20664 347.986 0.811523 351.429 0.811523C352.727 0.811523 353.856 0.811523 354.816 0.811523C355.832 0.867969 356.396 0.924414 356.622 0.924414V16.2776H351.316C348.832 16.2776 346.8 17.0113 345.22 18.4789C343.696 19.8901 341.89 22.8252 339.97 27.2279C337.205 33.5498 334.495 37.6139 331.899 39.4766L360.799 80.3995L360.912 80.343ZM439.879 80.343H422.606L416.962 63.1272H387.667L382.022 80.343H365.54L393.65 0.980859H411.712L439.822 80.343H439.879ZM412.898 50.8221L402.399 18.8176L391.844 50.8221H412.898ZM553.334 80.343H537.021V14.0762H505.75V80.343H489.438V0.980859H553.334V80.343ZM602.723 80.851C591.378 80.851 582.516 77.295 576.025 70.1829C569.534 63.0708 566.316 53.3622 566.316 40.9442C566.316 28.5262 569.534 18.7047 575.968 11.5926C582.403 4.48047 591.322 0.924414 602.723 0.924414C614.125 0.924414 623.044 4.48047 629.479 11.5926C635.97 18.7047 639.187 28.4697 639.187 40.8877C639.187 53.3057 635.97 62.9014 629.535 70.07C623.1 77.1821 614.125 80.7946 602.723 80.7946V80.851ZM602.723 11.9313C596.853 11.9313 592.112 14.4713 588.669 19.4949C585.169 24.575 583.419 31.6871 583.419 40.9442C583.419 50.2012 585.169 57.3133 588.669 62.337C592.168 67.3606 596.853 69.9006 602.723 69.9006C608.594 69.9006 613.279 67.3606 616.778 62.2805C620.278 57.2004 622.028 50.0883 622.028 40.8877C622.028 31.6871 620.278 24.5186 616.835 19.4949C613.335 14.4713 608.65 11.9313 602.78 11.9313H602.723ZM716.461 80.343H700.148V14.0762H675.82L675.086 28.9778C674.748 35.2432 674.24 41.2264 673.562 46.8145C672.885 52.459 671.7 57.7649 670.063 62.7885C668.426 67.8122 666.62 71.5376 664.588 74.0776C662.556 76.5612 660.467 78.311 658.322 79.327C656.177 80.343 653.75 80.7946 651.097 80.7946C649.517 80.7946 646.92 80.6253 643.308 80.2866V64.5948H643.985C645.001 64.7641 645.791 64.8206 646.299 64.8206C648.162 64.8206 649.742 64.5948 650.928 64.1432C652.113 63.6917 653.242 62.7321 654.371 61.2081C655.443 59.684 656.403 57.652 657.08 55.0555C657.814 52.459 658.379 49.1287 658.887 44.9518C659.338 40.7748 659.733 35.9205 660.016 30.4453C660.298 24.9137 660.58 15.0922 660.862 0.867969H716.517V80.343H716.461ZM800 80.343H782.728L777.083 63.1272H747.788L742.144 80.343H725.661L753.828 0.980859H771.89L800 80.343ZM773.019 50.8221L762.52 18.8176L751.965 50.8221H773.019Z" fill="#0D0D0D"></path></svg> 