<?xml version="1.0" encoding="UTF-8"?> <svg xmlns="http://www.w3.org/2000/svg" width="800" height="86" viewBox="0 0 800 86" fill="none"><path d="M755.817 46.9498H778.468C780.322 46.9498 781.73 46.4734 782.683 45.4895C783.812 44.2363 784.382 42.2581 784.382 39.5239C784.382 36.7897 783.812 34.7079 782.683 33.5169C781.772 32.5744 780.363 32.1083 778.468 32.1083H755.817V46.9602V46.9498ZM740.127 15.9412H778.478C786.826 15.9412 792.346 17.1944 795.018 19.7007C798.333 22.8285 800 29.4362 800 39.5239C800 49.6115 798.364 56.1157 795.091 59.2642C792.367 61.8223 786.836 63.1066 778.478 63.1066H755.828V78.3934H740.137V15.9515L740.127 15.9412ZM584.959 78.3831V15.9515H643.393V31.0623H600.629V39.5342H632.301C637.748 39.5342 641.736 41.0464 644.253 44.0913C646.769 47.1362 648.033 51.714 648.033 57.866C648.033 65.4783 646.562 70.9261 643.61 74.1885C641.104 76.9952 637.355 78.4141 632.373 78.4141H584.959V78.3831ZM600.629 53.4954V63.2723H627.878C629.266 63.2723 630.364 62.8788 631.172 62.0916C631.969 61.3045 632.373 60.1652 632.373 58.6531C632.373 56.6853 631.98 55.3182 631.224 54.5518C630.343 53.8372 629.204 53.485 627.816 53.485H600.64L600.629 53.4954ZM506.485 47.3848V62.2366H529.135C530.969 62.2366 532.367 61.7706 533.34 60.8281C534.438 59.7199 534.977 57.7417 534.977 54.9039C534.977 52.0661 534.48 50.1294 533.475 49.0419C532.481 47.9544 531.031 47.3951 529.125 47.3951H506.474L506.485 47.3848ZM490.784 78.3934V15.9515H506.485V31.2383H529.135C537.483 31.2383 543.024 32.5226 545.748 35.0808C549.01 38.1568 550.657 44.7334 550.657 54.8211C550.657 64.9087 548.99 71.5164 545.675 74.6442C543.003 77.1506 537.493 78.4038 529.135 78.4038H490.773L490.784 78.3934ZM559.284 15.9515H574.975V78.3934H559.284V15.9515ZM432.35 31.0623H460.158C461.401 31.0623 462.364 31.3937 463.048 32.0565C463.721 32.6572 464.063 33.7136 464.063 35.2568C464.063 36.7172 463.711 37.7736 463.006 38.4468C462.292 39.12 461.36 39.4514 460.169 39.4514H432.36V31.0623H432.35ZM416.659 15.9515V78.3934H464.063C469.656 78.3934 473.664 77.0677 476.108 74.4371C478.542 71.7857 479.754 67.3529 479.754 61.087C479.754 53.8993 477.403 48.9798 472.68 46.3387C474.119 45.5413 475.341 44.0084 476.367 41.7506C477.382 39.4928 477.889 36.7689 477.889 33.5894C477.889 26.2981 476.211 21.2853 472.877 18.5925C470.629 16.8319 467.066 15.9412 462.199 15.9412H416.659V15.9515ZM432.35 53.4229H459.495C460.976 53.4229 462.136 53.775 462.944 54.4896C463.69 55.2353 464.063 56.6025 464.063 58.591C464.063 61.7188 462.54 63.293 459.506 63.293H432.36V53.4229H432.35ZM296.187 16.0344H311.847V58.9949L310.697 63.8109L310.635 65.5612C310.905 65.5612 311.246 65.178 311.63 64.4116L312.51 62.1538L339.314 16.0447H364.957V78.4038H349.267V35.35L350.478 30.5341L350.551 28.7838C350.261 28.7838 349.971 29.167 349.65 29.9334L348.707 32.1912L321.831 78.3934H296.177V16.0344H296.187ZM239.317 46.9498H261.968C263.822 46.9498 265.231 46.4734 266.183 45.4895C267.312 44.2363 267.882 42.2581 267.882 39.5239C267.882 36.7897 267.312 34.7079 266.183 33.5169C265.272 32.5744 263.863 32.1083 261.968 32.1083H239.317V46.9602V46.9498ZM223.627 15.9412H261.978C270.326 15.9412 275.846 17.1944 278.518 19.7007C281.833 22.8285 283.5 29.4362 283.5 39.5239C283.5 49.6115 281.864 56.1157 278.591 59.2642C275.867 61.8223 270.336 63.1066 261.978 63.1066H239.328V78.3934H223.637V15.9515L223.627 15.9412ZM153.314 78.3831V15.9515H208.195V31.0623H169.015V39.7103H206.424V54.7278H169.015V63.2827H208.195V78.3934H153.314V78.3831ZM94.9419 31.0623H122.75C123.993 31.0623 124.956 31.3937 125.64 32.0565C126.313 32.6572 126.655 33.7136 126.655 35.2568C126.655 36.7172 126.303 37.7736 125.598 38.4468C124.884 39.12 123.952 39.4514 122.761 39.4514H94.9523V31.0623H94.9419ZM79.2512 15.9515V78.3934H126.655C132.248 78.3934 136.256 77.0677 138.7 74.4371C141.134 71.7857 142.346 67.3529 142.346 61.087C142.346 53.8993 139.995 48.9798 135.272 46.3387C136.711 45.5413 137.934 44.0084 138.959 41.7506C139.974 39.4928 140.481 36.7689 140.481 33.5894C140.481 26.2981 138.804 21.2853 135.469 18.5925C133.221 16.8319 129.658 15.9412 124.791 15.9412H79.2512V15.9515ZM94.9419 53.4229H122.087C123.568 53.4229 124.728 53.775 125.536 54.4896C126.282 55.2353 126.655 56.6025 126.655 58.591C126.655 61.7188 125.132 63.293 122.098 63.293H94.9523V53.4229H94.9419ZM22.837 32.1083H50.2725V62.2366H19.6574C20.5481 61.2734 21.2938 58.0317 21.9049 52.5011C22.5263 46.9705 22.8267 40.1764 22.8267 32.1083H22.837ZM7.13592 15.9515C7.13592 34.449 6.78379 46.7944 6.06916 52.9672C5.36489 59.1503 4.27741 62.2366 2.78601 62.2366H0V84.9494H15.7011V82.3187C15.7011 80.9827 15.9393 79.978 16.4261 79.2945C16.9129 78.6938 17.8036 78.4038 19.1085 78.4038H50.8111C52.0125 78.4038 52.8928 78.6938 53.4521 79.2945C53.9389 79.947 54.1874 80.9516 54.1874 82.3187V84.9494H69.8471V62.2366H65.9529V15.9515H7.13592Z" fill="#1A1A18"></path><path fill-rule="evenodd" clip-rule="evenodd" d="M691.428 45.8725L715.166 34.6663C707.958 36.0437 699.051 37.4316 691.428 37.4316C683.806 37.4316 674.899 36.0541 667.69 34.6663L691.428 45.8725ZM691.428 55.8876L708.289 68.3263L691.428 45.8725L674.567 68.3263L691.428 55.8876Z" fill="#1A1A18"></path><path d="M711.024 73.5153C712.432 70.8225 713.748 68.0365 714.939 65.178C716.316 61.8638 717.538 58.4564 718.595 54.935C719.661 51.3722 720.5 47.8405 721.153 44.3502C721.712 41.3364 722.137 38.3018 722.447 35.2776C720.542 32.9887 718.512 30.7723 716.347 28.6284C713.892 26.1945 711.293 23.885 708.528 21.7204C705.773 19.5558 702.976 17.5983 700.139 15.848C697.591 14.2737 695.033 12.8548 692.454 11.5913C689.854 12.8548 687.296 14.2634 684.779 15.8169C681.921 17.5879 679.104 19.5661 676.328 21.7618C673.583 23.9264 670.994 26.2153 668.56 28.6181C666.406 30.7412 664.397 32.9265 662.512 35.1636C662.812 38.2397 663.258 41.3157 663.838 44.402C664.511 47.9648 665.381 51.5379 666.437 55.0904C667.452 58.5289 668.653 61.8845 670.01 65.1573C671.201 68.0262 672.506 70.7915 673.904 73.4739C676.711 74.1057 679.58 74.6028 682.501 74.9653C685.763 75.3589 689.108 75.566 692.526 75.566C695.944 75.566 699.258 75.3589 702.49 74.9757C705.41 74.6235 708.248 74.1368 711.013 73.5257M731.955 33.3615C731.634 37.4422 731.137 41.5539 730.401 45.6966C729.676 49.8291 728.713 53.9615 727.481 58.0939V58.1042C726.269 62.1124 724.829 66.0584 723.193 69.9215C721.526 73.8571 719.703 77.6063 717.725 81.1484C717.238 82.0287 716.451 82.6087 715.591 82.8159C711.863 83.7687 708.041 84.504 704.147 85.0012C700.304 85.488 696.42 85.7365 692.516 85.7365C688.611 85.7365 684.624 85.488 680.719 85.0012C676.97 84.5351 673.242 83.8205 669.534 82.8573C668.519 82.6812 667.649 81.9977 667.172 81.0552C665.194 77.4924 663.371 73.795 661.756 69.9526C660.15 66.1412 658.732 62.2159 657.52 58.1871C657.499 58.1249 657.489 58.0628 657.468 58.011C656.267 53.9511 655.272 49.8498 654.506 45.6966C653.729 41.5228 653.18 37.4007 652.88 33.3408C652.88 33.2476 652.88 33.1544 652.88 33.0612V33.0301C652.88 32.0255 653.253 31.1141 653.864 30.4616C656.339 27.3442 658.99 24.3717 661.797 21.565C664.635 18.7272 667.649 16.0448 670.808 13.5384C670.88 13.4866 670.953 13.4245 671.025 13.383C674.143 10.9284 677.343 8.72241 680.585 6.7546C684.002 4.67286 687.472 2.85004 690.973 1.26543C691.905 0.768295 692.992 0.768295 693.924 1.26543C697.415 2.87075 700.874 4.69357 704.24 6.74424C707.575 8.7742 710.837 11.032 713.996 13.5177C717.186 16.0344 720.21 18.7376 723.058 21.5961C725.938 24.4753 728.63 27.5306 731.147 30.7205C731.748 31.4869 732.007 32.4501 731.934 33.3823L731.955 33.3615Z" fill="#1A1A18"></path><path fill-rule="evenodd" clip-rule="evenodd" d="M713.147 76.7157C716.637 70.3047 719.537 63.407 721.753 56.0432C723.939 48.7313 725.244 41.3675 725.896 34.0658C721.381 28.4731 716.244 23.3361 710.475 18.7894C704.737 14.2738 698.678 10.5763 692.454 7.63497C686.198 10.5556 680.129 14.2738 674.381 18.8205C668.643 23.3464 663.547 28.4317 659.063 33.9312L659.084 33.9519C659.705 41.3882 661.103 48.8141 663.289 56.1779C665.453 63.5002 668.353 70.3565 671.792 76.6742L671.812 76.6535C678.493 78.2796 685.432 79.1703 692.547 79.1703C699.662 79.1703 706.56 78.2899 713.178 76.695L713.157 76.7157H713.147ZM728.641 33.0509C728.019 41.0153 726.704 49.0005 724.322 56.965C721.909 64.9295 718.719 72.3968 714.887 79.2842C707.72 81.1277 700.221 82.1116 692.526 82.1116C684.831 82.1116 677.302 81.1691 670.114 79.2945H670.083C666.271 72.459 663.071 65.0331 660.699 57.0686C658.338 49.1248 656.805 41.0671 656.215 33.0509V33.0198C661.041 26.9299 666.582 21.3372 672.776 16.4591C679.021 11.5188 685.649 7.57283 692.464 4.49683C699.227 7.57283 705.856 11.5395 712.07 16.428C718.294 21.3475 723.835 26.9403 728.641 33.0509Z" fill="#1A1A18"></path></svg> 