<?xml version="1.0" encoding="UTF-8"?> <svg xmlns="http://www.w3.org/2000/svg" width="800" height="323" viewBox="0 0 800 323" fill="none"><path d="M800 0.891113H0V322.679H800V0.891113Z" fill="#00573A"></path><path d="M265.52 111.654H285.855C290.98 111.654 295.404 112.622 299.278 114.559C303.151 116.495 306.19 119.266 308.41 122.857C310.629 126.447 311.732 130.603 311.732 135.311C311.732 140.019 310.629 144.16 308.41 147.765C306.19 151.356 303.151 154.127 299.278 156.063C295.404 158 290.846 158.968 285.855 158.968H265.52V111.669V111.654ZM285.438 151.624C288.894 151.624 291.933 150.939 294.57 149.687C297.192 148.302 299.278 146.365 300.663 144.011C302.048 141.523 302.734 138.752 302.734 135.43C302.734 132.108 302.048 129.337 300.663 126.849C299.278 124.361 297.207 122.425 294.57 121.173C291.948 119.922 288.894 119.237 285.438 119.237H274.369V151.743L285.438 151.609V151.624Z" fill="white"></path><path d="M418.905 119.133H403.278V159.103H394.562V119.133H378.935V111.669H418.905V119.133Z" fill="white"></path><path d="M469.542 131.572C472.581 134.194 474.101 137.933 474.101 142.909C474.101 148.168 472.447 152.175 469.125 154.946C465.803 157.717 461.095 159.102 455.017 159.102H434.682V111.654H443.263V127.698H456.402C462.212 127.698 466.503 129.084 469.542 131.572ZM462.48 149.97C464.283 148.451 465.251 146.097 465.251 143.058C465.251 137.248 461.661 134.477 454.6 134.477H443.263V152.324H454.6C458.056 152.324 460.693 151.49 462.48 149.97Z" fill="white"></path><path d="M551.419 156.615C547.546 154.544 544.507 151.639 542.287 147.9C540.067 144.16 538.965 140.019 538.965 135.445C538.965 130.872 540.067 126.73 542.287 122.991C544.507 119.252 547.546 116.347 551.419 114.276C555.292 112.205 559.717 111.088 564.559 111.088C569.4 111.088 573.691 112.19 577.698 114.276C581.572 116.347 584.611 119.252 586.831 122.991C589.05 126.73 590.153 130.872 590.153 135.445C590.153 140.019 589.05 144.294 586.831 147.9C584.611 151.639 581.572 154.544 577.698 156.615C573.825 158.686 569.4 159.803 564.559 159.803C559.717 159.803 555.292 158.7 551.419 156.615ZM572.991 149.97C575.479 148.585 577.549 146.514 578.935 144.026C580.32 141.404 581.155 138.633 581.155 135.445C581.155 132.257 580.469 129.501 578.935 126.864C577.549 124.242 575.479 122.306 572.991 120.92C570.503 119.535 567.598 118.849 564.41 118.849C561.222 118.849 558.466 119.535 555.829 120.92C553.341 122.306 551.27 124.376 549.885 126.864C548.499 129.486 547.665 132.257 547.665 135.445C547.665 138.633 548.35 141.389 549.885 144.026C551.27 146.648 553.341 148.585 555.829 149.97C558.317 151.356 561.222 152.041 564.41 152.041C567.598 152.041 570.503 151.356 572.991 149.97Z" fill="white"></path><path d="M642.16 138.633C643.68 140.57 644.514 143.058 644.514 145.963C644.514 150.119 642.995 153.292 639.955 155.646C636.916 157.866 632.492 159.102 626.682 159.102H604.276V111.654H625.445C630.704 111.654 634.846 112.756 637.9 114.842C640.805 116.913 642.324 119.967 642.324 123.825C642.324 126.313 641.773 128.384 640.522 130.32C639.27 132.123 637.617 133.508 635.397 134.477C638.302 135.311 640.656 136.697 642.175 138.633H642.16ZM612.842 131.989H624.596C627.501 131.989 629.572 131.438 631.091 130.335C632.611 129.233 633.311 127.564 633.311 125.359C633.311 123.155 632.626 121.486 631.091 120.235C629.572 119.132 627.501 118.432 624.596 118.432H612.842V131.989ZM635.665 145.263C635.665 140.704 632.626 138.35 626.399 138.35H612.842V152.324H626.399C632.626 152.324 635.665 149.97 635.665 145.263Z" fill="white"></path><path d="M669.125 156.615C665.251 154.544 662.212 151.639 659.993 147.9C657.773 144.16 656.67 140.019 656.67 135.445C656.67 130.872 657.773 126.73 659.993 122.991C662.212 119.252 665.251 116.347 669.125 114.276C672.998 112.205 677.423 111.088 682.265 111.088C687.106 111.088 691.397 112.19 695.404 114.276C699.278 116.347 702.317 119.252 704.536 122.991C706.756 126.73 707.859 130.872 707.859 135.445C707.859 140.019 706.756 144.294 704.536 147.9C702.317 151.49 699.278 154.544 695.404 156.615C691.531 158.686 687.106 159.803 682.265 159.803C677.423 159.803 672.998 158.7 669.125 156.615ZM690.697 149.97C693.184 148.585 695.255 146.514 696.641 144.026C698.026 141.404 698.86 138.633 698.86 135.445C698.86 132.257 698.175 129.501 696.641 126.864C695.255 124.242 693.184 122.306 690.697 120.92C688.209 119.535 685.304 118.849 682.116 118.849C678.927 118.849 676.171 119.535 673.534 120.92C671.047 122.306 668.976 124.376 667.59 126.864C666.205 129.486 665.371 132.257 665.371 135.445C665.371 138.633 666.056 141.389 667.59 144.026C668.976 146.648 671.047 148.585 673.534 149.97C676.156 151.356 678.927 152.041 682.116 152.041C685.304 152.041 688.209 151.356 690.697 149.97Z" fill="white"></path><path d="M344.492 111.654C340.484 111.654 337.028 112.339 333.974 113.724C331.069 115.11 328.715 117.181 327.062 119.669C325.542 122.291 324.574 125.479 324.574 128.935C324.574 132.674 325.542 135.847 327.196 138.484C328.998 141.106 331.486 143.043 334.808 144.294L324.708 158.954H333.974L344.492 143.192V138.633H344.075C340.618 138.633 338.13 137.799 336.328 136.011C334.525 134.358 333.557 131.855 333.557 128.816C333.557 125.777 334.525 123.14 336.462 121.486C338.399 119.832 341.17 118.998 344.76 118.998H354.86V158.968H363.441V111.669H344.492V111.654Z" fill="white"></path><path d="M497.341 111.654H488.76V158.954H497.341V111.654Z" fill="white"></path><path d="M511.717 134.626L529.296 111.654H519.196L503.568 132.406V137.933L519.196 159.103H529.982L511.717 134.626Z" fill="white"></path><path d="M265.52 182.477H278.242C281.281 182.477 284.052 183.028 286.54 184.28C288.894 185.531 290.831 187.185 292.067 189.404C293.304 191.624 294.004 194.112 294.004 197.017C294.004 199.922 293.319 202.41 292.067 204.63C290.816 206.849 288.879 208.503 286.54 209.754C284.186 211.006 281.415 211.557 278.242 211.557H265.52V182.507V182.477ZM277.974 206.954C280.045 206.954 281.981 206.537 283.65 205.702C285.319 204.868 286.555 203.766 287.389 202.246C288.224 200.726 288.641 198.924 288.641 196.987C288.641 195.05 288.224 193.248 287.389 191.728C286.555 190.209 285.319 189.106 283.65 188.272C281.996 187.438 280.194 187.021 277.974 187.021H270.913V206.939H277.974V206.954Z" fill="white"></path><path d="M329.832 206.954V211.513H308.112V182.462H329.281V187.021H313.52V194.634H327.494V199.058H313.52V207.088H329.847V206.954H329.832Z" fill="white"></path><path d="M346.711 210.976C344.641 210.291 342.972 209.456 341.736 208.488L343.538 204.332C344.79 205.3 346.16 205.985 347.963 206.686C349.616 207.237 351.419 207.52 353.222 207.52C355.441 207.52 356.961 207.237 358.063 206.417C359.166 205.732 359.717 204.764 359.717 203.646C359.717 202.812 359.434 202.127 358.883 201.576C358.331 201.024 357.497 200.607 356.663 200.324C355.695 200.041 354.443 199.639 352.924 199.356C350.704 198.805 348.916 198.253 347.531 197.836C346.145 197.285 345.043 196.451 344.075 195.348C343.106 194.246 342.555 192.726 342.555 190.79C342.555 189.136 342.972 187.751 343.806 186.365C344.641 185.114 346.026 184.011 347.68 183.177C349.482 182.343 351.553 182.075 354.175 182.075C355.978 182.075 357.631 182.358 359.434 182.76C361.088 183.177 362.622 183.862 363.859 184.697L362.205 188.853C360.953 188.168 359.583 187.602 358.197 187.199C356.812 186.782 355.426 186.648 354.19 186.648C352.119 186.648 350.451 187.065 349.482 187.751C348.38 188.436 347.963 189.404 347.963 190.656C347.963 191.49 348.246 192.175 348.797 192.726C349.348 193.278 350.183 193.695 351.017 193.978C351.985 194.261 353.237 194.663 354.756 195.08C356.976 195.632 358.629 196.049 360.015 196.6C361.4 197.151 362.637 197.985 363.605 199.088C364.574 200.19 365.125 201.71 365.125 203.512C365.125 205.166 364.708 206.551 363.873 207.803C363.039 209.054 361.654 210.157 359.866 210.842C358.063 211.676 355.993 211.944 353.371 211.944C351.017 211.81 348.812 211.527 346.726 210.976H346.711Z" fill="white"></path><path d="M378.518 182.477H383.911V211.527H378.518V182.477Z" fill="white"></path><path d="M419.873 196.586H424.998V208.206C423.479 209.457 421.81 210.277 419.739 210.977C417.803 211.662 415.732 211.945 413.646 211.945C410.741 211.945 407.97 211.26 405.616 210.008C403.263 208.757 401.326 206.969 400.089 204.615C398.704 202.396 398.019 199.774 398.019 197.003C398.019 194.098 398.704 191.61 400.089 189.39C401.475 187.17 403.278 185.383 405.765 183.997C408.119 182.746 410.89 182.061 413.795 182.061C416.283 182.061 418.503 182.478 420.44 183.312C422.376 184.146 424.03 185.249 425.415 186.768L421.959 190.09C419.739 187.871 417.117 186.768 413.929 186.768C411.859 186.768 410.056 187.185 408.536 188.02C406.883 188.854 405.765 190.09 404.797 191.61C403.963 193.129 403.412 194.932 403.412 196.869C403.412 198.805 403.829 200.608 404.797 202.128C405.631 203.647 406.868 204.899 408.536 205.718C410.205 206.537 411.993 207.103 413.929 207.103C416.149 207.103 418.22 206.552 419.873 205.584V196.601V196.586Z" fill="white"></path><path d="M466.22 182.477V211.527H461.795L445.751 191.892V211.527H440.358V182.477H444.782L460.827 202.112V182.477H466.22Z" fill="white"></path><path d="M215.032 127.356C208.983 117.42 200.477 109.718 189.527 104.22C178.577 98.7232 166.034 95.9821 151.896 95.9821H115.322L127.047 111.699H153.147C163.978 111.699 173.497 113.755 181.706 117.882C189.929 122.008 196.261 128.369 200.715 135.803C205.17 143.237 207.404 151.818 207.404 161.576C207.404 171.334 205.17 179.915 200.715 187.349C196.261 194.783 189.914 200.772 181.706 204.898C173.497 209.025 163.963 211.081 153.147 211.081H110.227V111.684L98.6221 95.9672H93.5569V227.14H151.911C166.049 227.14 178.592 224.399 189.542 218.902C200.492 213.405 208.998 205.688 215.047 195.766C221.095 185.829 224.119 174.433 224.119 161.561C224.119 148.69 221.095 137.293 215.047 127.356H215.032Z" fill="white"></path></svg> 