<?xml version="1.0" encoding="UTF-8"?> <svg xmlns="http://www.w3.org/2000/svg" width="800" height="171" viewBox="0 0 800 171" fill="none"><path fill-rule="evenodd" clip-rule="evenodd" d="M365.35 20.8762V77.6283H350.808V24.7369C350.808 24.2864 350.808 23.836 350.615 23.3856C350.487 22.9995 350.229 22.5491 349.843 22.1631C349.457 21.8413 349.071 21.6483 348.685 21.5196C348.235 21.3909 347.784 21.3909 347.205 21.3909H326.422C325.521 21.3909 324.427 21.3909 323.462 21.6483C322.497 21.9057 321.596 22.3561 320.759 23.1926C319.859 24.1578 319.344 25.4446 319.086 26.9246C318.829 28.4045 318.765 30.0775 318.765 31.6861C318.765 33.9382 318.829 35.6755 319.086 37.0267C319.279 38.2493 319.537 39.1501 319.923 39.7936C320.373 40.63 321.145 41.3378 322.111 41.8526C322.947 42.303 324.041 42.6247 325.263 42.6247H338.326C340.256 42.6247 341.736 43.0751 342.765 43.7829C343.473 44.2977 343.988 44.9411 344.374 45.7133C344.696 46.4211 344.824 47.2576 344.824 48.094C344.824 50.4748 343.602 53.3703 341.993 55.6867L327.065 77.3066L326.743 77.757H308.341L309.563 76.0841L325.328 54.6572H319.279C316.577 54.6572 314.132 54.0138 312.073 52.8556C309.885 51.633 308.148 49.8314 306.861 47.6436C305.445 45.2629 304.673 42.5604 304.287 39.7936C303.901 37.0267 303.837 34.1956 303.837 31.4287C303.837 29.241 303.837 26.6672 304.223 24.0291C304.609 21.3266 305.445 18.5597 307.118 16.0503C308.984 13.2191 311.236 11.5462 313.81 10.6453C316.32 9.7445 319.086 9.55146 321.982 9.55146H354.412C355.506 9.55146 356.857 9.68015 358.272 10.0662C359.688 10.4523 361.104 11.2244 362.39 12.447C363.806 13.7982 364.578 15.1495 364.964 16.5651C365.35 17.9806 365.35 19.3962 365.35 20.9405V20.8762ZM468.173 10.4523V35.8042H474.415C474.479 32.1365 475.123 28.4689 476.41 25.0586C477.697 21.584 479.627 18.4311 482.329 15.9216C489.986 8.65063 500.217 8.65063 508.389 8.65063C512.443 8.65063 516.947 8.65063 521.451 9.55146C526.019 10.4523 530.524 12.2539 534.384 15.9216C537.73 19.0745 539.661 23.0639 540.819 27.8254C541.913 32.4582 542.234 37.7345 542.234 43.5256C542.234 48.0297 542.106 53.1129 541.076 57.9388C540.047 62.829 538.052 67.5262 534.32 71.1295C526.727 78.4005 516.303 78.4005 508.26 78.4005C504.271 78.4005 499.702 78.4005 495.198 77.4997C490.565 76.5988 486.061 74.7972 482.265 71.1295C479.562 68.4914 477.568 65.1454 476.345 61.4778C474.994 57.7458 474.415 53.6277 474.415 49.8314H468.173V77.6283H453.632V9.42277H468.173V10.4523ZM490.437 32.0722C489.729 34.9033 489.343 38.6353 489.343 43.5256V43.976C489.343 48.5445 489.793 52.0834 490.437 54.8503C491.145 57.6171 492.11 59.6118 493.268 61.1561C495.134 63.5368 497.193 64.8881 499.574 65.5959C502.019 66.3036 504.979 66.4323 508.325 66.4323C511.928 66.4323 514.823 66.3036 517.204 65.5315C519.521 64.8237 521.515 63.4725 523.253 61.1561C524.54 59.4831 525.505 57.4241 526.213 54.6572C526.92 51.7617 527.306 48.1584 527.306 43.5256C527.306 38.571 526.92 34.9033 526.213 32.0722C525.505 29.3053 524.54 27.375 523.317 25.8307C521.322 23.3213 519.006 22.0344 516.496 21.3909C513.923 20.6831 511.156 20.6831 508.325 20.6831C505.493 20.6831 502.727 20.6831 500.089 21.3909C497.579 22.0344 495.198 23.3213 493.204 25.8307C492.045 27.3106 491.016 29.3053 490.372 32.0722H490.437ZM586.053 63.6012V9.42277H600.595V63.6012H621.121C621.507 63.6012 621.958 63.6012 622.344 63.5368C622.344 63.5368 622.923 63.2794 623.116 63.0221C623.502 62.443 623.502 61.5421 623.502 60.8343V60.5126V9.42277H638.044V68.234C638.044 69.0061 638.044 70.1 637.722 71.3869C637.4 72.6738 636.821 74.0894 635.663 75.1832C634.441 76.4058 632.961 76.9849 631.609 77.3066C630.258 77.6283 629.1 77.6283 628.457 77.6283H558.321C557.291 77.6283 556.069 77.564 554.846 77.2423C553.559 76.9205 552.337 76.2771 551.178 75.1832C549.956 74.025 549.377 72.8668 549.055 71.6443C548.733 70.4861 548.733 69.3279 548.733 68.234V9.42277H563.275V60.4483V60.77C563.275 61.4778 563.275 62.3786 563.661 62.9577C564.112 63.6012 564.948 63.6012 565.785 63.6012H586.182H586.053ZM742.926 24.2864V24.4151L732.631 49.96H755.023L744.792 24.4151V24.2864C744.535 23.5786 744.02 22.3561 743.891 22.3561C743.763 22.3561 743.312 23.5786 742.99 24.2864H742.926ZM721.113 77.6283H706.443L707.022 76.2128L731.987 16.7581C733.21 13.7982 734.561 11.8035 736.427 10.5166C738.293 9.22974 740.61 8.71498 743.827 8.71498C747.044 8.71498 749.168 9.22974 751.098 10.5166C752.964 11.8035 754.379 13.7982 755.666 16.8224L780.632 76.2771L781.211 77.6927H765.833L765.575 77.0492L759.012 60.963H728.577L722.143 77.0492L721.885 77.6927H721.177L721.113 77.6283ZM661.015 77.6283H647.503V9.42277H662.045V77.6283H661.015ZM683.471 48.1584L703.418 76.0197L704.577 77.6283H686.174L685.852 77.1779L667.964 51.7617C665.777 48.6731 664.361 46.035 664.039 43.3325C663.717 40.5657 664.618 37.8632 667.063 34.5816L685.852 9.80884L686.174 9.42277H704.19L702.968 11.0957L682.699 38.1849C679.418 42.5604 679.675 43.0108 682.313 46.5498C682.635 47.0002 683.021 47.5149 683.471 48.1584ZM266.581 23.9004C266.259 24.2864 266.066 24.8655 265.938 25.1229L249.079 63.6012H284.018L267.16 25.2516C267.16 25.2516 267.031 24.9942 266.967 24.8012C266.774 24.3508 266.645 23.7717 266.581 23.7717C266.517 23.7717 266.581 23.7717 266.581 23.9004ZM228.103 63.6012H232.993L253.969 16.3077C254.87 14.2486 256.221 12.3826 258.28 10.9671C260.275 9.55146 262.978 8.71498 266.517 8.71498C269.605 8.71498 272.179 9.35843 274.302 10.581C276.426 11.8679 277.97 13.7339 279.064 16.3077L299.976 63.6012H305.896V77.6283H227.009V63.6012H228.038H228.103ZM409.684 23.9004C409.362 24.2864 409.169 24.8655 409.041 25.1229L392.182 63.6012H427.121L410.263 25.2516C410.263 25.2516 410.134 24.9299 410.07 24.8012C409.877 24.3508 409.748 23.7717 409.684 23.7717C409.62 23.7717 409.684 23.7717 409.684 23.9004ZM371.206 63.6012H376.096L397.072 16.3077C397.973 14.2486 399.324 12.3826 401.319 10.9671C403.314 9.55146 406.016 8.71498 409.62 8.71498C412.708 8.71498 415.282 9.35843 417.341 10.581C419.464 11.8679 421.009 13.7339 422.167 16.3077L443.079 63.6012H448.999V77.6283H370.112V63.6012H371.141H371.206Z" fill="#231F20"></path><path fill-rule="evenodd" clip-rule="evenodd" d="M270.957 116.042H270.764H244.511H244.253C243.481 116.042 242.709 116.042 242.259 116.556C242.259 116.556 242.001 117.007 241.873 117.329C241.744 117.843 241.68 118.422 241.68 118.937V170.156H227.138V111.924C227.138 110.637 227.202 109.414 227.588 108.192C227.974 106.905 228.682 105.747 229.905 104.524C231.256 103.237 232.478 102.594 233.83 102.272C235.116 101.95 236.468 101.886 238.076 101.886H277.198C278.549 101.886 279.965 101.886 281.316 102.272C282.732 102.594 284.083 103.301 285.37 104.588C286.464 105.682 287.171 106.969 287.558 108.192C287.944 109.414 288.008 110.701 288.008 111.924V170.156H273.466V118.937V118.68C273.466 117.972 273.466 117.007 273.016 116.556C272.565 115.977 271.6 115.977 270.957 115.977V116.042ZM305.059 170.22H289.231L289.81 168.805L315.419 108.127C316.127 106.454 317.285 104.717 319.215 103.43C321.081 102.143 323.784 101.242 327.451 101.242C331.119 101.242 333.821 102.143 335.687 103.43C337.618 104.717 338.776 106.454 339.484 108.127L365.029 168.805L365.608 170.22H349.136L348.878 169.577L327.966 118.809V118.615C327.837 118.165 327.644 117.586 327.451 117.586C327.258 117.586 327.065 118.101 326.872 118.551V118.809H326.744L305.831 169.577L305.574 170.22H304.866H305.059ZM424.805 114.176V170.22H410.263V169.191L410.649 117.908C410.649 117.586 410.649 117.2 410.649 116.943C410.456 117.264 410.07 117.843 409.684 118.487L409.234 119.195L391.281 164.107C390.059 167.196 386.649 169.384 382.724 170.349C380.407 170.928 377.898 171.057 375.581 170.671C373.201 170.284 370.884 169.448 369.018 167.904C366.573 165.909 364.964 162.82 364.964 158.574V102.015H379.506V103.044L379.249 153.426V153.748C379.249 154.649 379.249 155.421 379.378 155.421C379.378 155.421 379.699 154.906 379.957 154.391L380.214 153.941L398.617 109.35C400.225 105.489 403.571 102.915 407.368 101.757C409.62 101.114 412.065 100.921 414.317 101.307C416.633 101.693 418.821 102.658 420.623 104.138C423.132 106.326 424.869 109.672 424.869 114.24L424.805 114.176ZM481.943 102.015H495.456V170.22H480.914V142.166H448.548V170.22H434.006V102.015H448.548V128.074H480.914V102.015H481.943ZM536.379 116.042V170.22H521.837V116.042H499.123V102.015H560.187V116.042H536.315H536.379ZM677.037 157.222V170.22H649.176C645.958 170.22 642.098 170.027 638.301 168.869C634.441 167.775 630.58 165.716 627.363 162.113C624.081 158.445 622.344 154.005 621.443 149.565C620.542 145.19 620.414 140.75 620.414 137.082C620.414 132.321 620.607 127.431 621.572 122.927C622.537 118.358 624.21 114.111 627.105 110.701C630.58 106.647 634.955 104.46 639.138 103.301C643.256 102.143 647.117 102.015 649.497 102.015H677.101V116.042H655.353C651.75 116.042 648.404 116.17 645.572 116.943C642.87 117.715 640.554 119.13 638.816 121.704C637.851 123.12 637.015 124.471 636.371 126.659C635.728 128.911 635.277 131.999 635.277 136.825C635.277 145.769 636.757 148.021 637.915 149.823L638.173 150.273C639.717 152.654 641.905 154.134 644.607 154.97C647.374 155.871 650.784 156.129 654.581 156.129H676.973V157.158L677.037 157.222ZM624.274 103.494L594.74 169.641L594.483 170.284H578.718L579.362 168.805L586.182 153.555L562.246 103.494L561.538 102.015H577.624L577.882 102.594L593.71 136.503L608.832 102.594L609.089 102.015H624.982L624.339 103.43L624.274 103.494Z" fill="#231F20"></path><path d="M785.329 0.736328C787.774 0.736328 790.219 1.37978 792.536 2.60233C794.852 3.88923 796.718 5.69088 798.005 8.0073C799.292 10.3881 800 12.8332 800 15.3426C800 17.8521 799.356 20.2972 798.069 22.6136C796.783 24.93 794.981 26.796 792.665 28.0829C790.348 29.3698 787.903 30.0132 785.329 30.0132C782.755 30.0132 780.375 29.3698 777.994 28.0829C775.677 26.796 773.876 24.9943 772.525 22.6136C771.238 20.2972 770.594 17.8521 770.594 15.3426C770.594 12.8332 771.238 10.3237 772.589 8.0073C773.94 5.62654 775.742 3.82488 778.058 2.60233C780.439 1.31543 782.82 0.736328 785.265 0.736328L785.329 0.736328ZM785.329 3.18143C783.27 3.18143 781.275 3.69619 779.281 4.79006C777.35 5.81957 775.806 7.36385 774.712 9.2942C773.618 11.2889 773.039 13.2836 773.039 15.407C773.039 17.5303 773.618 19.525 774.648 21.5197C775.742 23.4501 777.222 24.9943 779.216 26.0239C781.147 27.1177 783.206 27.6325 785.329 27.6325C787.453 27.6325 789.447 27.0534 791.442 26.0239C793.372 24.93 794.917 23.4501 795.946 21.5197C797.04 19.5894 797.555 17.5303 797.555 15.407C797.555 13.2836 796.976 11.2245 795.882 9.2942C794.788 7.36385 793.244 5.81957 791.313 4.79006C789.383 3.76054 787.324 3.18143 785.329 3.18143ZM778.895 23.5144V7.74992H784.3C786.166 7.74992 787.517 7.87861 788.353 8.20033C789.19 8.52206 789.833 8.97247 790.348 9.74461C790.863 10.4524 791.056 11.2245 791.056 12.061C791.056 13.2192 790.67 14.2488 789.833 15.0852C788.997 15.9217 787.903 16.4365 786.552 16.5008C787.131 16.7582 787.581 17.0156 787.903 17.3373C788.546 17.9808 789.319 19.0103 790.219 20.4902L792.15 23.5788H789.061L787.646 21.0693C786.552 19.139 785.651 17.8521 784.943 17.4016C784.493 17.0156 783.785 16.8869 782.884 16.8869H781.404V23.5788H778.83L778.895 23.5144ZM781.468 14.6348H784.557C786.037 14.6348 787.067 14.4418 787.581 13.9914C788.096 13.541 788.418 12.9619 788.418 12.2541C788.418 11.8036 788.289 11.3532 788.032 11.0315C787.774 10.6454 787.388 10.3881 786.938 10.195C786.487 10.002 785.651 9.93764 784.364 9.93764H781.468V14.6992V14.6348Z" fill="#231F20"></path><path d="M188.723 0.736328H0V77.6285L66.7256 109.35V133.673L0 102.015V170.221H202.751V102.015L72.3236 133.737V109.415L202.751 77.6928V17.0156C202.944 6.33433 198.247 0.929363 188.659 0.736328H188.723Z" fill="#D71920"></path></svg> 