<?xml version="1.0" encoding="UTF-8"?> <svg xmlns="http://www.w3.org/2000/svg" width="804" height="199" viewBox="0 0 804 199" fill="none"><path fill-rule="evenodd" clip-rule="evenodd" d="M379.156 185.565H379.613C381.733 185.565 383.299 185.163 384.31 184.36C385.322 183.556 385.821 182.378 385.821 180.826C385.821 179.274 385.308 178.097 384.31 177.293C383.299 176.489 381.733 176.087 379.613 176.087H379.156V174.161H379.793C382.329 174.161 384.338 174.729 385.848 175.852C387.359 176.974 388.107 178.637 388.107 180.826C388.107 183.015 387.359 184.678 385.848 185.801C384.338 186.923 382.329 187.491 379.793 187.491H379.156V185.551V185.565ZM372.491 185.565H379.156V187.505H372.491V196.013C372.491 196.484 372.214 196.719 371.66 196.719H371.008C370.482 196.719 370.219 196.484 370.219 196.013V174.923C370.219 174.425 370.482 174.175 371.008 174.175H379.156V176.101H372.491V185.565Z" fill="#0D0D0D"></path><path fill-rule="evenodd" clip-rule="evenodd" d="M401.658 185.246H401.936C406.079 185.246 408.143 183.722 408.143 180.674C408.143 177.625 406.079 176.101 401.936 176.101H401.658V174.175H402.116C404.638 174.175 406.661 174.716 408.171 175.783C409.681 176.863 410.429 178.485 410.429 180.674C410.429 182.42 409.958 183.791 409.002 184.817C408.046 185.842 406.716 186.535 404.97 186.895L410.79 195.722C410.859 195.846 410.901 195.971 410.901 196.068C410.901 196.248 410.831 196.387 410.679 196.525C410.54 196.65 410.36 196.719 410.166 196.719H409.737C409.321 196.719 409.03 196.636 408.85 196.456C408.67 196.29 408.503 196.082 408.365 195.846L402.628 187.186H401.672V185.26L401.658 185.246ZM395.174 185.246H401.658V187.172H395.174V195.999C395.174 196.47 394.897 196.705 394.342 196.705H393.691C393.165 196.705 392.901 196.47 392.901 195.999V174.91C392.901 174.411 393.165 174.161 393.691 174.161H401.658V176.087H395.174V185.232V185.246Z" fill="#0D0D0D"></path><path fill-rule="evenodd" clip-rule="evenodd" d="M431.2 194.78C431.754 194.78 432.031 195.029 432.031 195.528V196.013C432.031 196.484 431.754 196.72 431.2 196.72H416.817C416.29 196.72 416.027 196.484 416.027 196.013V174.924C416.027 174.425 416.29 174.176 416.817 174.176H430.909C431.463 174.176 431.74 174.425 431.74 174.924V175.409C431.74 175.88 431.463 176.115 430.909 176.115H418.3V184.332H430.119C430.673 184.332 430.95 184.582 430.95 185.066V185.551C430.95 186.023 430.673 186.258 430.119 186.258H418.3V194.794H431.2V194.78Z" fill="#0D0D0D"></path><path fill-rule="evenodd" clip-rule="evenodd" d="M447.702 191.301C447.176 191.301 446.802 191.08 446.58 190.65L439.68 178.54V195.999C439.68 196.47 439.416 196.705 438.89 196.705H438.239C437.684 196.705 437.407 196.47 437.407 195.999V174.91C437.407 174.411 437.684 174.161 438.239 174.161H439.139C439.375 174.161 439.555 174.217 439.666 174.328C439.777 174.439 439.846 174.522 439.901 174.591L448.104 188.821L456.335 174.591C456.335 174.591 456.459 174.439 456.57 174.328C456.681 174.217 456.847 174.161 457.097 174.161H457.97C458.524 174.161 458.801 174.411 458.801 174.91V195.999C458.801 196.47 458.524 196.705 457.97 196.705H457.319C456.792 196.705 456.529 196.47 456.529 195.999V178.54L449.628 190.65C449.407 191.08 449.033 191.301 448.506 191.301H447.716H447.702Z" fill="#0D0D0D"></path><path fill-rule="evenodd" clip-rule="evenodd" d="M467.877 195.999C467.877 196.47 467.614 196.705 467.087 196.705H466.394C465.868 196.705 465.605 196.47 465.605 195.999V174.868C465.605 174.397 465.868 174.161 466.394 174.161H467.087C467.614 174.161 467.877 174.397 467.877 174.868V195.999Z" fill="#0D0D0D"></path><path fill-rule="evenodd" clip-rule="evenodd" d="M490.781 174.91C490.781 174.411 491.058 174.161 491.613 174.161H492.264C492.79 174.161 493.054 174.411 493.054 174.91V187.99C493.054 191.121 492.25 193.421 490.629 194.862C489.008 196.317 486.721 197.038 483.77 197.038C482.301 197.038 480.985 196.858 479.835 196.511C478.685 196.151 477.701 195.611 476.911 194.862C476.121 194.114 475.512 193.186 475.082 192.05C474.666 190.913 474.459 189.556 474.459 187.99V174.91C474.459 174.411 474.722 174.161 475.248 174.161H475.9C476.454 174.161 476.731 174.411 476.731 174.91V188.087C476.731 190.512 477.368 192.285 478.629 193.421C479.89 194.544 481.608 195.112 483.784 195.112C485.959 195.112 487.664 194.544 488.911 193.421C490.158 192.299 490.795 190.512 490.795 188.087V174.91H490.781Z" fill="#0D0D0D"></path><path fill-rule="evenodd" clip-rule="evenodd" d="M509.917 191.301C509.39 191.301 509.016 191.08 508.794 190.65L501.894 178.54V195.999C501.894 196.47 501.631 196.705 501.104 196.705H500.453C499.899 196.705 499.622 196.47 499.622 195.999V174.91C499.622 174.411 499.899 174.161 500.453 174.161H501.354C501.589 174.161 501.769 174.217 501.88 174.328C501.991 174.439 502.074 174.522 502.116 174.591L510.319 188.821L518.563 174.591C518.563 174.591 518.688 174.439 518.799 174.328C518.909 174.217 519.076 174.161 519.325 174.161H520.198C520.752 174.161 521.029 174.411 521.029 174.91V195.999C521.029 196.47 520.752 196.705 520.198 196.705H519.547C519.02 196.705 518.757 196.47 518.757 195.999V178.54L511.857 190.65C511.635 191.08 511.261 191.301 510.734 191.301H509.944H509.917Z" fill="#0D0D0D"></path><path fill-rule="evenodd" clip-rule="evenodd" d="M545.693 175.769H545.679V173.843H545.693C547.093 173.843 548.367 174.023 549.517 174.397C550.668 174.758 551.665 175.312 552.497 176.06C553.328 176.795 553.979 177.723 554.45 178.831C554.921 179.94 555.185 181.242 555.226 182.739C555.282 183.709 555.296 184.609 555.296 185.441C555.296 186.272 555.268 187.173 555.226 188.143C555.102 191.219 554.229 193.464 552.594 194.905L554.908 197.801C554.908 197.801 554.949 197.884 554.977 197.925C555.005 197.967 555.005 198.036 555.005 198.147C555.005 198.313 554.935 198.466 554.783 198.604C554.644 198.729 554.464 198.798 554.27 198.798H553.48C553.217 198.798 552.982 198.701 552.788 198.521C552.594 198.341 552.441 198.188 552.316 198.05L550.723 196.082C549.282 196.706 547.591 197.011 545.665 197.011H545.652V195.071H545.665C546.705 195.071 547.647 194.932 548.52 194.669C549.379 194.406 550.141 193.976 550.778 193.394C551.416 192.812 551.928 192.078 552.303 191.191C552.677 190.304 552.885 189.224 552.94 187.963C552.968 187.492 552.968 187.048 552.968 186.619V184.221C552.968 183.82 552.968 183.362 552.94 182.864C552.898 181.617 552.677 180.55 552.303 179.649C551.928 178.748 551.416 178.014 550.765 177.432C550.113 176.85 549.351 176.42 548.492 176.157C547.633 175.894 546.691 175.755 545.679 175.755L545.693 175.769ZM545.679 175.769C544.668 175.769 543.739 175.908 542.88 176.171C542.021 176.434 541.259 176.864 540.608 177.446C539.957 178.028 539.444 178.762 539.07 179.663C538.696 180.563 538.488 181.644 538.446 182.877C538.419 183.376 538.405 183.82 538.391 184.235C538.391 184.637 538.377 185.039 538.377 185.427C538.377 185.815 538.377 186.217 538.391 186.632C538.391 187.048 538.419 187.492 538.446 187.976C538.488 189.251 538.71 190.318 539.07 191.205C539.444 192.106 539.943 192.826 540.594 193.408C541.232 193.99 541.98 194.42 542.853 194.683C543.712 194.946 544.654 195.085 545.693 195.085V197.025C542.686 197.025 540.386 196.304 538.751 194.863C537.13 193.422 536.257 191.177 536.174 188.129C536.132 187.159 536.105 186.258 536.105 185.427C536.105 184.596 536.132 183.681 536.174 182.725C536.216 181.229 536.479 179.912 536.95 178.818C537.421 177.709 538.072 176.795 538.904 176.046C539.735 175.298 540.719 174.744 541.869 174.384C543.005 174.023 544.28 173.843 545.693 173.829V175.755L545.679 175.769Z" fill="#0D0D0D"></path><path fill-rule="evenodd" clip-rule="evenodd" d="M577.161 174.91C577.161 174.411 577.438 174.161 577.992 174.161H578.643C579.17 174.161 579.433 174.411 579.433 174.91V187.99C579.433 191.121 578.629 193.421 577.008 194.862C575.387 196.317 573.101 197.038 570.149 197.038C568.681 197.038 567.364 196.858 566.214 196.511C565.064 196.151 564.08 195.611 563.291 194.862C562.501 194.114 561.891 193.186 561.462 192.05C561.046 190.913 560.824 189.556 560.824 187.99V174.91C560.824 174.411 561.087 174.161 561.614 174.161H562.265C562.82 174.161 563.097 174.411 563.097 174.91V188.087C563.097 190.512 563.734 192.285 564.995 193.421C566.256 194.544 567.974 195.112 570.149 195.112C572.325 195.112 574.029 194.544 575.276 193.421C576.523 192.299 577.161 190.512 577.161 188.087V174.91Z" fill="#0D0D0D"></path><path fill-rule="evenodd" clip-rule="evenodd" d="M593.927 189.14H599.455L593.927 176.448V174.161H594.536C594.827 174.161 595.049 174.217 595.201 174.328C595.354 174.439 595.479 174.591 595.576 174.813L604.721 195.722C604.762 195.846 604.79 195.971 604.79 196.068C604.79 196.248 604.721 196.387 604.582 196.525C604.43 196.65 604.263 196.719 604.069 196.719H603.349C603.113 196.719 602.933 196.664 602.808 196.539C602.684 196.428 602.601 196.317 602.559 196.234L600.314 191.08H593.913V189.14H593.927ZM588.398 189.14H593.927V191.08H587.539L585.294 196.234C585.239 196.317 585.156 196.428 585.045 196.539C584.92 196.65 584.74 196.719 584.504 196.719H583.784C583.59 196.719 583.424 196.65 583.271 196.525C583.133 196.401 583.05 196.248 583.05 196.068C583.05 195.971 583.077 195.846 583.119 195.722L592.264 174.813C592.361 174.605 592.486 174.439 592.638 174.328C592.79 174.217 593.012 174.161 593.303 174.161H593.913V176.448L588.384 189.14H588.398Z" fill="#0D0D0D"></path><path fill-rule="evenodd" clip-rule="evenodd" d="M611.344 194.78H623.814C624.369 194.78 624.646 195.029 624.646 195.528V196.013C624.646 196.484 624.369 196.72 623.814 196.72H609.861C609.335 196.72 609.072 196.484 609.072 196.013V174.882C609.072 174.411 609.335 174.176 609.861 174.176H610.554C611.081 174.176 611.344 174.411 611.344 174.882V194.794V194.78Z" fill="#0D0D0D"></path><path fill-rule="evenodd" clip-rule="evenodd" d="M631.131 195.999C631.131 196.47 630.867 196.705 630.341 196.705H629.648C629.121 196.705 628.858 196.47 628.858 195.999V174.868C628.858 174.397 629.121 174.161 629.648 174.161H630.341C630.867 174.161 631.131 174.397 631.131 174.868V195.999Z" fill="#0D0D0D"></path><path fill-rule="evenodd" clip-rule="evenodd" d="M652.857 174.161C653.411 174.161 653.688 174.411 653.688 174.91V175.395C653.688 175.866 653.411 176.101 652.857 176.101H645.735V196.013C645.735 196.484 645.458 196.719 644.903 196.719H644.252C643.726 196.719 643.462 196.484 643.462 196.013V176.101H636.313C635.786 176.101 635.523 175.866 635.523 175.395V174.91C635.523 174.411 635.786 174.161 636.313 174.161H652.857Z" fill="#0D0D0D"></path><path fill-rule="evenodd" clip-rule="evenodd" d="M666.075 186.009L673.918 174.633C674.14 174.314 674.417 174.148 674.749 174.148H675.47C675.664 174.148 675.83 174.217 675.969 174.342C676.107 174.467 676.191 174.619 676.191 174.785C676.191 174.896 676.135 175.035 676.038 175.201L667.226 188.087V195.985C667.226 196.456 666.948 196.692 666.394 196.692H665.715C665.189 196.692 664.925 196.456 664.925 195.985V188.087L656.113 175.201C656.016 175.035 655.974 174.896 655.974 174.785C655.974 174.619 656.044 174.467 656.182 174.342C656.335 174.217 656.501 174.148 656.695 174.148H657.415C657.748 174.148 658.025 174.314 658.247 174.633L666.089 186.009H666.075Z" fill="#0D0D0D"></path><path fill-rule="evenodd" clip-rule="evenodd" d="M258.732 46.9202H330.188V58.1991H272.214V84.9831H316.568V96.1927H272.214V131.969H330.188V143.179H258.732V46.9202Z" fill="#0D0D0D"></path><path fill-rule="evenodd" clip-rule="evenodd" d="M394.481 84.9834H447.938C448.783 88.0317 449.213 91.3849 449.213 95.0568C449.213 101.541 447.786 107.749 444.917 113.652C442.049 119.555 438.197 124.667 433.361 128.991C428.512 133.314 422.706 136.75 415.93 139.327C409.155 141.905 402.005 143.193 394.467 143.193C384.726 143.193 375.678 141.101 367.323 136.916C358.968 132.732 352.289 126.94 347.301 119.527C342.312 112.114 339.804 103.966 339.804 95.0568C339.804 86.1473 342.215 78.3463 347.023 70.9609C351.845 63.5756 358.441 57.7283 366.824 53.4052C375.207 49.082 384.421 46.9343 394.453 46.9343C406.245 46.9343 416.886 49.8441 426.378 55.6637L418.327 64.7256C411.302 60.2501 403.349 58.0193 394.467 58.0193C387.04 58.0193 380.195 59.6404 373.946 62.8828C367.697 66.1251 362.75 70.5868 359.12 76.2817C355.476 81.9627 353.661 88.2257 353.661 95.0707C353.661 99.9896 354.7 104.728 356.778 109.273C358.857 113.818 361.683 117.767 365.244 121.12C368.805 124.473 373.142 127.162 378.228 129.171C383.327 131.18 388.731 132.191 394.453 132.191C401.423 132.191 407.908 130.75 413.88 127.854C419.852 124.972 424.701 120.968 428.415 115.841C432.128 110.714 434.262 104.978 434.816 98.6178C434.969 97.8142 435.038 97.0105 435.038 96.2069H394.453V84.9972L394.481 84.9834Z" fill="#0D0D0D"></path><path fill-rule="evenodd" clip-rule="evenodd" d="M514.351 132.163C521.972 132.163 528.927 130.514 535.204 127.189C541.481 123.877 546.372 119.388 549.892 113.735C553.397 108.081 555.157 101.846 555.157 95.0425C555.157 88.2391 553.37 81.9484 549.809 76.2813C546.248 70.6141 541.342 66.1524 535.093 62.8962C528.844 59.6262 521.93 57.9911 514.351 57.9911V46.92C522.235 46.92 529.62 48.2364 536.521 50.8829C543.421 53.5294 549.227 57.0489 553.952 61.4552C558.663 65.8614 562.376 70.9882 565.05 76.8217C567.738 82.6551 569.083 88.738 569.083 95.0425C569.083 101.984 567.586 108.483 564.607 114.538C561.628 120.607 557.623 125.706 552.594 129.849C547.578 133.992 541.73 137.248 535.08 139.618C528.429 141.987 521.514 143.179 514.337 143.179V132.177L514.351 132.163ZM473.544 95.0425C473.544 101.666 475.29 107.804 478.782 113.471C482.274 119.138 487.151 123.669 493.428 127.064C499.705 130.459 506.674 132.163 514.365 132.163V143.165C504.166 143.165 494.869 140.976 486.472 136.583C478.061 132.205 471.494 126.344 466.782 119C462.071 111.656 459.702 103.675 459.702 95.0425C459.702 88.1976 461.185 81.7683 464.15 75.7409C467.115 69.7273 471.092 64.6144 476.08 60.4298C481.082 56.2453 486.888 52.9475 493.553 50.5226C500.204 48.1117 507.145 46.8923 514.365 46.8923V57.9634C506.73 57.9634 499.788 59.6123 493.553 62.8962C487.303 66.1801 482.412 70.6557 478.865 76.3228C475.332 81.99 473.558 88.2114 473.558 95.0148L473.544 95.0425Z" fill="#0D0D0D"></path><path d="M598.236 46.9202H584.754V143.179H598.236V46.9202Z" fill="#0D0D0D"></path><path fill-rule="evenodd" clip-rule="evenodd" d="M614.184 126.33L622.54 118.003C628.415 122.797 634.567 126.33 641.024 128.602C647.481 130.889 653.758 132.025 659.882 132.025C667.96 132.067 674.708 130.459 680.098 127.189C685.488 123.919 688.19 119.804 688.19 114.843C688.19 112.335 687.359 110.188 685.71 108.4C684.061 106.613 681.83 105.199 679.045 104.174C676.26 103.149 673.059 102.276 669.443 101.583C665.826 100.89 662.03 100.267 658.039 99.6985C654.049 99.1443 650.044 98.5207 646.04 97.8556C642.022 97.1905 638.211 96.276 634.595 95.1398C630.978 94.0036 627.777 92.6041 624.992 90.9414C622.207 89.2925 619.99 87.0617 618.327 84.2627C616.665 81.4638 615.847 78.2076 615.847 74.4941C615.847 68.5498 617.593 63.4508 621.071 59.2246C624.563 54.9985 629.121 51.8809 634.775 49.8994C640.414 47.9041 646.83 46.8926 654.007 46.8511C660.727 46.8511 667.545 47.821 674.445 49.7747C681.345 51.7284 687.761 54.5967 693.677 58.3933L685.918 66.9841C681.401 64.0743 676.329 61.8296 670.718 60.2361C665.092 58.6427 659.577 57.8529 654.146 57.8529C646.774 57.8529 640.774 59.2108 636.146 61.9127C631.532 64.6147 629.218 68.5637 629.218 73.7598C629.218 76.3093 630.05 78.4847 631.699 80.2999C633.361 82.115 635.578 83.5145 638.363 84.526C641.149 85.5375 644.349 86.3827 647.966 87.0755C651.582 87.7683 655.379 88.3919 659.369 88.9184C663.36 89.4588 667.351 90.0546 671.341 90.692C675.332 91.3432 679.128 92.2577 682.745 93.4494C686.361 94.641 689.562 96.082 692.347 97.7725C695.132 99.4768 697.349 101.777 699.012 104.687C700.661 107.597 701.492 110.977 701.492 114.829C701.492 120.192 699.677 125.055 696.033 129.392C692.389 133.729 687.428 137.11 681.124 139.535C674.819 141.946 667.836 143.151 660.159 143.151C643.851 143.068 628.512 137.443 614.157 126.302L614.184 126.33Z" fill="#0D0D0D"></path><path fill-rule="evenodd" clip-rule="evenodd" d="M710.485 46.9202H804V58.1298H763.942V143.179H750.46V58.1298H710.485V46.9202Z" fill="#0D0D0D"></path><path d="M258.69 160.666H801.34" stroke="#0D0D0D" stroke-width="3.51" stroke-miterlimit="10"></path><path d="M78.7405 143.207L107.534 113.596H224.424" stroke="#CABB9F" stroke-width="5.15" stroke-miterlimit="10"></path><path d="M85.1835 58.8508L126.53 95.348" stroke="#CABB9F" stroke-width="5.15" stroke-miterlimit="10"></path><path d="M46.6909 95.4586L189.839 96.5533L96.9195 3.63379L4 96.5533L96.9195 189.473L143.282 141.53" stroke="#0D0D0D" stroke-width="5.15" stroke-miterlimit="10"></path></svg> 