<?xml version="1.0" encoding="UTF-8"?> <svg xmlns="http://www.w3.org/2000/svg" width="800" height="238" viewBox="0 0 800 238" fill="none"><path fill-rule="evenodd" clip-rule="evenodd" d="M684.182 114.618V98.5468H626.746V82.3404C626.746 75.7467 634.001 72.3823 639.754 72.3372H688.688C691.602 66.9751 694.501 61.598 697.415 56.251H639.754C626.791 56.3111 610.81 63.866 610.675 78.6155V132.702C610.81 147.466 626.807 154.991 639.754 155.066H697.4L688.838 138.995H639.769C633.986 138.995 626.761 135.526 626.761 128.992V114.603H684.197L684.182 114.618ZM338.456 216.167H342.451L342.932 211.15H357.561V216.167H361.557L362.188 207.035H359.214V190.273H343.037V192.841C343.037 198.699 342.451 203.565 340.709 207.035H338.456V216.167ZM345.621 207.035C346.852 204.466 347.558 200.952 347.558 197.152V194.388H354.437V207.05H345.621V207.035ZM366.183 211.15H377.012C381.758 211.15 384.717 209.017 384.717 205.488C384.717 202.529 382.945 200.982 380.407 200.261C382.179 199.465 383.771 198.128 383.771 195.47C383.771 192.27 381.037 190.243 376.892 190.243H366.168V211.12L366.183 211.15ZM370.884 207.35V202.123H376.066C378.634 202.123 379.866 203.145 379.866 204.647C379.866 206.269 378.634 207.335 376.306 207.335H370.884V207.35ZM370.884 198.894V193.953H375.871C378.003 193.953 378.92 194.974 378.92 196.326C378.92 197.828 377.808 198.894 375.795 198.894H370.884ZM399.076 211.631C402.906 211.631 405.64 210.084 407.622 207.711L404.814 205.217C403.147 206.84 401.494 207.711 399.166 207.711C396.087 207.711 393.669 205.818 393.158 202.409H408.509C408.554 202.168 408.584 201.387 408.584 201.057C408.584 195.049 405.219 189.822 398.581 189.822C392.603 189.822 388.382 194.719 388.382 200.696C388.382 207.215 393.053 211.616 399.106 211.616L399.076 211.631ZM393.098 199.255C393.534 196.01 395.592 193.757 398.52 193.757C401.69 193.757 403.507 196.176 403.822 199.255H393.098ZM413.39 217.489H418.181V207.921C419.638 209.859 421.816 211.601 425.256 211.601C430.242 211.601 434.989 207.681 434.989 200.772C434.989 193.862 430.197 189.852 425.256 189.852C421.891 189.852 419.713 191.594 418.181 193.772V190.288H413.39V217.504V217.489ZM424.144 207.44C420.9 207.44 418.046 204.797 418.046 200.757C418.046 196.716 420.9 193.998 424.144 193.998C427.389 193.998 430.122 196.641 430.122 200.681C430.122 204.722 427.434 207.44 424.144 207.44ZM439.885 211.15H444.676V202.724H453.883V211.15H458.675V190.273H453.883V198.729H444.676V190.273H439.885V211.15ZM464.683 211.15H474.205C479.102 211.15 482.151 208.507 482.151 204.196C482.151 199.645 478.546 197.587 473.845 197.587H469.459V190.273H464.668V211.15H464.683ZM469.474 207.275V201.297H473.514C475.963 201.297 477.389 202.319 477.389 204.181C477.389 206.194 476.008 207.26 473.589 207.26H469.474V207.275ZM485.335 211.15H490.126V190.273H485.335V211.15ZM505.702 211.631C509.532 211.631 512.265 210.084 514.248 207.711L511.439 205.217C509.772 206.84 508.12 207.711 505.777 207.711C502.698 207.711 500.28 205.818 499.769 202.409H515.119C515.164 202.168 515.194 201.387 515.194 201.057C515.194 195.049 511.83 189.822 505.191 189.822C499.213 189.822 494.993 194.719 494.993 200.696C494.993 207.215 499.664 211.616 505.702 211.616V211.631ZM499.724 199.255C500.159 196.01 502.217 193.757 505.146 193.757C508.315 193.757 510.133 196.176 510.448 199.255H499.739H499.724ZM536.342 211.165H541.164V194.403H547.892V190.288H529.628V194.403H536.357V211.165H536.342ZM561.26 211.646C565.09 211.646 567.824 210.099 569.806 207.726L566.998 205.232C565.33 206.855 563.678 207.726 561.35 207.726C558.271 207.726 555.853 205.833 555.342 202.424H570.692C570.738 202.183 570.768 201.402 570.768 201.072C570.768 195.064 567.403 189.837 560.764 189.837C554.787 189.837 550.566 194.734 550.566 200.712C550.566 207.23 555.237 211.631 561.29 211.631L561.26 211.646ZM555.282 199.27C555.718 196.025 557.775 193.772 560.704 193.772C563.874 193.772 565.691 196.191 566.006 199.27H555.282ZM573.757 211.18H578.863L583.97 203.866L589.107 211.18H594.334L586.629 200.456L594.018 190.288H588.912L584.09 197.167L579.269 190.288H574.042L581.432 200.576L573.757 211.18ZM598.509 211.18H603.301V202.754H612.508V211.18H617.299V190.303H612.508V198.759H603.301V190.303H598.509V211.18ZM633.235 211.661C639.679 211.661 644.425 206.719 644.425 200.787C644.425 194.854 639.724 189.867 633.31 189.867C626.897 189.867 622.165 194.809 622.165 200.787C622.165 206.764 626.867 211.661 633.235 211.661ZM633.31 207.515C629.6 207.515 626.942 204.436 626.942 200.787C626.942 197.137 629.39 194.058 633.235 194.058C637.08 194.058 639.648 197.107 639.648 200.787C639.648 204.466 637.2 207.515 633.325 207.515H633.31ZM649.126 211.436C653.752 211.436 656.606 209.573 656.606 194.433H663.124V211.195H667.916V190.318H652.13C652.13 206.224 650.463 207.395 648.06 207.395C647.744 207.395 646.993 207.32 646.678 207.23L646.317 211.15C647.023 211.27 648.375 211.421 649.126 211.421V211.436ZM683.852 211.676C690.295 211.676 695.042 206.734 695.042 200.802C695.042 194.869 690.34 189.882 683.927 189.882C677.513 189.882 672.767 194.824 672.767 200.802C672.767 206.78 677.468 211.676 683.837 211.676H683.852ZM683.927 207.53C680.217 207.53 677.558 204.451 677.558 200.802C677.558 197.152 680.007 194.073 683.852 194.073C687.697 194.073 690.265 197.122 690.265 200.802C690.265 204.481 687.817 207.53 683.942 207.53H683.927ZM699.908 211.21H704.699V194.448H714.702V190.333H699.908V211.21ZM718.487 211.21H722.993L732.921 197.287V211.21H737.548V190.333H733.042C729.722 195.004 726.433 199.66 723.159 204.331V190.333H718.487V211.21ZM743.555 211.21H748.061L757.99 197.287V211.21H762.616V190.333H758.11C754.79 195.004 751.501 199.66 748.227 204.331V190.333H743.555V211.21ZM559.503 155.156V72.3372H598.329V56.251H505.101V72.3372H543.417V155.081H559.488L559.503 155.156ZM761.174 155.156V72.3372H800V56.251H706.772V72.3372H745.088V155.081H761.159L761.174 155.156ZM490.397 72.4123V56.3261H429.491C417.415 56.3261 400.413 61.4629 400.413 76.1973V94.8369C400.413 99.6432 405.49 103.744 409.815 104.84L475.512 121.692C476.939 122.053 478.591 123.224 478.591 124.846V129.067C478.591 135.616 471.742 139.07 465.929 139.07H400.413V155.141H465.929C478.636 155.066 493.986 148.352 493.986 133.693V117.126C493.986 112.32 489.51 108.129 485.08 107.003L419.398 90.2859C417.881 89.9104 416.319 88.6787 416.319 86.9965V81.4843C416.319 74.9206 424.054 72.4123 429.491 72.4123H490.397ZM374.534 114.693V98.6219H317.098V82.4155C317.098 75.8218 324.353 72.4574 330.105 72.4123H379.04C381.954 67.0502 384.852 61.6731 387.766 56.3261H330.105C317.143 56.3862 301.162 63.9411 301.027 78.6906V132.777C301.162 147.541 317.158 155.066 330.105 155.141H387.751L379.19 139.07H330.12C324.353 139.07 317.113 135.601 317.113 129.067V114.678H374.549L374.534 114.693Z" fill="#494948"></path><path fill-rule="evenodd" clip-rule="evenodd" d="M236.667 237.465V0.797852H0V237.465H236.667ZM58.9377 57.2723H177.729L161.748 86.7112H58.9377V57.2723ZM153.608 104.795V134.234H58.9377V104.795H153.608ZM58.9377 151.537H162.034L177.714 180.975H58.9377V151.537ZM207.228 30.2367V208.026H29.4388V30.2367H207.228Z" fill="url(#paint0_linear_135_3353)"></path><defs><linearGradient id="paint0_linear_135_3353" x1="336.939" y1="292.828" x2="77.6374" y2="86.8013" gradientUnits="userSpaceOnUse"><stop stop-color="#006549"></stop><stop offset="1" stop-color="#32A934"></stop></linearGradient></defs></svg> 