<?xml version="1.0" encoding="UTF-8"?> <svg xmlns="http://www.w3.org/2000/svg" width="804" height="383" viewBox="0 0 804 383" fill="none"><path fill-rule="evenodd" clip-rule="evenodd" d="M517.563 113.408C514.003 116.264 508.691 120.401 494.569 127.761C481.654 134.491 456.729 134.05 451.248 130.081C444.528 125.22 438.627 115.224 443.279 103.78C448.549 90.8129 465.233 76.3655 470.157 72.3967C481.35 63.3881 488.091 49.4028 489.214 42.6831C490.359 35.8374 489.76 28.8447 487.629 23.448C484.521 15.5629 478.862 10.4076 476.573 8.64368C463.648 -1.35186 429.787 -4.11323 417.681 15.0169C414.794 19.5737 418.773 23.658 418.29 26.3249C417.796 29.0232 411.57 34.9765 411.696 36.3939C411.812 37.7063 413.04 39.7852 414.51 38.9243C418.447 36.6039 423.151 32.9501 427.75 30.9551C430.028 29.9682 432.475 30.6612 434.27 30.1572C435.394 29.8527 448.424 13.547 457.579 15.4789C460.015 15.9933 464.446 15.7204 468.1 19.4897C469.874 21.3271 472.184 24.9809 472.961 28.6348C473.433 30.8292 472.887 33.202 472.814 34.63C472.625 38.4413 471.165 42.7566 469.622 45.9904C467.365 50.7152 464.12 53.3716 464.141 53.2876C464.141 53.2771 458.787 59.2828 455.406 61.4772C444.276 68.7114 430.354 79.9039 418.122 88.5555C411.843 92.9863 404.525 100.042 400.913 108.841C398.593 114.479 398.425 121.188 398.981 127.278C400.913 148.371 428.306 162.787 449.925 162.136C454.324 162 462.997 161.884 471.375 158.997C480.29 155.92 489.015 149.873 496.669 143.426C510.612 131.677 516.891 113.282 517.563 113.397V113.408Z" fill="#008136"></path><path fill-rule="evenodd" clip-rule="evenodd" d="M521.227 88.4507C521.763 83.7994 523.169 102.625 519.316 106.552C505.089 121.052 479.88 130.365 464.656 130.995C458.986 131.236 453.18 130.428 448.917 127.11C449.421 129.199 465.349 125.083 469.223 124.59C484.017 122.7 519.673 101.901 521.217 88.4402L521.227 88.4507Z" fill="#008136"></path><path fill-rule="evenodd" clip-rule="evenodd" d="M519.757 73.0895C519.537 68.4907 521.143 85.9304 517.762 90.5397C505.278 107.549 485.077 120.757 469.223 124.6C463.322 126.028 455.5 129.031 450.481 126.731C451.363 128.642 455.784 126.553 459.763 125.251C468.719 122.332 481.98 111.78 493.235 102.52C509.111 89.4582 519.894 76.1448 519.747 73.0895H519.757Z" fill="#008136"></path><path fill-rule="evenodd" clip-rule="evenodd" d="M514.444 46.4419C513.594 42.809 520.482 61.9811 517.584 67.3674C506.895 87.2955 487.555 105.796 471.585 116.663C465.643 120.705 454.629 125.262 449.095 125.85C450.271 126.973 461.999 118.773 465.968 115.77C474.893 109.019 479.954 104.315 490.411 91.2853C505.163 72.9006 515.001 48.8463 514.444 46.4314V46.4419Z" fill="#008136"></path><path fill-rule="evenodd" clip-rule="evenodd" d="M499.955 26.3246C498.118 22.8388 513.562 41.7694 511.82 48.0481C505.394 71.2731 486.159 94.183 471.743 109.533C466.378 115.245 455.679 122.805 449.872 124.873C451.426 125.713 461.957 114.227 465.464 110.1C473.349 100.829 477.591 94.6765 485.529 78.5807C496.721 55.8703 501.173 28.6345 499.945 26.3246H499.955Z" fill="#008136"></path><path fill-rule="evenodd" clip-rule="evenodd" d="M264.987 113.408C268.546 116.264 273.859 120.401 287.98 127.761C300.895 134.491 325.821 134.05 331.301 130.081C338.021 125.22 343.922 115.224 339.271 103.78C333.989 90.8129 317.316 76.3655 312.392 72.3967C301.199 63.3881 294.459 49.4028 293.335 42.6831C292.191 35.8374 292.789 28.8447 294.921 23.448C298.028 15.5629 303.688 10.4076 305.977 8.64368C318.902 -1.35186 352.762 -4.11323 364.868 15.0169C367.756 19.5737 363.776 23.658 364.259 26.3249C364.753 29.0232 370.979 34.9765 370.853 36.3939C370.738 37.7063 369.509 39.7852 368.039 38.9243C364.102 36.6039 359.398 32.9501 354.799 30.9551C352.521 29.9682 350.075 30.6612 348.279 30.1572C347.156 29.8527 334.126 13.547 324.97 15.4789C322.534 15.9933 318.093 15.7204 314.45 19.4897C312.675 21.3271 310.365 24.9809 309.588 28.6348C309.116 30.8292 309.662 33.202 309.735 34.63C309.924 38.4413 311.384 42.7566 312.927 45.9904C315.185 50.7152 318.429 53.3716 318.408 53.2876C318.408 53.2771 323.763 59.2828 327.144 61.4772C338.273 68.7114 352.196 79.9039 364.427 88.5555C370.706 92.9863 378.024 100.042 381.636 108.841C383.957 114.479 384.125 121.188 383.568 127.278C381.636 148.371 354.243 162.787 332.624 162.136C328.225 162 319.553 161.884 311.174 158.997C302.26 155.92 293.535 149.873 285.881 143.426C271.937 131.677 265.658 113.282 264.987 113.397V113.408Z" fill="#008136"></path><path fill-rule="evenodd" clip-rule="evenodd" d="M261.333 88.4507C260.797 83.7994 259.39 102.625 263.244 106.552C277.47 121.052 302.68 130.365 317.904 130.995C323.574 131.236 329.38 130.428 333.643 127.11C333.139 129.199 317.211 125.083 313.337 124.59C298.543 122.7 262.887 101.901 261.343 88.4402L261.333 88.4507Z" fill="#008136"></path><path fill-rule="evenodd" clip-rule="evenodd" d="M262.792 73.0895C263.013 68.4907 261.406 85.9304 264.787 90.5397C277.271 107.549 297.472 120.757 313.326 124.6C319.227 126.028 327.049 129.031 332.068 126.731C331.186 128.642 326.766 126.553 322.786 125.251C313.83 122.332 300.569 111.78 289.314 102.52C273.439 89.4582 262.656 76.1448 262.803 73.0895H262.792Z" fill="#008136"></path><path fill-rule="evenodd" clip-rule="evenodd" d="M268.115 46.4419C268.966 42.809 262.078 61.9811 264.976 67.3674C275.665 87.2955 295.005 105.796 310.974 116.663C316.917 120.705 327.931 125.262 333.464 125.85C332.288 126.973 320.56 118.773 316.592 115.77C307.667 109.019 302.606 104.315 292.149 91.2853C277.397 72.9006 267.559 48.8463 268.115 46.4314V46.4419Z" fill="#008136"></path><path fill-rule="evenodd" clip-rule="evenodd" d="M282.605 26.3246C284.442 22.8388 268.997 41.7694 270.74 48.0481C277.166 71.2731 296.401 94.183 310.817 109.533C316.182 115.245 326.881 122.805 332.687 124.873C331.133 125.713 320.602 114.227 317.096 110.1C309.21 100.829 304.969 94.6765 297.031 78.5807C285.839 55.8703 281.387 28.6345 282.615 26.3246H282.605Z" fill="#008136"></path><path fill-rule="evenodd" clip-rule="evenodd" d="M450.072 285.873V275.121C467.522 275.121 484.972 263.414 484.972 240C484.972 216.555 467.522 204.775 450.072 204.743V193.929C473.612 193.929 497.152 209.289 497.152 240C497.152 270.712 473.612 285.894 450.072 285.862V285.873ZM589.001 284.466H576.822V244.242H526.456V284.466H514.276V195.388H526.456V233.333H576.822V195.388H589.001V284.466ZM687.76 284.466H675.58V212.492L621.917 284.466H609.738V195.388H621.917V267.362L675.58 195.388H687.76V284.466ZM773.352 284.466H761.173V206.297C745.003 206.297 715.909 201.289 715.909 225.354C715.909 244.694 735.218 243.266 749.329 243.266L719.374 284.466H705.378L729.905 252.715C714.04 252.715 703.73 239.738 703.73 224.703C703.73 188.637 749.592 195.388 773.352 195.388V284.466ZM450.072 193.939V204.754C432.622 204.722 415.171 216.45 415.171 240.011C415.171 263.572 432.622 275.132 450.072 275.132V285.883C426.532 285.852 402.992 270.533 402.992 240.021C402.992 209.51 426.532 193.95 450.072 193.95V193.939ZM222.841 287.007V275.142C240.659 274.985 258.477 263.225 258.477 240.168C258.477 217.112 240.659 204.733 222.841 204.743V193.089C246.78 193.551 270.656 212.439 270.656 240.336C270.656 268.234 246.339 286.461 222.841 287.007ZM385.71 284.466H373.53V208.743L342.095 284.466H331.564L300.128 208.743V284.466H287.949V195.388H306.711L336.835 268.181L366.958 195.388H385.72V284.466H385.71ZM222.841 193.089V204.743C205.024 204.743 187.206 216.629 187.206 240.494C187.206 264.359 205.024 275.3 222.841 275.142V287.007C209.486 287.322 196.404 281.61 188.193 267.856L188.077 285.085L175.688 284.98V195.399H187.206V210.707C196.446 198.191 209.654 192.847 222.841 193.099V193.089ZM107.704 286.576V275.016C125.563 275.09 143.423 263.624 143.423 240.494C143.423 217.363 125.563 204.838 107.704 204.817V192.826C121.122 192.438 134.404 197.834 143.098 210.843L143.423 195.367H154.952V284.445H143.423V267.835C134.236 280.844 120.975 286.566 107.704 286.555V286.576ZM50.9118 206.297H16.1794V284.466H4V195.388H50.9118V206.297ZM107.704 192.837V204.827C89.844 204.806 71.9844 216.66 71.9844 240.336C71.9844 264.013 89.844 274.953 107.704 275.027V286.587C83.7648 286.566 59.8049 267.845 59.8049 239.36C59.8049 212.355 83.9748 193.54 107.704 192.847V192.837Z" fill="#008136"></path><path fill-rule="evenodd" clip-rule="evenodd" d="M50.9118 206.297H16.1794V284.466H4V195.388H50.9118V206.297ZM154.941 284.466H143.423V267.856C117.678 304.32 59.8049 283.615 59.8049 239.36C59.8049 195.104 119.054 174.851 143.098 210.864L143.423 195.388H154.952V284.466H154.941ZM143.423 240.494C143.423 192.942 71.9844 192.963 71.9844 240.336C71.9844 287.71 143.423 286.755 143.423 240.494ZM270.667 240.336C270.667 282.555 210.851 305.801 188.203 267.856L188.088 285.085L175.699 284.98V195.398H187.217V210.707C213.224 175.46 270.667 197.078 270.667 240.347V240.336ZM258.487 240.168C258.487 193.005 187.217 192.753 187.217 240.494C187.217 288.235 258.487 286.282 258.487 240.168ZM385.72 284.466H373.541V208.743L342.105 284.466H331.574L300.139 208.743V284.466H287.959V195.388H306.722L336.845 268.181L366.968 195.388H385.731V284.466H385.72ZM497.152 240.011C497.152 301.297 403.003 301.034 403.003 240.011C403.003 178.988 497.152 178.589 497.152 240.011ZM484.972 240.011C484.972 193.12 415.182 192.879 415.182 240.011C415.182 287.143 484.972 286.828 484.972 240.011ZM589.001 284.466H576.822V244.242H526.456V284.466H514.276V195.388H526.456V233.333H576.822V195.388H589.001V284.466ZM687.76 284.466H675.58V212.492L621.917 284.466H609.738V195.388H621.917V267.362L675.58 195.388H687.76V284.466ZM773.352 284.466H761.173V206.297C745.003 206.297 715.909 201.289 715.909 225.354C715.909 244.694 735.218 243.266 749.329 243.266L719.374 284.466H705.378L729.905 252.715C714.04 252.715 703.73 239.738 703.73 224.703C703.73 188.637 749.592 195.388 773.352 195.388V284.466Z" stroke="#008136" stroke-width="6.46" stroke-miterlimit="22.93"></path><path fill-rule="evenodd" clip-rule="evenodd" d="M76.1947 333.341H76.5937C80.195 333.341 83.3764 334.002 86.1167 335.325C88.8571 336.648 90.957 338.528 92.4375 340.963C93.9179 343.399 94.6423 346.171 94.6423 349.279C94.6423 353.993 93.0359 357.71 89.8126 360.43C86.5892 363.149 82.1269 364.503 76.4257 364.503H76.2052V356.461H76.6042C79.2186 356.461 81.2135 355.841 82.5994 354.613C83.9748 353.384 84.6573 351.631 84.6573 349.342C84.6573 347.053 83.9538 345.079 82.5679 343.63C81.182 342.181 79.2711 341.436 76.8247 341.383H76.2052V333.341H76.1947ZM67.7426 364.503V381.408H57.8416V333.341H76.1947V341.383H67.7426V356.461H76.1947V364.503H67.7426Z" fill="url(#paint0_radial_135_2747)"></path><path fill-rule="evenodd" clip-rule="evenodd" d="M178.155 333.341H178.197C183.878 333.341 188.256 334.601 191.332 337.142C194.419 339.672 195.952 343.252 195.952 347.883C195.952 351.159 195.238 353.899 193.821 356.083C192.403 358.277 190.261 360.031 187.374 361.322L197.769 380.946V381.408H187.133L178.145 363.873V355.789H178.229C180.717 355.789 182.649 355.159 184.004 353.899C185.369 352.639 186.051 350.896 186.051 348.67C186.051 346.444 185.4 344.638 184.109 343.336C182.828 342.045 180.854 341.383 178.187 341.383H178.145V333.341H178.155ZM178.134 363.831H170.249V381.408H160.348V333.341H178.155V341.383H170.249V355.778H178.155V363.863L178.134 363.821V363.831Z" fill="url(#paint1_radial_135_2747)"></path><path fill-rule="evenodd" clip-rule="evenodd" d="M291.319 360.514H272.305V373.417H294.616V381.397H262.404V333.341H294.553V341.383H272.305V352.807H291.319V360.514Z" fill="url(#paint2_radial_135_2747)"></path><path fill-rule="evenodd" clip-rule="evenodd" d="M372.281 333.341L384.628 368.199L396.902 333.341H409.911V381.397H399.968V368.262L400.966 345.583L387.999 381.397H381.185L368.26 345.615L369.247 368.262V381.397H359.346V333.341H372.281Z" fill="url(#paint3_radial_135_2747)"></path><path d="M487.996 333.341H478.106V381.408H487.996V333.341Z" fill="url(#paint4_radial_135_2747)"></path><path fill-rule="evenodd" clip-rule="evenodd" d="M592.456 333.341V365.007C592.456 370.268 590.807 374.425 587.521 377.491C584.235 380.547 579.741 382.08 574.04 382.08C568.338 382.08 563.971 380.589 560.663 377.617C557.366 374.656 555.686 370.562 555.613 365.375V333.341H565.514V365.06C565.514 368.21 566.27 370.499 567.782 371.948C569.294 373.386 571.373 374.11 574.04 374.11C579.604 374.11 582.429 371.181 582.523 365.333V333.351H592.456V333.341Z" fill="url(#paint5_radial_135_2747)"></path><path fill-rule="evenodd" clip-rule="evenodd" d="M672.431 333.341L684.778 368.199L697.052 333.341H710.061V381.397H700.118V368.262L701.115 345.583L688.148 381.397H681.334L668.409 345.615L669.396 368.262V381.397H659.495V333.341H672.431Z" fill="url(#paint6_radial_135_2747)"></path><path fill-rule="evenodd" clip-rule="evenodd" d="M57.8416 119.644V100.714H62.7448L68.4041 115.434L74.0738 100.714H78.9666V119.644H75.6067V104.819L69.9055 119.644H66.9026L61.2119 104.819V119.644H57.8416Z" fill="#008136"></path><path fill-rule="evenodd" clip-rule="evenodd" d="M91.965 120.085C91.839 120.085 91.7235 120.085 91.608 120.085V117.439C91.7235 117.439 91.8495 117.439 91.965 117.439C93.1409 117.439 94.2014 117.135 95.1463 116.536C96.0913 115.938 96.5848 115.077 96.6373 113.975H100.113C99.8501 115.927 98.9682 117.429 97.4667 118.489C95.9653 119.55 94.1279 120.075 91.965 120.075V120.085ZM91.608 100.283C94.2959 100.283 96.4483 101.155 98.0547 102.866C99.6716 104.588 100.47 107.034 100.47 110.174V110.982H91.608V108.347H96.9208C96.6478 106.53 96.0283 105.165 95.0833 104.263C94.1384 103.36 92.9834 102.908 91.608 102.908V100.283ZM91.608 120.075C88.9936 120.001 86.8727 119.13 85.2558 117.471C83.5654 115.728 82.7254 113.303 82.7254 110.184C82.7254 107.066 83.5444 104.672 85.1823 102.919C86.8097 101.165 88.9516 100.294 91.5975 100.294H91.6185V102.919H91.5975C90.2536 102.919 89.0986 103.37 88.1432 104.263C87.1772 105.165 86.5682 106.53 86.3057 108.357H91.6185V110.993H86.2322C86.3792 113.177 86.9777 114.804 88.0487 115.864C89.0251 116.841 90.2221 117.366 91.6185 117.439V120.085L91.608 120.075Z" fill="#008136"></path><path fill-rule="evenodd" clip-rule="evenodd" d="M112.313 100.714C114.969 100.714 117.111 101.564 118.749 103.276C120.377 104.998 121.196 107.36 121.196 110.394C121.196 113.429 120.377 115.791 118.749 117.503C117.111 119.214 114.969 120.075 112.313 120.075V117.44C113.867 117.44 115.158 116.841 116.177 115.655C117.195 114.458 117.71 112.704 117.71 110.384C117.71 108.063 117.195 106.31 116.177 105.124C115.158 103.937 113.867 103.339 112.313 103.339V100.703V100.714ZM112.313 93.6056C112.964 93.5322 113.667 93.4902 114.402 93.4902C115.82 93.4902 116.712 93.4167 117.069 93.2697C117.437 93.1227 117.615 92.8077 117.615 92.3247H120.975C120.975 93.5741 120.818 94.4666 120.503 95.0126C120.188 95.5586 119.579 95.9785 118.686 96.2725C117.783 96.556 116.292 96.703 114.182 96.703C113.52 96.703 112.901 96.7345 112.324 96.7975V93.6056H112.313ZM106.213 104.231C106.822 103.139 107.693 102.278 108.817 101.648C109.951 101.029 111.116 100.714 112.313 100.714V103.349C110.759 103.349 109.468 103.948 108.449 105.134C107.431 106.321 106.916 108.084 106.916 110.394C106.916 112.704 107.431 114.468 108.449 115.665C109.468 116.852 110.759 117.45 112.313 117.45V120.085C106.391 120.085 103.43 116.001 103.43 107.832C103.43 102.929 104.249 99.3069 105.866 96.9865C107.2 95.0861 109.352 93.9521 112.313 93.6161V96.808C110.014 97.0705 108.47 97.858 107.683 99.1599C106.706 100.798 106.213 102.488 106.213 104.242V104.231Z" fill="#008136"></path><path fill-rule="evenodd" clip-rule="evenodd" d="M133.218 120.085C133.092 120.085 132.976 120.085 132.861 120.085V117.439C132.976 117.439 133.102 117.439 133.218 117.439C134.393 117.439 135.454 117.135 136.399 116.536C137.344 115.938 137.837 115.077 137.89 113.975H141.365C141.103 115.927 140.221 117.429 138.719 118.489C137.218 119.55 135.38 120.075 133.218 120.075V120.085ZM132.861 100.283C135.548 100.283 137.701 101.155 139.307 102.866C140.924 104.588 141.722 107.034 141.722 110.174V110.982H132.861V108.347H138.173C137.9 106.53 137.281 105.165 136.336 104.263C135.391 103.36 134.236 102.908 132.861 102.908V100.283ZM132.861 120.075C130.246 120.001 128.125 119.13 126.508 117.471C124.818 115.728 123.978 113.303 123.978 110.184C123.978 107.066 124.797 104.672 126.435 102.919C128.062 101.165 130.204 100.294 132.85 100.294H132.871V102.919H132.85C131.506 102.919 130.351 103.37 129.396 104.263C128.43 105.165 127.821 106.53 127.558 108.357H132.871V110.993H127.485C127.632 113.177 128.23 114.804 129.301 115.864C130.278 116.841 131.475 117.366 132.871 117.439V120.085L132.861 120.075Z" fill="#008136"></path><path fill-rule="evenodd" clip-rule="evenodd" d="M146.951 100.714H161.388V119.634H158.038V103.349H150.332V113.208C150.332 115.907 149.901 117.681 149.051 118.532C148.2 119.382 147.003 119.802 145.46 119.802C144.547 119.802 143.791 119.739 143.192 119.623V116.915C143.833 117.093 144.463 117.188 145.071 117.188C145.806 117.188 146.31 116.925 146.573 116.4C146.835 115.875 146.961 114.836 146.961 113.282V100.714H146.951Z" fill="#008136"></path><path fill-rule="evenodd" clip-rule="evenodd" d="M174.019 108.095C176.465 108.106 178.376 108.62 179.73 109.649C181.116 110.689 181.799 112.096 181.799 113.86C181.799 115.623 181.106 117.051 179.73 118.08C178.365 119.099 176.465 119.624 174.019 119.634V117.009C176.885 116.957 178.323 115.907 178.323 113.86C178.323 111.812 176.885 110.773 174.019 110.72V108.095ZM169.714 108.095H174.019V110.72H173.798H169.714V117.02H174.019V119.645H173.935H166.333V100.725H169.703V108.106L169.714 108.095Z" fill="#008136"></path><path fill-rule="evenodd" clip-rule="evenodd" d="M185.442 119.644V100.714H188.823V108.568H197.433V100.714H200.792V119.644H197.433V111.203H188.823V119.644H185.442Z" fill="#008136"></path><path fill-rule="evenodd" clip-rule="evenodd" d="M217.749 114.668V110.468H215.45C214.526 110.468 213.696 110.52 212.94 110.615V108.148C213.906 108.053 214.967 108.001 216.101 108.001H217.749C217.749 106.646 217.676 105.659 217.539 105.05C217.392 104.431 216.993 103.927 216.342 103.528C215.681 103.118 214.641 102.919 213.224 102.919C213.129 102.919 213.035 102.919 212.951 102.919V100.294C213.098 100.294 213.255 100.294 213.402 100.294C215.828 100.294 217.718 100.777 219.072 101.743C220.426 102.709 221.109 104.588 221.109 107.413V119.655H217.749V117.713C216.437 118.931 214.83 119.687 212.94 119.97V117.419C213.749 117.324 214.536 117.093 215.303 116.715C216.342 116.211 217.151 115.539 217.749 114.678V114.668ZM212.94 110.615C209.738 111.024 208.132 112.305 208.132 114.447C208.132 115.413 208.489 116.148 209.202 116.673C209.916 117.188 210.872 117.45 212.09 117.45C212.373 117.45 212.657 117.429 212.94 117.398V119.949C212.363 120.033 211.764 120.075 211.124 120.075C209.244 120.075 207.701 119.571 206.483 118.553C205.276 117.534 204.667 116.222 204.667 114.615C204.667 110.856 207.428 108.694 212.93 108.127V110.594L212.94 110.615ZM212.94 100.294V102.919C210.126 102.982 208.678 104.053 208.583 106.121H205.234C205.475 102.352 208.048 100.409 212.951 100.294H212.94Z" fill="#008136"></path><path fill-rule="evenodd" clip-rule="evenodd" d="M233.204 100.714H240.922V119.634H237.551V112.253H234.559C234.065 112.253 233.614 112.327 233.215 112.463V109.618C233.351 109.618 233.477 109.618 233.624 109.618H237.562V103.339H233.215V100.704L233.204 100.714ZM232.175 100.714H233.204V103.349H232.7C230.139 103.349 228.868 104.347 228.868 106.342C228.868 108.442 230.317 109.523 233.215 109.618V112.463C232.858 112.589 232.532 112.768 232.249 112.999C231.64 113.492 231.052 114.321 230.475 115.487L228.427 119.645H224.553L227.125 114.899C227.955 113.303 229.068 112.285 230.443 111.833C227.073 111.151 225.393 109.292 225.393 106.237C225.393 104.536 225.991 103.192 227.199 102.205C228.396 101.218 230.065 100.725 232.186 100.725L232.175 100.714Z" fill="#008136"></path><path fill-rule="evenodd" clip-rule="evenodd" d="M561.23 100.21H561.377C563.645 100.21 565.472 101.103 566.89 102.888C568.307 104.672 569.01 107.129 569.01 110.258C569.01 113.387 568.338 115.697 566.994 117.419C565.64 119.151 563.845 120.002 561.598 120.002C561.472 120.002 561.346 120.002 561.23 120.002V117.366C564.097 117.251 565.535 114.878 565.535 110.258C565.535 107.791 565.136 105.943 564.349 104.704C563.603 103.528 562.553 102.909 561.23 102.846V100.221V100.21ZM556.925 101.659C557.933 100.714 559.372 100.231 561.23 100.21V102.835C561.157 102.835 561.083 102.835 561.01 102.835C559.193 102.835 557.828 103.455 556.925 104.693V114.311C557.135 115.14 557.629 115.865 558.385 116.463C559.141 117.072 560.012 117.377 561.01 117.377C561.083 117.377 561.157 117.377 561.23 117.377V120.012C559.319 119.939 557.881 119.288 556.925 118.038V126.847H553.576V118.038C552.61 119.277 551.172 119.939 549.261 120.012V117.377C549.334 117.377 549.397 117.377 549.471 117.377C550.699 117.377 551.686 116.978 552.442 116.18C553.198 115.392 553.576 114.763 553.576 114.311V104.693C552.673 103.455 551.308 102.835 549.471 102.835C549.397 102.835 549.324 102.835 549.261 102.835V100.21C551.119 100.231 552.558 100.714 553.576 101.659V93.417H556.925V101.659ZM549.25 120.002C549.124 120.002 549.009 120.002 548.883 120.002C546.646 120.002 544.851 119.141 543.497 117.419C542.153 115.697 541.47 113.314 541.47 110.258C541.47 107.203 542.174 104.672 543.591 102.888C545.009 101.103 546.846 100.21 549.103 100.21H549.24V102.835C547.917 102.898 546.877 103.518 546.121 104.693C545.323 105.932 544.924 107.791 544.924 110.248C544.924 114.878 546.363 117.251 549.24 117.356V119.991L549.25 120.002Z" fill="#008136"></path><path fill-rule="evenodd" clip-rule="evenodd" d="M586.219 114.584V110.384H583.92C582.996 110.384 582.166 110.436 581.41 110.531V108.064C582.376 107.969 583.437 107.917 584.571 107.917H586.219C586.219 106.562 586.146 105.575 586.009 104.966C585.862 104.347 585.463 103.843 584.812 103.444C584.151 103.034 583.111 102.835 581.694 102.835C581.599 102.835 581.505 102.835 581.421 102.835V100.21C581.568 100.21 581.725 100.21 581.872 100.21C584.298 100.21 586.188 100.693 587.542 101.659C588.896 102.625 589.579 104.504 589.579 107.329V119.571H586.219V117.629C584.907 118.847 583.3 119.603 581.41 119.886V117.335C582.219 117.24 583.006 117.009 583.773 116.631C584.812 116.127 585.621 115.455 586.219 114.594V114.584ZM581.41 110.531C578.208 110.94 576.602 112.221 576.602 114.363C576.602 115.329 576.958 116.064 577.672 116.589C578.386 117.104 579.342 117.366 580.56 117.366C580.843 117.366 581.127 117.345 581.41 117.314V119.865C580.833 119.949 580.234 119.991 579.594 119.991C577.714 119.991 576.171 119.487 574.953 118.469C573.746 117.45 573.137 116.138 573.137 114.531C573.137 110.772 575.898 108.61 581.4 108.043V110.51L581.41 110.531ZM581.41 100.21V102.835C578.596 102.898 577.148 103.969 577.053 106.037H573.704C573.945 102.268 576.518 100.325 581.421 100.21H581.41Z" fill="#008136"></path><path fill-rule="evenodd" clip-rule="evenodd" d="M604.089 100.641C606.746 100.641 608.888 101.491 610.525 103.202C612.153 104.924 612.972 107.287 612.972 110.321C612.972 113.355 612.153 115.718 610.525 117.429C608.888 119.141 606.746 120.002 604.089 120.002V117.366C605.643 117.366 606.935 116.768 607.953 115.581C608.972 114.384 609.486 112.631 609.486 110.311C609.486 107.99 608.972 106.237 607.953 105.05C606.935 103.864 605.643 103.265 604.089 103.265V100.63V100.641ZM604.089 93.5324C604.74 93.4589 605.444 93.4169 606.179 93.4169C607.596 93.4169 608.489 93.3434 608.846 93.1964C609.213 93.0494 609.392 92.7344 609.392 92.2515H612.751C612.751 93.5009 612.594 94.3934 612.279 94.9393C611.964 95.4853 611.355 95.9053 610.462 96.1993C609.56 96.4828 608.069 96.6298 605.958 96.6298C605.297 96.6298 604.677 96.6613 604.1 96.7243V93.5324H604.089ZM597.989 104.158C598.598 103.066 599.469 102.205 600.593 101.575C601.727 100.956 602.892 100.641 604.089 100.641V103.276C602.535 103.276 601.244 103.874 600.225 105.061C599.207 106.247 598.693 108.011 598.693 110.321C598.693 112.631 599.207 114.395 600.225 115.592C601.244 116.778 602.535 117.377 604.089 117.377V120.012C598.168 120.012 595.207 115.928 595.207 107.759C595.207 102.856 596.026 99.2336 597.643 96.9133C598.976 95.0023 601.128 93.8789 604.089 93.5429V96.7348C601.79 96.9972 600.246 97.7847 599.459 99.0867C598.483 100.725 597.989 102.415 597.989 104.168V104.158Z" fill="#008136"></path><path fill-rule="evenodd" clip-rule="evenodd" d="M626.621 100.231C626.8 100.22 626.989 100.21 627.178 100.21C629.645 100.21 631.556 101.092 632.921 102.845C634.275 104.599 634.958 106.972 634.958 109.954C634.958 112.935 634.202 115.508 632.679 117.303C631.168 119.109 629.257 120.002 626.947 120.002C626.842 120.002 626.726 120.002 626.621 120.002V117.366H626.726C628.186 117.366 629.33 116.747 630.191 115.497C631.042 114.258 631.472 112.4 631.472 109.943C631.472 107.612 631.063 105.848 630.254 104.63C629.446 103.423 628.322 102.824 626.873 102.824C626.789 102.824 626.705 102.824 626.621 102.824V100.21V100.231ZM621.77 102.908C623.135 101.27 624.752 100.378 626.621 100.231V102.845C624.847 102.94 623.23 104.021 621.77 106.079V115.067C623.177 116.568 624.805 117.335 626.621 117.366V120.002C624.721 119.939 623.093 119.309 621.77 118.101V126.837H618.4V100.64H621.77V102.908Z" fill="#008136"></path><path fill-rule="evenodd" clip-rule="evenodd" d="M640.176 119.561V100.641H643.546V115.025L652.02 100.641H655.631V119.561H652.271V105.166L643.798 119.561H640.176Z" fill="#008136"></path><path fill-rule="evenodd" clip-rule="evenodd" d="M677.691 119.561H673.68L667.611 110.321L665.417 112.621V119.561H662.047V100.641H665.417V108.715L672.714 100.641H676.956L669.795 108.085L677.691 119.561Z" fill="#008136"></path><path fill-rule="evenodd" clip-rule="evenodd" d="M693.755 114.584V110.384H691.456C690.532 110.384 689.702 110.436 688.946 110.531V108.064C689.912 107.969 690.973 107.917 692.107 107.917H693.755C693.755 106.562 693.682 105.575 693.545 104.966C693.398 104.347 692.999 103.843 692.348 103.444C691.687 103.034 690.647 102.835 689.23 102.835C689.135 102.835 689.041 102.835 688.957 102.835V100.21C689.104 100.21 689.261 100.21 689.408 100.21C691.834 100.21 693.724 100.693 695.078 101.659C696.432 102.625 697.115 104.504 697.115 107.329V119.571H693.755V117.629C692.443 118.847 690.836 119.603 688.946 119.886V117.335C689.755 117.24 690.542 117.009 691.309 116.631C692.348 116.127 693.157 115.455 693.755 114.594V114.584ZM688.946 110.531C685.744 110.94 684.138 112.221 684.138 114.363C684.138 115.329 684.495 116.064 685.209 116.589C685.922 117.104 686.878 117.366 688.096 117.366C688.379 117.366 688.663 117.345 688.946 117.314V119.865C688.369 119.949 687.77 119.991 687.13 119.991C685.25 119.991 683.707 119.487 682.489 118.469C681.282 117.45 680.673 116.138 680.673 114.531C680.673 110.772 683.434 108.61 688.936 108.043V110.51L688.946 110.531ZM688.946 100.21V102.835C686.132 102.898 684.684 103.969 684.589 106.037H681.24C681.481 102.268 684.054 100.325 688.957 100.21H688.946Z" fill="#008136"></path><path fill-rule="evenodd" clip-rule="evenodd" d="M790.015 182.253C793.322 182.253 796.325 180.899 798.488 178.736C800.661 176.562 802.005 173.57 802.005 170.273V170.252C802.005 166.945 800.661 163.952 798.488 161.779C796.314 159.606 793.322 158.262 790.025 158.262H790.015V156.277H790.025C793.868 156.277 797.354 157.852 799.884 160.383C802.425 162.913 803.99 166.409 804 170.263V170.284C804 174.127 802.425 177.612 799.895 180.143C797.364 182.673 793.857 184.248 790.015 184.259V182.274V182.253ZM790.015 158.251C786.718 158.251 783.715 159.606 781.542 161.779C779.379 163.942 778.024 166.945 778.024 170.242V170.263C778.024 173.57 779.379 176.573 781.542 178.736C783.715 180.909 786.707 182.253 790.004 182.253H790.015V184.238H790.004C786.161 184.238 782.665 182.663 780.135 180.132C777.604 177.591 776.029 174.095 776.029 170.252V170.231C776.029 166.388 777.604 162.903 780.135 160.372C782.665 157.831 786.161 156.267 790.015 156.256V158.241V158.251Z" fill="#008136"></path><path fill-rule="evenodd" clip-rule="evenodd" d="M790.666 161.307H790.718C792.325 161.307 793.532 161.601 794.361 162.178C795.191 162.756 795.758 163.407 796.083 164.11C796.241 164.446 796.356 164.782 796.419 165.107C796.482 165.433 796.514 165.737 796.514 166C796.514 167.155 796.125 168.205 795.338 169.15C794.561 170.095 793.427 170.599 791.947 170.672L791.579 170.693V170.83L792.167 170.935C792.398 171.029 792.587 171.134 792.734 171.271C792.892 171.407 793.028 171.565 793.175 171.764C793.427 172.132 793.742 172.688 794.12 173.402C794.498 174.127 795.18 175.145 796.157 176.457C796.535 176.961 796.934 177.381 797.354 177.728C797.784 178.074 798.32 178.253 798.96 178.253H799.191C799.275 178.253 799.349 178.253 799.422 178.221V179.156C799.422 179.156 799.349 179.156 799.317 179.187C799.286 179.208 799.244 179.219 799.212 179.24C799.034 179.313 798.834 179.355 798.624 179.387C798.414 179.408 798.131 179.429 797.795 179.429C797.354 179.429 796.965 179.397 796.65 179.334C796.335 179.271 796.031 179.145 795.747 178.946C795.359 178.662 794.939 178.2 794.477 177.581C794.025 176.961 793.406 176.069 792.619 174.914C791.653 173.476 791.012 172.52 790.687 172.069V172.048L790.676 170.074C791.569 169.937 792.314 169.559 792.913 168.94C793.679 168.152 794.057 167.228 794.057 166.178C794.057 165.212 793.7 164.352 792.986 163.575C792.419 162.955 791.642 162.588 790.666 162.462V161.286V161.307ZM782.738 161.307H790.666V162.483C790.414 162.451 790.141 162.43 789.868 162.43H787.274V170.147H789.92C790.183 170.147 790.424 170.126 790.666 170.095V172.069C790.34 171.628 790.088 171.365 789.889 171.302C789.836 171.281 789.773 171.281 789.71 171.281H787.264V178.242H789.479V179.177H782.728V178.242H784.943V162.252H782.728V161.317L782.738 161.307Z" fill="#008136"></path><defs><radialGradient id="paint0_radial_135_2747" cx="0" cy="0" r="1" gradientUnits="userSpaceOnUse" gradientTransform="translate(98.5113 359.285) rotate(-90) scale(24.1279 18.5785)"><stop stop-color="#FCF07C"></stop><stop offset="0.15" stop-color="#F9EB78"></stop><stop offset="0.31" stop-color="#F2DE6D"></stop><stop offset="0.48" stop-color="#E6C85B"></stop><stop offset="0.66" stop-color="#D5AA43"></stop><stop offset="0.83" stop-color="#C08323"></stop><stop offset="1" stop-color="#A85800"></stop></radialGradient><radialGradient id="paint1_radial_135_2747" cx="0" cy="0" r="1" gradientUnits="userSpaceOnUse" gradientTransform="translate(-76.7202 359.285) rotate(-90) scale(24.3694 19.0081)"><stop stop-color="#FCF07C"></stop><stop offset="0.15" stop-color="#F9EB78"></stop><stop offset="0.31" stop-color="#F2DE6D"></stop><stop offset="0.48" stop-color="#E6C85B"></stop><stop offset="0.66" stop-color="#D5AA43"></stop><stop offset="0.83" stop-color="#C08323"></stop><stop offset="1" stop-color="#A85800"></stop></radialGradient><radialGradient id="paint2_radial_135_2747" cx="0" cy="0" r="1" gradientUnits="userSpaceOnUse" gradientTransform="translate(403.517 354.089) scale(326.104 22.8273)"><stop stop-color="#FCF07C"></stop><stop offset="0.15" stop-color="#F9EB78"></stop><stop offset="0.31" stop-color="#F2DE6D"></stop><stop offset="0.48" stop-color="#E6C85B"></stop><stop offset="0.66" stop-color="#D5AA43"></stop><stop offset="0.83" stop-color="#C08323"></stop><stop offset="1" stop-color="#A85800"></stop></radialGradient><radialGradient id="paint3_radial_135_2747" cx="0" cy="0" r="1" gradientUnits="userSpaceOnUse" gradientTransform="translate(403.517 354.089) scale(326.094 22.8266)"><stop stop-color="#FCF07C"></stop><stop offset="0.15" stop-color="#F9EB78"></stop><stop offset="0.31" stop-color="#F2DE6D"></stop><stop offset="0.48" stop-color="#E6C85B"></stop><stop offset="0.66" stop-color="#D5AA43"></stop><stop offset="0.83" stop-color="#C08323"></stop><stop offset="1" stop-color="#A85800"></stop></radialGradient><radialGradient id="paint4_radial_135_2747" cx="0" cy="0" r="1" gradientUnits="userSpaceOnUse" gradientTransform="translate(403.517 354.089) scale(326.105 22.8273)"><stop stop-color="#FCF07C"></stop><stop offset="0.15" stop-color="#F9EB78"></stop><stop offset="0.31" stop-color="#F2DE6D"></stop><stop offset="0.48" stop-color="#E6C85B"></stop><stop offset="0.66" stop-color="#D5AA43"></stop><stop offset="0.83" stop-color="#C08323"></stop><stop offset="1" stop-color="#A85800"></stop></radialGradient><radialGradient id="paint5_radial_135_2747" cx="0" cy="0" r="1" gradientUnits="userSpaceOnUse" gradientTransform="translate(403.517 354.089) scale(326.105 22.8273)"><stop stop-color="#FCF07C"></stop><stop offset="0.15" stop-color="#F9EB78"></stop><stop offset="0.31" stop-color="#F2DE6D"></stop><stop offset="0.48" stop-color="#E6C85B"></stop><stop offset="0.66" stop-color="#D5AA43"></stop><stop offset="0.83" stop-color="#C08323"></stop><stop offset="1" stop-color="#A85800"></stop></radialGradient><radialGradient id="paint6_radial_135_2747" cx="0" cy="0" r="1" gradientUnits="userSpaceOnUse" gradientTransform="translate(403.517 354.089) scale(326.094 22.8266)"><stop stop-color="#FCF07C"></stop><stop offset="0.15" stop-color="#F9EB78"></stop><stop offset="0.31" stop-color="#F2DE6D"></stop><stop offset="0.48" stop-color="#E6C85B"></stop><stop offset="0.66" stop-color="#D5AA43"></stop><stop offset="0.83" stop-color="#C08323"></stop><stop offset="1" stop-color="#A85800"></stop></radialGradient></defs></svg> 