<?xml version="1.0" encoding="UTF-8"?> <svg xmlns="http://www.w3.org/2000/svg" width="800" height="744" viewBox="0 0 800 744" fill="none"><path d="M447.373 231.658C447.373 266.306 437.761 282.942 426.716 282.942C413.909 282.942 403.36 259.751 403.36 154.731C403.36 77.8052 413.303 42.1376 428.231 42.1376C443.159 42.1376 448.613 61.4449 454.644 88.354C455.25 90.5574 456.049 91.962 457.454 91.962C458.528 91.962 459.161 90.9705 459.63 89.4557L470.784 31.1482C471.473 27.5676 470.619 25.2541 468.829 24.9511C467.066 24.6757 464.394 26.7689 461.199 29.6884C457.646 32.966 454.066 35.5274 452.303 35.5274C450.871 35.5274 448.392 34.4257 446.96 33.3516C443.407 30.4321 436.301 24.9786 424.54 24.9786C380.803 24.9786 379.013 109.562 379.013 154.401C379.013 215.297 380.775 298.421 425.256 298.421C433.079 298.421 440.212 294.042 447.649 287.128C449.081 286.027 450.127 285.669 451.202 285.669C452.634 285.669 453.35 286.054 454.755 287.128L465.413 296.961C466.13 297.705 467.562 298.421 468.966 298.421C470.041 298.421 470.757 297.705 470.757 296.603V175.801C470.757 172.166 471.803 169.604 474.31 167.787C474.31 167.787 483.289 161.893 486.428 159.056C487.778 157.844 488.219 156.852 488.219 155.42C488.219 153.988 487.145 153.217 485.74 153.217H434.566C432.776 153.217 431.701 153.96 431.701 155.42C431.701 156.88 432.059 157.623 433.492 159.056L443.462 167.787C445.941 169.99 447.373 172.166 447.373 175.801V231.658Z" fill="#0D0D0D"></path><path d="M401.294 371.656C408.657 371.656 414.625 365.688 414.625 358.326C414.625 350.963 408.657 344.995 401.294 344.995C393.932 344.995 387.964 350.963 387.964 358.326C387.964 365.688 393.932 371.656 401.294 371.656Z" fill="#0D0D0D"></path><path d="M538.704 42.0268H557.984C562.611 42.0268 566.605 45.1667 567.238 50.0417L575.336 89.4C575.528 90.8873 576.355 91.9339 577.787 91.9339C578.861 91.9339 579.687 91.1902 579.963 89.758L591.062 29.853C591.393 28.0628 589.63 26.603 588.226 26.603H500.31C498.878 26.603 498.189 27.6772 498.189 28.7789C498.189 29.8806 499.952 30.9547 500.668 32.0289L511.327 42.5226C513.806 45.0565 514.522 48.3341 514.522 52.6583V272.282C514.522 276.634 513.806 279.884 511.327 282.418L500.668 292.939C499.649 294.234 498.189 295.115 498.189 296.189C498.189 297.263 498.905 298.365 500.31 298.365H588.226C590.016 298.365 591.421 296.878 591.062 295.115L579.963 234.99C579.77 233.916 578.944 232.814 577.87 232.814C576.795 232.814 575.859 233.502 575.694 234.99L567.596 275.422C567.018 279.967 562.611 282.941 557.984 282.941H538.704V168.172H547.903C549.694 168.172 550.547 168.943 551.814 170.705L562.336 187.589C563.355 189.049 563.685 190.151 565.035 190.068C566.164 189.985 566.467 189.352 566.467 188.25V132.394C566.467 130.934 566.219 130.135 565.035 130.218C564.071 130.273 563.768 131.237 562.886 132.394L551.814 150.655C550.355 152.555 549.694 153.188 547.903 153.188H538.704V42.0268Z" fill="#0D0D0D"></path><path d="M654.438 24.9512C611.747 24.9512 607.12 101.877 607.12 154.373C607.12 223.285 611.747 298.366 654.438 298.366C697.129 298.366 702.114 223.257 702.114 154.373C702.114 101.877 697.487 24.9512 654.438 24.9512ZM654.438 282.942C644.137 282.942 631.495 249.533 631.495 154.759C631.495 73.8116 644.109 41.9174 654.438 41.9174C664.766 41.9174 677.491 73.0955 677.491 154.043C677.491 248.844 665.124 282.942 654.438 282.942Z" fill="#0D0D0D"></path><path d="M795.896 28.8071C796.309 26.6587 795.18 24.7858 793.417 24.7858C791.297 24.7858 789.148 26.6036 785.953 29.5232C782.758 32.8007 779.205 35.3622 777.773 35.3622C776.341 35.3622 774.22 34.2605 772.43 33.1588C767.087 28.7795 759.265 24.7583 752.517 24.7583C734.394 24.7583 719.796 35.6927 719.796 70.3687C719.796 97.0023 726.902 124.71 746.127 166.299C766.398 210.064 777.085 236.698 777.085 261.128C777.085 272.448 770.86 282.887 764.112 282.887C743.125 282.887 733.347 268.455 731.97 235.651C731.722 234.522 730.896 233.09 729.822 233.09C728.39 233.09 728.224 234.577 728.059 235.651L716.216 296.52C716.05 297.595 716.574 298.338 718.006 298.338C719.438 298.338 720.843 296.878 722.275 295.777C729.381 290.296 732.356 288.34 733.65 287.762C735.165 287.073 739.131 284.512 748.991 291.397C753.233 294.372 759.292 298.338 768.905 298.338C782.07 298.338 798.458 286.66 798.458 247.99C798.458 219.181 792.398 206.704 767.5 152.721C741.169 95.4599 739.792 77.998 739.792 60.1229C739.792 50.6483 744.006 41.9724 752.902 41.9724C769.263 41.9724 776.892 57.7542 778.82 89.2629C779.095 90.7502 779.894 91.8243 780.941 91.8243C782.373 91.8243 782.869 91.0807 783.089 90.0065L795.979 28.752L795.896 28.8071Z" fill="#0D0D0D"></path><path d="M392.508 576.215C392.508 577.674 392.508 578.776 391.792 579.492L380.472 592.272C379.756 592.988 379.013 594.09 379.013 594.833C379.013 595.935 380.114 596.293 381.216 596.293H425.422C426.881 596.293 427.625 595.935 427.625 594.833C427.625 594.117 426.909 593.016 426.165 592.272L414.845 579.492C414.129 578.776 414.129 577.674 414.129 576.215V395.563C414.129 394.104 413.413 393.387 412.311 393.387H381.244C380.142 393.387 379.04 393.746 379.04 394.847C379.04 395.563 379.784 396.665 380.5 397.767L391.462 407.985C392.178 408.729 392.563 409.445 392.563 410.904V576.215H392.508Z" fill="#0D0D0D"></path><path d="M533.141 592.272L521.821 579.492C521.462 578.748 521.462 577.674 521.462 576.214V326.376C521.462 324.916 520.746 324.2 519.287 324.2H489.155C487.695 324.2 486.594 324.558 486.594 325.66C486.594 326.376 487.337 327.478 488.411 328.221L498.988 338.798C500.089 339.514 500.448 340.257 500.448 341.717V406.194H499.731C493.534 399.254 483.564 393.415 472.988 393.415C458.032 393.415 439.771 402.917 439.771 484.277C439.771 587.176 456.545 596.293 472.602 596.293C484.28 596.293 491.937 589.71 498.161 582.411L498.878 581.557V594.805C498.878 595.549 499.979 596.265 501.439 596.265H532.424C533.884 596.265 534.986 595.907 534.986 594.805C534.986 594.089 533.994 593.18 533.168 592.244L533.141 592.272ZM499.787 551.398C499.787 569.274 490.119 581.64 481.361 581.64C471.858 581.64 464.119 572.358 464.119 484.415C464.119 416.908 472.602 407.516 481.719 407.351C489.596 407.213 499.787 418.561 499.787 436.436V551.398Z" fill="#0D0D0D"></path><path d="M585.995 393.387C560.463 393.387 544.378 426.246 544.378 481.689C544.378 563.435 558.259 596.266 591.448 596.266C609.323 596.266 618.963 579.63 623.342 562.113C623.7 560.653 623.342 559.909 622.241 559.909C621.139 559.909 620.423 560.626 619.679 561.727C612.022 573.047 607.864 581.806 595.827 581.806C579.026 581.806 568.34 563.022 568.34 517.053V488.96H622.075C624.637 488.96 625.353 487.142 625.353 484.581V461.941C625.353 408.646 607.12 393.332 585.94 393.332L585.995 393.387ZM603.815 475.189H568.368V438.64C568.368 419.305 576.603 407.517 586.077 407.517C594.836 407.517 603.787 419.305 603.787 438.64V475.189H603.815Z" fill="#0D0D0D"></path><path d="M737.781 572.937C737.065 572.937 736.68 573.653 735.964 574.397C733.044 578.776 729.078 581.2 725.415 581.2C722.137 581.2 722.11 576.242 722.11 571.505V439.025C722.11 401.43 704.235 393.415 691.069 393.415C670.633 393.415 654.41 422.445 654.41 426.824C654.41 427.926 654.768 428.642 655.512 428.642C656.614 428.642 657.715 428.284 658.431 427.54C665.014 420.985 674.296 408.481 684.872 408.013C696.302 407.517 700.213 413.108 700.213 429.165C700.213 444.121 700.214 447.398 692.915 453.237C652.785 485.352 646.561 496.286 646.561 537.159C646.561 587.149 664.078 596.266 678.317 596.266C688.177 596.266 697.652 588.967 703.491 582.384C707.87 588.967 708.614 596.266 719.906 596.266C729.023 596.266 737.423 585.304 738.883 574.727C738.883 573.626 738.525 572.91 737.781 572.91V572.937ZM700.186 559.056C700.186 569.274 693.603 581.641 685.588 581.641C677.574 581.641 670.688 572.744 670.688 531.155C670.688 493.945 679.391 480.615 699.442 463.456H700.158V559.056H700.186Z" fill="#0D0D0D"></path><path d="M784.852 326.376C784.852 324.916 784.135 324.2 783.034 324.2H751.993C750.892 324.2 749.818 324.558 749.818 325.66C749.818 326.376 750.534 327.478 751.277 328.221L762.239 338.798C762.955 339.514 763.341 340.257 763.341 341.717V576.242C763.341 577.702 763.341 578.803 762.625 579.519L751.305 592.299C750.589 593.015 749.845 594.117 749.845 594.861C749.845 595.962 750.947 596.32 752.021 596.32H796.199C797.659 596.32 798.375 595.962 798.375 594.861C798.375 594.144 797.659 593.043 796.915 592.299L785.595 579.519C784.879 578.776 784.879 577.702 784.879 576.242V326.376H784.852Z" fill="#0D0D0D"></path><path d="M301.398 0.0800781H287.324V622.816H301.398V0.0800781Z" fill="#0D0D0D"></path><path d="M149.115 456.68C149.115 529.089 130.056 560.129 106.176 560.129C78.4686 560.129 54.3965 515.4 54.3965 295.914C54.3965 135.121 77.1741 60.0674 109.509 60.0674C141.844 60.0674 148.372 89.2073 164.759 146.303C166.081 150.93 168.615 153.932 171.673 153.932C173.986 153.932 174.978 151.591 175.528 148.589L198.609 37.5651C200.014 30.0735 197.067 24.6201 193.211 24.6201C189.355 24.6201 184.755 28.421 177.814 34.5079C170.103 41.366 162.418 46.7092 158.562 46.7092C155.478 46.7092 150.079 44.4232 147.022 42.1372C139.338 36.0503 123.914 24.6201 98.5196 24.6201C3.85596 24.565 0 201.388 0 295.115C0 422.389 3.85596 596.155 100.09 596.155C117.028 596.155 132.424 587.011 148.592 572.523C151.649 570.237 153.99 569.466 156.276 569.466C159.361 569.466 160.876 570.237 163.961 572.523L184.7 593.098C186.243 594.613 189.327 596.155 192.384 596.155C194.698 596.155 196.24 594.64 196.24 592.354V353.037C196.24 345.408 198.554 340.092 203.952 336.264L226.289 317.975C228.603 314.918 230.145 313.403 230.145 310.374C230.145 307.344 227.832 305.802 224.747 305.802H121.38C117.524 305.802 115.238 307.317 115.238 310.374C115.238 313.431 116.009 314.946 119.066 317.975L140.632 336.264C146.03 340.836 149.115 345.408 149.115 353.037V456.68Z" fill="#0D0D0D"></path><path d="M173.793 284.071C191.925 284.071 206.624 268.583 206.624 249.478C206.624 230.372 191.925 214.884 173.793 214.884C155.661 214.884 140.963 230.372 140.963 249.478C140.963 268.583 155.661 284.071 173.793 284.071Z" fill="#0D0D0D"></path><path d="M49.246 738.109V743.893H41.9748V738.109C23.5213 737.421 12.8899 728.827 12.8899 714.45C12.8899 700.073 23.4938 691.397 41.9748 690.681V685.145H49.246V690.681C67.6169 691.397 78.2207 700.046 78.2207 714.45C78.2207 728.855 67.672 737.503 49.246 738.109ZM41.9748 732.022V696.851C28.0658 697.704 20.4916 703.654 20.4916 714.423C20.4916 725.192 28.3688 731.141 41.9748 731.995V732.022ZM70.7292 714.368C70.7292 703.736 62.9071 697.649 49.246 696.851V732.022C63.155 731.169 70.7292 725.137 70.7292 714.368Z" fill="#0D0D0D"></path><path d="M125.842 728.194H96.7568L90.7525 741.883H82.7101L107.471 687.184H115.238L140.081 741.883H131.846L125.842 728.194ZM123.087 721.942L111.299 695.143L99.4835 721.942H123.087Z" fill="#0D0D0D"></path><path d="M150.355 687.184H191.613V693.821H158.122V709.438H175.143C188.17 709.438 195.056 714.974 195.056 725.22C195.056 735.466 187.482 741.855 173.793 741.855H150.355V687.156V687.184ZM173.518 735.713C182.497 735.713 187.261 732.188 187.261 725.55C187.261 718.912 182.662 715.635 173.518 715.635H158.122V735.713H173.518Z" fill="#0D0D0D"></path><path d="M252.427 706.243C252.427 718.114 243.834 725.302 229.594 725.302H216.099V741.855H208.277V687.156H229.594C243.834 687.156 252.427 694.345 252.427 706.215V706.243ZM244.605 706.243C244.605 698.421 239.344 693.987 229.347 693.987H216.071V718.527H229.347C239.344 718.527 244.605 714.065 244.605 706.27V706.243Z" fill="#0D0D0D"></path><path d="M264.105 687.184H271.872V729.379L304.207 687.184H311.423V741.883H303.766V699.771L271.349 741.883H264.133V687.184H264.105Z" fill="#0D0D0D"></path><path d="M348.33 717.811H336.9V741.883H329.271V687.184H336.9V710.925H348.468L365.682 687.184H374.027L354.5 713.679L374.964 741.883H366.068L348.33 717.811Z" fill="#0D0D0D"></path><path d="M418.591 728.194H389.506L383.474 741.883H375.432L400.22 687.184H407.96L432.803 741.883H424.595L418.591 728.194ZM415.837 721.942L404.021 695.143L392.233 721.942H415.837Z" fill="#0D0D0D"></path><path d="M483.95 717.811H472.547V741.883H464.89V687.184H472.547V710.925H484.115L501.301 687.184H509.674L490.147 713.679L510.611 741.883H501.687L483.95 717.811Z" fill="#0D0D0D"></path><path d="M564.539 687.184L540.219 732.271C536.308 739.624 530.855 742.985 524.905 742.985C522.564 742.985 520.058 742.434 517.551 741.332L519.59 735.08C521.407 735.713 523.115 736.099 524.74 736.099C527.935 736.099 530.827 734.529 533.251 730.618L534.518 728.663L512.484 687.156H520.857L538.594 721.86L556.827 687.156H564.567L564.539 687.184Z" fill="#0D0D0D"></path><path d="M575.914 687.184L590.209 707.179L604.503 687.184H613.647L595.139 713.432L615.135 741.883H605.908L590.181 720.069L574.564 741.883H565.586L585.499 713.762L566.908 687.184H575.914Z" fill="#0D0D0D"></path><path d="M619.321 714.533C619.321 698.503 631.66 686.55 648.461 686.55C665.262 686.55 677.463 698.421 677.463 714.533C677.463 730.645 665.097 742.516 648.461 742.516C631.825 742.516 619.321 730.563 619.321 714.533ZM669.641 714.533C669.641 702.414 660.58 693.518 648.433 693.518C636.287 693.518 627.116 702.414 627.116 714.533C627.116 726.652 636.177 735.548 648.433 735.548C660.69 735.548 669.641 726.652 669.641 714.533Z" fill="#0D0D0D"></path><path d="M737.974 687.184V741.883H730.152V717.508H698.754V741.883H690.932V687.184H698.754V710.705H730.152V687.184H737.974Z" fill="#0D0D0D"></path><path d="M799.945 723.512C799.945 735.631 792.04 741.883 778.379 741.883H755.822V687.184H763.561V706.243H779.811C792.784 706.243 800 712.11 800 723.512H799.945ZM792.123 723.677C792.123 715.938 787.193 712.413 778.076 712.413H763.534V735.686H778.076C787.11 735.686 792.123 731.555 792.123 723.65V723.677Z" fill="#0D0D0D"></path></svg> 