<?xml version="1.0" encoding="UTF-8"?> <svg xmlns="http://www.w3.org/2000/svg" width="800" height="173" viewBox="0 0 800 173" fill="none"><path fill-rule="evenodd" clip-rule="evenodd" d="M39.4397 132.044V172.169H0V39.313H39.4397V82.0211L77.9455 39.313H128.031L77.9455 91.92L132.451 172.169H83.5175L51.2685 119.531L39.4397 132.044Z" fill="#A0BE24"></path><path fill-rule="evenodd" clip-rule="evenodd" d="M264.903 0.37207C264.187 0.37207 262.132 37.4149 247.502 47.5627C232.654 57.4927 221.977 52.7612 221.977 52.7612C221.977 52.7612 226.615 41.1814 226.615 34.3643C226.615 7.68725 265.588 0.37207 264.903 0.37207Z" fill="#A0BE24"></path><path fill-rule="evenodd" clip-rule="evenodd" d="M268.856 67.3913C268.856 66.9244 247.066 75.1734 237.759 69.0411C228.015 62.6598 228.016 55.3446 228.016 55.3446C228.016 55.3446 235.891 55.3446 239.844 53.4458C255.159 46.5975 269.074 67.6092 268.825 67.3602L268.856 67.3913Z" fill="#A0BE24"></path><path fill-rule="evenodd" clip-rule="evenodd" d="M202.49 10.5199C202.272 10.9868 222.226 22.5665 223.844 33.8662C225.463 45.1969 219.891 49.8973 219.891 49.8973C219.891 49.8973 214.786 43.9829 210.864 42.1152C195.797 34.8 202.49 10.2708 202.49 10.4887V10.5199Z" fill="#A0BE24"></path><path fill-rule="evenodd" clip-rule="evenodd" d="M139.642 39.313L88.6225 92.6359L142.443 172.169H171.891C180.233 172.169 187.891 171.235 194.397 169.336C200.654 167.686 206.008 164.854 210.864 161.087C215.72 157.321 219.891 152.838 223.159 147.173C226.646 141.757 229.416 135.375 231.035 128.309C232.871 121.461 233.587 113.928 233.587 105.43C233.587 91.7332 231.253 79.9355 226.397 69.7877C221.292 59.8888 214.101 52.3246 204.825 46.9083C195.798 42.1768 184.871 39.3441 171.891 39.3441H139.642V39.313ZM171.891 136.527C169.338 137.243 166.786 137.461 163.766 137.461H149.385V73.99H164.233C167.004 73.99 169.556 73.99 171.891 74.4569C177.93 75.6398 182.786 78.0056 186.272 82.0211C191.595 87.2196 194.179 95.2196 194.179 105.367C194.179 115.515 191.626 123.764 186.272 129.181C182.786 132.947 177.93 135.562 171.891 136.496V136.527Z" fill="#1F437E"></path><path fill-rule="evenodd" clip-rule="evenodd" d="M686.101 95.594V82.1466H687.72C690.272 82.1466 692.327 81.9287 693.292 80.9637C694.443 80.0298 694.91 78.8469 694.91 77.1971C694.91 73.6485 692.358 71.5318 687.72 71.5318H686.101V60.917H690.272C694.443 60.917 698.397 61.166 701.167 63.0337C704.186 64.2166 706.739 66.3333 708.358 68.917C709.976 71.5006 710.91 74.5824 710.91 77.882C710.91 83.5473 709.292 87.8119 705.338 90.8625C701.167 93.6952 695.813 95.5629 688.622 95.5629H686.07L686.101 95.594ZM402.615 95.594V95.345L402.833 95.1271V95.594H402.615ZM402.615 39.9053V38.9715H402.833V39.4384L402.615 39.9053ZM718.817 95.594V38.9715H735.284V95.594H718.817ZM772.856 36.3567C768.218 36.3567 764.264 35.6719 761.494 33.0571C758.008 30.4734 756.389 26.9248 756.389 23.1271H768.218C768.218 24.0921 768.902 24.7769 769.836 26.2088C770.77 26.9248 771.922 27.3917 773.074 27.3917C774.941 27.3917 775.626 26.9248 776.56 26.2088C777.463 25.275 777.712 24.0921 777.712 23.1271H789.541C789.541 26.9248 787.922 30.4734 784.436 33.0571C781.198 35.6719 777.463 36.3567 772.856 36.3567ZM748.264 38.9715H765.198V68.917C767.284 64.6835 768.903 61.6018 770.303 59.4851L781.914 38.9715H798.848V95.594H782.381V65.6174C780.762 68.4501 779.144 71.5318 777.494 74.5824L765.665 95.5629H748.264V38.9715ZM686.101 60.917H677.727V38.9715H661.26V95.594H686.101V82.1466H677.727V71.5318H686.101V60.917ZM496.809 96.7769V82.6135C500.078 82.6135 503.066 81.4306 505.152 78.38C506.77 75.7964 508.171 71.9987 508.171 67.2983C508.171 62.5979 506.801 58.8003 505.152 55.7497C503.066 53.1349 500.047 51.4851 496.809 51.4851V37.7886C500.98 37.7886 505.152 38.5045 508.42 39.9053C511.906 41.0882 514.895 43.2049 517.229 45.8197C519.782 48.4034 521.868 51.4851 523.268 54.7847C524.451 58.8003 525.354 62.5668 525.354 67.2983C525.354 72.7147 524.202 77.9131 521.65 82.6446C519.564 86.8781 516.078 90.8936 511.408 93.0415C507.268 95.6252 502.132 96.808 496.809 96.808V96.7769ZM585.868 38.9715V95.594H569.183V73.1816H552.249V95.594H535.315V38.9715H552.249V58.7691H569.183V38.9715H585.868ZM648.498 38.9715V95.594H631.782V73.1816H614.848V95.594H598.132V38.9715H614.848V58.7691H631.782V38.9715H648.498ZM496.778 37.7886C492.358 37.7886 488.653 38.5045 484.949 39.9053C481.463 41.0882 478.692 43.2049 476.14 45.8197C474.054 48.4034 471.969 51.4851 470.568 54.7847C469.416 58.8003 468.482 62.5668 468.482 67.2983C468.482 75.7964 471.035 83.1115 476.14 88.7769C481.463 94.1932 488.187 96.808 496.778 96.808V82.6446C493.292 82.6446 490.272 81.4617 488.187 78.4111C486.101 75.3294 485.416 72.0298 485.416 67.3294C485.416 62.6291 486.568 58.8314 488.187 55.7808C490.272 53.166 493.292 51.5162 496.778 51.5162V37.8197V37.7886ZM402.833 95.594H422.568L432.747 78.38L442.49 95.594H462.661L442.708 66.3333L461.26 38.9715H441.992L432.716 54.3178L423.906 38.9715H404.202L422.537 66.3333L402.801 95.1271V95.594H402.833ZM402.615 38.9715V39.9053L374.786 95.594H354.366L363.642 77.415L345.556 38.9715H365.51L374.319 59.4851L383.595 38.9715H402.615ZM402.615 95.345L402.397 95.594H402.615V95.345ZM304.031 78.3489V95.5629H287.097V38.9715H304.031V56.9014L320.498 38.9715H341.385L320.498 61.1349L343.471 95.594H322.583L309.136 73.1816L304.031 78.38V78.3489Z" fill="#1F437E"></path><path fill-rule="evenodd" clip-rule="evenodd" d="M285.012 104.807H800V171.547H285.012V104.807Z" fill="#A0BE24"></path><path fill-rule="evenodd" clip-rule="evenodd" d="M752.218 146.801V135.688H752.902C754.77 135.688 756.358 135.221 757.074 134.505C758.008 133.571 758.474 132.388 758.474 130.489C758.474 128.84 758.008 127.657 757.074 126.723C756.358 126.256 754.988 125.758 752.902 125.758H752.218V114.209H753.836C757.074 114.209 759.408 114.209 761.027 114.676C762.646 115.143 764.264 116.077 766.132 117.26C768.218 118.692 769.369 120.342 770.77 122.925C771.922 125.509 772.856 127.875 772.856 130.489C772.856 135.688 770.988 139.454 768.218 142.536C764.731 145.618 760.56 146.801 754.988 146.801H752.218ZM752.218 114.24H732.046V160.964H745.712V146.801H752.218V135.688H745.712V125.789H752.218V114.24ZM612.794 162.365V150.816C615.813 150.816 618.366 149.384 619.984 147.268C621.603 144.653 622.537 141.602 622.537 137.369C622.537 133.602 621.603 130.521 619.984 127.937C618.366 125.82 615.813 124.637 612.794 124.637V113.089C616.747 113.089 619.984 114.022 623.004 114.738C625.556 116.139 628.109 117.789 630.194 119.937C632.28 122.054 633.899 124.637 635.05 127.719C635.984 130.552 636.918 134.1 636.918 137.4C636.918 142.598 635.517 146.832 633.899 150.38C631.813 154.147 628.794 157.229 625.556 159.345C621.603 161.462 617.432 162.427 612.794 162.427V162.365ZM612.794 113.057C609.556 113.057 606.537 113.991 603.517 114.707C600.747 116.108 598.194 117.758 596.109 119.906C594.023 122.022 592.622 124.606 591.471 127.688C590.07 130.521 589.821 134.069 589.821 137.369C589.821 145.151 591.938 151.065 596.109 155.548C600.28 160.03 606.07 162.396 612.825 162.396V150.847C610.272 150.847 607.969 149.415 606.101 146.832C604.482 144.684 603.548 141.633 603.548 137.4C603.548 133.633 604.482 130.552 606.101 128.435C607.969 125.82 610.272 124.637 612.825 124.637V113.089L612.794 113.057ZM476.171 160.964V150.349H478.257C480.342 150.349 481.961 149.882 482.895 148.917C483.58 148.699 484.046 147.268 484.046 145.618C484.046 143.003 481.961 141.384 478.257 141.384H476.171V132.419H476.638C478.724 132.419 479.875 131.952 480.809 131.485C481.992 130.987 482.428 130.303 482.428 128.871C482.428 126.287 480.809 125.571 476.638 125.571H476.171V114.24H478.724C481.961 114.24 484.513 114.24 485.696 114.707C487.533 115.174 489.183 116.108 490.801 116.824C492.202 118.256 493.354 119.408 494.288 121.089C494.973 122.987 495.44 124.606 495.44 126.287C495.44 130.521 493.354 133.602 490.117 135.719C492.202 136.684 494.288 137.836 495.44 139.984C496.84 141.633 497.058 144.217 497.058 146.832C497.058 150.38 496.373 153.182 494.288 155.797C492.202 158.38 489.65 160.03 486.194 160.528C484.545 160.995 482.023 160.995 478.755 160.995H476.202L476.171 160.964ZM336.062 148.917H341.852V125.54H336.062V114.209H355.766V148.886H360.871V160.933H336.062V148.886V148.917ZM476.171 114.24H456V160.964H476.171V150.349H469.914V141.384H476.171V132.419H469.914V125.571H476.171V114.24ZM330.023 148.917V128.404C330.023 127.688 330.023 126.754 330.49 126.287C330.957 125.82 331.891 125.571 332.109 125.571H336.062V114.24H327.938C324.7 114.24 321.681 115.641 319.128 118.256C317.043 120.84 316.109 123.205 316.109 126.287V148.949H311.222V160.995H336.031V148.949H329.992L330.023 148.917Z" fill="white"></path></svg> 