<?xml version="1.0" encoding="UTF-8"?> <svg xmlns="http://www.w3.org/2000/svg" width="800" height="245" viewBox="0 0 800 245" fill="none"><path fill-rule="evenodd" clip-rule="evenodd" d="M288.46 235.153C290.631 226.963 296.091 216.601 302.493 212.083C303.77 222.892 298.454 231.656 288.46 235.153ZM517.288 178.987C502.265 162.607 504.309 120.108 508.364 99.0659C508.54 121.194 509.513 138.931 513.489 160.548C514.574 166.471 516.538 173.32 517.288 178.987ZM510.551 77.8003C510.248 68.7321 517.288 53.3098 524.728 49.095C523.595 53.3896 520.29 60.3983 518.438 64.7887C514.67 73.7452 515.277 76.108 510.551 77.8003ZM570.005 42.661C573.502 38.1109 585.843 35.4128 594.991 40.7931C600.658 44.1298 607.667 52.3199 609.711 58.9614C603.692 54.8105 599.477 51.3141 592.357 48.0732C580.526 42.7089 576.312 44.4491 570.005 42.6451V42.661ZM562.135 1.26337C527.075 6.27643 500.557 46.1574 492.973 78.1675C484.049 115.925 487.21 169.153 503.574 204.707C510.934 220.704 523.371 235.121 540.629 240.629C560.953 247.111 581.596 245.227 600.1 234.578C612.712 227.314 630.465 211.317 636.325 197.842C643.03 182.452 649.272 147.217 622.211 149.34C587.343 152.086 610.972 171.005 588.493 188.806C570.788 202.823 551.869 194.697 540.566 177.519C531.673 163.996 530.156 130.9 530.923 114.887C531.785 96.8787 534.036 71.6218 551.278 61.7234C567.802 52.2241 592.756 56.4868 599.732 76.0282C603.548 86.6929 603.42 90.1733 623.584 88.497C638.256 87.2836 642.982 85.9106 639.645 69.7379C635.191 48.0892 630.306 37.6799 614.564 21.7786C600.132 7.20241 583.193 -1.75404 562.103 1.26337H562.135ZM14.2744 4.83957C-0.557248 6.48398 0.895582 7.69733 0.67207 29.4419L0.00153326 222.301C0.00153326 244.684 -0.573213 240.932 20.5327 240.932C43.7141 240.932 49.0465 243.024 48.8549 230.427C48.6952 220.513 46.2206 159.941 47.7054 155.599C50.9623 145.972 62.2976 153.842 67.8694 165.066C72.1321 173.655 75.9637 183.09 79.8592 191.903C83.8026 200.828 87.9855 209.688 91.9448 218.613C95.4572 226.5 98.6821 239.623 108.533 240.884C113.977 241.587 140.878 240.884 145.332 238.825C151.702 235.903 140.846 217.256 138.675 211.828C131.347 193.532 125.009 173.99 117.425 156.046C112.476 144.343 109.842 137.686 112.731 124.45L122.805 95.7451C129.655 76.9861 135.961 57.1414 142.171 38.095C147.743 21.0282 156.859 16.2547 124.466 8.22418C119.277 6.931 113.61 3.32288 109.427 7.64943C103.264 14.0355 91.4499 51.7133 87.3309 62.5855C83.7867 71.9411 80.3222 81.3126 76.5065 90.5565C71.0624 103.744 67.0711 115.51 50.7707 111.567C47.3063 110.72 47.3861 109.076 46.8752 105.675C44.8476 92.2488 48.3759 12.423 47.3861 10.0761C44.4645 3.32288 20.421 4.15307 14.2744 4.83957ZM36.7373 230.794C30.1757 222.461 32.4108 201.594 35.8114 192.35C38.8607 200.987 41.0958 222.971 36.7373 230.794ZM689.153 230.97C683.007 223.418 684.236 200.604 688.163 192.414C692.235 202.776 692.41 220.337 689.153 230.97ZM654.653 240.581C660.368 241.906 685.369 240.884 692.666 240.645C704.352 240.262 701.031 231.72 700.536 210.567C700.233 197.874 700.185 185.214 699.834 172.506C699.706 167.924 698.477 157.85 700.632 154.401C703.905 149.149 709.365 151.511 712.846 155.167C720.19 162.847 722.441 169.983 726.687 179.562C734.383 196.884 742.716 215.995 750.938 232.886C753.748 238.649 755.233 240.549 762.066 241.012C767.925 241.411 775.876 241.108 781.799 240.741C798.004 239.735 804.39 241.699 796.184 224.089C789.909 210.598 779.867 183.202 774.343 168.339C771.15 159.749 765.339 148.159 764.269 139.569C762.513 125.504 766.76 120.715 770.735 108.693C773.944 99.002 777.345 89.391 780.57 79.7321C782.996 72.4839 799.951 24.2053 799.999 21.2517C800.127 12.7264 781.496 9.54929 774.95 7.82505C765.435 5.31852 762.114 0.896174 754.355 21.6668C748.081 38.4622 730.599 91.4505 721.69 104.829C718.178 110.114 716.949 112.189 710.02 112.173C701.893 112.173 699.834 112.109 698.892 103.76C697.822 94.2444 698.892 39.9948 699.435 27.7017C700.137 11.4651 704.176 7.05872 685.417 4.69588C679.702 3.97745 672.629 4.185 666.882 4.80764C661.581 5.38238 655.004 5.11097 653.758 11.4332C652.066 20.0863 652.817 39.3243 652.689 49.1109C652.002 99.6566 652.354 152.916 652.354 203.781C652.354 212.658 650.773 233.54 654.637 240.597L654.653 240.581ZM409.524 211.157C419.933 203.047 438.612 196.198 446.898 179.099C446.371 185.932 441.151 198.832 435.978 202.935C428.682 208.731 419.039 211.413 409.524 211.157ZM392.521 62.4099C369.643 70.3925 371.016 148.159 381.026 170.334C385.752 180.807 396.608 189.477 408.677 185.469C428.171 178.971 427.772 131.858 426.431 115.622C425.425 103.456 424.036 90.7481 418.32 79.7002C413.627 70.632 404.223 58.3388 392.521 62.4259V62.4099ZM374.512 186.108C378.647 189.381 387.572 194.649 390.334 197.986C373.65 198.657 363.001 187.481 361.5 171.228C366.849 177.758 367.264 180.376 374.512 186.108ZM430.917 67.5347C427.724 65.6987 420.715 59.9193 417.442 57.3968C413.643 54.4752 409.412 48.7757 408.007 43.7945C416.788 47.3388 426.622 59.1849 430.917 67.5347ZM354.683 57.6523C355.37 48.8874 362.634 40.6334 369.132 35.8279C375.614 31.0224 388.29 25.8816 396.432 28.468L354.699 57.6683L354.683 57.6523ZM398.268 2.98761C372.628 5.17484 350.644 18.3621 338.958 41.5754C328.038 63.2561 323.807 100.822 324.11 124.977C324.445 150.921 329.778 182.356 341.64 205.697C354.268 230.523 375.374 242.832 403.233 242.369C429.56 241.938 450.921 226.723 462.799 203.733C483.762 163.182 479.084 79.8279 461.825 36.7699C450.841 9.4056 426.319 0.592837 398.268 2.98761ZM249.601 76.3156L252.969 77.7365C252.81 80.9774 244.189 102.163 242.273 106.474C237.627 116.931 233.3 121.768 226.755 130.421L249.601 76.3315V76.3156ZM168.945 20.5173C177.694 13.3809 187.209 13.2372 198.273 15.616C193.659 26.648 178.157 19.4956 168.945 20.5173ZM205.441 154.098L205.25 153.922C204.659 153.667 207.98 46.0297 208.283 31.1342C208.634 13.8918 212.785 8.0326 192.366 5.76555C185.708 5.03115 178.811 5.35045 172.202 6.11678C166.789 6.73942 159.908 6.99486 158.12 13.0137C155.949 20.2938 157.003 45.2474 157.003 54.2996V222.317C157.051 241.092 165.48 240.342 180.887 240.358C195.447 240.358 204.866 244.221 212.37 229.485C223.705 207.198 229.038 194.809 238.473 171.612C246.44 152.038 254.805 131.747 263.858 112.684C266.061 114.967 263.794 228.926 267.114 235.648C269.908 241.315 278.146 240.469 283.415 240.358C312.679 239.703 315.186 238.138 315.409 209.002C315.521 195.096 315.76 181.207 315.776 167.301C315.776 139.298 315.106 111.295 315.202 83.3083C315.249 69.4346 314.834 55.497 315.106 41.6073C315.265 33.3853 317.979 9.05437 308.592 5.94116C303.403 4.21693 274.969 5.30256 269.03 6.99486C257.296 10.3475 254.614 21.124 251.07 31.3098C243.917 51.8889 236.206 72.468 228.734 92.9512C224.376 104.909 210.071 145.684 205.441 154.13V154.098Z" fill="#FFEC00"></path></svg> 