<?xml version="1.0" encoding="UTF-8"?> <svg xmlns="http://www.w3.org/2000/svg" width="199" height="54" viewBox="0 0 199 54" fill="none"><path d="M16.0767 54C15.5154 54 15.0211 53.6312 14.8702 53.0948L0.0489394 1.60919C-0.0599792 1.22365 0.015426 0.812975 0.25002 0.502871C0.484614 0.184386 0.86164 0 1.25542 0H197.745C198.138 0 198.515 0.184386 198.75 0.502871C198.985 0.821357 199.06 1.22365 198.951 1.60919L184.138 53.0865C183.987 53.6228 183.493 53.9916 182.932 53.9916C123.839 53.9916 75.1693 53.9916 16.0767 53.9916V54ZM2.92271 2.51436L17.0235 51.4856C75.3787 51.4856 123.638 51.4856 181.985 51.4856L196.077 2.51436H2.92271Z" fill="#BF994C"></path><path d="M34.9861 40.1961L34.0813 42.9787L32.858 46.8173H31.8945V38.4948H32.7156V44.7052L33.4529 42.4088L34.7851 38.4948H35.8156V46.8173H34.9861V40.1961Z" fill="white"></path><path d="M40.0056 43.0793H37.9612V46.8257H37.0312V38.5032H37.9612V42.2496H40.0056V38.5032H40.9356V46.8257H40.0056V43.0793Z" fill="white"></path><path d="M44.3617 46.8257H43.4317V39.3412H41.8984V38.4948H45.8949V39.3412H44.3617V46.8257Z" fill="white"></path><path d="M47.7894 42.1825H49.8253V43.0122H47.7894V45.9708H50.2861V46.8173H46.8594V38.4948H50.2861V39.3412H47.7894V42.1825Z" fill="white"></path><path d="M51.418 38.4948H53.2361C54.4844 38.4948 55.1044 39.1736 55.1044 40.5314V41.5287C55.1044 42.8697 54.4593 43.5402 53.169 43.5402H52.348V46.8257H51.418V38.4948ZM52.348 42.7105H53.169C53.5209 42.7105 53.7723 42.6267 53.9399 42.4507C54.1074 42.2747 54.1912 41.9897 54.1912 41.5958V40.4895C54.1912 40.1039 54.1158 39.8106 53.965 39.6262C53.8142 39.4418 53.5712 39.3496 53.2361 39.3496H52.348V42.7105Z" fill="white"></path><path d="M57.0316 41.7802H57.8526C59.1429 41.7802 59.788 42.4507 59.788 43.7917V44.7891C59.788 46.1468 59.168 46.8257 57.9197 46.8257H56.1016V38.5032H57.0316V41.7802ZM57.0316 45.9792H57.9197C58.2548 45.9792 58.4978 45.887 58.6486 45.7026C58.7994 45.5182 58.8748 45.2249 58.8748 44.8394V43.733C58.8748 43.3391 58.791 43.0542 58.6234 42.8782C58.4559 42.7022 58.1962 42.6183 57.8526 42.6183H57.0316V45.9792Z" fill="white"></path><path d="M61.8402 42.1825H63.8761V43.0122H61.8402V45.9708H64.3369V46.8173H60.9102V38.4948H64.3369V39.3412H61.8402V42.1825Z" fill="white"></path><path d="M65.4688 38.4948H67.2869C68.5352 38.4948 69.1552 39.1736 69.1552 40.5314V41.5287C69.1552 42.8697 68.5101 43.5402 67.2198 43.5402H66.3987V46.8257H65.4688V38.4948ZM66.3987 42.7105H67.2198C67.5717 42.7105 67.8231 42.6267 67.9906 42.4507C68.1582 42.2747 68.242 41.9897 68.242 41.5958V40.4895C68.242 40.1039 68.1666 39.8106 68.0158 39.6262C67.865 39.4418 67.622 39.3496 67.2869 39.3496H66.3987V42.7105Z" fill="white"></path><path d="M73.1345 43.0793H71.0902V46.8257H70.1602V38.5032H71.0902V42.2496H73.1345V38.5032H74.0645V46.8257H73.1345V43.0793Z" fill="white"></path><path d="M75.2109 44.8142V40.5063C75.2109 39.8526 75.3701 39.3413 75.6885 38.9725C76.0069 38.6038 76.4845 38.411 77.1128 38.411C77.7412 38.411 78.2104 38.5954 78.5371 38.9725C78.8639 39.3497 79.0231 39.861 79.0231 40.5063V44.8142C79.0231 45.468 78.8639 45.9792 78.5371 46.348C78.2104 46.7168 77.7328 46.9095 77.1128 46.9095C76.4928 46.9095 76.0236 46.7251 75.6969 46.348C75.3785 45.9708 75.2109 45.4596 75.2109 44.8142ZM76.1242 40.456V44.8561C76.1242 45.6607 76.4509 46.0547 77.1128 46.0547C77.7747 46.0547 78.1015 45.6524 78.1015 44.8561V40.456C78.1015 39.6514 77.7747 39.2575 77.1128 39.2575C76.4509 39.2575 76.1242 39.6598 76.1242 40.456Z" fill="white"></path><path d="M80.1445 43.0793V42.2495H82.4151V43.0793H80.1445Z" fill="white"></path><path d="M83.6133 38.4948H85.4817C86.1184 38.4948 86.5792 38.6456 86.8641 38.9473C87.1489 39.2491 87.2914 39.71 87.2914 40.3386V40.7325C87.2914 41.1935 87.216 41.5539 87.0652 41.8221C86.9143 42.0903 86.663 42.2747 86.3195 42.3836C87.0652 42.5932 87.4338 43.1882 87.4338 44.1688V44.8728C87.4338 46.1719 86.797 46.8257 85.5319 46.8257H83.6133V38.4948ZM84.5433 42.0316H85.2554C85.6408 42.0316 85.9257 41.9478 86.11 41.7969C86.286 41.6377 86.3781 41.3527 86.3781 40.9253V40.4392C86.3781 40.062 86.3111 39.7938 86.1687 39.6094C86.0262 39.4334 85.7917 39.3412 85.4649 39.3412H84.5517V42.0316H84.5433ZM84.5433 45.9792H85.5319C86.1854 45.9792 86.5206 45.602 86.5206 44.8477V44.1101C86.5206 43.6576 86.4284 43.3391 86.2441 43.1547C86.0598 42.9703 85.7665 42.8781 85.356 42.8781H84.5517V45.9792H84.5433Z" fill="white"></path><path d="M89.4808 41.7802H90.3019C91.5921 41.7802 92.2373 42.4507 92.2373 43.7917V44.789C92.2373 46.1468 91.6173 46.8257 90.3689 46.8257H88.5508V38.5031H89.4808V41.7802ZM89.4808 45.9792H90.3689C90.704 45.9792 90.947 45.887 91.0978 45.7026C91.2486 45.5182 91.324 45.2248 91.324 44.8393V43.733C91.324 43.3391 91.2402 43.0541 91.0727 42.8781C90.9051 42.7021 90.6454 42.6183 90.3019 42.6183H89.4808V45.9792ZM93.0081 38.4948H93.9213V46.8173H93.0081V38.4948Z" fill="white"></path><path d="M96.9465 38.411C97.5749 38.411 98.0441 38.5954 98.3541 38.9725C98.6641 39.3497 98.8232 39.861 98.8232 40.5063V41.2522H97.9435V40.456C97.9435 39.6514 97.6168 39.2575 96.9716 39.2575C96.3265 39.2575 95.9997 39.6598 95.9997 40.456V44.8561C95.9997 45.6607 96.3265 46.0547 96.9716 46.0547C97.6168 46.0547 97.9435 45.6524 97.9435 44.8561V43.775H98.8232V44.8142C98.8232 45.468 98.6641 45.9792 98.3541 46.348C98.0441 46.7168 97.5749 46.9095 96.9465 46.9095C96.3181 46.9095 95.8657 46.7251 95.5473 46.348C95.2373 45.9708 95.0781 45.4596 95.0781 44.8142V40.5063C95.0781 39.8526 95.2373 39.3413 95.5473 38.9725C95.8657 38.5954 96.3349 38.411 96.9465 38.411Z" fill="white"></path><path d="M102.147 46.8257H101.217V39.3412H99.6836V38.4948H103.68V39.3412H102.147V46.8257Z" fill="white"></path><path d="M107.686 45.141H105.583L105.265 46.8173H104.41L106.002 38.4948H107.343L108.934 46.8173H108.004L107.686 45.141ZM106.622 39.5424L105.709 44.3448H107.56L106.622 39.5424Z" fill="white"></path><path d="M109.938 38.4948H111.806C112.443 38.4948 112.903 38.6456 113.188 38.9473C113.473 39.2491 113.616 39.71 113.616 40.3386V40.7325C113.616 41.1935 113.54 41.5539 113.389 41.8221C113.239 42.0903 112.987 42.2747 112.644 42.3836C113.389 42.5932 113.758 43.1882 113.758 44.1688V44.8728C113.758 46.1719 113.121 46.8257 111.856 46.8257H109.938V38.4948ZM110.867 42.0316H111.58C111.965 42.0316 112.25 41.9478 112.434 41.7969C112.61 41.6377 112.702 41.3527 112.702 40.9253V40.4392C112.702 40.062 112.635 39.7938 112.493 39.6094C112.35 39.4334 112.116 39.3412 111.789 39.3412H110.876V42.0316H110.867ZM110.867 45.9792H111.856C112.51 45.9792 112.845 45.602 112.845 44.8477V44.1101C112.845 43.6576 112.753 43.3391 112.568 43.1547C112.384 42.9703 112.091 42.8781 111.68 42.8781H110.876V45.9792H110.867Z" fill="white"></path><path d="M114.809 44.8142V40.5063C114.809 39.8526 114.968 39.3413 115.286 38.9725C115.605 38.6038 116.082 38.411 116.71 38.411C117.339 38.411 117.808 38.5954 118.135 38.9725C118.462 39.3497 118.621 39.861 118.621 40.5063V44.8142C118.621 45.468 118.462 45.9792 118.135 46.348C117.808 46.7168 117.33 46.9095 116.71 46.9095C116.09 46.9095 115.621 46.7251 115.295 46.348C114.968 45.9708 114.809 45.4596 114.809 44.8142ZM115.722 40.456V44.8561C115.722 45.6607 116.049 46.0547 116.71 46.0547C117.372 46.0547 117.699 45.6524 117.699 44.8561V40.456C117.699 39.6514 117.372 39.2575 116.71 39.2575C116.049 39.2575 115.722 39.6598 115.722 40.456Z" fill="white"></path><path d="M122.668 46.8257V43.138C122.366 43.5738 121.931 43.7917 121.369 43.7917C120.808 43.7917 120.423 43.6073 120.138 43.2469C119.853 42.8865 119.719 42.4088 119.719 41.8221V38.5032H120.649V41.7467C120.649 42.1071 120.741 42.392 120.925 42.6183C121.11 42.8446 121.361 42.9536 121.671 42.9536C122.241 42.9536 122.576 42.6267 122.668 41.9814V38.5116H123.581V46.8341H122.668V46.8257Z" fill="white"></path><path d="M127.795 43.0793H125.75V46.8257H124.82V38.5032H125.75V42.2496H127.795V38.5032H128.725V46.8257H127.795V43.0793Z" fill="white"></path><path d="M130.875 41.7802H131.696C132.987 41.7802 133.632 42.4507 133.632 43.7917V44.789C133.632 46.1468 133.012 46.8257 131.763 46.8257H129.945V38.5031H130.875V41.7802ZM130.875 45.9792H131.763C132.099 45.9792 132.342 45.887 132.492 45.7026C132.643 45.5182 132.719 45.2248 132.719 44.8393V43.733C132.719 43.3391 132.635 43.0541 132.467 42.8781C132.3 42.7021 132.04 42.6183 131.696 42.6183H130.875V45.9792ZM134.411 38.4948H135.324V46.8173H134.411V38.4948Z" fill="white"></path><path d="M139.642 40.1962L138.813 42.8112L137.514 46.8174H136.551V38.4948H137.372V44.7053L138.143 42.2999L139.441 38.4948H140.472V46.8174H139.642V40.1962ZM139.274 36.7935H139.843C139.843 37.1538 139.726 37.4472 139.5 37.6483C139.274 37.8579 138.955 37.9584 138.562 37.9584C138.168 37.9584 137.858 37.8579 137.632 37.6483C137.414 37.4388 137.288 37.1538 137.271 36.7935H137.849C137.883 37.1958 138.118 37.3969 138.553 37.3969C139.006 37.3969 139.249 37.2041 139.274 36.7935Z" fill="white"></path><path d="M148.439 47.9404H147.534V46.8257H143.906V38.5032H144.82V45.9876H146.864V38.5032H147.802V46.0127H148.431V47.9404H148.439Z" fill="white"></path><path d="M150.442 42.1825H152.478V43.0122H150.442V45.9708H152.938V46.8173H149.512V38.4948H152.938V39.3412H150.442V42.1825Z" fill="white"></path><path d="M157.041 43.0793H154.996V46.8257H154.066V38.5032H154.996V42.2496H157.041V38.5032H157.971V46.8257H157.041V43.0793Z" fill="white"></path><path d="M161.389 46.8257H160.459V39.3412H158.926V38.4948H162.922V39.3412H161.389V46.8257Z" fill="white"></path><path d="M163.895 38.4948H165.713C166.961 38.4948 167.581 39.1736 167.581 40.5314V41.5287C167.581 42.8697 166.936 43.5402 165.646 43.5402H164.825V46.8257H163.895V38.4948ZM164.816 42.7105H165.637C165.989 42.7105 166.24 42.6267 166.408 42.4507C166.576 42.2747 166.659 41.9897 166.659 41.5958V40.4895C166.659 40.1039 166.584 39.8106 166.433 39.6262C166.282 39.4418 166.039 39.3496 165.704 39.3496H164.816V42.7105Z" fill="white"></path><path d="M33.461 13.7787L29.8499 32.0497H27.4118L23.6416 13.9463V32.0832H21.4297V9.32825H24.9737L28.7105 27.4987L32.3215 9.32825H35.8656V32.0832H33.461V13.7787Z" fill="white"></path><path d="M41.2891 26.5935V14.8263C41.2891 13.0495 41.7247 11.6499 42.6045 10.6357C43.4842 9.61322 44.7745 9.11035 46.492 9.11035C48.2096 9.11035 49.4998 9.6216 50.388 10.6357C51.2761 11.6582 51.7201 13.0495 51.7201 14.8263V26.5935C51.7201 28.3703 51.2761 29.77 50.388 30.7841C49.4998 31.8066 48.2012 32.3095 46.492 32.3095C44.7828 32.3095 43.5093 31.7982 42.6212 30.7841C41.7331 29.7616 41.2891 28.3703 41.2891 26.5935ZM43.7942 14.6922V26.7192C43.7942 28.9067 44.6907 30.0047 46.492 30.0047C48.2934 30.0047 49.1898 28.9067 49.1898 26.7192V14.6922C49.1898 12.5047 48.2934 11.4068 46.492 11.4068C44.6907 11.4068 43.7942 12.5047 43.7942 14.6922Z" fill="white"></path><path d="M59.6842 18.7236H62.3486C65.9261 18.7236 67.7107 20.5004 67.7107 24.054V26.56C67.7107 30.2477 65.968 32.0832 62.4826 32.0832H57.1875V9.32825H66.7723V11.6331H59.6926V18.7236H59.6842ZM59.6842 29.7783H62.4826C63.4126 29.7783 64.0996 29.5353 64.5269 29.0492C64.9626 28.5631 65.1804 27.7836 65.1804 26.7276V23.9031C65.1804 22.8387 64.9542 22.0928 64.4934 21.657C64.041 21.2212 63.3205 21.0032 62.3486 21.0032H59.6842V29.7783Z" fill="white"></path><path d="M75.7295 19.4024H81.2843V21.6821H75.7295V29.7783H82.5495V32.0832H73.1992V9.32825H82.5578V11.6331H75.7379V19.4024H75.7295Z" fill="white"></path><path d="M97.1125 11.6331H92.7557L92.2362 26.4259C92.1692 28.3535 91.8006 29.7783 91.1303 30.7003C90.46 31.6222 89.3038 32.0916 87.6533 32.1167H87.2344V29.8119C88.2314 29.8119 88.8933 29.5688 89.22 29.0827C89.5468 28.5966 89.7311 27.7585 89.773 26.56L90.393 9.32825H99.6511V32.0832H97.1125V11.6331Z" fill="white"></path><path d="M107.905 18.3045H110.151C113.678 18.3045 115.446 20.14 115.446 23.7942V26.5264C115.446 30.2309 113.745 32.0832 110.343 32.0832H105.375V9.32825H107.914V18.3045H107.905ZM107.905 29.7783H110.343C111.257 29.7783 111.91 29.5269 112.329 29.0157C112.74 28.5044 112.949 27.725 112.949 26.6605V23.6349C112.949 22.5538 112.723 21.7743 112.262 21.2966C111.81 20.8189 111.106 20.5842 110.151 20.5842H107.905V29.7783Z" fill="white"></path><path d="M123.301 18.7236H125.966C129.543 18.7236 131.328 20.5004 131.328 24.054V26.56C131.328 30.2477 129.585 32.0832 126.1 32.0832H120.805V9.32825H130.39V11.6331H123.31V18.7236H123.301ZM123.301 29.7783H126.1C127.03 29.7783 127.717 29.5353 128.144 29.0492C128.58 28.5631 128.798 27.7836 128.798 26.7276V23.9031C128.798 22.8387 128.571 22.0928 128.111 21.657C127.658 21.2212 126.938 21.0032 125.966 21.0032H123.301V29.7783Z" fill="white"></path><path d="M148.522 9.32825L143.645 27.0796C143.21 28.9402 142.581 30.2728 141.744 31.0607C140.906 31.8485 139.515 32.2005 137.571 32.1167V29.8454C138.543 29.8873 139.28 29.7448 139.766 29.4096C140.252 29.0743 140.604 28.4709 140.822 27.6076L141.341 26.1158L136.113 9.34501H138.652L140.956 17.2485L142.514 22.9728L143.846 17.2485L145.891 9.34501H148.522V9.32825Z" fill="white"></path><path d="M153.399 9.32825H158.367C161.769 9.32825 163.47 11.1805 163.47 14.885V17.6172C163.47 21.2798 161.702 23.1069 158.175 23.1069H155.929V32.0748H153.391V9.32825H153.399ZM155.929 20.8356H158.175C159.13 20.8356 159.834 20.6009 160.286 20.1232C160.738 19.6455 160.973 18.866 160.973 17.7849V14.7593C160.973 13.6948 160.764 12.9154 160.353 12.4041C159.942 11.8929 159.281 11.6415 158.367 11.6415H155.929V20.8356Z" fill="white"></path><path d="M177.854 11.6331H172.852V32.0832H170.941V9.32825H177.854V11.6331Z" fill="white"></path><path d="M45.1992 4.65161H43.4062V7.33359H45.1992V4.65161Z" fill="white"></path><path d="M49.5469 4.65161H47.7539V7.33359H49.5469V4.65161Z" fill="white"></path></svg> 