<?xml version="1.0" encoding="UTF-8"?> <svg xmlns="http://www.w3.org/2000/svg" width="14" height="15" viewBox="0 0 14 15" fill="none"><path d="M9.5 14.5L4.5 13L1.3125 14.0625C0.993056 14.1736 0.694444 14.1319 0.416667 13.9375C0.138889 13.7431 0 13.4653 0 13.1042V2.72917C0 2.50694 0.0659722 2.30903 0.197917 2.13542C0.329861 1.96181 0.493056 1.84028 0.6875 1.77083L4.5 0.5L9.5 2L12.6875 0.9375C13.0069 0.798611 13.3056 0.833333 13.5833 1.04167C13.8611 1.25 14 1.53472 14 1.89583V12.2708C14 12.4931 13.9375 12.6944 13.8125 12.875C13.6875 13.0556 13.5208 13.1736 13.3125 13.2292L9.5 14.5ZM8.75 12.7083V3.33333L5.25 2.29167V11.6667L8.75 12.7083ZM10.25 12.6667L12.5 11.9167V2.58333L10.25 3.33333V12.6667ZM1.5 12.4167L3.75 11.6667V2.33333L1.5 3.08333V12.4167Z" fill="#BF994C"></path></svg> 