<?xml version="1.0" encoding="UTF-8"?> <svg xmlns="http://www.w3.org/2000/svg" width="199" height="54" viewBox="0 0 199 54" fill="none"><path d="M16.0767 54C15.5154 54 15.0211 53.6312 14.8702 53.0948L0.0489394 1.60919C-0.0599792 1.22365 0.015426 0.812975 0.25002 0.502871C0.484614 0.184386 0.86164 0 1.25542 0H197.745C198.138 0 198.515 0.184386 198.75 0.502871C198.985 0.821357 199.06 1.22365 198.951 1.60919L184.138 53.0865C183.987 53.6228 183.493 53.9916 182.932 53.9916C123.839 53.9916 75.1693 53.9916 16.0767 53.9916V54ZM2.92271 2.51436L17.0235 51.4856C75.3787 51.4856 123.638 51.4856 181.985 51.4856L196.077 2.51436H2.92271Z" fill="#BF994C"></path><path d="M34.9867 40.1963L34.0818 42.9788L32.8586 46.8174H31.8951V38.4949H32.7162V44.7053L33.4535 42.4089L34.7856 38.4949H35.8162V46.8174H34.9867V40.1963Z" fill="#0D0D0D"></path><path d="M40.0053 43.0793H37.961V46.8257H37.031V38.5032H37.961V42.2496H40.0053V38.5032H40.9353V46.8257H40.0053V43.0793Z" fill="#0D0D0D"></path><path d="M44.3621 46.8258H43.4321V39.3414H41.8988V38.4949H45.8953V39.3414H44.3621V46.8258Z" fill="#0D0D0D"></path><path d="M47.7888 42.1826H49.8247V43.0123H47.7888V45.9709H50.2855V46.8174H46.8588V38.4949H50.2855V39.3414H47.7888V42.1826Z" fill="#0D0D0D"></path><path d="M51.4166 38.4949H53.2347C54.4831 38.4949 55.1031 39.1737 55.1031 40.5315V41.5289C55.1031 42.8699 54.458 43.5403 53.1677 43.5403H52.3466V46.8258H51.4166V38.4949ZM52.3466 42.7106H53.1677C53.5196 42.7106 53.7709 42.6268 53.9385 42.4508C54.1061 42.2748 54.1899 41.9898 54.1899 41.5959V40.4896C54.1899 40.1041 54.1144 39.8107 53.9636 39.6263C53.8128 39.4419 53.5699 39.3498 53.2347 39.3498H52.3466V42.7106Z" fill="#0D0D0D"></path><path d="M57.0301 41.7802H57.8512C59.1415 41.7802 59.7866 42.4507 59.7866 43.7917V44.7891C59.7866 46.1468 59.1666 46.8257 57.9182 46.8257H56.1001V38.5032H57.0301V41.7802ZM57.0301 45.9792H57.9182C58.2533 45.9792 58.4963 45.887 58.6471 45.7026C58.7979 45.5182 58.8733 45.2249 58.8733 44.8394V43.733C58.8733 43.3391 58.7896 43.0542 58.622 42.8782C58.4544 42.7022 58.1947 42.6183 57.8512 42.6183H57.0301V45.9792Z" fill="#0D0D0D"></path><path d="M61.8393 42.1826H63.8753V43.0123H61.8393V45.9709H64.3361V46.8174H60.9093V38.4949H64.3361V39.3414H61.8393V42.1826Z" fill="#0D0D0D"></path><path d="M65.4671 38.4949H67.2852C68.5336 38.4949 69.1536 39.1737 69.1536 40.5315V41.5289C69.1536 42.8699 68.5084 43.5403 67.2182 43.5403H66.3971V46.8258H65.4671V38.4949ZM66.3971 42.7106H67.2182C67.5701 42.7106 67.8214 42.6268 67.989 42.4508C68.1566 42.2748 68.2403 41.9898 68.2403 41.5959V40.4896C68.2403 40.1041 68.1649 39.8107 68.0141 39.6263C67.8633 39.4419 67.6203 39.3498 67.2852 39.3498H66.3971V42.7106Z" fill="#0D0D0D"></path><path d="M73.1333 43.0793H71.089V46.8257H70.159V38.5032H71.089V42.2496H73.1333V38.5032H74.0633V46.8257H73.1333V43.0793Z" fill="#0D0D0D"></path><path d="M75.2112 44.8144V40.5064C75.2112 39.8527 75.3704 39.3414 75.6887 38.9727C76.0071 38.6039 76.4847 38.4111 77.1131 38.4111C77.7414 38.4111 78.2106 38.5955 78.5374 38.9727C78.8641 39.3498 79.0233 39.8611 79.0233 40.5064V44.8144C79.0233 45.4681 78.8641 45.9793 78.5374 46.3481C78.2106 46.7169 77.7331 46.9097 77.1131 46.9097C76.4931 46.9097 76.0239 46.7253 75.6971 46.3481C75.3787 45.971 75.2112 45.4597 75.2112 44.8144ZM76.1244 40.4561V44.8563C76.1244 45.6609 76.4512 46.0548 77.1131 46.0548C77.7749 46.0548 78.1017 45.6525 78.1017 44.8563V40.4561C78.1017 39.6515 77.7749 39.2576 77.1131 39.2576C76.4512 39.2576 76.1244 39.6599 76.1244 40.4561Z" fill="#0D0D0D"></path><path d="M80.146 43.0793V42.2495H82.4166V43.0793H80.146Z" fill="#0D0D0D"></path><path d="M83.6147 38.4949H85.483C86.1198 38.4949 86.5806 38.6457 86.8655 38.9475C87.1503 39.2492 87.2928 39.7101 87.2928 40.3387V40.7326C87.2928 41.1936 87.2174 41.554 87.0666 41.8222C86.9157 42.0904 86.6644 42.2748 86.3209 42.3837C87.0666 42.5933 87.4352 43.1883 87.4352 44.1689V44.873C87.4352 46.172 86.7984 46.8258 85.5333 46.8258H83.6147V38.4949ZM84.5447 42.0317H85.2568C85.6422 42.0317 85.9271 41.9479 86.1114 41.7971C86.2874 41.6378 86.3795 41.3529 86.3795 40.9254V40.4393C86.3795 40.0622 86.3125 39.794 86.1701 39.6096C86.0276 39.4336 85.793 39.3414 85.4663 39.3414H84.553V42.0317H84.5447ZM84.5447 45.9793H85.5333C86.1868 45.9793 86.522 45.6021 86.522 44.8478V44.1103C86.522 43.6577 86.4298 43.3392 86.2455 43.1548C86.0612 42.9704 85.7679 42.8782 85.3574 42.8782H84.553V45.9793H84.5447Z" fill="#0D0D0D"></path><path d="M89.4795 41.7803H90.3006C91.5909 41.7803 92.236 42.4508 92.236 43.7918V44.7891C92.236 46.1469 91.616 46.8258 90.3676 46.8258H88.5495V38.5033H89.4795V41.7803ZM89.4795 45.9793H90.3676C90.7028 45.9793 90.9457 45.8871 91.0966 45.7027C91.2474 45.5183 91.3228 45.225 91.3228 44.8394V43.7331C91.3228 43.3392 91.239 43.0542 91.0714 42.8782C90.9039 42.7022 90.6441 42.6184 90.3006 42.6184H89.4795V45.9793ZM93.0068 38.4949H93.9201V46.8174H93.0068V38.4949Z" fill="#0D0D0D"></path><path d="M96.9446 38.4111C97.573 38.4111 98.0422 38.5955 98.3522 38.9727C98.6622 39.3498 98.8214 39.8611 98.8214 40.5064V41.2524H97.9416V40.4561C97.9416 39.6515 97.6149 39.2576 96.9698 39.2576C96.3246 39.2576 95.9979 39.6599 95.9979 40.4561V44.8563C95.9979 45.6609 96.3246 46.0548 96.9698 46.0548C97.6149 46.0548 97.9416 45.6525 97.9416 44.8563V43.7751H98.8214V44.8144C98.8214 45.4681 98.6622 45.9793 98.3522 46.3481C98.0422 46.7169 97.573 46.9097 96.9446 46.9097C96.3162 46.9097 95.8638 46.7253 95.5454 46.3481C95.2354 45.971 95.0762 45.4597 95.0762 44.8144V40.5064C95.0762 39.8527 95.2354 39.3414 95.5454 38.9727C95.8638 38.5955 96.333 38.4111 96.9446 38.4111Z" fill="#0D0D0D"></path><path d="M102.147 46.8258H101.217V39.3414H99.6843V38.4949H103.681V39.3414H102.147V46.8258Z" fill="#0D0D0D"></path><path d="M107.686 45.1412H105.583L105.264 46.8174H104.41L106.002 38.4949H107.342L108.934 46.8174H108.004L107.686 45.1412ZM106.622 39.5425L105.708 44.3449H107.56L106.622 39.5425Z" fill="#0D0D0D"></path><path d="M109.939 38.4949H111.808C112.445 38.4949 112.905 38.6457 113.19 38.9475C113.475 39.2492 113.618 39.7101 113.618 40.3387V40.7326C113.618 41.1936 113.542 41.554 113.391 41.8222C113.24 42.0904 112.989 42.2748 112.646 42.3837C113.391 42.5933 113.76 43.1883 113.76 44.1689V44.873C113.76 46.172 113.123 46.8258 111.858 46.8258H109.939V38.4949ZM110.869 42.0317H111.582C111.967 42.0317 112.252 41.9479 112.436 41.7971C112.612 41.6378 112.704 41.3529 112.704 40.9254V40.4393C112.704 40.0622 112.637 39.794 112.495 39.6096C112.352 39.4336 112.118 39.3414 111.791 39.3414H110.878V42.0317H110.869ZM110.869 45.9793H111.858C112.512 45.9793 112.847 45.6021 112.847 44.8478V44.1103C112.847 43.6577 112.755 43.3392 112.57 43.1548C112.386 42.9704 112.093 42.8782 111.682 42.8782H110.878V45.9793H110.869Z" fill="#0D0D0D"></path><path d="M114.807 44.8144V40.5064C114.807 39.8527 114.966 39.3414 115.285 38.9727C115.603 38.6039 116.081 38.4111 116.709 38.4111C117.338 38.4111 117.807 38.5955 118.134 38.9727C118.46 39.3498 118.619 39.8611 118.619 40.5064V44.8144C118.619 45.4681 118.46 45.9793 118.134 46.3481C117.807 46.7169 117.329 46.9097 116.709 46.9097C116.089 46.9097 115.62 46.7253 115.293 46.3481C114.966 45.971 114.807 45.4597 114.807 44.8144ZM115.721 40.4561V44.8563C115.721 45.6609 116.047 46.0548 116.709 46.0548C117.371 46.0548 117.698 45.6525 117.698 44.8563V40.4561C117.698 39.6515 117.371 39.2576 116.709 39.2576C116.047 39.2576 115.721 39.6599 115.721 40.4561Z" fill="#0D0D0D"></path><path d="M122.666 46.8257V43.138C122.365 43.5738 121.929 43.7917 121.368 43.7917C120.806 43.7917 120.421 43.6073 120.136 43.2469C119.851 42.8865 119.717 42.4088 119.717 41.8221V38.5032H120.647V41.7467C120.647 42.1071 120.739 42.392 120.923 42.6183C121.108 42.8446 121.359 42.9536 121.669 42.9536C122.239 42.9536 122.574 42.6267 122.666 41.9814V38.5116H123.579V46.8341H122.666V46.8257Z" fill="#0D0D0D"></path><path d="M127.794 43.0793H125.749V46.8257H124.819V38.5032H125.749V42.2496H127.794V38.5032H128.724V46.8257H127.794V43.0793Z" fill="#0D0D0D"></path><path d="M130.877 41.7803H131.698C132.988 41.7803 133.633 42.4508 133.633 43.7918V44.7891C133.633 46.1469 133.013 46.8258 131.765 46.8258H129.947V38.5033H130.877V41.7803ZM130.877 45.9793H131.765C132.1 45.9793 132.343 45.8871 132.494 45.7027C132.645 45.5183 132.72 45.225 132.72 44.8394V43.7331C132.72 43.3392 132.636 43.0542 132.469 42.8782C132.301 42.7022 132.042 42.6184 131.698 42.6184H130.877V45.9793ZM134.413 38.4949H135.326V46.8174H134.413V38.4949Z" fill="#0D0D0D"></path><path d="M139.641 40.1962L138.811 42.8112L137.513 46.8174H136.549V38.4948H137.37V44.7053L138.141 42.2999L139.44 38.4948H140.47V46.8174H139.641V40.1962ZM139.272 36.7935H139.842C139.842 37.1538 139.724 37.4472 139.498 37.6483C139.272 37.8579 138.954 37.9584 138.56 37.9584C138.166 37.9584 137.856 37.8579 137.63 37.6483C137.412 37.4388 137.286 37.1538 137.27 36.7935H137.848C137.881 37.1958 138.116 37.3969 138.551 37.3969C139.004 37.3969 139.247 37.2041 139.272 36.7935Z" fill="#0D0D0D"></path><path d="M148.438 47.9404H147.533V46.8257H143.905V38.5032H144.819V45.9876H146.863V38.5032H147.801V46.0127H148.43V47.9404H148.438Z" fill="#0D0D0D"></path><path d="M150.44 42.1826H152.476V43.0123H150.44V45.9709H152.937V46.8174H149.51V38.4949H152.937V39.3414H150.44V42.1826Z" fill="#0D0D0D"></path><path d="M157.043 43.0793H154.998V46.8257H154.068V38.5032H154.998V42.2496H157.043V38.5032H157.973V46.8257H157.043V43.0793Z" fill="#0D0D0D"></path><path d="M161.391 46.8258H160.461V39.3414H158.928V38.4949H162.924V39.3414H161.391V46.8258Z" fill="#0D0D0D"></path><path d="M163.896 38.4949H165.714C166.962 38.4949 167.582 39.1737 167.582 40.5315V41.5289C167.582 42.8699 166.937 43.5403 165.647 43.5403H164.826V46.8258H163.896V38.4949ZM164.818 42.7106H165.639C165.991 42.7106 166.242 42.6268 166.41 42.4508C166.577 42.2748 166.661 41.9898 166.661 41.5959V40.4896C166.661 40.1041 166.585 39.8107 166.435 39.6263C166.284 39.4419 166.041 39.3498 165.706 39.3498H164.818V42.7106Z" fill="#0D0D0D"></path><path d="M33.4618 13.7788L29.8508 32.0498H27.4127L23.6424 13.9464V32.0833H21.4305V9.32837H24.9746L28.7113 27.4988L32.3224 9.32837H35.8664V32.0833H33.4618V13.7788Z" fill="#0D0D0D"></path><path d="M41.2872 26.5935V14.8263C41.2872 13.0495 41.7229 11.6499 42.6026 10.6357C43.4823 9.61322 44.7726 9.11035 46.4902 9.11035C48.2077 9.11035 49.498 9.6216 50.3861 10.6357C51.2742 11.6582 51.7183 13.0495 51.7183 14.8263V26.5935C51.7183 28.3703 51.2742 29.77 50.3861 30.7841C49.498 31.8066 48.1994 32.3095 46.4902 32.3095C44.781 32.3095 43.5075 31.7982 42.6194 30.7841C41.7313 29.7616 41.2872 28.3703 41.2872 26.5935ZM43.7923 14.6922V26.7192C43.7923 28.9067 44.6888 30.0047 46.4902 30.0047C48.2915 30.0047 49.188 28.9067 49.188 26.7192V14.6922C49.188 12.5047 48.2915 11.4068 46.4902 11.4068C44.6888 11.4068 43.7923 12.5047 43.7923 14.6922Z" fill="#0D0D0D"></path><path d="M59.686 18.7237H62.3504C65.9279 18.7237 67.7125 20.5005 67.7125 24.0541V26.5601C67.7125 30.2478 65.9698 32.0833 62.4844 32.0833H57.1893V9.32837H66.7741V11.6332H59.6944V18.7237H59.686ZM59.686 29.7785H62.4844C63.4144 29.7785 64.1014 29.5354 64.5287 29.0493C64.9644 28.5632 65.1823 27.7837 65.1823 26.7277V23.9033C65.1823 22.8388 64.956 22.0929 64.4952 21.6571C64.0428 21.2213 63.3223 21.0034 62.3504 21.0034H59.686V29.7785Z" fill="#0D0D0D"></path><path d="M75.7306 19.4026H81.2854V21.6822H75.7306V29.7785H82.5506V32.0833H73.2003V9.32837H82.559V11.6332H75.739V19.4026H75.7306Z" fill="#0D0D0D"></path><path d="M97.1122 11.6332H92.7555L92.236 26.426C92.169 28.3537 91.8003 29.7785 91.1301 30.7004C90.4598 31.6223 89.3036 32.0917 87.653 32.1168H87.2341V29.812C88.2311 29.812 88.893 29.5689 89.2198 29.0828C89.5465 28.5967 89.7309 27.7586 89.7728 26.5601L90.3928 9.32837H99.6508V32.0833H97.1122V11.6332Z" fill="#0D0D0D"></path><path d="M107.903 18.3046H110.149C113.676 18.3046 115.444 20.1401 115.444 23.7943V26.5266C115.444 30.2311 113.743 32.0833 110.342 32.0833H105.373V9.32837H107.912V18.3046H107.903ZM107.903 29.7785H110.342C111.255 29.7785 111.908 29.527 112.327 29.0158C112.738 28.5045 112.947 27.7251 112.947 26.6607V23.6351C112.947 22.5539 112.721 21.7744 112.26 21.2967C111.808 20.819 111.104 20.5843 110.149 20.5843H107.903V29.7785Z" fill="#0D0D0D"></path><path d="M123.303 18.7237H125.967C129.545 18.7237 131.329 20.5005 131.329 24.0541V26.5601C131.329 30.2478 129.587 32.0833 126.101 32.0833H120.806V9.32837H130.391V11.6332H123.311V18.7237H123.303ZM123.303 29.7785H126.101C127.031 29.7785 127.718 29.5354 128.146 29.0493C128.581 28.5632 128.799 27.7837 128.799 26.7277V23.9033C128.799 22.8388 128.573 22.0929 128.112 21.6571C127.66 21.2213 126.939 21.0034 125.967 21.0034H123.303V29.7785Z" fill="#0D0D0D"></path><path d="M148.522 9.32837L143.646 27.0797C143.21 28.9404 142.582 30.273 141.744 31.0608C140.906 31.8486 139.515 32.2006 137.571 32.1168V29.8455C138.543 29.8874 139.28 29.7449 139.766 29.4097C140.252 29.0744 140.604 28.471 140.822 27.6077L141.342 26.1159L136.113 9.34513H138.652L140.956 17.2486L142.514 22.9729L143.847 17.2486L145.891 9.34513H148.522V9.32837Z" fill="#0D0D0D"></path><path d="M153.398 9.32837H158.366C161.768 9.32837 163.469 11.1806 163.469 14.8851V17.6174C163.469 21.2799 161.701 23.107 158.174 23.107H155.928V32.0749H153.39V9.32837H153.398ZM155.928 20.8357H158.174C159.129 20.8357 159.833 20.6011 160.285 20.1233C160.737 19.6456 160.972 18.8662 160.972 17.785V14.7594C160.972 13.695 160.763 12.9155 160.352 12.4043C159.941 11.893 159.28 11.6416 158.366 11.6416H155.928V20.8357Z" fill="#0D0D0D"></path><path d="M177.854 11.6332H172.853V32.0833H170.942V9.32837H177.854V11.6332Z" fill="#0D0D0D"></path><path d="M45.1999 4.65161H43.4069V7.33359H45.1999V4.65161Z" fill="#0D0D0D"></path><path d="M49.5482 4.65161H47.7553V7.33359H49.5482V4.65161Z" fill="#0D0D0D"></path></svg> 