<?xml version="1.0" encoding="UTF-8"?> <svg xmlns="http://www.w3.org/2000/svg" width="800" height="276" viewBox="0 0 800 276" fill="none"><path fill-rule="evenodd" clip-rule="evenodd" d="M318.357 25.2949V91.6704C318.357 97.9457 318.81 102.474 319.781 105.191C320.751 107.973 322.433 109.332 324.891 109.332V113.537H303.284V109.332C305.548 109.332 307.101 108.038 307.942 105.515C308.783 102.992 309.235 98.6573 309.235 92.5114V23.9363C309.235 17.9845 308.783 13.7148 307.942 11.0623C307.101 8.40991 305.548 7.11604 303.284 7.11604V2.91097H339.965V7.11604C339.253 7.43951 338.671 7.95705 338.153 8.5393C337.701 9.18623 337.442 10.0272 337.442 11.127C337.442 11.9034 337.507 12.6797 337.636 13.3913C337.765 14.1029 337.959 15.0086 338.153 15.979L339.253 20.1841L345.593 42.6974L353.356 18.8256C354.068 16.5613 354.456 15.3321 354.521 15.138C354.974 13.3266 355.233 12.0327 355.233 11.127C355.233 9.12154 354.65 7.76297 353.421 7.11604V2.91097H387.709V7.11604C385.444 7.11604 383.892 8.40991 383.051 10.8683C382.21 13.3913 381.757 17.7258 381.757 23.8716V92.5114C381.757 98.4632 382.21 102.733 383.051 105.385C383.892 108.038 385.444 109.332 387.709 109.332V113.537H353.421V109.332C355.685 109.332 357.238 108.038 358.208 105.45C359.179 102.862 359.632 98.5279 359.632 92.5114V25.2949L338.865 91.541L318.551 25.2949H318.357ZM739.059 247.258C738.541 249.652 738.088 252.11 737.636 254.633C737.183 257.092 736.989 259.162 736.989 260.65C736.989 262.979 737.441 264.725 738.282 265.89C739.123 267.054 740.353 267.766 741.97 267.96V272.1H718.098V267.96C720.686 267.054 722.885 264.661 724.632 260.65C725.603 258.579 726.832 254.698 728.32 249.07L745.334 180.43C745.722 179.201 746.11 177.648 746.499 175.772C746.951 173.896 747.146 172.473 747.146 171.437C747.146 168.979 746.369 167.621 744.752 167.297V163.157H776.452V167.297C775.611 167.491 774.964 167.879 774.576 168.462C774.187 169.044 773.993 170.014 773.993 171.437C773.993 172.084 774.899 176.613 776.71 185.023C780.01 200.549 782.145 210.383 783.115 214.459C785.703 226.039 788.355 237.619 790.943 249.199C792.496 255.798 793.466 259.679 793.854 260.779C795.342 265.049 797.412 267.443 799.935 267.895V272.036H762.478V267.895C764.225 267.895 765.648 266.99 766.748 265.178C767.847 263.367 768.43 261.103 768.43 258.321C768.43 254.568 767.459 250.687 765.518 246.547C763.836 243.118 761.766 240.142 759.308 237.554C756.85 234.966 754.326 233.09 751.674 231.99C749.022 230.891 746.11 230.308 742.94 230.308L739.059 247.193V247.258ZM753.162 185.217L746.304 216.335C748.828 216.335 751.415 217.046 754.003 218.47C756.591 219.893 759.049 221.898 761.378 224.421L753.097 185.217H753.162ZM650.235 183.923C650.235 178.101 649.782 173.831 648.941 171.243C648.1 168.656 646.547 167.362 644.283 167.362V163.221H692.35C698.302 163.221 702.507 163.868 705.03 165.227C709.623 167.621 711.888 172.473 711.888 179.589C711.888 185.67 709.753 191.169 705.483 196.15C702.636 199.32 698.69 202.49 693.644 205.596C700.501 207.342 706.065 210.9 710.335 216.205C715.446 222.481 718.033 230.567 718.033 240.336C718.033 246.094 717.128 251.075 715.252 255.41C713.376 259.679 710.723 263.367 707.294 266.343C704.771 268.672 701.666 270.224 698.043 271.001C694.42 271.777 690.474 272.165 686.269 272.165H644.283V268.025C646.547 268.025 648.1 266.796 648.941 264.273C649.782 261.814 650.235 257.544 650.235 251.463V183.988V183.923ZM672.489 205.596C676.888 204.043 680.705 201.714 683.875 198.673C688.21 194.468 690.409 189.616 690.409 184.117C690.409 180.689 689.374 178.166 687.304 176.613C685.234 174.996 682.97 174.219 680.511 174.219C679.023 174.219 677.665 174.349 676.436 174.607C675.206 174.866 674.301 175.578 673.589 176.678C673.136 177.195 672.877 178.036 672.748 179.071C672.619 180.106 672.554 181.271 672.554 182.435V205.596H672.489ZM672.489 250.234C672.489 254.763 672.813 257.738 673.524 259.097C674.236 260.456 676.047 261.167 679.023 261.167C683.811 261.167 687.692 259.226 690.603 255.41C693.579 251.528 695.067 245.964 695.067 238.719C695.067 232.767 694.032 227.591 691.962 223.192C689.892 218.793 687.045 215.041 683.358 211.936L672.489 217.564V250.299V250.234ZM637.425 272.1H601.521V267.96C602.944 267.96 604.108 267.637 604.885 266.99C605.984 266.019 606.502 264.467 606.502 262.332C606.502 259.356 605.855 255.151 604.626 249.781C603.332 244.347 602.038 239.624 600.744 235.549C599.45 231.473 597.898 227.462 596.086 223.451C594.663 220.346 592.722 216.593 590.329 212.194L586.512 217.499V251.399C586.512 262.396 588.711 267.96 593.11 267.96V272.1H558.241V267.96C560.505 267.96 562.058 266.731 562.899 264.208C563.74 261.749 564.192 257.48 564.192 251.399V183.923C564.192 178.101 563.74 173.831 562.899 171.243C562.058 168.656 560.505 167.362 558.241 167.362V163.221H592.334L592.463 167.362C590.264 167.362 588.776 168.72 587.87 171.437C586.964 174.155 586.512 178.554 586.512 184.764V203.784L598.092 187.934C599.515 185.735 601.003 183.535 602.426 181.336C604.367 178.036 605.337 175.448 605.337 173.572C605.337 171.826 604.82 170.338 603.72 169.173C602.62 168.009 601.456 167.426 600.227 167.426V163.286H631.732V167.426C628.174 168.203 624.551 170.208 620.864 173.378C617.888 175.901 614.718 179.33 611.289 183.664L605.726 190.91C611.225 199.385 616.012 209.412 620.023 220.863C623.258 230.114 626.492 241.565 629.597 255.086C630.633 259.291 631.538 262.267 632.444 264.014C633.738 266.666 635.355 267.96 637.361 267.96V272.1H637.425ZM546.531 275.723C546.078 274.623 545.561 273.912 544.914 273.588C544.267 273.265 543.49 273.071 542.52 273.071H541.291L525.764 274.559C512.955 274.559 502.345 269.642 493.871 259.809C484.555 249.005 479.897 234.061 479.897 214.976C479.897 197.897 483.778 184.376 491.606 174.478C498.981 165.097 508.362 160.44 519.813 160.44C522.4 160.44 524.988 160.698 527.446 161.151C529.97 161.604 532.622 162.251 535.404 163.092C536.051 163.351 536.698 163.48 537.215 163.61C537.797 163.739 538.509 163.804 539.415 163.804C541.873 163.804 543.685 162.316 544.849 159.275L551.06 206.307L548.795 207.278C546.725 198.091 543.685 190.522 539.674 184.635C535.08 177.842 529.97 174.478 524.147 174.478C517.678 174.478 512.632 178.36 508.815 186.058C505.386 192.98 503.704 201.52 503.704 211.677C503.704 217.499 504.222 223.257 505.257 228.885C506.292 234.514 507.974 239.689 510.238 244.412C512.502 249.134 515.478 253.016 519.166 255.992C522.853 258.968 526.735 260.456 530.875 260.456C535.792 260.456 540.191 258.45 544.008 254.504C547.825 250.558 550.671 244.994 552.483 237.942L555.006 239.236L546.402 275.659L546.531 275.723ZM403.947 260.003C400.259 254.827 397.413 248.423 395.472 240.789C393.531 233.155 392.561 225.262 392.561 217.111C392.561 199.773 396.442 185.929 404.205 175.448C411.645 165.421 421.155 160.375 432.735 160.375C438.105 160.375 443.216 161.539 448.068 163.739C452.984 166.003 457.189 169.626 460.748 174.543C464.564 179.977 467.411 186.446 469.287 193.951C471.163 201.52 472.134 209.607 472.134 218.211C472.134 226.039 471.228 233.543 469.416 240.724C467.605 247.905 464.953 253.986 461.394 259.032C457.836 264.078 453.502 267.895 448.326 270.548C443.151 273.2 437.975 274.494 432.735 274.494C427.495 274.494 422.061 273.33 417.015 271.001C411.969 268.672 407.634 264.984 404.011 259.938L403.947 260.003ZM446.062 246.094C446.838 242.988 447.421 239.624 447.744 235.937C448.068 232.249 448.262 228.368 448.262 224.292C448.262 218.017 448.068 212.518 447.679 207.73C447.291 203.008 446.45 198.091 445.156 193.11C443.863 188.064 442.051 183.859 439.722 180.43C436.94 176.484 433.964 174.478 430.73 174.478C428.142 174.478 425.748 175.901 423.549 178.748C421.737 181.206 420.249 184.441 419.02 188.516C418.179 191.622 417.532 195.115 417.144 199.126C416.756 203.073 416.562 207.084 416.562 211.03C416.562 217.111 416.821 222.545 417.274 227.397C417.726 232.249 418.632 237.231 419.991 242.341C421.349 247.452 423.096 251.593 425.231 254.633C427.819 258.515 430.794 260.456 434.159 260.456C437.005 260.456 439.399 259.162 441.469 256.509C443.539 253.857 445.092 250.363 446.192 246.094H446.062ZM318.422 185.217V250.558C318.422 256.703 318.875 261.167 319.845 263.884C320.816 266.601 322.498 267.96 324.956 267.96V272.1H303.219V267.96C305.483 267.96 307.036 266.731 307.877 264.208C308.718 261.749 309.171 257.48 309.171 251.399V183.923C309.171 178.101 308.718 173.831 307.877 171.243C307.036 168.656 305.419 167.362 303.219 167.362V163.221H340.03V167.362C339.318 167.685 338.736 168.138 338.218 168.785C337.765 169.367 337.507 170.273 337.507 171.373C337.507 172.149 337.571 172.861 337.701 173.637C337.83 174.349 338.024 175.19 338.218 176.225L339.318 180.365L345.658 202.555L353.421 179.071C354.133 176.872 354.521 175.642 354.586 175.448C355.038 173.702 355.297 172.343 355.297 171.502C355.297 169.497 354.65 168.203 353.421 167.556V163.415H387.838V167.556C385.574 167.556 384.021 168.785 383.18 171.308C382.339 173.766 381.886 178.036 381.886 184.117V251.593C381.886 257.415 382.339 261.685 383.18 264.273C384.021 266.86 385.638 268.154 387.838 268.154V272.295H353.421V268.154C355.685 268.154 357.238 266.86 358.208 264.337C359.114 261.814 359.632 257.544 359.632 251.593V185.411L338.8 250.622L318.422 185.411V185.217ZM731.166 113.537V109.332C733.43 109.332 734.983 108.038 735.824 105.515C736.665 102.992 737.118 98.6573 737.118 92.5114V23.9363C737.118 17.9845 736.665 13.7148 735.824 11.0623C734.983 8.40991 733.43 7.11604 731.166 7.11604V2.91097H765.907V7.11604C763.578 7.11604 761.896 8.40991 760.86 10.8683C759.825 13.3913 759.308 17.7258 759.308 23.8716V39.9803C770.176 39.9803 779.686 43.8619 787.838 51.6898C795.924 59.453 800 69.2865 800 80.996C800 91.541 797.154 99.563 791.396 105.127C785.638 110.69 777.357 113.472 766.489 113.472H731.231L731.166 113.537ZM763.966 102.927C767.977 102.927 771.147 100.986 773.346 97.1046C775.546 93.223 776.646 87.7241 776.646 80.5431C776.646 72.7152 775.093 65.9224 771.988 60.2941C768.882 54.6657 764.677 51.3664 759.308 50.4607V92.1232C759.308 96.0695 759.567 98.8514 760.149 100.469C760.666 102.086 761.96 102.927 763.966 102.927ZM673.977 22.2543C669.707 30.0175 666.085 39.6568 663.173 51.3664C659.68 64.952 657.998 78.2141 657.998 91.2175C657.998 95.8108 658.71 99.6277 660.068 102.668C661.815 106.485 664.403 108.62 667.961 109.073H668.931V113.601H645.383V112.114C645.383 105.579 645.9 97.9457 646.871 89.0826C648.229 77.1791 650.299 65.7283 653.146 54.601C656.704 40.5626 661.168 28.4002 666.667 18.1139C667.637 16.1084 668.09 14.0382 668.09 11.9034C668.09 8.73338 667.12 7.18073 665.179 7.18073H664.208V2.91097H718.422V7.11604C715.834 7.11604 714.087 9.05684 713.246 13.0031C712.729 15.3321 712.47 19.6019 712.47 25.7478V91.4116C712.47 97.6869 712.664 101.763 713.117 103.639C713.893 107.197 715.704 109.008 718.422 109.008V113.537H684.263V109.332C686.981 109.332 688.792 107.456 689.568 103.768C690.086 101.439 690.345 97.0399 690.345 90.7V26.2653C690.345 17.7905 688.404 13.5207 684.587 13.5207C682.775 13.5207 681.029 14.1676 679.347 15.4615C677.665 16.7554 675.918 19.0196 674.107 22.2543H673.977ZM566.91 113.537V109.332C569.174 109.332 570.726 108.038 571.567 105.515C572.408 102.992 572.861 98.6573 572.861 92.5114V23.9363C572.861 17.9845 572.408 13.7148 571.567 11.0623C570.726 8.40991 569.174 7.11604 566.91 7.11604V2.91097H618.276C620.023 2.91097 621.381 2.78158 622.416 2.45811C623.452 2.13464 624.357 1.35832 625.069 0.0644531L630.568 39.0746L628.174 40.1097C626.686 32.023 623.775 25.6831 619.505 21.0251C615.236 16.3672 610.384 14.0382 604.885 14.0382C600.55 14.0382 597.768 15.2027 596.474 17.5964C595.439 19.4078 594.986 23.2247 594.986 29.0471V39.1393H601.132C605.014 39.1393 607.666 38.4924 609.154 37.2632C611.483 35.3871 612.583 31.4408 612.583 25.489L614.783 24.9714L619.57 67.6691L617.435 67.9926C616.788 65.4048 616.077 63.1406 615.236 61.1998C614.394 59.259 613.359 57.3829 612.13 55.5714C610.513 53.3072 608.831 51.8839 607.019 51.1723C605.208 50.5253 603.008 50.1372 600.421 50.1372H594.986V82.5486C594.986 90.5059 595.827 95.8755 597.51 98.6573C598.933 101.116 601.65 102.345 605.531 102.345C612.066 102.345 617.823 99.4336 622.74 93.6112C627.204 88.371 630.956 80.8019 633.997 71.0979L636.261 72.4564L627.074 115.995C626.363 114.831 625.522 114.119 624.487 113.86C623.452 113.601 622.158 113.472 620.605 113.472H566.974L566.91 113.537ZM516.578 14.0382C515.09 14.0382 513.731 14.1676 512.502 14.4264C511.338 14.6852 510.367 15.3968 509.656 16.4966C509.203 17.0788 508.944 17.8552 508.815 18.9549C508.685 19.99 508.621 21.1545 508.621 22.3837V38.1689C521.818 38.1689 532.493 41.6623 540.644 48.5845C549.572 56.2184 554.036 67.0869 554.036 81.19C554.036 87.0125 553.13 92.1232 551.254 96.4577C549.442 100.857 546.79 104.544 543.296 107.585C540.773 109.914 537.668 111.531 534.045 112.308C530.422 113.084 526.476 113.472 522.336 113.472H480.608V109.267C482.873 109.267 484.361 107.973 485.266 105.45C486.107 102.927 486.56 98.5926 486.56 92.4467V23.9363C486.56 17.9845 486.107 13.7148 485.266 11.0623C484.425 8.40991 482.873 7.11604 480.608 7.11604V2.91097H535.145C536.827 2.91097 538.121 2.78158 539.221 2.45811C540.256 2.13464 541.162 1.35832 541.873 0.0644531L547.372 38.8805L544.978 40.045C543.491 31.9583 540.579 25.6184 536.31 20.9604C532.04 16.3025 527.188 13.9735 521.689 13.9735H516.578V14.0382ZM508.556 91.3469C508.556 95.9402 508.879 98.9161 509.591 100.339C510.303 101.763 512.114 102.409 515.025 102.409C519.813 102.409 523.63 100.469 526.605 96.5224C529.581 92.5761 531.069 86.9478 531.069 79.5727C531.069 71.2919 528.934 64.3051 524.665 58.5473C520.395 52.8543 515.025 49.9431 508.556 49.9431V91.2822V91.3469ZM400.518 113.537V109.332C402.782 109.332 404.335 108.038 405.176 105.515C406.017 102.992 406.47 98.6573 406.47 92.5114V23.9363C406.47 17.9845 406.017 13.7148 405.176 11.0623C404.335 8.40991 402.782 7.11604 400.518 7.11604V2.91097H451.885C453.631 2.91097 454.99 2.78158 456.025 2.45811C457.06 2.13464 457.966 1.35832 458.677 0.0644531L464.176 39.0746L461.783 40.1097C460.295 32.023 457.383 25.6831 453.114 21.0251C448.844 16.3672 443.992 14.0382 438.493 14.0382C434.159 14.0382 431.377 15.2027 430.083 17.5964C429.048 19.4078 428.595 23.2247 428.595 29.0471V39.1393H434.741C438.622 39.1393 441.275 38.4924 442.763 37.2632C445.092 35.3871 446.192 31.4408 446.192 25.489L448.326 24.9714L453.114 67.6691L450.979 67.9926C450.332 65.4048 449.62 63.1406 448.779 61.1998C447.938 59.259 446.903 57.3829 445.674 55.5714C444.057 53.3072 442.375 51.8839 440.563 51.1723C438.752 50.5253 436.552 50.1372 433.964 50.1372H428.53V82.5486C428.53 90.5059 429.371 95.8755 430.989 98.6573C432.412 101.116 435.129 102.345 439.011 102.345C445.545 102.345 451.302 99.4336 456.219 93.6112C460.683 88.371 464.435 80.8019 467.476 71.0979L469.74 72.4564L460.553 115.995C459.842 114.831 458.936 114.119 457.966 113.86C456.931 113.601 455.637 113.472 454.084 113.472H400.453L400.518 113.537Z" fill="#E5112F"></path><path fill-rule="evenodd" clip-rule="evenodd" d="M202.102 198.415C202.102 198.415 202.232 198.091 202.296 197.897L180.171 181.788C180.171 181.788 179.912 182.112 179.783 182.306C179.395 182.824 179.007 183.276 178.683 183.794L198.803 198.415H202.102ZM49.6846 219.634C48.9083 219.634 48.1966 219.505 47.6144 219.246C47.0321 218.987 46.5793 218.534 46.2558 217.887C45.9324 217.305 45.803 216.529 45.803 215.558C45.803 214.847 45.9324 214.2 46.1264 213.682C46.3205 213.165 46.5793 212.712 46.9674 212.388C47.3556 212.065 47.7438 211.806 48.2613 211.612C48.7789 211.418 49.2964 211.353 49.8787 211.353C51.1725 211.353 52.1429 211.677 52.8545 212.388C53.5015 213.1 53.825 214.071 53.825 215.429C53.825 216.335 53.6309 217.176 53.3074 217.758C52.9839 218.405 52.5311 218.858 51.8842 219.181C51.3019 219.505 50.5256 219.634 49.6846 219.634ZM48.2613 215.364C48.2613 216.529 48.3907 217.37 48.6495 217.952C48.9083 218.534 49.2964 218.793 49.814 218.793C50.0727 218.793 50.3315 218.728 50.5256 218.599C50.7197 218.47 50.8491 218.276 50.9784 217.952C51.1078 217.693 51.1725 217.37 51.2372 216.982C51.2372 216.594 51.3019 216.141 51.3019 215.688C51.3019 214.523 51.1725 213.682 50.9137 213.1C50.655 212.518 50.2668 212.259 49.7493 212.259C49.3611 212.259 49.1023 212.388 48.8436 212.583C48.6495 212.841 48.4554 213.165 48.326 213.618C48.1966 214.071 48.1966 214.653 48.1966 215.429L48.2613 215.364ZM61.3294 217.435L61.9763 218.211C61.4588 218.728 60.9412 219.117 60.4237 219.311C59.9061 219.505 59.3886 219.634 58.8063 219.634C57.6419 219.634 56.7362 219.311 56.1539 218.599C55.5717 217.887 55.2482 216.917 55.2482 215.623C55.2482 214.717 55.4423 214.006 55.7658 213.359C56.0892 212.712 56.6068 212.259 57.189 211.871C57.8359 211.547 58.5476 211.353 59.3239 211.353C59.7767 211.353 60.1649 211.353 60.6178 211.418C61.0706 211.418 61.4588 211.547 61.7822 211.677V213.618H60.1649C60.1002 213.1 59.9708 212.712 59.7767 212.518C59.6474 212.259 59.3886 212.194 59.0651 212.194C58.871 212.194 58.677 212.194 58.4829 212.324C58.2888 212.453 58.1594 212.583 58.03 212.841C57.9006 213.1 57.7713 213.424 57.7066 213.812C57.6419 214.2 57.5772 214.717 57.5772 215.364C57.5772 216.011 57.5772 216.529 57.7713 216.982C57.9006 217.435 58.0947 217.758 58.3535 217.952C58.6123 218.211 58.9357 218.276 59.3886 218.276C59.7121 218.276 59.9708 218.211 60.2943 218.082C60.5531 217.952 60.8765 217.693 61.2647 217.37L61.3294 217.435ZM71.0334 217.564C71.0334 218.082 71.0334 218.405 71.2275 218.599C71.3569 218.793 71.551 218.923 71.9391 218.987V219.505H67.9281V218.987C67.9281 218.987 68.4457 218.793 68.5751 218.599C68.6398 218.405 68.7044 218.082 68.7044 217.564V215.882H66.052V217.564C66.052 218.082 66.052 218.47 66.2461 218.664C66.3755 218.858 66.5696 218.923 66.8283 218.987V219.505H62.8173V218.987C63.1408 218.987 63.3996 218.793 63.529 218.664C63.6584 218.47 63.7231 218.146 63.7231 217.629V213.488C63.7231 212.906 63.6584 212.518 63.529 212.388C63.3996 212.259 63.1408 212.13 62.882 212.065V211.547H66.8283V212.065C66.8283 212.065 66.3108 212.194 66.1814 212.388C66.052 212.583 66.052 212.906 66.052 213.424V214.847H68.7044V213.424C68.7044 212.841 68.7044 212.453 68.5104 212.324C68.381 212.194 68.1869 212.065 67.9281 212.065V211.547H71.9391V212.065C71.6156 212.065 71.3569 212.259 71.2275 212.453C71.0981 212.647 71.0334 212.971 71.0334 213.488V217.629V217.564ZM77.1146 219.634C76.3383 219.634 75.6266 219.505 75.0444 219.246C74.4622 218.987 74.0093 218.534 73.6858 217.887C73.3624 217.305 73.233 216.529 73.233 215.558C73.233 214.847 73.3624 214.2 73.5565 213.682C73.7505 213.165 74.0093 212.712 74.3975 212.388C74.7856 212.065 75.1738 211.806 75.6913 211.612C76.2089 211.418 76.7264 211.353 77.3087 211.353C78.6025 211.353 79.5729 211.677 80.2846 212.388C80.9315 213.1 81.255 214.071 81.255 215.429C81.255 216.335 81.0609 217.176 80.7374 217.758C80.414 218.405 79.9611 218.858 79.3142 219.181C78.7319 219.505 77.9556 219.634 77.1146 219.634ZM75.6913 215.364C75.6913 216.529 75.8207 217.37 76.0795 217.952C76.3383 218.534 76.7264 218.793 77.244 218.793C77.5028 218.793 77.7615 218.728 77.9556 218.599C78.1497 218.47 78.2791 218.276 78.4085 217.952C78.5378 217.693 78.6025 217.37 78.6672 216.982C78.6672 216.594 78.7319 216.141 78.7319 215.688C78.7319 214.523 78.6025 213.682 78.3438 213.1C78.085 212.518 77.6968 212.259 77.1793 212.259C76.7911 212.259 76.5324 212.388 76.2736 212.583C76.0795 212.841 75.8854 213.165 75.756 213.618C75.6266 214.071 75.6266 214.653 75.6266 215.429L75.6913 215.364ZM82.4841 219.505V218.987C82.8076 218.987 83.0664 218.793 83.1958 218.599C83.3252 218.405 83.3899 218.082 83.3899 217.499V213.424C83.3899 212.841 83.3899 212.518 83.1958 212.324C83.0664 212.13 82.8723 212 82.4841 212V211.483H87.2715C88.3066 211.483 89.0182 211.612 89.5357 211.871C90.0533 212.13 90.3121 212.647 90.3121 213.294C90.3121 213.747 90.118 214.2 89.7945 214.523C89.471 214.847 88.9535 215.106 88.2419 215.235C89.6651 215.558 90.3768 216.205 90.3768 217.305C90.3768 218.793 89.3417 219.505 87.2068 219.505H82.4841ZM85.7188 212.388V214.912H86.5598C87.4655 214.912 87.9184 214.459 87.9184 213.618C87.9184 213.1 87.789 212.777 87.4655 212.583C87.1421 212.388 86.5598 212.324 85.7188 212.388ZM85.7188 215.817V218.599C85.7188 218.599 86.2364 218.599 86.4951 218.599C87.4655 218.599 87.9184 218.146 87.9184 217.176C87.9184 216.205 87.4655 215.817 86.5598 215.817H85.7188ZM96.5873 218.47H96.4579C96.0051 218.858 95.6169 219.181 95.1641 219.375C94.7759 219.569 94.3231 219.699 93.8055 219.699C93.288 219.699 92.9645 219.634 92.5763 219.44C92.2529 219.246 91.9941 219.052 91.8 218.728C91.6059 218.405 91.5412 218.082 91.5412 217.693C91.5412 216.917 91.9294 216.27 92.7057 215.817C93.482 215.364 94.6465 215.106 96.2639 214.976V214.2C96.2639 213.682 96.2639 213.294 96.0698 213.035C95.9404 212.777 95.811 212.583 95.6169 212.453C95.4228 212.324 95.2288 212.259 94.97 212.259C94.7112 212.259 94.5171 212.259 94.3231 212.388C94.129 212.453 93.9996 212.647 93.8055 212.906C93.6761 213.165 93.5467 213.488 93.482 213.876H91.9294V212.388C92.4469 212.194 92.8351 212 93.1586 211.871C93.482 211.742 93.8055 211.677 94.129 211.547C94.4524 211.483 94.7112 211.418 94.97 211.353C95.2288 211.353 95.4875 211.353 95.7463 211.353C96.3932 211.353 96.9108 211.418 97.2989 211.612C97.6871 211.806 98.0106 212.065 98.2047 212.453C98.3987 212.841 98.4634 213.359 98.4634 214.071V217.241C98.4634 217.564 98.4634 217.887 98.4634 218.082C98.4634 218.276 98.4634 218.405 98.5281 218.534C98.5281 218.664 98.5928 218.728 98.6575 218.793C98.6575 218.793 98.7869 218.923 98.8516 218.923C98.9163 218.923 99.0457 218.987 99.3044 219.052V219.569H96.3286V218.534H96.3932L96.5873 218.47ZM96.3286 215.688C95.4875 215.688 94.9053 215.882 94.4524 216.141C94.0643 216.464 93.8702 216.852 93.8702 217.435C93.8702 217.758 93.9349 218.017 94.129 218.211C94.3231 218.405 94.5818 218.47 94.9053 218.47C95.1641 218.47 95.3582 218.405 95.6169 218.276C95.811 218.146 96.0051 217.952 96.1345 217.758C96.2639 217.564 96.3286 217.305 96.3286 217.046V215.688ZM108.75 217.564C108.75 218.082 108.75 218.405 108.944 218.599C109.073 218.793 109.267 218.923 109.655 218.987V219.505H105.644V218.987C105.644 218.987 106.162 218.793 106.291 218.599C106.356 218.405 106.421 218.082 106.421 217.564V215.882H103.768V217.564C103.768 218.082 103.768 218.47 103.962 218.664C104.092 218.858 104.286 218.923 104.545 218.987V219.505H100.534V218.987C100.857 218.987 101.116 218.793 101.245 218.664C101.375 218.47 101.439 218.146 101.439 217.629V213.488C101.439 212.906 101.375 212.518 101.245 212.388C101.116 212.259 100.857 212.13 100.598 212.065V211.547H104.545V212.065C104.545 212.065 104.027 212.194 103.898 212.388C103.768 212.583 103.768 212.906 103.768 213.424V214.847H106.421V213.424C106.421 212.841 106.421 212.453 106.227 212.324C106.097 212.194 105.903 212.065 105.644 212.065V211.547H109.655V212.065C109.332 212.065 109.073 212.259 108.944 212.453C108.814 212.647 108.75 212.971 108.75 213.488V217.629V217.564ZM114.831 219.634C114.055 219.634 113.343 219.505 112.761 219.246C112.178 218.987 111.726 218.534 111.402 217.887C111.079 217.305 110.949 216.529 110.949 215.558C110.949 214.847 111.079 214.2 111.273 213.682C111.467 213.165 111.726 212.712 112.114 212.388C112.437 212.065 112.89 211.806 113.408 211.612C113.925 211.418 114.443 211.353 115.025 211.353C116.319 211.353 117.289 211.677 118.001 212.388C118.648 213.1 118.971 214.071 118.971 215.429C118.971 216.335 118.777 217.176 118.454 217.758C118.13 218.405 117.677 218.858 117.03 219.181C116.448 219.505 115.672 219.634 114.831 219.634ZM113.408 215.364C113.408 216.529 113.537 217.37 113.796 217.952C114.055 218.534 114.443 218.793 114.96 218.793C115.219 218.793 115.478 218.728 115.672 218.599C115.866 218.47 115.995 218.276 116.125 217.952C116.254 217.693 116.319 217.37 116.384 216.982C116.384 216.594 116.448 216.141 116.448 215.688C116.448 214.523 116.319 213.682 116.06 213.1C115.801 212.518 115.413 212.259 114.896 212.259C114.507 212.259 114.249 212.388 113.99 212.583C113.796 212.841 113.602 213.165 113.472 213.618C113.343 214.071 113.343 214.653 113.343 215.429L113.408 215.364ZM123.888 219.505V218.987C124.211 218.987 124.47 218.793 124.6 218.599C124.729 218.405 124.794 218.082 124.794 217.499V213.424C124.794 212.841 124.794 212.518 124.6 212.324C124.47 212.13 124.276 212 123.888 212V211.483H128.675C129.71 211.483 130.422 211.612 130.94 211.871C131.457 212.13 131.716 212.647 131.716 213.294C131.716 213.747 131.522 214.2 131.198 214.523C130.875 214.847 130.357 215.106 129.646 215.235C131.069 215.558 131.781 216.205 131.781 217.305C131.781 218.793 130.745 219.505 128.611 219.505H123.888ZM127.123 212.388V214.912H127.964C128.869 214.912 129.322 214.459 129.322 213.618C129.322 213.1 129.193 212.777 128.869 212.583C128.546 212.388 127.964 212.324 127.123 212.388ZM127.123 215.817V218.599C127.123 218.599 127.64 218.599 127.899 218.599C128.869 218.599 129.322 218.146 129.322 217.176C129.322 216.205 128.869 215.817 127.964 215.817H127.123ZM142.649 217.241C142.649 217.241 142.649 217.758 142.649 217.952C142.649 218.082 142.778 218.211 142.843 218.34C142.908 218.47 143.037 218.534 143.231 218.599C143.425 218.599 143.619 218.728 143.878 218.728C144.137 218.728 144.46 218.728 144.849 218.728V219.44H137.862V218.728C138.444 218.728 138.897 218.728 139.156 218.599C139.414 218.599 139.608 218.47 139.738 218.405C139.867 218.34 139.997 218.211 140.061 218.017C140.061 217.823 140.126 217.564 140.126 217.176V211.353C140.126 211.353 140.126 210.965 139.997 210.901C139.932 210.771 139.803 210.771 139.673 210.771C139.544 210.771 139.35 210.771 139.091 210.965C138.832 211.095 138.444 211.353 137.862 211.742L137.344 210.901L141.549 208.378H142.584C142.584 208.895 142.584 209.607 142.584 210.512V217.241H142.649ZM148.601 219.117V218.534C148.924 218.534 149.248 218.534 149.507 218.405C149.83 218.34 150.089 218.211 150.412 218.082C150.671 217.952 150.93 217.758 151.124 217.564C151.383 217.305 151.577 217.046 151.771 216.723C151.965 216.4 152.094 216.011 152.159 215.623C152.288 215.235 152.353 214.847 152.353 214.394H152.288C151.9 214.653 151.447 214.847 151.059 214.976C150.671 215.106 150.154 215.17 149.636 215.17C148.989 215.17 148.471 215.041 148.019 214.782C147.566 214.523 147.242 214.135 147.048 213.618C146.854 213.1 146.725 212.583 146.725 211.936C146.725 211.224 146.919 210.577 147.242 209.995C147.566 209.413 148.083 209.024 148.666 208.701C149.312 208.378 150.024 208.248 150.93 208.248C151.836 208.248 152.547 208.442 153.129 208.766C153.712 209.154 154.165 209.671 154.488 210.318C154.811 211.03 154.941 211.806 154.941 212.777C154.941 214.135 154.682 215.3 154.229 216.27C153.776 217.24 153.129 218.017 152.224 218.534C151.383 219.052 150.283 219.375 149.054 219.505L148.666 219.052L148.601 219.117ZM150.606 214.135C150.606 214.135 150.995 214.135 151.189 214.135C151.383 214.135 151.512 214.006 151.706 213.941C151.836 213.876 152.03 213.747 152.159 213.682C152.288 213.553 152.353 213.488 152.418 213.424C152.418 213.359 152.482 213.23 152.547 213.1C152.547 212.971 152.547 212.777 152.547 212.583C152.547 211.547 152.418 210.706 152.094 210.124C151.836 209.542 151.383 209.283 150.865 209.283C150.542 209.283 150.283 209.283 150.089 209.477C149.895 209.607 149.701 209.801 149.571 209.995C149.442 210.189 149.312 210.512 149.248 210.836C149.248 211.159 149.183 211.483 149.183 211.871C149.183 213.424 149.701 214.2 150.671 214.2L150.606 214.135ZM161.863 217.499C162.186 217.499 162.445 217.499 162.639 217.435C162.833 217.435 162.963 217.305 163.028 217.176C163.157 217.046 163.222 216.852 163.286 216.594H164.192L163.998 219.505H156.623V218.987C156.817 218.47 157.205 217.887 157.593 217.305C158.046 216.723 158.564 216.011 159.146 215.3C159.728 214.588 160.181 214.071 160.504 213.618C160.828 213.165 161.022 212.777 161.216 212.388C161.345 212 161.41 211.612 161.41 211.159C161.41 210.577 161.281 210.124 161.022 209.736C160.763 209.413 160.375 209.219 159.922 209.219C159.469 209.219 159.146 209.348 158.822 209.671C158.564 209.995 158.305 210.448 158.175 211.095H156.752V209.219C157.399 208.96 157.917 208.766 158.305 208.636C158.693 208.507 159.016 208.442 159.405 208.378C159.793 208.378 160.181 208.313 160.569 208.313C161.345 208.313 161.992 208.442 162.51 208.636C163.028 208.83 163.351 209.154 163.61 209.477C163.804 209.865 163.933 210.254 163.933 210.771C163.933 211.224 163.869 211.612 163.674 211.936C163.545 212.324 163.222 212.712 162.833 213.165C162.445 213.618 161.798 214.329 160.828 215.17C160.44 215.558 160.052 215.947 159.663 216.399C159.275 216.788 159.016 217.111 158.887 217.37L161.734 217.435L161.863 217.499ZM173.249 208.895V209.413C172.085 209.413 171.114 209.801 170.403 210.512C169.691 211.224 169.173 212.194 168.915 213.553H168.979C169.367 213.294 169.82 213.1 170.273 212.971C170.726 212.841 171.179 212.777 171.696 212.777C172.343 212.777 172.861 212.906 173.314 213.165C173.767 213.424 174.09 213.812 174.349 214.329C174.608 214.847 174.672 215.429 174.672 216.076C174.672 216.788 174.543 217.435 174.219 217.952C173.896 218.47 173.443 218.923 172.796 219.246C172.149 219.569 171.373 219.699 170.467 219.699C169.626 219.699 168.915 219.505 168.332 219.181C167.75 218.858 167.297 218.34 166.974 217.693C166.65 217.046 166.521 216.27 166.521 215.3C166.521 214.071 166.78 212.906 167.297 211.871C167.815 210.836 168.591 210.06 169.562 209.413C170.532 208.766 171.632 208.442 172.861 208.378L173.314 208.96L173.249 208.895ZM170.726 213.812C170.726 213.812 170.208 213.812 170.014 213.941C169.756 214.006 169.562 214.135 169.367 214.265C169.173 214.394 169.044 214.523 168.979 214.588C168.979 214.653 168.85 214.782 168.85 214.976C168.85 215.106 168.85 215.429 168.85 215.817C168.85 216.788 168.979 217.564 169.238 218.017C169.497 218.534 169.95 218.793 170.467 218.793C170.791 218.793 171.049 218.793 171.244 218.599C171.438 218.47 171.632 218.276 171.761 218.082C171.891 217.887 172.02 217.564 172.085 217.305C172.085 216.982 172.149 216.658 172.149 216.27C172.149 215.494 172.02 214.912 171.761 214.523C171.502 214.135 171.114 213.941 170.661 213.941L170.726 213.812ZM182.824 212.453V217.564C182.824 218.017 182.824 218.405 183.018 218.599C183.147 218.793 183.341 218.923 183.665 218.987V219.505H179.654V218.987C179.977 218.987 180.236 218.793 180.365 218.664C180.495 218.47 180.559 218.146 180.559 217.629V213.488C180.559 212.971 180.495 212.583 180.365 212.388C180.236 212.194 180.042 212.13 179.718 212.065V211.547H186.576V214.265H185.541C185.347 213.488 185.088 213.035 184.894 212.841C184.635 212.647 184.312 212.518 183.729 212.518H182.888L182.824 212.453ZM191.234 219.634C190.458 219.634 189.746 219.505 189.164 219.246C188.581 218.987 188.129 218.534 187.805 217.887C187.482 217.305 187.352 216.529 187.352 215.558C187.352 214.847 187.482 214.2 187.676 213.682C187.87 213.165 188.129 212.712 188.517 212.388C188.905 212.065 189.293 211.806 189.811 211.612C190.328 211.418 190.846 211.353 191.428 211.353C192.722 211.353 193.692 211.677 194.404 212.388C195.051 213.1 195.374 214.071 195.374 215.429C195.374 216.335 195.18 217.176 194.857 217.758C194.533 218.405 194.08 218.858 193.433 219.181C192.851 219.505 192.075 219.634 191.234 219.634ZM189.811 215.364C189.811 216.529 189.94 217.37 190.199 217.952C190.458 218.534 190.846 218.793 191.363 218.793C191.622 218.793 191.881 218.728 192.075 218.599C192.269 218.47 192.398 218.276 192.528 217.952C192.657 217.693 192.722 217.37 192.786 216.982C192.786 216.594 192.851 216.141 192.851 215.688C192.851 214.523 192.722 213.682 192.463 213.1C192.204 212.518 191.816 212.259 191.299 212.259C190.91 212.259 190.652 212.388 190.393 212.583C190.199 212.841 190.005 213.165 189.94 213.618C189.811 214.071 189.811 214.653 189.811 215.429V215.364ZM198.221 219.505C198.221 219.505 197.703 219.505 197.509 219.699C197.315 219.828 197.186 220.087 196.992 220.54C196.797 220.993 196.668 221.51 196.539 222.093H195.568V218.47H196.603C197.121 217.629 197.574 216.658 197.962 215.558C198.35 214.459 198.48 213.553 198.48 212.841C198.48 212.518 198.48 212.324 198.35 212.194C198.221 212.065 198.027 212 197.768 212V211.483H204.237V212C203.655 212 203.332 212.453 203.332 213.165V218.47H204.625V222.093H203.655C203.526 221.381 203.396 220.863 203.202 220.411C203.008 220.022 202.879 219.699 202.685 219.634C202.555 219.505 202.296 219.44 201.908 219.44H198.221V219.505ZM201.003 218.47V212.388H199.644C199.45 214.588 198.868 216.594 197.897 218.47H201.003ZM209.866 219.828C209.542 220.605 209.154 221.252 208.895 221.64C208.572 222.093 208.248 222.416 207.86 222.61C207.472 222.804 207.084 222.934 206.501 222.934C206.113 222.934 205.725 222.934 205.337 222.804V220.928H206.243C206.243 220.928 206.372 221.381 206.501 221.446C206.631 221.51 206.76 221.575 206.954 221.575C207.148 221.575 207.342 221.575 207.537 221.381C207.731 221.252 207.86 221.057 208.119 220.734C208.313 220.411 208.572 219.958 208.895 219.375H208.442L206.307 213.294C206.178 212.841 206.049 212.583 205.919 212.388C205.855 212.259 205.725 212.13 205.596 212C205.466 211.936 205.337 211.871 205.208 211.806V211.289H209.219V211.806C209.219 211.806 208.766 211.936 208.636 212C208.507 212.065 208.442 212.259 208.442 212.453C208.442 212.712 208.507 213.035 208.636 213.488L209.801 217.046L211.095 213.941C211.095 213.941 211.289 213.424 211.353 213.23C211.353 213.035 211.418 212.841 211.418 212.647C211.418 212.453 211.418 212.259 211.224 212.065C211.095 211.936 210.901 211.806 210.707 211.806V211.289H213.877V211.806C213.877 211.806 213.618 211.936 213.488 212C213.424 212.065 213.294 212.194 213.23 212.259C213.165 212.388 213.036 212.518 212.906 212.777C212.777 212.971 212.647 213.359 212.453 213.812L209.801 219.699L209.866 219.828ZM239.625 202.62C236.066 211.03 232.12 219.375 228.562 227.268H30.9235C27.1713 219.181 23.2896 210.965 19.9903 202.62H239.43H239.625ZM100.857 133.657C92.7057 133.657 86.8186 125.246 86.8186 113.731C86.8186 102.216 92.3176 95.164 100.922 95.0346C100.986 95.0346 101.051 95.0346 101.116 95.0346C104.48 95.0346 107.391 96.1991 109.655 98.4633C113.084 101.827 114.96 107.456 114.96 114.378C114.96 120.2 113.602 133.657 100.922 133.657H100.857ZM131.134 116.189C131.134 115.736 131.134 115.219 131.134 114.766C131.134 114.637 131.134 114.507 131.134 114.378V114.119V113.796C131.134 113.537 131.134 113.278 131.134 113.019C131.134 112.955 131.134 112.825 131.134 112.761C130.422 94.3876 119.101 83.4544 100.857 83.4544C82.6135 83.4544 70.5159 96.005 70.5159 113.343C70.5159 122.982 73.8152 131.392 79.767 137.085C85.2013 142.325 92.7057 145.043 100.922 144.719C104.027 144.59 106.938 144.137 109.72 143.296C102.798 160.763 92.0588 169.756 91.9941 169.885C91.7353 170.079 91.6059 170.467 91.6706 170.791C91.7353 171.114 91.9941 171.438 92.3823 171.502L101.698 173.896C101.698 173.896 101.827 173.896 101.957 173.896C102.151 173.896 102.41 173.831 102.539 173.702C102.798 173.443 129.646 150.8 131.134 116.707C131.134 116.513 131.134 116.254 131.134 116.06V116.189ZM133.98 164.321L137.991 155.911C137.991 155.911 138.509 155.523 138.767 155.652C138.767 155.652 138.832 155.652 138.897 155.717C141.614 157.852 144.396 159.275 146.984 160.116C150.218 161.151 153.194 161.345 155.588 161.216C162.898 160.698 167.815 155.911 169.95 150.024C170.855 147.63 171.244 145.043 171.244 142.52C171.244 139.997 170.726 137.538 169.756 135.339C167.621 130.487 163.092 126.928 155.911 126.928C151.253 126.928 146.66 129.193 142.196 133.786C142.002 133.98 141.679 134.045 141.485 133.851L135.339 129.904C135.145 129.775 135.08 129.581 135.08 129.387V86.1716C135.08 85.8481 135.339 85.5893 135.662 85.5893H182.694C183.018 85.5893 183.277 85.8481 183.277 86.1716V99.369C183.277 99.6925 183.018 99.9513 182.694 99.9513H151.124V114.054C152.224 113.602 153.453 113.149 154.747 112.89C156.364 112.567 158.111 112.372 159.987 112.566C175.513 113.925 184.118 122.012 187.288 131.91C189.487 138.767 189.034 146.466 186.447 153.388C183.859 160.31 179.136 166.456 172.796 170.208C163.092 175.901 149.636 176.095 134.11 165.098C133.851 164.904 133.786 164.58 133.915 164.321H133.98ZM150.671 180.171L150.283 177.907C150.283 177.583 149.895 177.325 149.571 177.389C144.719 178.295 142.326 178.619 137.474 179.007C137.15 179.007 136.891 179.33 136.891 179.654L137.021 181.918C137.021 182.241 137.344 182.565 137.668 182.5C139.35 182.371 140.255 182.306 141.743 182.112L142.908 193.886C142.908 194.21 143.231 194.468 143.619 194.468C144.978 194.274 145.69 194.21 147.048 194.016C147.372 194.016 147.63 193.627 147.566 193.304L146.143 181.53C147.63 181.336 148.536 181.142 150.154 180.818C150.477 180.818 150.736 180.43 150.671 180.106V180.171ZM124.6 195.245C126.54 195.309 128.093 195.374 129.581 195.374C131.586 195.374 133.527 195.309 136.115 195.18C136.438 195.18 136.697 194.857 136.697 194.533L136.568 192.269C136.568 191.945 136.244 191.622 135.921 191.687C133.01 191.881 131.457 191.881 128.74 191.881V188.711C130.81 188.711 132.039 188.711 134.304 188.581C134.627 188.581 134.951 188.258 134.886 187.934V185.864C134.821 185.541 134.498 185.217 134.174 185.282C131.975 185.347 130.81 185.411 128.805 185.411V182.953C131.263 182.953 132.622 182.953 135.209 182.824C135.533 182.824 135.792 182.5 135.792 182.177L135.662 179.912C135.662 179.589 135.339 179.265 135.015 179.33C131.004 179.524 129.063 179.589 125.117 179.395C124.794 179.395 124.47 179.654 124.47 179.977L124.017 194.727C124.017 195.051 124.276 195.374 124.6 195.374V195.245ZM117.289 194.792C118.648 194.921 119.359 194.986 120.783 195.051C121.106 195.051 121.43 194.792 121.43 194.468L122.271 179.718C122.271 179.395 122.012 179.071 121.688 179.071C118.001 178.813 116.254 178.619 112.631 178.036C112.308 178.036 111.984 178.23 111.92 178.554C111.596 180.236 111.402 181.077 111.079 182.759C110.82 184.247 110.561 185.476 110.302 186.511C110.108 187.417 109.849 188.193 109.526 188.775C109.267 189.293 108.944 189.681 108.491 189.94C108.038 190.199 107.391 190.393 106.615 190.522C106.291 190.522 106.033 190.91 106.097 191.234C106.227 192.139 106.356 192.657 106.485 193.563C106.485 193.886 106.809 194.08 107.132 194.08C109.72 194.08 111.855 193.369 113.149 191.04C113.666 190.069 114.119 188.905 114.378 187.482C114.766 185.67 115.025 183.859 115.348 182.047C116.189 182.177 116.772 182.241 117.613 182.306L116.642 194.21C116.642 194.533 116.836 194.857 117.225 194.857L117.289 194.792ZM38.5573 80.0904L39.9159 83.3251L41.5332 81.9018L38.5573 80.0257V80.0904ZM252.369 97.2342C238.072 81.8371 219.764 65.7931 199.321 50.9783C178.877 36.1635 157.981 23.613 138.897 14.8147L129.646 10.5449L120.395 14.8147C101.31 23.613 80.414 36.1635 59.9708 50.9783C39.5277 65.7931 21.2195 81.8371 6.9222 97.2342L0 104.739L1.22918 114.831C3.68753 135.727 9.12178 159.405 16.9497 183.471C18.7611 189.034 20.7019 194.533 22.6427 199.967H46.2558C43.3446 192.528 40.4981 184.764 37.9104 176.678C30.3412 153.259 25.3598 131.004 23.0956 112.243C35.9049 98.3986 53.0486 83.3251 72.9095 68.8337C92.8351 54.3424 112.502 42.7623 129.581 34.8697C146.66 42.7623 166.327 54.4071 186.252 68.8337C206.178 83.3251 223.257 98.3986 236.066 112.243C233.867 130.939 228.885 153.259 221.252 176.678C218.599 184.764 215.817 192.528 212.906 199.967H236.519C238.525 194.598 240.401 189.099 242.212 183.471C250.04 159.469 255.474 135.727 257.933 114.831L259.162 104.739L252.24 97.2342H252.369ZM32.088 93.8701L27.3653 88.6946L31.3116 85.0718L32.0233 85.8481L29.3061 88.3065L33.3171 92.7056L32.088 93.8054V93.8701ZM43.9915 83.3898L42.5683 82.5487L40.4334 84.4248L41.0803 85.9775L39.7865 87.0773L37.2634 80.0257L38.8808 78.6671L45.4148 82.3547L44.1209 83.4544L43.9915 83.3898ZM51.8842 73.1682C51.6901 73.4917 51.4313 73.8151 51.1078 74.0739L50.008 74.9796L51.6901 77.0498L50.3962 78.0849L45.997 72.5859L48.326 70.7098C49.0376 70.1276 49.6846 69.8688 50.2668 69.9335C51.1725 69.9335 51.8842 70.5804 52.1429 71.4215C52.337 72.0037 52.2076 72.5859 51.9488 73.1682H51.8842ZM63.529 67.7986L62.1057 66.8282L59.8414 68.575L60.359 70.1923L59.0004 71.2274L56.8655 64.0464L58.5476 62.7525L64.8228 66.7635L63.4643 67.7986H63.529ZM74.0093 60.1648L72.1979 57.6418L69.7395 59.3885C70.3218 60.2295 70.9687 61.0705 71.551 61.9115L70.1924 62.8819L66.1167 57.1889L67.4753 56.2185C67.9928 56.9948 68.5751 57.7711 69.0926 58.4828L71.551 56.7361L69.9336 54.4718L71.2922 53.5014L75.3679 59.1944L74.0093 60.1648ZM82.8723 54.0836L79.5729 49.1669L77.5028 50.5255L76.9205 49.6198L82.4195 45.9322L83.0017 46.838L80.9315 48.1965L84.2309 53.1132L82.8723 54.0189V54.0836ZM96.0698 45.6088L93.5467 41.5331C93.5467 42.827 93.4173 44.1855 93.4173 45.4794V47.3555L91.9294 48.2612L88.2419 42.3094L89.6651 41.4037C90.5061 42.7623 91.3472 44.1208 92.1882 45.5441L92.2529 43.8621C92.2529 43.1504 92.2529 42.3741 92.3176 41.5978C92.3176 40.9508 92.3823 40.2392 92.3823 39.5923C92.8351 39.3335 93.288 39.01 93.7408 38.7513L97.4283 44.7031L96.0698 45.5441V45.6088ZM107.197 39.01L105.774 36.5517L105.062 37.0045C105.062 37.0045 104.545 37.3927 104.415 37.5868C104.221 37.9749 104.351 38.4278 104.415 38.8807C104.48 39.2688 104.609 39.657 104.674 40.1098C104.674 40.3039 104.674 40.4333 104.739 40.4333L103.315 41.2743L102.863 39.2688C102.733 38.6866 102.733 38.169 103.186 37.6515C102.022 37.8456 101.116 37.1339 100.922 35.9695C100.728 34.9344 101.504 34.158 102.345 33.7052L105.127 32.0878L108.62 38.169L107.197 39.01ZM157.14 36.0988C156.752 36.487 156.235 36.7458 155.652 36.6811C155.652 36.6811 155.911 37.0045 155.976 37.1339C156.235 37.5868 156.17 37.9103 156.105 38.4278L155.523 40.8862L154.035 40.0451L154.553 37.8456C154.682 37.1339 154.553 36.6811 153.841 36.3576L152.935 35.8401L151.383 38.5572L149.959 37.7162L153.453 31.635L154.876 32.476L153.518 34.8697L154.359 35.3225C154.941 35.646 155.458 35.5813 155.976 35.1284L157.334 33.8346L158.758 34.6109L157.27 36.0988H157.14ZM166.844 47.8084L165.356 46.9026L165.745 45.2853L163.351 43.7974L162.057 44.8971L160.634 43.9914L166.586 39.3982L168.397 40.498L166.909 47.8084H166.844ZM176.807 54.3424L175.384 53.4367L176.937 51.043C175.707 50.6549 173.637 49.4904 173.702 48.0671C173.702 47.8084 173.831 47.4849 173.961 47.2261L175.384 45.0912L176.807 45.9969L175.578 47.873C175.578 47.873 175.319 48.4553 175.449 48.7141C175.772 49.361 176.937 49.9432 177.584 50.0726L179.266 47.5496L180.624 48.4553L176.743 54.2777L176.807 54.3424ZM190.652 56.6714L187.611 54.5365L186.576 55.9597L189.099 57.7711L188.517 58.6122L185.994 56.8007L184.764 58.5475L187.934 60.747L187.288 61.6528L182.759 58.4828L186.835 52.7251L191.234 55.8303L190.587 56.7361L190.652 56.6714ZM200.744 64.3052C200.42 63.917 200.032 63.4642 199.579 63.1407C198.285 62.1703 197.25 62.5585 196.345 63.7876C196.086 64.1111 195.892 64.4346 195.827 64.6933C195.18 66.246 196.733 67.1517 197.897 67.7986C198.027 67.8633 198.221 67.928 198.35 67.9927L197.962 68.9631C197.962 68.9631 197.638 68.8337 197.444 68.769C195.633 67.928 193.369 66.246 194.274 63.9817C194.727 62.8172 195.762 61.5881 197.056 61.2646C197.509 61.1352 197.962 61.1352 198.48 61.2646C199.644 61.5234 200.938 62.6232 201.649 63.5936L200.808 64.3052H200.744ZM211.483 72.4566L209.542 70.9039L205.855 75.5618L204.561 74.5268L208.248 69.8688L206.307 68.3162L206.954 67.4752L212.13 71.5509L211.483 72.3919V72.4566ZM220.669 81.1255C220.281 81.643 219.57 81.7724 218.987 81.5783C219.44 82.29 219.375 83.0016 218.858 83.6485C218.276 84.3602 217.37 84.4895 216.529 84.1661C216.205 84.0367 215.947 83.8426 215.688 83.6485L212.971 81.3843L217.499 76.0147L220.087 78.2143C220.734 78.7318 221.057 79.2494 221.122 79.7669C221.187 80.2845 221.122 80.7373 220.669 81.1902V81.1255ZM227.721 94.2583L226.427 93.0938L227.074 91.5411L224.939 89.6003L223.451 90.4413L222.222 89.3416L228.885 85.9128L230.438 87.3361L227.656 94.2583H227.721ZM225.974 89.1475L227.592 90.5707L229.08 87.4007L226.039 89.1475H225.974ZM217.305 80.9314L216.206 80.0257L214.912 81.5783L216.011 82.484C216.335 82.7428 216.658 82.8722 216.917 82.8722C217.499 82.8722 217.888 82.29 217.823 81.7724C217.823 81.5136 217.629 81.1902 217.305 80.9314ZM218.987 78.6671L218.017 77.8261L216.852 79.1847L217.823 80.0257C218.276 80.4139 218.858 80.6726 219.311 80.0904C219.764 79.5728 219.505 79.0553 219.052 78.6024L218.987 78.6671ZM58.4182 64.3699L59.5827 67.6692L61.2647 66.3754L58.4182 64.3052V64.3699ZM50.4609 72.0684C50.4609 72.0684 49.9433 71.6155 49.6846 71.6155C49.4258 71.6155 49.1023 71.7449 48.8436 71.939L48.0025 72.5859L49.4258 74.3327L50.2668 73.621C50.8491 73.1682 50.9137 72.5859 50.4609 72.0037V72.0684ZM103.186 34.4168C102.604 34.7403 102.345 35.3225 102.669 35.9048C103.057 36.5517 103.639 36.5517 104.221 36.2282L105.256 35.646L104.221 33.8346L103.186 34.4168ZM164.127 43.021L165.939 44.1208L166.844 40.6921L164.192 42.9563L164.127 43.021ZM184.506 239.301C168.268 241.759 149.571 243.183 129.646 243.183C109.72 243.183 91.0237 241.759 74.7856 239.301C71.0334 238.719 67.4753 238.072 63.9818 237.425C62.688 235.096 61.3941 232.638 60.1002 230.115H59.9061H35.3226C38.2985 236.454 41.4038 242.536 44.5738 248.229L49.5552 257.092L59.518 259.097C80.1552 263.173 104.351 265.372 129.646 265.372C154.941 265.372 179.136 263.238 199.773 259.097L209.736 257.092L214.718 248.229C217.888 242.536 220.993 236.519 223.969 230.115H199.321H199.126C197.833 232.638 196.539 235.096 195.245 237.425C191.816 238.136 188.193 238.719 184.441 239.301H184.506ZM129.71 78.6024C150.93 78.6024 172.149 76.3382 178.748 76.3382C179.395 76.3382 179.654 75.4972 179.136 75.109C172.343 70.3217 146.595 52.6604 129.969 45.7382C129.84 45.7382 129.71 45.7382 129.516 45.7382C112.049 52.8544 86.3011 70.8392 80.0258 75.3031C79.5729 75.6265 79.8317 76.3382 80.3493 76.3382C86.4951 76.3382 108.103 78.6024 129.71 78.6024ZM162.639 73.1682L163.998 70.5158L166.068 71.8096L165.033 73.8798L162.186 74.0739L162.639 73.1682ZM150.283 74.0739L153.323 64.0464C154.035 64.4993 154.747 64.9521 155.458 65.405C154.553 68.5103 153.582 71.6155 152.677 74.7208C151.836 74.7208 150.995 74.7855 150.089 74.8502L150.283 74.0739ZM139.156 74.5268L141.614 57.6418C142.39 58.0299 143.102 58.4828 143.878 58.8709C143.102 64.3052 142.261 69.6747 141.485 75.109C140.644 75.109 139.867 75.109 139.026 75.1737L139.156 74.4621V74.5268ZM128.546 74.9149V52.7251C128.934 52.531 129.322 52.3369 129.775 52.2075C130.163 52.4016 130.551 52.5957 131.004 52.7251V75.3678C130.228 75.3678 129.387 75.3678 128.611 75.3678V74.9149H128.546ZM115.995 58.6769C116.578 58.3534 117.225 58.0299 117.807 57.6418C118.648 63.4642 119.554 69.3513 120.395 75.1737C119.554 75.1737 118.777 75.1737 117.936 75.109C117.16 69.6747 116.319 64.3052 115.543 58.8709L115.995 58.6122V58.6769ZM104.48 65.0168C105.062 64.6933 105.58 64.3052 106.162 63.9817L109.397 74.7855C108.556 74.7855 107.65 74.7208 106.809 74.6561C105.903 71.5508 104.933 68.4456 104.027 65.3403L104.48 65.0168ZM93.9349 71.4862C94.4524 71.1627 94.97 70.8392 95.4875 70.5158L97.2989 74.1386L94.5171 73.9445L93.482 71.8743L93.9996 71.5509L93.9349 71.4862ZM218.534 175.125C225.457 153.712 230.309 132.686 232.508 114.249L232.702 112.825L231.732 111.79C219.117 98.2046 202.879 83.972 184.635 70.7745C166.456 57.5771 147.889 46.4498 131.069 38.6866L129.775 38.1043L128.481 38.6866C111.661 46.4498 93.1586 57.5771 74.915 70.7745C56.7362 83.972 40.4334 98.2046 27.8182 111.79L26.8478 112.825L27.0419 114.249C29.2414 132.686 34.0934 153.712 41.0156 175.125C43.7975 183.665 46.8381 191.945 50.008 199.838H53.4368C50.1374 191.751 46.9674 183.147 44.0562 174.155C36.94 152.288 32.282 131.392 30.2118 113.925C42.1801 100.986 58.2241 86.8185 76.8558 73.2976C95.4875 59.7766 113.86 48.9081 129.904 41.5331C145.884 48.9081 164.321 59.7766 182.953 73.2976C201.585 86.8185 217.564 100.986 229.597 113.925C227.527 131.457 222.869 152.288 215.753 174.155C212.841 183.147 209.671 191.751 206.372 199.838H209.801C212.971 191.945 216.011 183.665 218.793 175.125H218.534ZM67.6693 230.05H64.0465C64.7581 231.344 65.4051 232.573 66.1167 233.802L67.54 234.061C85.7188 237.684 107.262 239.56 129.71 239.56C152.159 239.56 173.702 237.684 191.881 234.061L193.304 233.802C194.016 232.573 194.727 231.279 195.374 230.05H191.751C191.751 230.05 191.363 230.697 191.234 231.02C173.961 234.449 152.677 236.454 129.646 236.454C106.615 236.454 85.3307 234.449 68.0575 231.02C67.8634 230.697 67.6694 230.373 67.54 230.05H67.6693ZM52.7252 186.511L52.9839 187.158L75.3032 175.772C74.8503 175.06 74.4622 174.349 74.074 173.637L52.1429 184.829L52.7899 186.511H52.7252ZM70.2571 88.8887C70.6453 88.1124 70.9687 87.2714 71.3569 86.495L68.8338 83.972C68.1869 84.4895 67.54 85.0071 66.893 85.5246L70.2571 88.8887ZM37.3928 132.363L37.5869 133.268L62.688 137.215C62.6233 136.374 62.5586 135.533 62.4939 134.692L37.134 130.681C37.2634 131.263 37.3281 131.78 37.4575 132.363H37.3928ZM40.5628 146.919L40.8216 147.889H64.3053C64.1112 147.048 63.9818 146.272 63.8524 145.431H40.2393C40.3687 145.948 40.4981 146.401 40.6275 146.919H40.5628ZM44.0562 160.181C44.1856 160.569 44.315 161.022 44.3797 161.41L66.9577 157.852C66.699 157.076 66.4402 156.299 66.1814 155.458L43.7328 159.016L44.0562 160.181ZM66.3755 99.1103L57.8359 92.8997C57.189 93.4172 56.5421 93.9995 55.8951 94.517L65.5992 101.569C65.8579 100.728 66.052 99.8866 66.3108 99.0456L66.3755 99.1103ZM48.0672 173.314L48.3907 174.349L70.5806 167.103C70.2571 166.327 69.8689 165.615 69.5455 164.839L47.5497 171.955C47.6791 172.408 47.8085 172.796 47.9378 173.249L48.0672 173.314ZM34.5463 114.443C34.6757 115.348 34.7404 116.254 34.8698 117.16L62.1057 126.023C62.1057 125.182 62.1057 124.341 62.1704 123.435L34.4816 114.443H34.5463ZM156.299 232.896C157.011 232.896 157.658 232.767 158.305 232.767L157.27 229.597H154.682L155.782 232.961H156.235L156.299 232.896ZM142.455 233.608C143.102 233.608 143.749 233.608 144.396 233.543L143.749 229.532H141.29L141.937 233.673H142.455V233.608ZM46.5793 102.927C45.9324 103.509 45.3501 104.092 44.7032 104.739L63.0761 114.054C63.2055 113.213 63.3349 112.372 63.4643 111.467L46.644 102.862L46.5793 102.927ZM170.985 231.473C171.696 231.408 172.408 231.279 173.12 231.214L172.279 229.597H169.497L170.467 231.538H170.92L170.985 231.473ZM129.646 233.867H130.875V229.532H128.417V233.867H129.646ZM57.2537 198.35H60.5531L80.6727 183.729C80.1552 183.082 79.7023 182.435 79.1848 181.788L57.0596 197.897L57.2537 198.415V198.35ZM116.836 233.673H117.354L118.001 229.532H115.543L114.896 233.543C115.543 233.543 116.189 233.543 116.836 233.608V233.673ZM88.7594 231.538L89.7298 229.597H86.948L86.107 231.214C86.948 231.344 87.8537 231.408 88.6947 231.538H88.7594ZM103.057 232.961H103.51L104.609 229.597H102.022L100.986 232.767C101.698 232.767 102.345 232.896 103.057 232.896V232.961ZM224.486 117.224C224.616 116.319 224.745 115.413 224.81 114.507L197.121 123.5C197.121 124.341 197.121 125.182 197.186 126.087L224.422 117.224H224.486ZM213.682 103.898C213.682 103.898 213.036 103.315 212.712 102.992L195.892 111.596C196.021 112.437 196.151 113.278 196.28 114.184L214.653 104.868L213.682 103.962V103.898ZM188.711 167.232L210.901 174.478C211.159 173.702 211.418 172.925 211.677 172.149L189.681 165.033C189.358 165.809 189.034 166.521 188.646 167.297L188.711 167.232ZM221.834 133.398C222.028 132.557 222.157 131.716 222.351 130.81L196.992 134.821C196.992 134.821 196.862 136.697 196.797 137.344L221.899 133.398H221.834ZM195.115 147.954H218.599C218.793 147.113 218.987 146.336 219.181 145.495H195.568C195.439 146.336 195.245 147.113 195.051 147.954H195.115ZM214.459 161.41H214.976C215.235 160.698 215.429 159.922 215.623 159.146L193.175 155.588C192.916 156.364 192.657 157.14 192.398 157.981L214.394 161.475L214.459 161.41ZM202.491 93.8054C202.491 93.8054 201.844 93.2879 201.52 93.0291L192.981 99.2396C193.239 100.081 193.498 100.922 193.692 101.763L203.396 94.7111L202.426 93.8701L202.491 93.8054ZM165.745 198.479H168.785L166.844 195.762C166.197 196.28 165.551 196.797 164.904 197.25L165.809 198.479H165.745ZM183.147 198.479L173.961 189.293C173.378 189.875 172.796 190.457 172.214 191.04L179.654 198.479H183.147ZM87.2068 191.04C86.6245 190.457 86.0423 189.875 85.46 189.293L76.2736 198.479H79.767L87.2068 191.04ZM93.6761 198.479L94.5818 197.25C93.9349 196.797 93.288 196.28 92.641 195.762L90.7002 198.479H93.7408H93.6761ZM206.501 187.287C206.76 186.511 207.084 185.735 207.343 184.958L185.411 173.767C185.023 174.478 184.57 175.19 184.182 175.901L206.501 187.287ZM192.592 85.654C191.945 85.1365 191.299 84.6189 190.652 84.1014L188.129 86.6244C188.517 87.4007 188.905 88.1771 189.228 89.0181L192.592 85.654Z" fill="#6F6F6E"></path></svg> 