<?xml version="1.0" encoding="UTF-8"?> <svg xmlns="http://www.w3.org/2000/svg" width="800" height="363" viewBox="0 0 800 363" fill="none"><path fill-rule="evenodd" clip-rule="evenodd" d="M180.942 0.168945C81.0195 0.168945 0 81.1885 0 181.111C0 281.034 81.0195 362.054 180.942 362.054C280.865 362.054 361.885 281.034 361.885 181.111C361.885 81.1885 280.902 0.168945 180.942 0.168945ZM72.2754 133.363V286.549C45.0633 258.902 28.228 220.986 28.228 179.116C28.228 137.245 45.0633 99.3299 72.2754 71.6824V133.327V133.363ZM256.048 228.134V312.818C233.952 325.191 208.517 332.266 181.378 332.266C154.238 332.266 128.84 325.191 106.744 312.818V212.641L181.378 282.304L256.048 212.641V228.134ZM256.048 165.51L181.378 235.173L106.744 165.51V96.2822L181.378 165.945L256.048 96.2822V165.546V165.51ZM181.378 118.814L104.277 46.8287C126.954 33.5854 153.295 25.966 181.378 25.966C209.461 25.966 235.838 33.5854 258.515 46.8287L181.378 118.814ZM290.517 286.549V71.7187C317.729 99.3662 334.564 137.282 334.564 179.152C334.564 221.023 317.729 258.938 290.517 286.586V286.549Z" fill="#0D0D0D"></path><path fill-rule="evenodd" clip-rule="evenodd" d="M445.952 152.812L447.295 140.294H446.787L442.941 150.381L429.516 173.819H425.598L411.447 150.272L407.529 140.294H407.093L408.871 152.703V185.43H397.188V122.515H408.436L425.198 151.251L428.21 158.472H428.536L431.258 151.07L447.149 122.515H458.288V185.43H445.952V152.812Z" fill="#0D0D0D"></path><path fill-rule="evenodd" clip-rule="evenodd" d="M485.247 122.515H522.509V133.473H497.583V148.131H520.259V159.088H497.583V174.436H522.981V185.43H485.247V122.515Z" fill="#0D0D0D"></path><path fill-rule="evenodd" clip-rule="evenodd" d="M567.463 175.996C569.024 175.996 570.475 175.815 571.817 175.416C573.16 175.017 574.321 174.436 575.373 173.638C576.425 172.84 577.187 171.824 577.804 170.59C578.421 169.357 578.711 167.869 578.711 166.091C578.711 163.987 578.385 162.281 577.731 160.975C577.078 159.669 576.171 158.653 575.047 157.927C573.886 157.202 572.579 156.694 571.128 156.476C569.677 156.258 568.08 156.113 566.411 156.113C565.577 156.113 564.561 156.186 563.291 156.331C561.985 156.476 561.114 156.621 560.642 156.73V175.525C561.295 175.706 562.348 175.815 563.69 175.887C565.033 175.96 566.302 175.96 567.5 175.96L567.463 175.996ZM548.342 122.515H587.056V133.473H560.642V146.607C561.695 146.426 562.928 146.244 564.416 146.063C565.831 145.882 567.318 145.809 568.733 145.809C572.108 145.809 575.192 146.135 577.986 146.789C580.816 147.442 583.21 148.53 585.206 150.054C587.238 151.578 588.798 153.573 589.959 156.077C591.084 158.581 591.664 161.592 591.664 165.184C591.664 168.703 591.084 171.787 589.923 174.436C588.761 177.085 587.056 179.262 584.843 181.003C582.702 182.745 580.054 184.051 576.933 184.958C573.849 185.865 570.402 186.301 566.556 186.301C565.577 186.301 564.271 186.301 562.747 186.228C561.223 186.155 559.59 186.083 557.885 185.974C556.143 185.865 554.474 185.72 552.841 185.539C551.172 185.357 549.649 185.103 548.342 184.813V122.552V122.515Z" fill="#0D0D0D"></path><path fill-rule="evenodd" clip-rule="evenodd" d="M615.719 122.515H653.018V133.473H628.019V148.131H650.769V159.088H628.019V174.436H653.454V185.43H615.719V122.515Z" fill="#0D0D0D"></path><path fill-rule="evenodd" clip-rule="evenodd" d="M711.688 133.473H698.263C698.045 139.169 697.755 144.358 697.428 149.002C697.138 153.682 696.739 157.891 696.231 161.628C695.759 165.365 695.07 168.667 694.236 171.57C693.365 174.436 692.276 176.94 691.006 179.044C690.136 180.423 689.229 181.547 688.14 182.455C687.088 183.362 686.036 184.087 684.911 184.595C683.75 185.139 682.625 185.502 681.537 185.72C680.412 185.938 679.36 186.047 678.416 186.047C677.037 186.047 675.876 185.938 674.969 185.72C674.062 185.502 673.119 185.212 672.248 184.777L673.591 174.182C673.917 174.291 674.28 174.4 674.679 174.436C675.042 174.509 675.368 174.509 675.768 174.509C676.711 174.509 677.654 174.255 678.598 173.783C679.541 173.311 680.339 172.513 680.956 171.352C681.863 170.046 682.661 168.087 683.278 165.547C683.931 163.007 684.512 159.741 685.056 155.787C685.528 151.832 685.963 147.115 686.253 141.636C686.544 136.158 686.725 129.772 686.87 122.443H723.987V185.357H711.688V133.436V133.473Z" fill="#0D0D0D"></path><path fill-rule="evenodd" clip-rule="evenodd" d="M769.414 175.343C771.046 175.343 772.643 175.162 774.167 174.835C775.618 174.509 776.96 173.928 778.085 173.13C779.21 172.332 780.117 171.243 780.734 169.937C781.387 168.631 781.677 166.998 781.677 165.075C781.677 163.043 781.314 161.374 780.625 160.104C779.936 158.834 779.065 157.819 777.94 157.093C776.815 156.367 775.509 155.896 773.985 155.642C772.534 155.388 770.974 155.279 769.377 155.279C768.942 155.279 768.434 155.279 767.817 155.351C767.2 155.424 766.62 155.46 766.039 155.533C765.423 155.605 764.878 155.678 764.334 155.75C763.79 155.823 763.463 155.932 763.209 155.968V174.763C763.862 174.944 764.769 175.089 765.858 175.162C766.983 175.234 768.144 175.307 769.377 175.307L769.414 175.343ZM750.982 122.515H763.282V145.083C763.572 145.011 764.08 144.938 764.806 144.866C765.459 144.793 766.221 144.684 767.019 144.648C767.853 144.575 768.652 144.539 769.522 144.466C770.357 144.394 771.119 144.394 771.845 144.394C774.747 144.394 777.614 144.684 780.371 145.301C783.129 145.882 785.559 146.97 787.664 148.494C789.805 150.018 791.51 152.086 792.78 154.698C794.05 157.311 794.63 160.612 794.63 164.64C794.63 171.824 792.417 177.266 787.918 180.894C783.455 184.559 777.069 186.373 768.761 186.373C767.926 186.373 766.801 186.373 765.386 186.337C763.971 186.337 762.447 186.228 760.778 186.119C759.073 186.01 757.404 185.865 755.699 185.684C753.957 185.502 752.397 185.248 750.982 184.886V122.624V122.515Z" fill="#0D0D0D"></path><path fill-rule="evenodd" clip-rule="evenodd" d="M445.952 238.257L447.295 225.776H446.787L442.941 235.826L429.516 259.301H425.598L411.447 235.753L407.529 225.776H407.093L408.871 238.184V270.875H397.188V207.961H408.436L425.198 236.733L428.21 243.917H428.536L431.258 236.552L447.149 207.961H458.288V270.875H445.952V238.257Z" fill="#0D0D0D"></path><path fill-rule="evenodd" clip-rule="evenodd" d="M499.433 247.074H512.93L508.25 233.069L506.363 223.2H505.928L504.041 233.178L499.469 247.11L499.433 247.074ZM515.615 256.979H496.313L491.56 270.912H479.223L501.9 207.562H510.935L533.611 270.912H520.658L515.615 256.979Z" fill="#0D0D0D"></path><path fill-rule="evenodd" clip-rule="evenodd" d="M594.313 268.301C592.39 269.679 589.995 270.659 586.983 271.239C584.045 271.82 580.96 272.147 577.84 272.147C574.067 272.147 570.475 271.566 567.1 270.405C563.726 269.244 560.751 267.357 558.139 264.745C555.599 262.132 553.531 258.758 552.007 254.586C550.483 250.413 549.721 245.37 549.721 239.456C549.721 233.542 550.592 228.135 552.261 223.963C554.002 219.79 556.216 216.452 558.901 213.913C561.622 211.373 564.67 209.522 568.044 208.434C571.382 207.309 574.756 206.765 578.094 206.765C581.722 206.765 584.734 207.019 587.201 207.491C589.705 207.962 591.737 208.543 593.406 209.196L590.975 219.609C589.596 218.956 587.927 218.484 586.04 218.158C584.19 217.867 581.868 217.722 579.146 217.722C574.176 217.722 570.185 219.5 567.173 223.02C564.162 226.575 562.638 232.054 562.638 239.492C562.638 242.721 563 245.696 563.726 248.345C564.452 251.03 565.54 253.279 567.028 255.202C568.515 257.089 570.33 258.577 572.507 259.629C574.684 260.681 577.223 261.189 580.09 261.189C582.956 261.189 585.06 260.935 586.911 260.391C588.761 259.847 590.358 259.157 591.773 258.323L594.276 268.337L594.313 268.301Z" fill="#0D0D0D"></path><path fill-rule="evenodd" clip-rule="evenodd" d="M657.154 268.301C655.195 269.679 652.801 270.659 649.789 271.239C646.85 271.82 643.766 272.147 640.646 272.147C636.872 272.147 633.28 271.566 629.942 270.405C626.568 269.244 623.593 267.357 620.98 264.745C618.441 262.132 616.373 258.758 614.849 254.586C613.325 250.413 612.563 245.37 612.563 239.456C612.563 233.542 613.434 228.135 615.103 223.963C616.844 219.79 619.057 216.452 621.779 213.913C624.5 211.373 627.548 209.522 630.922 208.434C634.296 207.309 637.634 206.765 641.009 206.765C644.601 206.765 647.612 207.019 650.152 207.491C652.619 207.962 654.687 208.543 656.284 209.196L653.853 219.609C652.474 218.956 650.805 218.484 648.955 218.158C647.068 217.867 644.746 217.722 642.061 217.722C637.09 217.722 633.063 219.5 630.051 223.02C627.04 226.575 625.516 232.054 625.516 239.492C625.516 242.721 625.915 245.696 626.604 248.345C627.33 251.03 628.418 253.279 629.906 255.202C631.394 257.089 633.208 258.577 635.385 259.629C637.562 260.681 640.102 261.189 642.932 261.189C645.762 261.189 647.902 260.935 649.753 260.391C651.603 259.847 653.236 259.157 654.651 258.323L657.154 268.337V268.301Z" fill="#0D0D0D"></path><path fill-rule="evenodd" clip-rule="evenodd" d="M716.985 236.007L717.71 227.844H717.275L713.03 236.261L689.591 270.875H680.339V207.961H692.639V242.212L691.768 250.666H692.276L696.703 241.958L720.141 207.961H729.321V270.875H716.985V236.007Z" fill="#0D0D0D"></path><path fill-rule="evenodd" clip-rule="evenodd" d="M775.582 261.442C777.106 261.442 778.521 261.261 779.936 260.898C781.314 260.535 782.584 259.991 783.673 259.265C784.761 258.503 785.632 257.596 786.285 256.471C786.938 255.346 787.265 254.004 787.265 252.48C787.265 250.521 786.866 248.961 786.104 247.836C785.342 246.711 784.29 245.84 783.02 245.224C781.786 244.607 780.371 244.208 778.811 244.026C777.251 243.845 775.691 243.772 774.13 243.772H767.563V260.934C767.854 261.043 768.361 261.152 768.978 261.188C769.631 261.261 770.357 261.297 771.083 261.333C771.808 261.333 772.607 261.406 773.405 261.406C774.239 261.406 774.929 261.442 775.509 261.442H775.582ZM771.518 234.375C772.389 234.375 773.332 234.375 774.457 234.302C775.582 234.23 776.489 234.157 777.178 234.048C779.464 233.323 781.423 232.271 783.056 230.856C784.689 229.441 785.56 227.554 785.56 225.268C785.56 223.708 785.269 222.438 784.652 221.458C784.036 220.479 783.274 219.644 782.294 219.064C781.314 218.483 780.153 218.048 778.92 217.83C777.686 217.612 776.307 217.467 774.929 217.467C773.369 217.467 771.953 217.467 770.647 217.54C769.305 217.612 768.325 217.685 767.563 217.794V234.411H771.518V234.375ZM798.041 222.619C798.041 224.18 797.859 225.74 797.46 227.3C797.061 228.86 796.408 230.275 795.501 231.581C794.594 232.887 793.433 234.012 791.982 234.992C790.567 235.971 788.825 236.733 786.793 237.205V237.749C788.571 238.04 790.276 238.548 791.909 239.273C793.505 239.999 794.957 240.978 796.154 242.248C797.315 243.518 798.259 245.042 798.948 246.82C799.637 248.634 800 250.739 800 253.206C800 256.435 799.311 259.229 797.932 261.623C796.553 263.982 794.739 265.905 792.417 267.429C790.131 268.916 787.519 270.041 784.58 270.767C781.641 271.492 778.593 271.855 775.509 271.855H771.591C770.03 271.855 768.289 271.819 766.475 271.71C764.661 271.637 762.81 271.492 760.887 271.311C759.037 271.13 757.295 270.876 755.735 270.513V208.505C756.86 208.324 758.166 208.143 759.617 207.961C761.069 207.78 762.629 207.635 764.334 207.526C766.039 207.417 767.745 207.308 769.523 207.272C771.3 207.199 773.042 207.199 774.747 207.199C777.686 207.199 780.552 207.417 783.346 207.889C786.104 208.324 788.644 209.122 790.784 210.283C792.997 211.408 794.703 213.004 796.045 215.036C797.351 217.068 798.005 219.644 798.005 222.764L798.041 222.619Z" fill="#0D0D0D"></path></svg> 