<?xml version="1.0" encoding="UTF-8"?> <svg xmlns="http://www.w3.org/2000/svg" width="800" height="445" viewBox="0 0 800 445" fill="none"><path fill-rule="evenodd" clip-rule="evenodd" d="M24.3782 41.3534V148.242C24.3782 158.348 25.1074 165.64 26.6701 170.016C28.1287 174.392 30.9415 176.684 34.9004 176.684V183.455H0V176.684C3.64631 176.684 6.14663 174.704 7.50098 170.537C8.85532 166.474 9.58458 159.494 9.58458 149.597V39.1657C9.58458 29.5811 8.85532 22.7052 7.50098 18.4338C6.14663 14.1624 3.64631 12.0788 0 12.0788V5.30707H59.0702V12.0788C57.9242 12.5997 56.9866 13.4331 56.1531 14.3708C55.4239 15.3084 55.0072 16.7669 55.0072 18.538C55.0072 19.7881 55.1113 21.0383 55.3197 22.1843C55.5281 23.3303 55.8406 24.7888 56.1531 26.3515L57.9242 33.1232L68.1339 69.3779L80.6355 30.9354C81.7815 27.2891 82.4066 25.3097 82.5107 24.9971C83.24 22.0801 83.6567 19.8923 83.6567 18.538C83.6567 15.3084 82.7191 13.1206 80.7397 12.0788V5.30707H135.955V12.0788C132.309 12.0788 129.809 14.1624 128.454 18.1212C127.1 22.1843 126.371 29.1643 126.371 39.0615V149.597C126.371 159.181 127.1 166.057 128.454 170.329C129.809 174.6 132.309 176.684 135.955 176.684V183.455H80.6355V176.684C84.2818 176.684 86.7821 174.6 88.3448 170.433C89.9075 166.266 90.6368 159.285 90.6368 149.597V41.3534L57.1949 148.034L24.3782 41.3534ZM698.945 398.796C698.112 402.755 697.382 406.609 696.653 410.672C695.924 414.631 695.611 417.861 695.611 420.361C695.611 424.112 696.341 426.924 697.695 428.8C699.049 430.675 701.029 431.821 703.633 432.133V438.801H665.191V432.133C669.358 430.675 672.9 426.82 675.713 420.361C677.276 417.027 679.255 410.777 681.651 401.713L709.051 291.178C709.676 289.198 710.301 286.698 710.926 283.677C711.655 280.655 711.968 278.363 711.968 276.801C711.968 272.842 710.718 270.654 708.113 270.133V263.466H759.161V270.133C757.807 270.446 756.765 271.071 756.14 272.008C755.515 272.842 755.202 274.509 755.202 276.801C755.202 277.843 756.661 285.135 759.578 298.679C764.891 323.682 768.329 339.517 769.892 346.081C774.059 364.729 778.331 383.377 782.498 402.025C784.998 412.652 786.561 418.903 787.186 420.674C789.686 427.55 792.916 431.404 796.979 432.133V438.801H736.658V432.133C739.471 432.133 741.763 430.675 743.534 427.758C745.305 424.841 746.243 421.195 746.243 416.715C746.243 410.672 744.68 404.317 741.555 397.754C738.846 392.232 735.512 387.44 731.554 383.273C727.595 379.106 723.428 376.085 719.26 374.313C714.989 372.542 710.301 371.605 705.196 371.605L698.945 398.796ZM721.656 298.887L710.613 348.998C714.676 348.998 718.844 350.144 723.011 352.436C727.178 354.728 731.137 357.957 734.887 362.02L721.552 298.887H721.656ZM557.26 296.803C557.26 287.427 556.531 280.551 555.176 276.384C553.822 272.217 551.218 270.133 547.675 270.133V263.466H625.081C634.666 263.466 641.438 264.507 645.501 266.695C652.793 270.55 656.544 278.363 656.544 289.823C656.544 299.616 653.106 308.472 646.23 316.493C641.646 321.598 635.291 326.703 627.165 331.704C638.208 334.517 647.168 340.247 654.043 348.789C662.274 358.895 666.441 371.917 666.441 387.649C666.441 396.921 664.982 404.942 661.961 411.923C658.94 418.903 654.669 424.737 649.147 429.529C645.084 433.279 640.083 435.78 634.249 437.03C628.415 438.28 622.06 438.905 615.288 438.905H547.675V432.238C551.322 432.238 553.822 430.258 555.176 426.195C556.531 422.236 557.26 415.36 557.26 405.568V296.908V296.803ZM593.098 331.704C600.182 329.203 606.329 325.453 611.434 320.556C618.414 313.785 621.956 305.971 621.956 297.116C621.956 291.594 620.289 287.531 616.955 285.031C613.622 282.426 609.975 281.176 606.016 281.176C603.516 281.176 601.432 281.385 599.453 281.801C597.578 282.218 596.015 283.364 594.869 285.135C594.14 286.073 593.723 287.323 593.515 288.99C593.306 290.657 593.202 292.532 593.202 294.407V331.704H593.098ZM593.098 403.588C593.098 410.881 593.619 415.673 594.765 417.861C595.911 420.049 598.828 421.195 603.62 421.195C611.33 421.195 617.58 418.069 622.373 411.923C627.165 405.672 629.561 396.712 629.561 385.044C629.561 375.459 627.894 367.125 624.56 360.041C621.227 352.957 616.643 346.914 610.705 341.913L593.202 350.977V403.692L593.098 403.588ZM537.153 438.801H479.333V432.133C481.625 432.133 483.5 431.613 484.751 430.571C486.522 429.008 487.355 426.508 487.355 423.07C487.355 418.278 486.313 411.506 484.334 402.859C482.25 394.108 480.271 386.503 478.083 379.939C475.999 373.376 473.499 366.917 470.582 360.457C468.29 355.457 465.165 349.414 461.31 342.33L455.163 350.873V405.463C455.163 423.174 458.706 432.133 465.79 432.133V438.801H409.637V432.133C413.283 432.133 415.783 430.154 417.138 426.091C418.492 422.132 419.221 415.256 419.221 405.463V296.803C419.221 287.427 418.492 280.551 417.138 276.384C415.783 272.217 413.283 270.133 409.637 270.133V263.466H464.54L464.748 270.133C461.206 270.133 458.81 272.321 457.351 276.697C455.893 281.072 455.163 288.156 455.163 298.158V328.787L473.916 303.263C476.208 299.72 478.604 296.178 480.896 292.636C484.021 287.323 485.584 283.156 485.584 280.135C485.584 277.322 484.751 274.926 482.98 273.05C481.208 271.175 479.333 270.237 477.354 270.237V263.57H528.09V270.237C522.36 271.488 516.526 274.717 510.587 279.822C505.795 283.885 500.69 289.407 495.169 296.387L486.209 308.055C495.064 321.702 502.774 337.85 509.337 356.29C514.546 371.188 519.755 389.628 524.756 411.402C526.423 418.173 527.881 422.966 529.34 425.778C531.423 430.05 534.028 432.133 537.257 432.133V438.801H537.153ZM391.822 444.635C391.093 442.864 390.259 441.718 389.217 441.197C388.176 440.676 386.925 440.364 385.363 440.364H383.487L358.484 442.76C337.856 442.76 320.771 434.842 307.123 419.007C292.121 401.609 284.62 377.543 284.62 346.81C284.62 319.306 290.871 297.533 303.477 281.593C315.354 266.487 330.564 258.986 348.9 258.986C353.067 258.986 357.234 259.403 361.193 260.132C365.256 260.861 369.527 261.903 374.007 263.257C375.049 263.674 376.091 263.882 376.924 264.091C377.862 264.299 379.008 264.403 380.466 264.403C384.425 264.403 387.342 262.007 389.217 257.111L399.219 332.85L395.572 334.412C392.239 319.619 387.342 307.43 380.883 298.054C373.59 287.115 365.256 281.697 355.88 281.697C345.462 281.697 337.336 287.948 331.189 300.345C325.667 311.493 322.959 325.349 322.959 341.601C322.959 350.977 323.792 360.249 325.459 369.313C327.126 378.376 329.835 386.711 333.481 394.316C337.127 401.921 341.92 408.172 347.858 412.964C353.796 417.757 360.047 420.153 366.714 420.153C374.632 420.153 381.716 416.923 387.863 410.568C394.01 404.213 398.594 395.254 401.511 383.898L405.574 385.982L391.718 444.635H391.822ZM165.021 419.319C159.083 410.985 154.499 400.671 151.374 388.378C148.248 376.085 146.686 363.479 146.686 350.248C146.686 322.328 152.937 300.033 165.438 283.156C177.419 267.008 192.733 258.882 211.382 258.882C220.029 258.882 228.259 260.653 236.072 264.299C243.886 267.945 250.762 273.78 256.388 281.697C262.534 290.448 267.118 300.866 270.244 312.951C273.265 325.14 274.827 338.163 274.827 352.019C274.827 364.625 273.369 376.71 270.452 388.274C267.535 399.838 263.263 409.631 257.534 417.757C251.804 425.883 244.824 432.029 236.489 436.301C228.155 440.572 219.82 442.656 211.382 442.656C202.943 442.656 194.192 440.78 186.066 437.03C177.94 433.279 170.96 427.341 165.126 419.215L165.021 419.319ZM232.843 396.921C234.093 391.92 235.031 386.503 235.552 380.564C236.072 374.626 236.385 368.375 236.385 361.812C236.385 351.706 236.072 342.851 235.447 335.142C234.822 327.537 233.468 319.619 231.384 311.597C229.301 303.471 226.384 296.699 222.633 291.178C218.258 284.823 213.361 281.593 208.152 281.593C203.985 281.593 200.13 283.885 196.588 288.469C193.671 292.428 191.275 297.637 189.191 304.2C187.837 309.201 186.795 314.827 186.17 321.286C185.545 327.641 185.232 334.1 185.232 340.455C185.232 350.248 185.649 358.999 186.378 366.812C187.108 374.626 188.566 382.648 190.754 390.878C192.942 399.108 195.755 405.776 199.193 410.672C203.36 416.923 208.152 420.049 213.569 420.049C218.153 420.049 222.008 417.965 225.342 413.694C228.676 409.422 231.176 403.796 232.947 396.921H232.843ZM27.3994 298.887V404.109C27.3994 414.006 28.1287 421.195 29.6914 425.57C31.2541 429.946 33.9628 432.133 37.9216 432.133V438.801H2.91705V432.133C6.56335 432.133 9.06368 430.154 10.418 426.091C11.7724 422.132 12.5016 415.256 12.5016 405.463V296.803C12.5016 287.427 11.7724 280.551 10.418 276.384C9.06368 272.217 6.56335 270.133 2.91705 270.133V263.466H62.1956V270.133C61.0496 270.654 60.112 271.383 59.2786 272.425C58.5493 273.363 58.1326 274.821 58.1326 276.592C58.1326 277.843 58.2368 278.989 58.4451 280.239C58.6535 281.385 58.966 282.739 59.2786 284.406L61.0496 291.073L71.2593 326.807L83.7609 288.99C84.9069 285.448 85.532 283.468 85.6362 283.156C86.3654 280.343 86.7821 278.155 86.7821 276.801C86.7821 273.571 85.7403 271.488 83.7609 270.446V263.778H139.185V270.446C135.538 270.446 133.038 272.425 131.684 276.488C130.329 280.447 129.6 287.323 129.6 297.116V405.776C129.6 415.152 130.329 422.028 131.684 426.195C133.038 430.362 135.538 432.446 139.185 432.446V439.114H83.7609V432.446C87.4072 432.446 89.9075 430.362 91.4702 426.299C93.0329 422.236 93.7622 415.36 93.7622 405.776V299.2L60.2162 404.109L27.3994 299.2V298.887ZM689.152 183.455V176.684C692.799 176.684 695.299 174.704 696.653 170.537C698.008 166.474 698.737 159.494 698.737 149.597V39.1657C698.737 29.5811 698.008 22.7052 696.653 18.4338C695.299 14.1624 692.799 12.0788 689.152 12.0788V5.30707H745.097V12.0788C741.346 12.0788 738.638 14.1624 736.971 18.1212C735.304 22.1843 734.471 29.1643 734.471 39.0615V65.0023C751.973 65.0023 767.287 71.2532 780.414 83.859C793.437 96.3606 800 112.196 800 131.053C800 148.034 795.416 160.952 786.144 169.912C776.872 178.871 763.537 183.351 746.035 183.351H689.256L689.152 183.455ZM741.972 166.37C748.431 166.37 753.536 163.244 757.078 156.993C760.62 150.743 762.391 141.887 762.391 130.323C762.391 117.718 759.891 106.779 754.89 97.7149C749.889 88.5471 743.118 83.3381 734.471 81.8795V148.972C734.471 155.327 734.887 159.702 735.825 162.411C736.658 165.015 738.742 166.37 741.972 166.37ZM597.057 36.457C590.181 48.9586 584.347 64.4814 579.659 83.3381C574.033 105.216 571.324 126.573 571.324 147.513C571.324 154.91 572.47 161.057 574.658 165.953C577.471 172.1 581.638 175.538 587.368 176.267H588.931V183.559H550.905V181.163C550.905 170.641 551.739 158.348 553.301 144.075C555.489 124.906 558.823 106.466 563.407 88.5471C569.137 65.94 576.325 46.3541 585.18 29.7894C586.639 26.5598 587.472 23.2261 587.472 19.7881C587.472 14.6833 585.91 12.183 582.784 12.183H581.222V5.30707H668.525V12.0788C664.357 12.0788 661.544 15.2042 660.19 21.5592C659.357 25.3097 658.94 32.1856 658.94 42.0827V147.826C658.94 157.931 659.252 164.494 659.982 167.516C661.232 173.246 664.149 176.163 668.525 176.163V183.455H613.517V176.684C617.893 176.684 620.81 173.662 622.06 167.724C622.894 163.974 623.31 156.889 623.31 146.68V42.9161C623.31 29.2685 620.185 22.3926 614.038 22.3926C611.121 22.3926 608.308 23.4344 605.6 25.518C602.891 27.6016 600.078 31.248 597.161 36.457H597.057ZM424.639 183.455V176.684C428.285 176.684 430.785 174.704 432.14 170.537C433.494 166.474 434.223 159.494 434.223 149.597V39.1657C434.223 29.5811 433.494 22.7052 432.14 18.4338C430.785 14.1624 428.285 12.0788 424.639 12.0788V5.30707H507.358C510.171 5.30707 512.358 5.09871 514.025 4.57781C515.692 4.05691 517.151 2.80675 518.297 0.723145L527.152 63.5438L523.297 65.2107C520.901 52.1882 516.213 41.9785 509.337 34.4775C502.461 26.9766 494.648 23.2261 485.792 23.2261C478.812 23.2261 474.333 25.1013 472.249 28.956C470.582 31.873 469.853 38.0197 469.853 47.3959V63.648H479.75C486.001 63.648 490.272 62.6062 492.668 60.6268C496.419 57.6056 498.294 51.2506 498.294 41.666L501.732 40.8325L509.441 109.591L506.003 110.112C504.962 105.945 503.816 102.299 502.461 99.1735C501.107 96.0481 499.44 93.0268 497.461 90.1098C494.96 86.4635 492.147 84.1715 489.23 83.0255C486.313 81.9837 482.771 81.3586 478.604 81.3586H469.853V133.657C469.853 146.471 471.207 155.118 473.916 159.598C476.208 163.557 480.479 165.536 486.834 165.536C497.356 165.536 506.628 160.848 514.546 151.472C521.735 143.033 527.777 130.844 532.674 115.217L536.32 117.405L521.526 187.518C520.38 185.643 519.026 184.497 517.359 184.08C515.692 183.664 513.609 183.455 511.108 183.455H424.743H424.639ZM343.586 23.2261C341.19 23.2261 339.002 23.4344 337.023 23.8512C335.148 24.2679 333.585 25.4139 332.439 27.1849C331.71 28.1225 331.293 29.3727 331.085 31.1438C330.876 32.8107 330.772 34.6859 330.772 36.6653V62.0853C352.025 62.0853 369.215 67.711 382.341 78.8583C396.718 91.1516 403.907 108.654 403.907 131.365C403.907 140.741 402.448 148.972 399.427 155.952C396.51 163.036 392.239 168.974 386.613 173.871C382.55 177.621 377.549 180.226 371.715 181.476C365.881 182.726 359.526 183.351 352.858 183.351H285.662V176.579C289.309 176.579 291.809 174.6 293.163 170.433C294.518 166.37 295.247 159.39 295.247 149.493V39.1657C295.247 29.5811 294.518 22.7052 293.163 18.4338C291.809 14.1624 289.309 12.0788 285.662 12.0788V5.30707H373.486C376.195 5.30707 378.278 5.09871 380.049 4.57781C381.716 4.05691 383.175 2.80675 384.321 0.723145L393.176 63.2313L389.322 65.1065C386.925 52.084 382.237 41.8743 375.361 34.3734C368.485 26.8724 360.672 23.1219 351.817 23.1219H343.586V23.2261ZM330.668 147.721C330.668 155.118 331.189 159.911 332.335 162.203C333.481 164.494 336.398 165.536 341.086 165.536C348.795 165.536 354.942 162.411 359.734 156.056C364.527 149.701 366.923 140.637 366.923 128.761C366.923 115.426 363.485 104.07 356.609 94.9021C349.733 85.7342 341.086 81.0461 330.668 81.0461V147.617V147.721ZM156.687 183.455V176.684C160.333 176.684 162.834 174.704 164.188 170.537C165.542 166.474 166.272 159.494 166.272 149.597V39.1657C166.272 29.5811 165.542 22.7052 164.188 18.4338C162.834 14.1624 160.333 12.0788 156.687 12.0788V5.30707H239.406C242.219 5.30707 244.407 5.09871 246.074 4.57781C247.741 4.05691 249.199 2.80675 250.345 0.723145L259.2 63.5438L255.346 65.2107C252.95 52.1882 248.261 41.9785 241.386 34.4775C234.51 26.9766 226.696 23.2261 217.841 23.2261C210.861 23.2261 206.381 25.1013 204.297 28.956C202.631 31.873 201.901 38.0197 201.901 47.3959V63.648H211.798C218.049 63.648 222.321 62.6062 224.717 60.6268C228.467 57.6056 230.342 51.2506 230.342 41.666L233.78 40.8325L241.49 109.591L238.052 110.112C237.01 105.945 235.864 102.299 234.51 99.1735C233.155 96.0481 231.488 93.0268 229.509 90.1098C226.905 86.4635 224.196 84.1715 221.279 83.0255C218.362 81.9837 214.82 81.3586 210.652 81.3586H201.901V133.657C201.901 146.471 203.256 155.118 205.86 159.598C208.152 163.557 212.528 165.536 218.778 165.536C229.301 165.536 238.573 160.848 246.49 151.472C253.679 143.033 259.721 130.844 264.618 115.217L268.264 117.405L253.471 187.518C252.325 185.643 250.866 184.497 249.303 184.08C247.636 183.664 245.553 183.455 243.052 183.455H156.687Z" fill="#E5112F"></path></svg> 