<?xml version="1.0" encoding="UTF-8"?> <svg xmlns="http://www.w3.org/2000/svg" width="800" height="489" viewBox="0 0 800 489" fill="none"><path d="M626.219 267.857C615.25 262.808 605.434 258.009 595.418 253.762C580.135 247.274 563.966 246.889 547.63 246.889C444.662 246.973 341.711 246.856 238.743 246.722C220.951 246.705 204.331 250.484 189.232 260.299C184.867 263.142 180.119 265.416 174.718 268.426C174.718 265.851 174.718 264.262 174.718 262.674C174.718 216.24 174.684 169.805 174.684 123.371C174.684 112.536 177.577 109.626 188.613 109.626C329.538 109.61 470.479 109.61 611.404 109.626C622.941 109.626 626.235 112.937 626.235 124.408C626.235 170.173 626.219 215.939 626.202 261.721C626.202 263.493 626.202 265.266 626.202 267.874L626.219 267.857Z" fill="url(#paint0_linear_135_2880)"></path><path d="M401.154 0.0704319C445.097 0.0704319 489.023 0.0704319 532.965 0.0704319C543.433 0.0704319 544.804 1.42483 544.821 11.6581C544.854 29.7335 544.871 47.8089 544.837 65.8843C544.837 74.5124 541.844 77.7562 533.367 76.452C522.13 74.7465 510.71 73.0409 499.992 69.4793C474.877 61.1188 450.247 61.0018 425.884 71.3855C411.454 77.5389 397.609 77.4218 383.195 71.1347C358.348 60.2995 333.216 59.6976 308.118 70.8672C293.755 77.2546 278.438 77.0205 263.189 76.5189C258.356 76.3684 256.082 73.6262 255.898 68.2085C255.664 60.9182 255.798 53.6111 255.781 46.3207C255.748 34.7164 255.681 23.112 255.731 11.4909C255.765 2.47826 258.273 0.0537109 267.336 0.0537109C311.93 0.0537109 356.542 0.0537109 401.137 0.0537109L401.154 0.0704319Z" fill="url(#paint1_linear_135_2880)"></path><path d="M16.5204 327.651H49.2601L61.8845 380.522L74.4252 327.651H107.148V414.533H86.7653V348.268L71.0476 414.533H52.5876L36.9033 348.268V414.533H16.5204V327.651Z" fill="#E2CE85"></path><path d="M186.707 414.533H165.555V383.566L143.6 414.533H122.297V351.595H143.45V382.981L165.622 351.595H186.69V414.533H186.707Z" fill="#DCC579"></path><path d="M286.999 433.444H266.934V414.533H215.5V433.444H195.502V394.501H203.796C208.444 380.472 210.768 364.654 210.768 347.03V327.651H278.304V394.501H286.983V433.444H286.999ZM253.424 394.501V348.987H233.425V350.107C233.425 362.113 231.536 376.911 227.757 394.501H253.424Z" fill="#DAC275"></path><path d="M315.676 371.978L294.307 369.554C295.109 365.524 296.28 362.347 297.801 360.039C299.323 357.732 301.513 355.725 304.373 354.02C306.429 352.799 309.238 351.846 312.833 351.177C316.428 350.508 320.308 350.174 324.488 350.174C331.193 350.174 336.577 350.575 340.64 351.395C344.704 352.197 348.098 353.886 350.807 356.461C352.713 358.234 354.218 360.758 355.305 364.019C356.408 367.28 356.96 370.39 356.96 373.349V401.14C356.96 404.099 357.127 406.424 357.479 408.096C357.83 409.768 358.582 411.925 359.753 414.533H338.768C337.932 412.911 337.38 411.674 337.112 410.821C336.845 409.968 336.594 408.631 336.343 406.825C333.417 409.868 330.491 412.042 327.598 413.346C323.635 415.085 319.037 415.955 313.803 415.955C306.847 415.955 301.563 414.216 297.952 410.738C294.34 407.26 292.534 402.979 292.534 397.879C292.534 393.097 293.838 389.167 296.43 386.091C299.039 383.014 303.838 380.723 310.827 379.218C319.221 377.396 324.655 376.125 327.147 375.389C329.638 374.654 332.28 373.701 335.056 372.513C335.056 369.554 334.487 367.48 333.35 366.293C332.213 365.106 330.223 364.521 327.364 364.521C323.702 364.521 320.96 365.156 319.121 366.41C317.699 367.397 316.545 369.253 315.659 371.978H315.676ZM335.072 384.653C331.996 385.84 328.785 386.877 325.458 387.796C320.91 389.101 318.034 390.388 316.83 391.642C315.576 392.946 314.957 394.435 314.957 396.09C314.957 397.979 315.576 399.534 316.796 400.738C318.017 401.942 319.823 402.544 322.214 402.544C324.605 402.544 327.03 401.892 329.17 400.588C331.31 399.284 332.832 397.695 333.735 395.822C334.638 393.95 335.089 391.508 335.089 388.499V384.653H335.072Z" fill="#D2B566"></path><path d="M403.712 327.651H479.375V349.104H453.992V414.533H429.095V349.104H403.712V327.651Z" fill="#CFAF5D"></path><path d="M489.273 438.477V351.595H510.208V360.892C513.101 356.979 515.76 354.337 518.184 352.949C521.445 351.093 525.056 350.157 529.003 350.157C536.811 350.157 542.848 353.384 547.111 359.822C551.375 366.259 553.516 374.218 553.516 383.699C553.516 394.167 551.191 402.159 546.543 407.677C541.894 413.195 536.009 415.954 528.902 415.954C525.458 415.954 522.314 415.319 519.472 414.065C516.629 412.794 514.087 410.921 511.864 408.43V438.477H489.273ZM511.696 383.248C511.696 388.231 512.666 391.926 514.606 394.334C516.545 396.742 519.003 397.946 521.963 397.946C524.572 397.946 526.745 396.792 528.501 394.484C530.257 392.177 531.143 388.247 531.143 382.713C531.143 377.613 530.223 373.867 528.401 371.476C526.578 369.085 524.337 367.898 521.696 367.898C518.836 367.898 516.462 369.102 514.556 371.51C512.649 373.917 511.696 377.83 511.696 383.248Z" fill="#CCAB57"></path><path d="M629.028 389.05H584.182C584.583 392.929 585.553 395.805 587.091 397.695C589.248 400.42 592.074 401.791 595.552 401.791C597.759 401.791 599.833 401.206 601.823 400.019C603.027 399.266 604.331 397.946 605.719 396.039L627.757 398.23C624.379 404.55 620.316 409.082 615.551 411.824C610.785 414.566 603.963 415.937 595.051 415.937C587.325 415.937 581.239 414.767 576.808 412.409C572.377 410.052 568.698 406.323 565.789 401.206C562.879 396.089 561.425 390.07 561.425 383.164C561.425 373.332 564.351 365.356 570.186 359.287C576.022 353.2 584.098 350.157 594.398 350.157C602.759 350.157 609.347 351.528 614.179 354.254C619.012 356.979 622.69 360.925 625.232 366.109C627.757 371.292 629.028 378.014 629.028 386.324V389.05ZM606.27 377.496C605.836 372.831 604.665 369.486 602.776 367.48C600.886 365.473 598.412 364.453 595.335 364.453C591.773 364.453 588.947 365.975 586.824 369.018C585.469 370.908 584.6 373.733 584.249 377.496H606.287H606.27Z" fill="#C7A550"></path><path d="M704.473 414.533H683.321V383.565L661.366 414.533H640.064V351.595H661.216V382.98L683.388 351.595H704.456V414.533H704.473ZM690.294 326.162C690.176 331.898 688.337 336.295 684.742 339.372C681.147 342.448 676.883 343.987 671.934 343.987C666.148 343.987 661.617 342.415 658.356 339.272C655.096 336.128 653.24 331.747 652.805 326.146H662.252C663.356 330.326 666.433 332.433 671.482 332.433C674.258 332.433 676.449 332.015 678.054 331.162C679.642 330.326 680.712 328.654 681.264 326.146H690.277L690.294 326.162Z" fill="#C5A14A"></path><path d="M785.135 432.491H769.635V414.533H728.317V432.491H712.767V396.926H718.418C722.515 389.017 724.572 378.65 724.572 365.825V351.578H778.982V396.926H785.135V432.491ZM756.559 396.926V369.186H745.841V369.905C745.841 378.65 744.085 387.662 740.574 396.926H756.559Z" fill="#C39D47"></path><path d="M46.9358 463.209H56.1491L59.7106 478.543L63.2388 463.209H72.4521V488.408H66.7167V469.196L62.3024 488.408H57.1022L52.6878 469.196V488.408H46.9525V463.209H46.9358Z" fill="url(#paint2_linear_135_2880)"></path><path d="M105.81 481.018H93.186C93.3031 482.138 93.5706 482.974 94.0053 483.526C94.6073 484.312 95.4099 484.713 96.3797 484.713C96.9984 484.713 97.5836 484.546 98.1354 484.194C98.4698 483.977 98.8377 483.593 99.239 483.041L105.443 483.676C104.489 485.515 103.352 486.82 102.015 487.622C100.677 488.425 98.7541 488.81 96.246 488.81C94.0722 488.81 92.35 488.475 91.1126 487.789C89.8585 487.104 88.8218 486.034 88.0192 484.546C87.1999 483.057 86.7819 481.318 86.7819 479.312C86.7819 476.453 87.6012 474.145 89.2566 472.389C90.8952 470.634 93.1693 469.748 96.062 469.748C98.4197 469.748 100.276 470.149 101.63 470.935C102.985 471.721 104.021 472.874 104.74 474.379C105.459 475.884 105.81 477.841 105.81 480.232V481.018ZM99.4062 477.673C99.2892 476.319 98.9548 475.349 98.4197 474.764C97.8846 474.179 97.1823 473.894 96.3296 473.894C95.3263 473.894 94.5237 474.329 93.9385 475.215C93.5539 475.767 93.3198 476.586 93.2194 477.673H99.4229H99.4062Z" fill="url(#paint3_linear_135_2880)"></path><path d="M125.29 470.684C126.043 470.049 127.08 469.748 128.401 469.748C131.477 469.748 133.835 470.651 135.44 472.457C137.045 474.262 137.865 476.52 137.865 479.212C137.865 481.904 137.062 484.161 135.457 486.034C133.852 487.907 131.494 488.843 128.401 488.843C125.307 488.843 122.966 487.907 121.394 486.017C119.823 484.128 119.037 481.051 119.037 476.804C119.037 472.858 119.722 469.681 121.077 467.256C122.431 464.832 124.404 463.561 126.962 463.477L128.869 463.411C130.574 463.327 131.511 463.076 131.678 462.675H136.677C136.677 466.002 134.989 467.741 131.628 467.875C129.354 467.959 127.799 468.209 126.979 468.611C126.16 469.012 125.608 469.714 125.307 470.701L125.29 470.684ZM128.434 484.044C129.437 484.044 130.223 483.626 130.758 482.807C131.293 481.988 131.561 480.8 131.561 479.262C131.561 477.724 131.277 476.57 130.725 475.751C130.173 474.931 129.42 474.53 128.484 474.53C127.447 474.53 126.662 474.981 126.126 475.868C125.591 476.754 125.324 477.908 125.324 479.329C125.324 480.75 125.591 481.971 126.126 482.79C126.662 483.626 127.431 484.044 128.434 484.044Z" fill="url(#paint4_linear_135_2880)"></path><path d="M170.237 481.018H157.612C157.729 482.138 157.997 482.974 158.431 483.526C159.033 484.312 159.836 484.713 160.806 484.713C161.425 484.713 162.01 484.546 162.562 484.194C162.896 483.977 163.264 483.593 163.665 483.041L169.869 483.676C168.916 485.515 167.779 486.82 166.441 487.622C165.103 488.425 163.18 488.81 160.672 488.81C158.498 488.81 156.776 488.475 155.539 487.789C154.285 487.104 153.248 486.034 152.445 484.546C151.626 483.057 151.208 481.318 151.208 479.312C151.208 476.453 152.027 474.145 153.683 472.389C155.321 470.634 157.595 469.748 160.488 469.748C162.846 469.748 164.702 470.149 166.056 470.935C167.411 471.721 168.447 472.874 169.166 474.379C169.885 475.884 170.237 477.841 170.237 480.232V481.018ZM163.832 477.673C163.715 476.319 163.381 475.349 162.846 474.764C162.311 474.179 161.608 473.894 160.756 473.894C159.752 473.894 158.95 474.329 158.365 475.215C157.98 475.767 157.746 476.586 157.646 477.673H163.849H163.832Z" fill="url(#paint5_linear_135_2880)"></path><path d="M203.077 488.409H196.789V475.266H192.007V482.925C192.007 484.964 191.639 486.486 190.887 487.473C190.134 488.459 188.997 488.944 187.442 488.944C185.687 488.944 184.115 488.76 182.727 488.409V483.242C183.463 483.493 184.031 483.627 184.433 483.627C185.285 483.627 185.703 482.925 185.703 481.537V470.183H203.093V488.426L203.077 488.409Z" fill="url(#paint6_linear_135_2880)"></path><path d="M224.496 476.654H227.372C232.238 476.654 234.663 478.627 234.663 482.556C234.663 486.486 232.305 488.392 227.556 488.392H218.176V470.149H224.479V476.654H224.496ZM224.496 484.111H226.553C227.071 484.111 227.489 483.978 227.807 483.71C228.125 483.443 228.292 483.058 228.292 482.556C228.292 481.453 227.707 480.901 226.553 480.901H224.496V484.095V484.111Z" fill="url(#paint7_linear_135_2880)"></path><path d="M283.973 488.408H278.02V479.429L271.833 488.408H265.847V470.166H271.8V479.262L278.037 470.166H283.973V488.408Z" fill="url(#paint8_linear_135_2880)"></path><path d="M314.288 478.961C315.275 479.313 316.044 479.848 316.629 480.567C317.214 481.302 317.498 482.105 317.498 482.974C317.498 484.881 316.679 486.319 315.04 487.322C313.402 488.325 311.011 488.81 307.867 488.81C305.225 488.81 303.152 488.275 301.647 487.188C300.142 486.101 299.038 484.479 298.37 482.306L304.356 481.57C304.556 482.205 304.991 482.774 305.627 483.275C306.279 483.777 306.998 484.028 307.834 484.028C309.941 484.028 311.011 483.443 311.011 482.272C311.011 481.871 310.81 481.553 310.409 481.302C310.007 481.052 309.472 480.934 308.837 480.934H306.095V477.339H308.887C309.439 477.339 309.941 477.206 310.392 476.955C310.844 476.704 311.078 476.386 311.078 475.985C311.078 475.55 310.81 475.199 310.275 474.915C309.74 474.647 309.004 474.497 308.051 474.497C307.098 474.497 306.346 474.714 305.693 475.149C305.041 475.584 304.64 476.085 304.473 476.687L298.671 475.818C299.239 473.744 300.276 472.206 301.781 471.22C303.286 470.233 305.359 469.731 308.018 469.731C310.676 469.731 312.934 470.233 314.489 471.22C316.044 472.223 316.83 473.477 316.83 474.999C316.83 476.838 315.977 478.142 314.288 478.928V478.961Z" fill="url(#paint9_linear_135_2880)"></path><path d="M371.323 488.408H366.006V476.954L362.127 488.408H358.331L354.101 476.954V488.408H348.783V470.166H356.291L360.237 480.666L363.832 470.166H371.34V488.408H371.323Z" fill="url(#paint10_linear_135_2880)"></path><path d="M392.174 476.068L386.155 475.366C386.389 474.195 386.707 473.276 387.141 472.607C387.576 471.938 388.178 471.353 388.997 470.868C389.566 470.517 390.369 470.232 391.372 470.049C392.375 469.848 393.479 469.748 394.649 469.748C396.539 469.748 398.043 469.865 399.197 470.099C400.351 470.333 401.287 470.818 402.057 471.57C402.592 472.088 403.01 472.824 403.327 473.761C403.628 474.714 403.796 475.617 403.796 476.469V484.529C403.796 485.382 403.846 486.067 403.946 486.552C404.046 487.037 404.264 487.656 404.581 488.425H398.679C398.445 487.957 398.294 487.589 398.211 487.355C398.144 487.104 398.06 486.719 397.993 486.201C397.174 487.087 396.355 487.706 395.535 488.09C394.415 488.592 393.127 488.843 391.656 488.843C389.7 488.843 388.212 488.341 387.192 487.338C386.172 486.335 385.67 485.081 385.67 483.609C385.67 482.221 386.038 481.084 386.774 480.198C387.509 479.312 388.864 478.643 390.82 478.208C393.178 477.69 394.716 477.305 395.418 477.105C396.121 476.887 396.856 476.62 397.642 476.269C397.642 475.416 397.475 474.814 397.157 474.463C396.84 474.112 396.271 473.944 395.468 473.944C394.432 473.944 393.663 474.128 393.144 474.496C392.743 474.781 392.425 475.316 392.174 476.118V476.068ZM397.625 479.747C396.756 480.098 395.853 480.399 394.917 480.65C393.629 481.034 392.827 481.402 392.492 481.77C392.141 482.155 391.974 482.573 391.974 483.057C391.974 483.609 392.141 484.061 392.492 484.412C392.843 484.763 393.345 484.93 394.014 484.93C394.683 484.93 395.368 484.746 395.97 484.362C396.572 483.977 397.007 483.526 397.258 482.974C397.508 482.422 397.642 481.72 397.642 480.85V479.73L397.625 479.747Z" fill="url(#paint11_linear_135_2880)"></path><path d="M430.9 481.252L436.886 482.005C436.552 483.393 436.017 484.596 435.264 485.6C434.512 486.603 433.542 487.406 432.388 487.957C431.218 488.526 429.73 488.793 427.924 488.793C426.118 488.793 424.73 488.609 423.577 488.258C422.423 487.907 421.42 487.322 420.583 486.503C419.747 485.7 419.095 484.747 418.627 483.66C418.159 482.573 417.908 481.135 417.908 479.329C417.908 477.523 418.192 475.885 418.778 474.647C419.196 473.728 419.781 472.908 420.517 472.189C421.252 471.47 422.005 470.919 422.774 470.567C423.995 469.999 425.566 469.731 427.489 469.731C430.165 469.731 432.221 470.267 433.626 471.337C435.03 472.407 436.017 473.962 436.585 476.019L430.666 476.888C430.482 476.102 430.148 475.517 429.646 475.132C429.161 474.731 428.492 474.547 427.673 474.547C426.636 474.547 425.784 474.965 425.148 475.784C424.496 476.62 424.178 477.875 424.178 479.547C424.178 481.052 424.496 482.189 425.132 482.958C425.767 483.744 426.586 484.128 427.573 484.128C428.392 484.128 429.094 483.894 429.646 483.426C430.215 482.958 430.633 482.239 430.9 481.252Z" fill="url(#paint12_linear_135_2880)"></path><path d="M463.122 481.252L469.108 482.005C468.773 483.393 468.238 484.596 467.486 485.6C466.733 486.603 465.764 487.406 464.61 487.957C463.439 488.526 461.951 488.793 460.145 488.793C458.34 488.793 456.952 488.609 455.798 488.258C454.644 487.907 453.641 487.322 452.805 486.503C451.969 485.7 451.317 484.747 450.849 483.66C450.38 482.573 450.13 481.135 450.13 479.329C450.13 477.523 450.414 475.885 450.999 474.647C451.417 473.728 452.002 472.908 452.738 472.189C453.474 471.47 454.226 470.919 454.995 470.567C456.216 469.999 457.788 469.731 459.711 469.731C462.386 469.731 464.443 470.267 465.847 471.337C467.252 472.407 468.238 473.962 468.807 476.019L462.888 476.888C462.704 476.102 462.369 475.517 461.868 475.132C461.383 474.731 460.714 474.547 459.895 474.547C458.858 474.547 458.005 474.965 457.37 475.784C456.718 476.62 456.4 477.875 456.4 479.547C456.4 481.052 456.718 482.189 457.353 482.958C457.988 483.744 458.808 484.128 459.794 484.128C460.614 484.128 461.316 483.894 461.868 483.426C462.436 482.958 462.854 482.239 463.122 481.252Z" fill="url(#paint13_linear_135_2880)"></path><path d="M501.43 488.408H495.477V479.429L489.29 488.408H483.304V470.166H489.257V479.262L495.494 470.166H501.43V488.408Z" fill="url(#paint14_linear_135_2880)"></path><path d="M528.919 478.693C530.173 478.827 531.159 479.295 531.895 480.064C532.631 480.834 532.999 481.887 532.999 483.191C532.999 484.93 532.48 486.234 531.444 487.104C530.407 487.973 528.568 488.408 525.892 488.408H516.512V470.166H526.645C528.484 470.166 529.872 470.55 530.842 471.336C531.812 472.122 532.28 473.209 532.28 474.613C532.28 475.6 531.962 476.453 531.343 477.188C530.725 477.924 529.905 478.409 528.902 478.643V478.71L528.919 478.693ZM522.816 477.105H524.404C525.458 477.105 525.976 476.57 525.976 475.499C525.976 474.63 525.424 474.195 524.304 474.195H522.799V477.105H522.816ZM522.816 484.094H524.889C525.407 484.094 525.825 483.96 526.143 483.693C526.461 483.425 526.628 483.041 526.628 482.539C526.628 481.435 526.06 480.884 524.889 480.884H522.816V484.077V484.094Z" fill="url(#paint15_linear_135_2880)"></path><path d="M552.847 476.068L546.827 475.366C547.061 474.195 547.379 473.276 547.814 472.607C548.248 471.938 548.85 471.353 549.67 470.868C550.238 470.517 551.041 470.232 552.044 470.049C553.047 469.848 554.151 469.748 555.321 469.748C557.211 469.748 558.716 469.865 559.869 470.099C561.023 470.333 561.96 470.818 562.729 471.57C563.264 472.088 563.682 472.824 564 473.761C564.301 474.714 564.468 475.617 564.468 476.469V484.529C564.468 485.382 564.518 486.067 564.618 486.552C564.719 487.037 564.936 487.656 565.254 488.425H559.351C559.117 487.957 558.967 487.589 558.883 487.355C558.816 487.104 558.732 486.719 558.666 486.201C557.846 487.087 557.027 487.706 556.208 488.09C555.087 488.592 553.8 488.843 552.328 488.843C550.372 488.843 548.884 488.341 547.864 487.338C546.844 486.335 546.342 485.081 546.342 483.609C546.342 482.221 546.71 481.084 547.446 480.198C548.181 479.312 549.536 478.643 551.492 478.208C553.85 477.69 555.388 477.305 556.091 477.105C556.793 476.887 557.529 476.62 558.314 476.269C558.314 475.416 558.147 474.814 557.829 474.463C557.512 474.112 556.943 473.944 556.141 473.944C555.104 473.944 554.335 474.128 553.816 474.496C553.415 474.781 553.097 475.316 552.847 476.118V476.068ZM558.298 479.747C557.428 480.098 556.525 480.399 555.589 480.65C554.301 481.034 553.499 481.402 553.164 481.77C552.813 482.155 552.646 482.573 552.646 483.057C552.646 483.609 552.813 484.061 553.164 484.412C553.516 484.763 554.017 484.93 554.686 484.93C555.355 484.93 556.04 484.746 556.642 484.362C557.244 483.977 557.679 483.526 557.93 482.974C558.181 482.422 558.314 481.72 558.314 480.85V479.73L558.298 479.747Z" fill="url(#paint16_linear_135_2880)"></path><path d="M608.461 481.252L614.447 482.005C614.112 483.393 613.577 484.596 612.825 485.6C612.072 486.603 611.103 487.406 609.949 487.957C608.778 488.526 607.29 488.793 605.484 488.793C603.679 488.793 602.291 488.609 601.137 488.258C599.983 487.907 598.98 487.322 598.144 486.503C597.308 485.7 596.656 484.747 596.187 483.66C595.719 482.573 595.469 481.135 595.469 479.329C595.469 477.523 595.753 475.885 596.338 474.647C596.756 473.728 597.341 472.908 598.077 472.189C598.813 471.47 599.565 470.919 600.334 470.567C601.555 469.999 603.127 469.731 605.05 469.731C607.725 469.731 609.782 470.267 611.186 471.337C612.591 472.407 613.577 473.962 614.146 476.019L608.227 476.888C608.043 476.102 607.708 475.517 607.207 475.132C606.722 474.731 606.053 474.547 605.234 474.547C604.197 474.547 603.344 474.965 602.709 475.784C602.057 476.62 601.739 477.875 601.739 479.547C601.739 481.052 602.057 482.189 602.692 482.958C603.327 483.744 604.147 484.128 605.133 484.128C605.953 484.128 606.655 483.894 607.207 483.426C607.775 482.958 608.193 482.239 608.461 481.252Z" fill="url(#paint17_linear_135_2880)"></path><path d="M627.656 479.329C627.656 476.537 628.509 474.246 630.198 472.44C631.887 470.634 634.178 469.731 637.054 469.731C640.348 469.731 642.822 470.785 644.511 472.908C645.866 474.614 646.535 476.721 646.535 479.212C646.535 482.021 645.698 484.312 644.026 486.118C642.354 487.907 640.03 488.81 637.07 488.81C634.429 488.81 632.288 488.058 630.666 486.57C628.66 484.73 627.673 482.306 627.673 479.313L627.656 479.329ZM633.96 479.313C633.96 480.934 634.261 482.138 634.847 482.924C635.432 483.71 636.184 484.095 637.087 484.095C637.99 484.095 638.743 483.71 639.328 482.941C639.913 482.172 640.197 480.935 640.197 479.246C640.197 477.657 639.896 476.487 639.311 475.718C638.726 474.948 637.99 474.564 637.137 474.564C636.218 474.564 635.465 474.948 634.863 475.734C634.261 476.52 633.96 477.707 633.96 479.313Z" fill="url(#paint18_linear_135_2880)"></path><path d="M672.887 481.252L678.873 482.005C678.538 483.393 678.003 484.596 677.251 485.6C676.499 486.603 675.529 487.406 674.375 487.957C673.204 488.526 671.716 488.793 669.91 488.793C668.105 488.793 666.717 488.609 665.563 488.258C664.409 487.907 663.406 487.322 662.57 486.503C661.734 485.7 661.082 484.747 660.614 483.66C660.145 482.573 659.895 481.135 659.895 479.329C659.895 477.523 660.179 475.885 660.764 474.647C661.182 473.728 661.767 472.908 662.503 472.189C663.239 471.47 663.991 470.919 664.76 470.567C665.981 469.999 667.553 469.731 669.476 469.731C672.151 469.731 674.208 470.267 675.612 471.337C677.017 472.407 678.003 473.962 678.572 476.019L672.653 476.888C672.469 476.102 672.134 475.517 671.633 475.132C671.148 474.731 670.479 474.547 669.66 474.547C668.623 474.547 667.77 474.965 667.135 475.784C666.483 476.62 666.165 477.875 666.165 479.547C666.165 481.052 666.483 482.189 667.118 482.958C667.753 483.744 668.573 484.128 669.559 484.128C670.379 484.128 671.081 483.894 671.633 483.426C672.201 482.958 672.619 482.239 672.887 481.252Z" fill="url(#paint19_linear_135_2880)"></path><path d="M711.412 488.408H705.108V481.519H699.39V488.408H693.086V470.166H699.39V476.419H705.108V470.166H711.412V488.408Z" fill="url(#paint20_linear_135_2880)"></path><path d="M733.049 476.654H735.925C740.791 476.654 743.215 478.627 743.215 482.556C743.215 486.486 740.858 488.392 736.109 488.392H726.728V470.149H733.032V476.654H733.049ZM733.049 484.111H735.106C735.624 484.111 736.042 483.978 736.36 483.71C736.677 483.443 736.845 483.058 736.845 482.556C736.845 481.453 736.259 480.901 735.106 480.901H733.049V484.095V484.111ZM745.005 470.149H751.292V488.392H745.005V470.149Z" fill="url(#paint21_linear_135_2880)"></path><path d="M8.36051 479.697C15.9184 476.821 22.8409 477.858 30.8503 483.743C19.7475 483.71 10.6346 492.706 0 483.192C2.7088 483.008 4.54811 482.891 6.38743 482.757C8.54444 482.322 7.39069 480.516 8.36051 479.697Z" fill="url(#paint22_linear_135_2880)"></path><path d="M31.5023 476.854C31.5525 477.071 31.3351 477.272 31.1178 477.222C25.3323 476.068 22.3225 473.961 19.3127 471.955C18.1088 471.152 16.1023 470.283 16.9049 468.393C17.557 466.838 19.4465 466.671 21.0684 466.437C27.7903 465.467 31.8368 468.761 34.8465 474.362C34.9134 474.496 34.8465 474.68 34.696 474.714C33.4085 474.981 28.7434 472.105 28.0578 472.724C27.1047 473.61 30.8168 473.56 31.5023 476.854Z" fill="url(#paint23_linear_135_2880)"></path><path d="M773.146 483.307C782.493 475.967 791.322 476.719 800 484.879C790.503 492.704 781.992 482.856 773.146 483.307Z" fill="url(#paint24_linear_135_2880)"></path><path d="M767.043 474.361C770.32 467.706 775.654 465.031 782.878 466.636C785.837 467.305 787.309 468.76 783.981 471.318C780.888 473.726 778.162 476.451 774.032 476.702C773.815 476.702 773.614 476.552 773.581 476.334C773.297 474.044 775.136 473.174 774.484 472.422C773.748 471.569 768.865 474.579 767.043 474.345V474.361Z" fill="url(#paint25_linear_135_2880)"></path><defs><linearGradient id="paint0_linear_135_2880" x1="174.701" y1="189.001" x2="626.252" y2="189.001" gradientUnits="userSpaceOnUse"><stop stop-color="#E3D088"></stop><stop offset="1" stop-color="#D0B261"></stop></linearGradient><linearGradient id="paint1_linear_135_2880" x1="255.714" y1="38.4117" x2="544.854" y2="38.4117" gradientUnits="userSpaceOnUse"><stop stop-color="#E3D088"></stop><stop offset="1" stop-color="#D0B261"></stop></linearGradient><linearGradient id="paint2_linear_135_2880" x1="46.9358" y1="475.817" x2="72.4353" y2="475.817" gradientUnits="userSpaceOnUse"><stop stop-color="#E3D088"></stop><stop offset="0.64" stop-color="#D0B261"></stop></linearGradient><linearGradient id="paint3_linear_135_2880" x1="86.7819" y1="479.279" x2="105.81" y2="479.279" gradientUnits="userSpaceOnUse"><stop stop-color="#E3D088"></stop><stop offset="0.64" stop-color="#D0B261"></stop></linearGradient><linearGradient id="paint4_linear_135_2880" x1="119.037" y1="475.751" x2="137.865" y2="475.751" gradientUnits="userSpaceOnUse"><stop stop-color="#E3D088"></stop><stop offset="0.64" stop-color="#D0B261"></stop></linearGradient><linearGradient id="paint5_linear_135_2880" x1="151.208" y1="479.279" x2="170.237" y2="479.279" gradientUnits="userSpaceOnUse"><stop stop-color="#E3D088"></stop><stop offset="0.64" stop-color="#D0B261"></stop></linearGradient><linearGradient id="paint6_linear_135_2880" x1="182.727" y1="479.547" x2="203.077" y2="479.547" gradientUnits="userSpaceOnUse"><stop stop-color="#E3D088"></stop><stop offset="0.64" stop-color="#D0B261"></stop></linearGradient><linearGradient id="paint7_linear_135_2880" x1="218.192" y1="479.279" x2="234.663" y2="479.279" gradientUnits="userSpaceOnUse"><stop stop-color="#E3D088"></stop><stop offset="0.64" stop-color="#D0B261"></stop></linearGradient><linearGradient id="paint8_linear_135_2880" x1="265.847" y1="479.278" x2="283.973" y2="479.278" gradientUnits="userSpaceOnUse"><stop stop-color="#E3D088"></stop><stop offset="0.64" stop-color="#D0B261"></stop></linearGradient><linearGradient id="paint9_linear_135_2880" x1="298.353" y1="479.279" x2="317.482" y2="479.279" gradientUnits="userSpaceOnUse"><stop stop-color="#E3D088"></stop><stop offset="0.64" stop-color="#D0B261"></stop></linearGradient><linearGradient id="paint10_linear_135_2880" x1="348.767" y1="479.278" x2="371.323" y2="479.278" gradientUnits="userSpaceOnUse"><stop stop-color="#E3D088"></stop><stop offset="0.64" stop-color="#D0B261"></stop></linearGradient><linearGradient id="paint11_linear_135_2880" x1="385.67" y1="479.279" x2="404.581" y2="479.279" gradientUnits="userSpaceOnUse"><stop stop-color="#E3D088"></stop><stop offset="0.64" stop-color="#D0B261"></stop></linearGradient><linearGradient id="paint12_linear_135_2880" x1="417.891" y1="479.279" x2="436.886" y2="479.279" gradientUnits="userSpaceOnUse"><stop stop-color="#E3D088"></stop><stop offset="0.64" stop-color="#D0B261"></stop></linearGradient><linearGradient id="paint13_linear_135_2880" x1="450.113" y1="479.279" x2="469.108" y2="479.279" gradientUnits="userSpaceOnUse"><stop stop-color="#E3D088"></stop><stop offset="0.64" stop-color="#D0B261"></stop></linearGradient><linearGradient id="paint14_linear_135_2880" x1="483.304" y1="479.278" x2="501.43" y2="479.278" gradientUnits="userSpaceOnUse"><stop stop-color="#E3D088"></stop><stop offset="0.64" stop-color="#D0B261"></stop></linearGradient><linearGradient id="paint15_linear_135_2880" x1="516.529" y1="479.278" x2="532.999" y2="479.278" gradientUnits="userSpaceOnUse"><stop stop-color="#E3D088"></stop><stop offset="0.64" stop-color="#D0B261"></stop></linearGradient><linearGradient id="paint16_linear_135_2880" x1="546.325" y1="479.279" x2="565.254" y2="479.279" gradientUnits="userSpaceOnUse"><stop stop-color="#E3D088"></stop><stop offset="0.64" stop-color="#D0B261"></stop></linearGradient><linearGradient id="paint17_linear_135_2880" x1="595.452" y1="479.279" x2="614.447" y2="479.279" gradientUnits="userSpaceOnUse"><stop stop-color="#E3D088"></stop><stop offset="0.64" stop-color="#D0B261"></stop></linearGradient><linearGradient id="paint18_linear_135_2880" x1="627.656" y1="479.279" x2="646.518" y2="479.279" gradientUnits="userSpaceOnUse"><stop stop-color="#E3D088"></stop><stop offset="0.64" stop-color="#D0B261"></stop></linearGradient><linearGradient id="paint19_linear_135_2880" x1="659.878" y1="479.279" x2="678.873" y2="479.279" gradientUnits="userSpaceOnUse"><stop stop-color="#E3D088"></stop><stop offset="0.64" stop-color="#D0B261"></stop></linearGradient><linearGradient id="paint20_linear_135_2880" x1="693.069" y1="479.278" x2="711.412" y2="479.278" gradientUnits="userSpaceOnUse"><stop stop-color="#E3D088"></stop><stop offset="0.64" stop-color="#D0B261"></stop></linearGradient><linearGradient id="paint21_linear_135_2880" x1="726.745" y1="479.279" x2="751.308" y2="479.279" gradientUnits="userSpaceOnUse"><stop stop-color="#E3D088"></stop><stop offset="0.64" stop-color="#D0B261"></stop></linearGradient><linearGradient id="paint22_linear_135_2880" x1="0" y1="482.857" x2="30.8503" y2="482.857" gradientUnits="userSpaceOnUse"><stop stop-color="#E3D088"></stop><stop offset="0.64" stop-color="#D0B261"></stop></linearGradient><linearGradient id="paint23_linear_135_2880" x1="16.721" y1="471.754" x2="34.8633" y2="471.754" gradientUnits="userSpaceOnUse"><stop stop-color="#E3D088"></stop><stop offset="0.64" stop-color="#D0B261"></stop></linearGradient><linearGradient id="paint24_linear_135_2880" x1="773.146" y1="483.073" x2="800" y2="483.073" gradientUnits="userSpaceOnUse"><stop stop-color="#E3D088"></stop><stop offset="0.64" stop-color="#D0B261"></stop></linearGradient><linearGradient id="paint25_linear_135_2880" x1="767.043" y1="471.469" x2="785.871" y2="471.469" gradientUnits="userSpaceOnUse"><stop stop-color="#E3D088"></stop><stop offset="0.64" stop-color="#D0B261"></stop></linearGradient></defs></svg> 