<?xml version="1.0" encoding="UTF-8"?> <svg xmlns="http://www.w3.org/2000/svg" width="800" height="278" viewBox="0 0 800 278" fill="none"><path fill-rule="evenodd" clip-rule="evenodd" d="M540.005 56.0822C543.75 51.755 545.023 57.6821 542.368 57.6094C534.005 59.6821 527.387 65.7547 521.605 71.8273C507.605 87.6452 495.896 105.245 484.297 122.881C484.188 123.208 484.006 123.826 483.897 124.117C490.588 124.626 497.278 125.572 503.678 127.644C504.442 128.081 504.805 128.735 504.769 129.644C497.206 127.935 489.46 126.954 481.715 126.626C466.406 151.935 450.079 176.989 439.57 204.77C438.625 209.17 440.988 212.916 442.661 216.625C433.752 213.243 426.989 201.28 431.68 192.116C441.643 168.844 456.261 147.971 469.642 126.59C450.297 126.59 431.025 128.517 411.68 128.299C396.989 151.499 381.426 174.189 367.135 197.68C361.899 210.37 346.663 214.079 334.263 214.188C334.772 210.407 340.663 210.443 342.481 207.279C364.081 183.062 380.444 154.844 398.844 128.263C385.644 128.554 372.335 125.39 360.59 119.426C358.772 117.754 354.808 116.845 354.99 113.827C359.281 114.881 362.626 118.19 366.808 119.645C377.535 124.008 389.426 125.754 400.953 125.608C411.425 108.154 422.989 91.2815 432.007 72.9909C433.098 70.7728 433.789 68.4092 434.552 66.0456C434.079 62.1911 429.716 61.973 426.661 61.3184C402.044 60.4457 376.917 61.9366 353.608 70.3365C342.045 74.5909 330.736 80.6635 322.663 90.1906C317.318 97.6814 314.154 107.427 317.245 116.445C319.609 126.154 327.827 133.063 336.663 136.917C344.227 141.281 353.135 141.899 361.39 144.19C360.626 146.044 359.099 146.444 356.845 145.317C343.39 143.39 330.372 138.226 319.318 130.335C314.3 125.426 308.445 120.263 307.173 113.027C304.591 104.663 308.373 95.6814 313.718 89.2452C324.736 77.0272 340.554 70.7364 356.008 66.3365C383.826 58.8458 412.916 58.0821 441.57 59.1003C444.734 59.6821 448.843 59.4276 451.206 62.1548C445.207 77.5727 435.207 90.9906 426.661 105.027C422.371 112.336 416.88 119.063 413.025 126.517C431.898 125.463 450.806 125.608 469.679 124.154C471.715 124.59 472.515 122.045 473.606 120.954C482.224 108.372 490.478 95.536 499.933 83.5362C509.569 70.2274 523.896 59.7548 540.005 56.0458V56.0822Z" fill="#F48120"></path><path fill-rule="evenodd" clip-rule="evenodd" d="M600.367 101.754C604.367 102.59 606.076 106.736 608.549 109.572C611.058 113.717 614.476 119.063 611.894 123.972C606.367 137.39 596.985 148.808 589.058 160.844C583.786 169.316 577.349 177.134 572.877 186.08C572.149 187.134 572.404 188.443 572.404 189.643C580.622 182.734 586.476 173.389 595.276 167.025C606.222 156.226 618.185 146.117 632.112 139.353C634.548 137.971 637.457 137.717 640.148 136.99C643.13 136.335 645.857 139.499 644.621 142.299C641.021 152.008 634.148 160.044 629.13 168.989C627.53 172.334 624.185 175.28 624.185 179.207C627.567 178.625 629.494 174.734 631.639 172.262C644.694 159.026 657.493 145.135 673.311 135.099C679.093 130.99 685.966 127.281 693.311 128.335C695.747 130.226 696.474 133.426 695.056 136.19C688.256 153.535 675.275 167.498 665.639 183.243C660.112 192.625 652.984 201.57 651.203 212.661C649.53 217.279 652.039 221.97 653.675 226.224C653.312 226.188 652.584 226.079 652.184 226.043C647.675 222.079 644.366 217.025 641.93 211.606C640.73 207.243 642.403 203.061 644.112 199.134C654.148 180.298 667.639 163.68 678.984 145.68C680.875 141.899 684.038 138.226 683.893 133.79C681.275 133.353 679.02 134.481 676.729 135.426C665.748 141.208 657.021 150.153 647.857 158.298C636.221 169.789 625.021 181.752 614.985 194.661C613.676 196.261 612.476 198.988 609.967 198.261C608.367 196.334 607.858 193.789 607.785 191.352C608.876 183.898 612.549 177.134 616.658 170.989C621.385 162.771 627.203 155.244 631.639 146.844C632.294 145.826 632.148 144.553 632.148 143.389C629.058 142.59 626.73 144.626 624.221 145.862C607.64 155.826 594.622 170.371 580.949 183.789C573.895 191.352 567.022 199.098 560.695 207.316C559.059 210.588 556.586 207.097 555.895 205.279C554.586 197.825 558.913 191.17 562.041 184.771C573.349 165.353 588.04 148.08 598.694 128.263C601.531 122.335 604.331 115.972 603.385 109.172C602.549 106.663 601.385 104.263 600.367 101.827V101.754Z" fill="#F48120"></path><path fill-rule="evenodd" clip-rule="evenodd" d="M536.005 115.063C546.041 113.863 558.15 116.408 563.604 125.79C567.895 135.062 567.277 146.189 562.914 155.316C557.495 168.698 547.968 179.934 537.532 189.716C533.787 193.098 529.787 196.298 525.496 199.025V196.188C528.441 194.043 531.241 191.643 533.969 189.316C541.823 180.952 548.332 171.207 552.005 160.298C555.568 149.207 557.75 136.553 552.659 125.608C548.805 117.899 538.878 116.808 531.241 118.226C529.314 118.59 527.387 119.135 525.496 119.826V117.572C528.914 116.19 532.514 115.354 536.005 115.063ZM525.496 161.898C529.641 162.116 534.696 162.444 537.423 159.28C533.714 159.68 529.532 160.262 525.496 160.189V161.935V161.898ZM525.496 138.044C526.805 137.171 528.187 136.371 529.605 135.68C530.732 135.39 532.187 135.353 531.787 133.753C529.605 133.753 527.532 134.117 525.496 134.699V138.044ZM525.496 199.025C519.096 203.134 512.114 206.297 504.66 207.788C499.024 208.406 492.842 207.061 488.515 203.279C481.715 194.843 482.66 183.098 486.26 173.534C489.642 163.207 496.806 154.589 504.478 147.135C503.133 133.608 513.351 122.444 525.496 117.572V119.826C515.351 123.681 506.587 132.59 507.86 144.189C513.351 140.553 519.096 136.48 525.496 134.699V138.044C520.333 141.426 515.896 145.826 511.642 150.262C509.896 150.917 509.787 153.426 511.205 154.335C514.842 158.771 520.078 160.044 525.496 160.189V161.935C524.878 161.935 524.296 161.862 523.751 161.862C517.605 161.862 511.787 159.535 507.242 155.389C499.351 168.043 492.006 183.789 496.951 198.879C499.569 202.552 504.042 204.879 508.624 203.861C514.951 202.988 520.442 199.97 525.496 196.261V199.097V199.025Z" fill="#F48120"></path><path fill-rule="evenodd" clip-rule="evenodd" d="M781.273 120.48C783.309 120.007 787.091 119.353 784.182 124.153C781.637 129.134 777.6 133.025 774.546 137.68C760.583 158.188 746.001 178.443 734.801 200.66C733.747 202.951 732.547 205.46 731.601 208.042V184.733C734.474 180.188 737.492 175.715 740.365 171.206C742.074 168.334 744.437 165.752 745.201 162.37C740.51 165.679 737.747 170.879 733.419 174.588C732.801 175.17 732.183 175.752 731.601 176.37V173.752C734.147 170.952 736.692 168.116 739.383 165.461C748.001 154.989 757.674 145.171 765.092 133.789C762.292 129.062 754.619 130.953 750.219 130.989C743.347 132.007 737.165 134.807 731.601 138.662V133.571C738.656 130.516 746.256 128.698 754.183 128.516C758.655 128.044 763.092 129.789 767.492 130.516C772.037 127.207 775.382 121.826 781.237 120.516L781.273 120.48ZM731.638 222.769L731.71 222.915C732.401 223.933 734.619 226.951 731.819 225.969L731.601 225.787V222.805L731.638 222.769ZM731.638 208.006C729.856 212.915 728.983 218.078 731.638 222.769V225.751C725.856 220.333 720.329 213.024 721.383 204.66C723.929 197.533 727.601 191.024 731.638 184.697V208.006ZM731.638 176.334V173.715C728.147 177.57 724.62 181.424 720.656 184.843C714.547 189.679 709.202 196.042 701.384 198.188C696.729 197.351 698.547 191.17 698.22 187.933C701.202 175.388 707.674 163.716 715.747 153.679C720.365 148.116 725.638 142.771 731.601 138.625V133.534C713.965 141.171 699.565 156.516 691.02 173.534C687.02 183.097 681.602 194.151 686.475 204.369C689.42 207.388 694.366 206.297 697.966 205.097C711.311 198.333 721.056 186.661 731.601 176.297L731.638 176.334Z" fill="#F48120"></path><path fill-rule="evenodd" clip-rule="evenodd" d="M623.785 52.7739V88.6278L623.64 88.7732H618.803L618.658 88.6278V56.0465H618.44L603.422 88.6278L603.276 88.7732H597.386L597.24 88.6278L582.55 56.3011H582.368V88.6278L582.222 88.7732H579.131L578.986 88.6278V55.2829H573.932L573.75 55.0647V52.7739L573.932 52.6284H586.513L586.659 52.7739L601.495 85.246H601.858L616.767 52.7739L616.913 52.6284H623.64L623.785 52.7739Z" fill="#F48120"></path><path fill-rule="evenodd" clip-rule="evenodd" d="M659.821 75.7901C659.821 76.6265 659.784 77.1719 659.784 77.2447L659.639 77.3537H644.585V75.1356H655.13C655.13 69.7539 651.53 64.8449 644.585 64.8085V62.7358C653.53 62.7358 659.821 68.0812 659.821 75.8265V75.7901ZM644.585 87.6808C645.276 87.7536 646.003 87.7899 646.803 87.7899C651.312 87.7899 655.275 85.0991 657.203 83.7173H657.384L658.293 84.9536V85.1354C654.148 88.8444 649.53 89.899 645.639 89.899C645.276 89.899 644.912 89.899 644.585 89.899V87.6808ZM644.585 77.3174H634.003C634.367 80.1537 635.603 86.7354 644.585 87.6808V89.899C640.839 89.7171 637.276 88.6263 635.058 86.9899C632.039 84.8081 630.112 81.9355 629.458 78.6992C629.203 77.7537 629.094 76.7719 629.094 75.7901C629.094 68.2994 635.748 62.6995 644.548 62.6995V64.7722C638.948 64.7722 634.039 69.2448 634.039 75.0992H644.585V77.3174Z" fill="#F48120"></path><path fill-rule="evenodd" clip-rule="evenodd" d="M695.529 76.7729C695.529 84.5546 689.13 89.9727 679.857 89.9727V87.6454C686.293 87.6091 690.548 82.6637 690.548 76.9547C690.548 70.773 686.475 66.4822 680.184 66.4822C680.075 66.4822 679.966 66.4822 679.821 66.4822V63.9731H680.111C689.348 63.5731 695.493 69.0276 695.493 76.8093L695.529 76.7729ZM679.857 53.2097C680.366 53.137 680.839 53.1006 681.239 53.1006C688.475 52.7006 690.911 52.7006 693.129 51.9006L693.275 52.0097L692.766 56.3733L692.62 56.6278C692.184 56.8096 689.711 57.2824 685.566 57.2824C683.384 57.2824 681.493 57.4278 679.821 57.6823V53.2097H679.857ZM679.857 89.9727C671.966 89.9727 666.512 85.7182 664.803 79.7547C664.148 77.8274 663.894 75.5366 663.857 73.2457C663.603 56.7005 674.293 53.7915 679.857 53.1733V57.646C669.966 59.246 667.93 65.1004 667.675 70.7003V71.8275H667.784C669.384 68.0822 673.966 64.264 679.893 63.9004V66.4095C675.348 66.5549 669.203 69.8276 669.203 77.0274C669.203 81.2819 672.039 87.5727 679.821 87.5727H679.93V89.8999L679.857 89.9727Z" fill="#F48120"></path><path fill-rule="evenodd" clip-rule="evenodd" d="M729.819 75.7901C729.819 76.6265 729.783 77.1719 729.783 77.2447L729.638 77.3537H714.583V75.1356H725.129C725.129 69.7539 721.529 64.8449 714.583 64.8085V62.7358C723.529 62.7358 729.819 68.0812 729.819 75.8265V75.7901ZM714.583 87.6808C715.274 87.7536 716.002 87.7899 716.801 87.7899C721.31 87.7899 725.274 85.0991 727.201 83.7173H727.383L728.292 84.9536V85.1354C724.11 88.8444 719.529 89.899 715.638 89.899C715.274 89.899 714.911 89.899 714.583 89.899V87.6808ZM714.583 77.3174H704.002C704.365 80.1537 705.602 86.7354 714.583 87.6808V89.899C710.838 89.7171 707.274 88.6263 705.056 86.9899C702.038 84.8081 700.111 81.9355 699.456 78.6992C699.202 77.7537 699.093 76.7719 699.093 75.7901C699.093 68.2994 705.747 62.6995 714.547 62.6995V64.7722C708.947 64.7722 704.038 69.2448 704.038 75.0992H714.583V77.3174Z" fill="#F48120"></path><path fill-rule="evenodd" clip-rule="evenodd" d="M764.255 64.1532V88.6255L764.11 88.771H759.492L759.346 88.6255V66.2623H743.892C743.928 73.644 743.71 80.1893 741.892 84.5529C740.147 88.8073 736.583 90.5164 733.383 88.771L733.274 88.5164L733.674 86.371L733.856 86.2256C737.019 86.6256 739.019 84.4438 739.965 80.3711C741.019 75.8985 740.947 70.9531 740.947 66.2259H736.583L736.438 66.0805V64.0805L736.583 63.9351H764.11L764.255 64.0805V64.1532Z" fill="#F48120"></path><path fill-rule="evenodd" clip-rule="evenodd" d="M800 79.6075C800 84.6256 795.455 88.8437 789.128 88.8437H785.746V86.6256H786.8C790.073 86.6256 795.091 84.5893 795.091 79.6803C795.091 75.3531 790.473 73.8986 785.746 73.7895V71.2804C786.364 71.2804 787.019 71.2441 787.637 71.2441C793.928 71.2441 799.964 74.1531 799.964 79.6075H800ZM785.746 88.8437H771.71L771.564 88.6983V64.226L771.71 64.0806H776.255L776.401 64.226V72.5168C778.037 72.2259 781.455 71.4986 785.746 71.3168V73.8258C785.564 73.8258 785.382 73.8258 785.164 73.8258C782.401 73.8258 777.782 74.5167 776.401 74.7349V86.6983H785.746V88.9165V88.8437Z" fill="#F48120"></path><path fill-rule="evenodd" clip-rule="evenodd" d="M153.394 6.04887L272.264 131.174C278.482 137.719 278.191 148.119 271.682 154.337L146.557 273.208C140.012 279.426 129.612 279.135 123.394 272.626L4.48734 147.464C-1.73072 140.919 -1.43982 130.519 5.06915 124.301L130.23 5.4307C136.776 -0.787363 147.176 -0.496459 153.394 6.01251V6.04887Z" fill="#0D0D0D"></path><path d="M130.978 16.8734L16.5147 125.571C10.5149 131.269 10.2699 140.752 15.9675 146.751L124.665 261.215C130.363 267.215 139.846 267.46 145.845 261.762L260.309 153.064C266.309 147.367 266.554 137.884 260.856 131.884L152.158 17.4206C146.461 11.4208 136.978 11.1758 130.978 16.8734Z" fill="white"></path><path fill-rule="evenodd" clip-rule="evenodd" d="M151.758 20.4851L257.756 132.083C263.283 137.901 263.065 147.21 257.21 152.737L145.612 258.735C139.794 264.262 130.485 264.044 124.958 258.19L18.9964 146.555C13.4692 140.737 13.6874 131.429 19.5418 125.901L131.103 19.9396C136.921 14.4125 146.23 14.6306 151.758 20.4851Z" fill="#F48120"></path><path fill-rule="evenodd" clip-rule="evenodd" d="M65.25 179.826C71.8317 173.681 78.2316 165.681 84.3769 155.79C90.5223 145.863 97.7585 131.754 106.049 113.355C107.831 109.391 110.013 104.191 112.704 97.7186C118.267 84.4098 122.74 77.7917 126.194 77.7917C127.903 77.7917 129.212 78.3008 130.049 79.319C130.885 80.3371 131.322 81.9007 131.322 84.0098C131.285 85.0279 131.103 86.5188 130.74 88.4824C130.412 90.446 129.903 92.9187 129.212 95.8641L114.522 159.936C139.794 126.664 157.285 104.555 166.921 93.5732C176.593 82.5553 183.066 77.0645 186.339 77.0645C187.466 77.0645 188.375 77.3554 189.139 77.9008C189.902 78.4826 190.266 79.1371 190.266 79.9008C190.266 82.2644 187.139 89.6097 180.921 101.973C176.812 110.155 173.503 116.846 171.03 122.009C165.394 133.718 161.176 143.936 158.412 152.627C155.648 161.317 154.267 168.626 154.267 174.517V176.517H147.067C147.212 167.863 150.267 156.045 156.194 141.063C162.157 126.082 171.466 106.809 184.193 83.1371C179.793 87.3552 172.957 95.0278 163.721 106.228C154.448 117.464 143.067 131.791 129.503 149.318C126.085 153.718 122.085 159.245 117.467 165.863C112.413 173.135 109.14 176.808 107.649 176.808C107.104 176.808 106.595 176.481 106.122 175.826C105.649 175.172 105.431 174.408 105.431 173.535C105.431 172.699 105.795 170.808 106.522 167.79C106.813 166.554 107.031 165.536 107.213 164.736L124.922 84.8098C122.922 89.2097 119.976 95.9732 116.049 104.955C101.286 139.209 87.4678 164.154 74.5953 179.753H65.25V179.826Z" fill="#0D0D0D"></path><path fill-rule="evenodd" clip-rule="evenodd" d="M187.648 107.791L190.12 108.591C188.011 115.136 188.157 122.263 190.666 130.118C196.375 146.481 202.375 165.426 199.175 182.808C198.157 188.662 195.247 195.389 192.157 199.862L190.193 200.371C194.12 195.208 196.847 183.317 196.702 176.226C196.52 165.208 194.084 156.626 189.248 150.59C187.466 148.336 185.393 146.481 183.066 144.99C166.703 164.226 155.903 207.862 156.412 221.753C158.594 228.734 101.686 234.407 105.431 207.68C107.94 189.862 136.776 180.19 156.012 191.644C132.158 184.299 105.504 198.989 119.503 218.844C127.612 230.334 148.594 227.207 150.921 218.589C161.721 187.753 155.721 204.226 174.848 148.699L175.211 147.536C175.357 146.772 175.575 146.045 175.902 145.354C179.502 133.754 183.539 120.882 187.648 107.791Z" fill="#0D0D0D"></path><path fill-rule="evenodd" clip-rule="evenodd" d="M154.957 191.316C132.121 186.989 120.158 202.552 125.14 214.879C127.794 221.425 135.503 226.261 148.376 216.188C125.14 214.879 126.522 188.044 154.957 191.316Z" fill="#0D0D0D"></path></svg> 