<?xml version="1.0" encoding="UTF-8"?> <svg xmlns="http://www.w3.org/2000/svg" width="800" height="275" viewBox="0 0 800 275" fill="none"><path fill-rule="evenodd" clip-rule="evenodd" d="M435.869 25.7427C436.509 25.4917 446.563 21.442 448.811 12.9647C448.247 9.62851 446.281 5.3109 438.681 2.85458C427.053 -0.882076 417.296 1.36556 417.296 1.36556L417.913 24.31C425.663 24.2508 431.413 24.7302 435.872 25.7398L435.869 25.7427Z" fill="#009DCC"></path><path fill-rule="evenodd" clip-rule="evenodd" d="M300.19 162.344C280.701 162.344 270.077 146.537 270.077 122.084C270.077 97.6304 279.84 84.624 300.19 84.624C320.54 84.624 330.512 98.0449 330.512 122.084C330.512 146.122 319.474 162.344 300.19 162.344ZM300.393 62.0658C266.183 62.0658 247.573 81.5811 247.573 118.601C247.573 158.246 265.974 183.37 300.19 183.37C334.407 183.37 353.022 158.474 353.022 118.601C353.022 81.3583 334.181 62.0658 300.393 62.0658ZM396.182 134.424C393.359 139.715 390.589 145.347 389.436 147.659C389.095 148.398 389.261 64.9029 389.261 64.9029H366.714V180.759H394.007L431.701 111.037C433.621 107.467 438.796 97.5006 438.796 97.5006C438.796 97.5006 438.61 109.396 438.61 115.38V180.762H461.163V64.9029H432.775L396.182 134.422V134.424ZM184.661 164.518C166.252 164.518 156.725 149.588 156.725 128.578C156.725 107.568 166.895 97.3907 184.661 97.3907C202.428 97.3907 213.255 108.66 213.255 128.361C213.255 150.008 205.042 164.521 184.661 164.521V164.518ZM190.747 74.8607C170.826 74.8607 159.559 85.9043 152.182 101.717C153.914 77.9036 164.96 56.8881 193.325 54.0736C208.717 52.5677 216.486 50.3934 223.886 46.0532V25.0461C216.069 29.1607 210.009 30.2436 189.887 33.0778C174.5 35.2352 158.477 42.3673 149.153 53.8649C135.935 70.0806 131.821 85.6956 131.821 114.94C131.821 160.403 150.242 183.576 184.661 183.576C219.081 183.576 236.43 162.786 236.43 128.358C236.43 95.8678 220.841 74.8579 190.747 74.8579V74.8607ZM777.476 64.9057V108.011H728.098V64.9029H705.557V180.759H728.098V129.007H777.476V180.759H800V64.9029H777.476V64.9057ZM575.561 64.9057H545.684L503.893 119.681V64.9029H481.369V180.759H503.893V125.97L546.542 180.759H577.944L527.278 122.081L575.564 64.9029L575.561 64.9057ZM621.168 134.424C618.345 139.715 615.567 145.347 614.419 147.659C614.072 148.398 614.244 64.9029 614.244 64.9029H591.726V180.759H619.008L656.69 111.037C658.608 107.467 663.808 97.5006 663.808 97.5006C663.808 97.5006 663.627 109.396 663.627 115.38V180.762H686.129V64.9029H657.784L621.168 134.422V134.424ZM59.3579 162.578C35.9593 162.578 23.1616 141.994 23.1616 110.157C23.1616 75.938 34.2221 56.2367 59.3579 56.2367H59.5524C84.6769 56.2367 95.9235 75.7434 95.9235 109.509C95.9235 143.274 82.9481 162.581 59.3579 162.581V162.578ZM59.5524 33.7152C19.0781 33.7152 0 58.6168 0 106.923C0 155.228 20.7815 183.573 59.5553 183.573C98.3291 183.573 119.111 154.766 119.111 106.923C119.111 59.0793 100.278 33.7152 59.5553 33.7152H59.5524Z" fill="#009DCC"></path><path fill-rule="evenodd" clip-rule="evenodd" d="M451.191 39.4712L450.861 19.406C447.257 25.4608 440.556 28.5996 438.726 29.33C431.264 32.9116 421.878 35.1028 414.374 35.1028C401.032 35.1028 386.196 29.1608 377.89 18.7913V43.1091C387.679 51.6851 399.258 58.225 414.374 58.225C429.49 58.225 448.433 50.3061 451.191 39.474V39.4712Z" fill="#FAC530"></path><path fill-rule="evenodd" clip-rule="evenodd" d="M85.0322 220.32V255.605H104.277V220.765L108.907 220.32V255.605H114.878V269.632L110.842 270.078V259.635H80.4072V220.765L85.0322 220.32Z" fill="#009DCC"></path><path fill-rule="evenodd" clip-rule="evenodd" d="M143.223 226.513C141.432 224.722 139.294 223.828 136.807 223.828C135.118 223.828 133.521 224.2 132.035 224.945C130.54 225.743 129.246 226.837 128.155 228.23C126.46 230.368 125.391 232.88 124.945 235.763H145.163V232.26C145.163 229.976 144.514 228.055 143.223 226.515V226.513ZM124.125 254.04C121.341 250.565 119.948 246.011 119.948 240.39C119.948 233.825 121.908 228.58 125.842 224.646C128.721 221.761 132.407 220.32 136.88 220.32C140.91 220.32 144.091 221.538 146.432 223.977C148.569 226.262 149.638 229.519 149.638 233.752C149.638 236.036 149.461 237.875 149.117 239.268H124.573V240.168C124.573 241.803 124.72 243.397 125.019 244.939C125.614 247.528 126.539 249.638 127.782 251.279C130.168 254.516 133.572 256.127 138 256.127C141.237 256.127 144.17 255.306 146.807 253.665L148 257.173C146.012 258.417 143.897 259.263 141.657 259.708C140.318 260.007 138.947 260.157 137.554 260.157C131.733 260.157 127.258 258.12 124.128 254.037L124.125 254.04Z" fill="#009DCC"></path><path fill-rule="evenodd" clip-rule="evenodd" d="M163.886 220.32V237.7H183.584V220.765L188.206 220.32V259.635H183.584V241.727H163.886V259.635H159.263V220.765L163.886 220.32Z" fill="#009DCC"></path><path fill-rule="evenodd" clip-rule="evenodd" d="M195.22 224.795V220.765H223.049L221.926 224.795H211.038V259.634H206.407V224.795H195.22Z" fill="#009DCC"></path><path fill-rule="evenodd" clip-rule="evenodd" d="M251.134 251.837C253.641 248.628 254.902 244.587 254.902 239.714C254.902 234.493 253.892 230.616 251.879 228.075C249.865 225.54 247.071 224.273 243.486 224.273C242.045 224.273 240.393 224.722 238.526 225.613C236.662 226.51 235.28 227.505 234.386 228.599V255.306C236.374 256.2 238.836 256.646 241.769 256.646C245.5 256.646 248.622 255.047 251.134 251.834V251.837ZM234.386 220.32V224.722C235.875 223.227 237.431 222.122 239.047 221.4C240.663 220.681 242.714 220.32 245.201 220.32C249.231 220.32 252.626 221.862 255.384 224.945C258.142 228.027 259.527 232.629 259.527 238.746C259.527 245.264 257.821 250.455 254.417 254.336C251.01 258.216 246.791 260.157 241.769 260.157C238.889 260.157 236.422 259.784 234.386 259.04V274.556H229.837V220.768L234.386 220.322V220.32Z" fill="#009DCC"></path><path fill-rule="evenodd" clip-rule="evenodd" d="M301.155 247.248H298.989L289.44 230.613V259.634H284.965V220.765H288.845L300.783 241.577L312.266 220.765H315.253V259.634H310.631V230.316L301.155 247.248Z" fill="#009DCC"></path><path fill-rule="evenodd" clip-rule="evenodd" d="M352.853 240.165C352.853 235.393 351.768 231.476 349.604 228.413C347.441 225.356 344.545 223.825 340.916 223.825C337.286 223.825 334.39 225.356 332.227 228.413C330.064 231.476 328.978 235.393 328.978 240.165C328.978 245.235 330.036 249.254 332.151 252.212C334.266 255.173 337.185 256.651 340.916 256.651C344.647 256.651 347.571 255.173 349.681 252.212C351.796 249.251 352.853 245.233 352.853 240.165ZM328.719 254.674C325.712 251.017 324.206 246.183 324.206 240.165C324.206 234.147 325.712 229.335 328.719 225.729C331.728 222.122 335.794 220.32 340.916 220.32C346.037 220.32 350.143 222.122 353.076 225.729C356.009 229.338 357.475 234.147 357.475 240.165C357.475 246.183 356.009 251.081 353.076 254.711C350.143 258.343 346.088 260.159 340.916 260.159C335.744 260.159 331.728 258.329 328.719 254.674Z" fill="#009DCC"></path><path fill-rule="evenodd" clip-rule="evenodd" d="M387.617 224.796H374.489C374.19 234.096 373.341 241.257 371.948 246.279C371.159 249.565 370.036 252.673 368.595 255.605H387.617V224.796ZM392.242 255.605H397.764V269.261L393.734 269.706V259.635H364.193V269.038L360.163 269.483V255.605H363.516C365.307 252.625 366.652 249.46 367.546 246.13C369.19 239.917 370.014 231.46 370.014 220.769H392.242V255.608V255.605Z" fill="#009DCC"></path><path fill-rule="evenodd" clip-rule="evenodd" d="M410.742 220.32V237.7H430.44V220.765L435.065 220.32V259.635H430.44V241.727H410.742V259.635H406.12V220.765L410.742 220.32Z" fill="#009DCC"></path><path fill-rule="evenodd" clip-rule="evenodd" d="M479.378 220.765V259.635H483.927V220.32L479.378 220.765ZM447.595 259.635V220.765L452.226 220.32V255.605H460.432C460.579 255.605 460.963 255.594 461.586 255.568C462.209 255.54 462.643 255.492 462.894 255.419C463.145 255.345 463.501 255.244 463.974 255.12C464.448 254.993 464.863 254.843 465.207 254.669C465.554 254.499 465.878 254.285 466.177 254.037C467.02 253.34 467.643 252.494 468.041 251.502C468.439 250.656 468.642 249.46 468.642 247.92C468.642 245.486 467.968 243.594 466.628 242.249C465.878 241.504 464.911 240.937 463.715 240.537C462.621 240.139 461.132 239.936 459.239 239.936H454.764L456.036 235.906H459.239C463.667 235.906 466.998 236.803 469.237 238.597C470.63 239.691 471.671 241.107 472.373 242.849C472.968 244.392 473.267 246.033 473.267 247.771C473.267 250.405 472.72 252.644 471.623 254.482C470.779 255.78 469.832 256.775 468.791 257.469C466.648 258.91 463.492 259.632 459.316 259.632H447.601L447.595 259.635Z" fill="#009DCC"></path><path fill-rule="evenodd" clip-rule="evenodd" d="M502.802 240.61L490.791 220.765L495.943 220.466L505.563 236.211L515.188 220.466L519.737 220.765L507.576 239.564L519.737 259.632L514.593 260.004L504.818 243.969L495.34 260.004L490.791 259.632L502.802 240.61Z" fill="#009DCC"></path><path fill-rule="evenodd" clip-rule="evenodd" d="M568.079 240.165C568.079 235.393 566.996 231.476 564.833 228.413C562.67 225.356 559.774 223.825 556.144 223.825C552.515 223.825 549.619 225.356 547.456 228.413C545.293 231.476 544.21 235.393 544.21 240.165C544.21 245.235 545.267 249.254 547.382 252.212C549.492 255.173 552.416 256.651 556.147 256.651C559.878 256.651 562.803 255.173 564.912 252.212C567.027 249.251 568.085 245.233 568.085 240.165H568.079ZM543.945 254.674C540.935 251.017 539.432 246.183 539.432 240.165C539.432 234.147 540.935 229.335 543.945 225.729C546.954 222.122 551.017 220.32 556.142 220.32C561.266 220.32 565.369 222.122 568.302 225.729C571.235 229.338 572.701 234.147 572.701 240.165C572.701 246.183 571.235 251.081 568.302 254.711C565.366 258.343 561.314 260.159 556.142 260.159C550.969 260.159 546.954 258.329 543.945 254.674Z" fill="#009DCC"></path><path fill-rule="evenodd" clip-rule="evenodd" d="M603.065 228.825C600.928 225.743 597.868 224.2 593.892 224.2C590.31 224.2 587.498 225.715 585.462 228.749C584.368 230.39 583.655 232.043 583.33 233.71C583.012 235.376 582.845 237.458 582.845 239.939C582.845 241.73 582.873 243.086 582.921 244.006C582.975 244.931 583.217 246.183 583.672 247.773C584.12 249.37 584.814 250.808 585.761 252.1C587.848 255.134 590.581 256.654 593.968 256.654C595.759 256.654 597.47 256.203 599.112 255.309C600.753 254.409 602.093 253.219 603.142 251.727C604.887 249.09 605.753 245.19 605.753 240.013C605.753 235.19 604.859 231.459 603.068 228.825H603.065ZM595.603 212.263C591.582 213.061 588.593 214.304 586.652 215.994C585.011 217.435 583.745 219.744 582.848 222.928C582.253 225.072 581.957 227.085 581.957 228.972C582.747 227.032 583.97 225.342 585.615 223.901C587.95 221.758 591.207 220.692 595.383 220.692C600.008 220.692 603.692 222.435 606.43 225.918C609.163 229.446 610.533 234.144 610.533 240.013C610.533 245.235 609.385 249.638 607.098 253.219C604.165 257.844 599.938 260.157 594.416 260.157C589.543 260.157 585.634 258.391 582.701 254.863C580.911 252.723 579.692 250.235 579.044 247.401C578.401 244.57 578.074 240.96 578.074 236.586C578.074 232.212 578.271 228.306 578.671 225.021C579.266 220.793 580.86 217.167 583.443 214.129C585.883 211.292 589.216 209.454 593.44 208.608L610.155 205.328L610.677 209.358L595.603 212.265V212.263Z" fill="#009DCC"></path><path fill-rule="evenodd" clip-rule="evenodd" d="M644.693 240.165C644.693 235.393 643.61 231.476 641.447 228.413C639.284 225.356 636.388 223.825 632.758 223.825C629.129 223.825 626.233 225.356 624.07 228.413C621.907 231.476 620.824 235.393 620.824 240.165C620.824 245.235 621.881 249.254 623.996 252.212C626.106 255.173 629.027 256.651 632.761 256.651C636.495 256.651 639.417 255.173 641.526 252.212C643.641 249.251 644.699 245.233 644.699 240.165H644.693ZM620.559 254.674C617.55 251.017 616.046 246.183 616.046 240.165C616.046 234.147 617.55 229.335 620.559 225.729C623.565 222.122 627.631 220.32 632.756 220.32C637.88 220.32 641.983 222.122 644.916 225.729C647.849 229.338 649.315 234.147 649.315 240.165C649.315 246.183 647.849 251.081 644.916 254.711C641.98 258.343 637.925 260.159 632.756 260.159C627.586 260.159 623.565 258.329 620.559 254.674Z" fill="#009DCC"></path><path fill-rule="evenodd" clip-rule="evenodd" d="M678.563 226.513C676.772 224.722 674.634 223.828 672.147 223.828C670.458 223.828 668.862 224.2 667.375 224.945C665.884 225.743 664.586 226.837 663.495 228.23C661.806 230.368 660.731 232.88 660.286 235.763H680.503V232.26C680.503 229.976 679.854 228.055 678.563 226.515V226.513ZM659.468 254.04C656.684 250.565 655.291 246.011 655.291 240.39C655.291 233.825 657.254 228.58 661.185 224.646C664.065 221.761 667.748 220.32 672.223 220.32C676.253 220.32 679.434 221.538 681.775 223.977C683.913 226.262 684.979 229.519 684.979 233.752C684.979 236.036 684.804 237.875 684.46 239.268H659.913V240.168C659.913 241.803 660.063 243.397 660.362 244.939C660.963 247.528 661.876 249.638 663.12 251.279C665.511 254.516 668.918 256.127 673.34 256.127C676.577 256.127 679.51 255.306 682.147 253.665L683.337 257.173C681.349 258.417 679.234 259.263 676.998 259.708C675.658 260.007 674.288 260.157 672.894 260.157C667.074 260.157 662.601 258.12 659.468 254.037V254.04Z" fill="#009DCC"></path><path fill-rule="evenodd" clip-rule="evenodd" d="M713.628 254.113C714.973 253.018 715.642 251.374 715.642 249.191C715.642 246.752 714.945 244.933 713.552 243.743C712.258 242.601 710.343 242.026 707.808 242.026H702.81L704.15 237.996H707.359C708.549 237.996 709.548 237.874 710.34 237.623C711.584 237.223 712.455 236.727 712.954 236.131C714.147 234.941 714.742 233.252 714.742 231.061C714.742 229.022 714.099 227.479 712.802 226.433C711.51 225.342 709.15 224.795 705.718 224.795H699.226V255.607H707.805C710.543 255.607 712.48 255.108 713.625 254.113H713.628ZM706.24 220.767C710.416 220.767 713.479 221.484 715.419 222.931C716.759 223.875 717.751 225.046 718.4 226.433C719.048 227.728 719.373 229.222 719.373 230.911C719.373 233.746 718.327 236.084 716.237 237.922C715.594 238.571 714.818 239.093 713.924 239.49C715.566 239.891 716.987 240.782 718.177 242.175C718.676 242.722 719.15 243.492 719.596 244.487C720.041 245.683 720.264 246.949 720.264 248.292C720.264 250.232 719.94 251.95 719.297 253.444C718.648 254.885 717.748 256.081 716.606 257.02C714.415 258.763 711.409 259.634 707.582 259.634H694.604V220.765H706.237L706.24 220.767Z" fill="#009DCC"></path></svg> 