<?xml version="1.0" encoding="UTF-8"?> <svg xmlns="http://www.w3.org/2000/svg" width="199" height="32" viewBox="0 0 199 32" fill="none"><path d="M63.6477 28.3611H61.24L60.4186 26.9407C60.1046 26.3981 59.7181 25.5841 59.2752 24.4908L59.2188 24.5307C59.3074 25.2649 59.3557 26.1906 59.3557 27.3158V31.7686H55.1523V18.4978H59.3557L62.4559 23.8604L65.5561 18.4978H69.7595V31.7686H65.5561V27.3158C65.5561 26.1906 65.5964 25.2649 65.693 24.5307L65.6366 24.4908C65.1937 25.5761 64.8072 26.3901 64.4851 26.9407L63.6638 28.3611H63.6477Z" fill="white"></path><path d="M76.4431 18.4255H78.6415C79.3823 18.4255 79.954 18.5772 80.3647 18.8804C80.7754 19.1836 81.1216 19.6545 81.4034 20.3088L86.1222 31.7762H81.9188L81.0733 29.6934H75.9278L75.2031 31.7762H70.8789L76.4431 18.4335V18.4255ZM79.801 26.5572L78.4804 22.7427L77.1598 26.5572H79.801Z" fill="white"></path><path d="M100.082 18.4658V31.7686H96.1045L91.3938 24.778V31.7686H87.2227V18.4658H91.2086L95.9112 25.4563V18.4658H100.082Z" fill="white"></path><path d="M106.775 18.4255H108.973C109.714 18.4255 110.286 18.5772 110.697 18.8804C111.107 19.1836 111.454 19.6545 111.735 20.3088L116.446 31.7762H112.251L111.405 29.6934H106.26L105.535 31.7762H101.211L106.775 18.4335V18.4255ZM110.133 26.5572L108.812 22.7427L107.492 26.5572H110.133Z" fill="white"></path><path d="M124.758 23.7724H128.776V30.731C127.335 31.5769 125.604 31.9998 123.59 31.9998C121.215 31.9998 119.419 31.3933 118.195 30.1724C116.971 28.9514 116.359 27.2676 116.359 25.121C116.359 22.9744 116.979 21.2906 118.228 20.0696C119.468 18.8487 121.279 18.2422 123.647 18.2422C125.265 18.2422 126.538 18.5055 127.456 19.0402C128.108 19.4312 128.43 19.9739 128.43 20.6522C128.43 21.5619 128.164 22.336 127.625 22.9664C126.642 22.1285 125.426 21.7135 123.969 21.7135C121.755 21.7135 120.643 22.8467 120.643 25.121C120.643 27.3953 121.634 28.5365 123.607 28.5365C124.219 28.5365 124.766 28.4646 125.249 28.329V26.4537H122.801V25.7115C122.801 25.0013 122.962 24.5065 123.268 24.2113C123.582 23.924 124.074 23.7724 124.75 23.7724" fill="white"></path><path d="M138.349 26.5017H135.112V28.377H141.095V31.7686H130.973V18.4658H141.07V21.8573H135.104V23.4534H140.442V24.4189C140.442 25.1691 140.273 25.6957 139.927 26.0229C139.581 26.3421 139.049 26.5017 138.341 26.5017" fill="white"></path><path d="M151.722 28.3611H149.307L148.485 26.9407C148.163 26.3981 147.785 25.5841 147.342 24.4908L147.285 24.5307C147.374 25.2649 147.422 26.1906 147.422 27.3158V31.7686H143.211V18.4978H147.422L150.523 23.8604L153.623 18.4978H157.826V31.7686H153.623V27.3158C153.623 26.1906 153.671 25.2649 153.76 24.5307L153.703 24.4908C153.26 25.5761 152.874 26.3901 152.56 26.9407L151.738 28.3611H151.722Z" fill="white"></path><path d="M167.626 26.5017H164.389V28.377H170.372V31.7686H160.258V18.4658H170.356V21.8573H164.389V23.4534H169.727V24.4189C169.727 25.1691 169.558 25.6957 169.212 26.0229C168.866 26.3421 168.334 26.5017 167.626 26.5017Z" fill="white"></path><path d="M185.344 18.4658V31.7686H181.366L176.663 24.778V31.7686H172.492V18.4658H176.47L181.173 25.4563V18.4658H185.344Z" fill="white"></path><path d="M186.648 18.4978H199.001V21.9691L194.926 21.9133V31.7686H190.723V21.9133L186.648 21.9691V18.4978Z" fill="white"></path><path d="M61.4901 9.3603H59.3481V13.5339H55.1367V0.223145H61.2566C64.8238 0.223145 66.6114 1.74733 66.6114 4.78773C66.6114 7.82813 64.9043 9.3603 61.482 9.3603M59.2998 3.61467V5.96878H61.3451C62.1021 5.96878 62.4725 5.57776 62.4725 4.79571C62.4725 4.45257 62.3839 4.17327 62.1987 3.94983C62.0135 3.72639 61.7317 3.61467 61.3451 3.61467H59.2998Z" fill="white"></path><path d="M73.7944 8.98524H72.3208V13.5339H68.1094V0.223145H74.4386C76.2343 0.223145 77.579 0.606187 78.4648 1.38025C79.3506 2.15432 79.7935 3.24758 79.7935 4.67601C79.7935 6.36778 79.0929 7.58075 77.6918 8.31492L80.1156 13.5259H77.8045C77.0878 13.5259 76.5322 13.3982 76.1216 13.1349C75.7109 12.8715 75.3807 12.4645 75.1311 11.9139L73.7944 8.97726V8.98524ZM72.2805 3.62265V5.74534H74.5352C75.2841 5.74534 75.6626 5.38624 75.6626 4.68399C75.6626 4.35681 75.5659 4.09347 75.3807 3.90993C75.1875 3.71841 74.9056 3.62265 74.5352 3.62265H72.2805Z" fill="white"></path><path d="M82.7232 11.9302C81.5717 10.7092 81 9.02544 81 6.87881C81 4.73217 81.5717 3.04838 82.7232 1.82743C83.8667 0.606484 85.5577 0 87.7882 0C90.0187 0 91.7097 0.606484 92.8532 1.82743C94.0047 3.04838 94.5764 4.73217 94.5764 6.87881C94.5764 9.02544 94.0047 10.7092 92.8532 11.9302C91.7097 13.1511 90.0187 13.7576 87.7882 13.7576C85.5577 13.7576 83.8667 13.1511 82.7232 11.9302ZM89.6886 9.38454C90.0993 8.77806 90.3006 7.94015 90.3006 6.87881C90.3006 5.81746 90.0993 4.97955 89.6886 4.37307C89.2779 3.76659 88.6498 3.46334 87.7963 3.46334C86.9427 3.46334 86.3146 3.76659 85.9039 4.37307C85.4933 4.97955 85.292 5.81746 85.292 6.87881C85.292 7.94015 85.4933 8.77806 85.9039 9.38454C86.3146 9.99103 86.9427 10.2943 87.7963 10.2943C88.6498 10.2943 89.2779 9.99103 89.6886 9.38454Z" fill="white"></path><path d="M105.802 8.90544H100.624V13.5339H96.4531V0.223145H106.172V3.62265H100.624V5.70544H105.802V8.90544Z" fill="white"></path><path d="M113.418 0.263184H125.778V3.73451L121.704 3.67865V13.534H117.501V3.67865L113.418 3.73451V0.263184Z" fill="white"></path><path d="M107.934 4.53245V2.314C107.934 1.60377 108.095 1.08507 108.417 0.741925C108.739 0.398782 109.278 0.231201 110.035 0.231201H112.105V1.57983C110.905 2.7928 109.496 3.7903 107.934 4.53245Z" fill="#E24F0D"></path><path d="M112.097 3.47111V13.534H107.926V6.41575C109.488 5.68159 110.897 4.6761 112.097 3.46313" fill="white"></path><path d="M31.9199 0.223145H30.1081C26.8951 0.223145 24.3023 0.749828 22.3053 1.78724C21.5564 2.17826 20.9202 2.65706 20.3405 3.1997C20.1794 3.35133 20.0425 3.52689 19.8976 3.68649C19.5111 4.10943 19.1648 4.56429 18.8749 5.05906C18.738 5.2825 18.6172 5.51392 18.5045 5.7613C18.2549 6.28798 18.0616 6.85457 17.9006 7.45307C17.8362 7.70844 17.7476 7.93986 17.6993 8.21118C17.5302 9.08898 17.4174 10.0306 17.4174 11.0601C17.4174 12.9194 16.5317 13.8451 14.744 13.8451H9.80787V11.0601C9.80787 10.2541 10.0253 9.58375 10.4682 9.05706C10.903 8.53038 11.5794 8.26704 12.4893 8.26704H14.7521C15.0339 8.26704 15.2513 8.33886 15.4848 8.38674C15.9116 5.58574 17.1114 2.80868 19.7848 0.845589C18.2629 0.446586 16.5236 0.231125 14.5266 0.231125H12.7148C4.23558 0.223145 0 3.83013 0 11.0521V23.4212V31.7683H4.89588C6.65132 31.7683 7.9075 31.3693 8.66443 30.5793C9.42136 29.7813 9.79982 28.5603 9.79982 26.9164V23.4212V21.889H15.0581C23.1588 21.889 27.2092 18.282 27.2092 11.0601C27.2092 10.2541 27.4266 9.58375 27.8695 9.05706C28.3043 8.53038 28.9807 8.26704 29.8907 8.26704H32.1534C33.0633 8.26704 33.7317 8.53038 34.1746 9.05706C34.6174 9.58375 34.8349 10.2461 34.8349 11.0601V23.4291V26.9244C34.8349 28.5683 35.2133 29.7892 35.9702 30.5872C36.7272 31.3773 37.9834 31.7763 39.7388 31.7763H44.6347V11.0521C44.6186 3.83013 40.383 0.223145 31.9199 0.223145Z" fill="#E24F0D"></path><path d="M17.4102 23.8524V25.3287V26.9168C17.4102 28.5607 17.7886 29.7816 18.5456 30.5796C19.3025 31.3696 20.5587 31.7686 22.3141 31.7686H27.21V18.8809C25.2371 21.7377 21.9034 23.4135 17.4102 23.8524Z" fill="#E24F0D"></path></svg> 