<?xml version="1.0" encoding="UTF-8"?> <svg xmlns="http://www.w3.org/2000/svg" width="800" height="222" viewBox="0 0 800 222" fill="none"><path d="M340.365 205.52H334.941V174.794H315.186V205.52H309.762V169.37H340.365V205.52Z" fill="#4A4A49"></path><path d="M383.327 187.399C383.327 192.145 382.402 196.891 379.382 200.712C376.362 204.534 371.831 206.537 366.869 206.537C362.185 206.537 358.117 204.873 355.22 201.729V221.608H349.734V169.4H354.634V173.961C357.501 170.417 362.123 168.414 366.962 168.414C371.801 168.414 376.454 170.479 379.413 174.239C382.279 177.906 383.358 182.745 383.358 187.429L383.327 187.399ZM377.564 187.399C377.564 183.731 376.824 180.094 374.944 177.506C372.941 174.701 369.643 173.438 366.037 173.438C362.616 173.438 359.473 174.64 357.47 177.259C355.405 179.879 354.604 183.669 354.604 187.429C354.604 191.189 355.405 195.073 357.47 197.661C359.473 200.219 362.771 201.544 366.161 201.544C369.551 201.544 372.91 200.127 374.913 197.322C376.855 194.764 377.533 191.158 377.533 187.429L377.564 187.399Z" fill="#4A4A49"></path><path d="M420.341 205.52H414.855V178.276L395.593 205.52H390.693V169.37H396.179V196.336L415.44 169.37H420.341V205.52Z" fill="#4A4A49"></path><path d="M463.333 187.399C463.333 192.145 462.408 196.891 459.388 200.712C456.368 204.534 451.837 206.537 446.876 206.537C442.191 206.537 438.123 204.873 435.226 201.729V221.608H429.74V169.4H434.64V173.961C437.507 170.417 442.129 168.414 446.968 168.414C451.807 168.414 456.46 170.479 459.419 174.239C462.285 177.906 463.364 182.745 463.364 187.429L463.333 187.399ZM457.57 187.399C457.57 183.731 456.83 180.094 454.95 177.506C452.947 174.701 449.649 173.438 446.044 173.438C442.623 173.438 439.479 174.64 437.476 177.259C435.411 179.879 434.61 183.669 434.61 187.429C434.61 191.189 435.411 195.073 437.476 197.661C439.479 200.219 442.777 201.544 446.167 201.544C449.557 201.544 452.916 200.127 454.919 197.322C456.861 194.764 457.539 191.158 457.539 187.429L457.57 187.399Z" fill="#4A4A49"></path><path d="M472.795 200.651C469.775 196.829 468.727 192.145 468.727 187.399C468.727 182.653 469.867 177.968 472.795 174.27C475.877 170.448 480.746 168.383 485.985 168.383C491.225 168.383 496.032 170.325 499.114 174.27C502.258 178.091 503.275 182.776 503.275 187.399C503.275 192.299 502.196 196.768 499.114 200.651C495.971 204.657 491.286 206.537 485.985 206.537C480.685 206.537 475.938 204.596 472.795 200.651ZM497.481 187.399C497.481 183.916 496.803 180.249 494.8 177.567C492.796 174.886 489.437 173.561 485.955 173.561C482.472 173.561 479.144 174.886 477.171 177.567C475.106 180.249 474.428 183.916 474.428 187.399C474.428 190.881 475.106 194.641 477.171 197.292C479.113 199.973 482.472 201.36 485.955 201.36C489.437 201.36 492.766 199.942 494.8 197.292C496.803 194.61 497.481 191.004 497.481 187.399Z" fill="#4A4A49"></path><path d="M541.09 200.312H544.295V210.421H539.148V205.52H512.521V210.421H507.312V200.312C509.778 200.312 513.538 198.648 514.74 188.385L516.959 169.37H541.121V200.281L541.09 200.312ZM535.943 174.331H521.489L519.763 189.001C519.147 194.086 517.945 198.031 515.942 200.312H535.943V174.331Z" fill="#4A4A49"></path><path d="M552.277 176.15C552.554 175.687 552.955 175.009 553.355 174.547C556.499 170.325 561.183 168.445 566.608 168.445C573.234 168.445 578.658 170.849 581.277 176.489C582.294 178.553 582.695 180.834 582.695 182.899V205.52H577.887V198.37C576.562 200.99 574.004 203.178 571.539 204.38C568.58 205.859 565.436 206.599 562.231 206.383C558.625 206.26 554.865 204.38 552.924 201.575C551.506 199.449 550.797 197.507 550.797 194.949C550.797 191.128 552.801 187.799 556.098 185.796C560.043 183.669 563.988 183.33 569.628 182.437L577.117 181.42C576.778 179.139 575.792 177.136 574.035 175.811C572.093 174.208 569.35 173.592 566.608 173.592C563.248 173.592 560.105 174.732 558.256 177.259C557.917 177.66 557.639 178.06 557.393 178.461L552.369 176.119L552.277 176.15ZM568.487 187.46C562.663 188.323 556.314 189.402 556.252 194.703C556.191 198.062 559.119 201.051 562.94 201.39C567.686 201.853 573.727 199.11 575.853 194.364C577.271 191.405 577.271 189.063 577.271 186.073C574.59 186.474 572.186 186.875 568.518 187.491L568.487 187.46Z" fill="#4A4A49"></path><path d="M631.544 179.632C631.205 178.893 630.742 178.215 630.342 177.629C628.338 174.886 625.041 173.561 621.497 173.561C617.952 173.561 614.747 174.886 612.806 177.629C610.741 180.31 610.124 183.916 610.063 187.46C610.124 191.004 610.741 194.61 612.806 197.292C614.747 199.973 618.106 201.298 621.497 201.298C624.887 201.298 628.338 199.973 630.342 197.292C630.742 196.675 631.143 196.028 631.482 195.35L636.629 197.631C636.012 198.648 635.427 199.634 634.687 200.589C631.544 204.534 626.736 206.537 621.497 206.537C616.257 206.537 611.511 204.596 608.368 200.589C605.347 196.829 604.361 192.083 604.3 187.46C604.361 182.776 605.378 178.091 608.368 174.27C611.635 170.202 616.319 168.383 621.497 168.383C626.674 168.383 631.482 170.325 634.687 174.27C635.427 175.287 636.105 176.273 636.629 177.413L631.544 179.632Z" fill="#4A4A49"></path><path d="M674.259 169.4V205.551H668.835V189.032H649.08V205.551H643.656V169.4H649.08V183.577H668.835V169.4H674.259Z" fill="#4A4A49"></path><path d="M683.165 176.15C683.442 175.687 683.843 175.009 684.244 174.547C687.387 170.325 692.072 168.445 697.496 168.445C704.122 168.445 709.546 170.849 712.166 176.489C713.183 178.553 713.583 180.834 713.583 182.899V205.52H708.776V198.37C707.451 200.99 704.893 203.178 702.427 204.38C699.468 205.859 696.325 206.599 693.12 206.383C689.514 206.26 685.754 204.38 683.812 201.575C682.395 199.449 681.686 197.507 681.686 194.949C681.686 191.128 683.689 187.799 686.987 185.796C690.932 183.669 694.876 183.33 700.516 182.437L708.005 181.42C707.666 179.139 706.68 177.136 704.923 175.811C702.982 174.208 700.239 173.592 697.496 173.592C694.137 173.592 690.993 174.732 689.144 177.259C688.805 177.66 688.528 178.06 688.281 178.461L683.258 176.119L683.165 176.15ZM699.376 187.46C693.551 188.323 687.202 189.402 687.141 194.703C687.079 198.062 690.007 201.051 693.828 201.39C698.575 201.853 704.615 199.11 706.742 194.364C708.159 191.405 708.159 189.063 708.159 186.073C705.478 186.474 703.074 186.875 699.407 187.491L699.376 187.46Z" fill="#4A4A49"></path><path d="M306.187 63.6599C311.149 56.9413 313.922 48.6818 313.768 41.0695C313.614 32.9949 310.841 24.7663 306.187 18.4484C301.687 12.0072 294.969 7.10697 287.202 4.64145C283.473 3.50115 279.467 2.88477 275.645 2.88477H223.284V119.319H243.439V79.0386H275.645C287.88 79.0386 299.283 73.2754 306.156 63.6599H306.187ZM243.47 60.0849V22.0234H275.522C280.083 22.0234 285.446 24.7355 288.867 28.7727C291.548 31.793 293.12 36.1693 293.305 41.0387C293.459 44.9527 292.164 48.8976 289.545 52.5034C286.185 57.0646 280.545 60.1157 275.491 60.1157H243.439L243.47 60.0849Z" fill="#4A4A49"></path><path d="M514.154 119.319V32.502H496.125L455.844 85.973V32.502H435.38V119.319H453.379L493.69 63.9373V119.319H514.154Z" fill="#4A4A49"></path><path d="M607.843 32.502H530.364V50.2845H559.026V119.319H579.181V50.2845H607.843V32.502Z" fill="#4A4A49"></path><path d="M660.174 30.0366C647.199 30.0366 634.933 35.4299 627.352 44.4907C620.51 52.9043 616.873 63.7526 616.873 75.9261C616.873 88.0997 620.294 98.6398 627.352 107.362C635.026 116.546 646.983 121.816 660.174 121.816C673.365 121.816 685.199 116.669 692.996 107.362C700.331 98.1158 703.629 88.4387 703.629 75.9261C703.629 63.4136 700.146 53.1201 692.996 44.4907C685.446 35.3067 673.488 30.0366 660.174 30.0366ZM676.97 94.9107C673.334 99.9342 667.201 102.831 660.174 102.831C653.147 102.831 647.014 99.9342 643.378 94.8798C639.988 90.3803 638.323 84.1856 638.323 75.8953C638.323 67.605 640.018 61.1638 643.378 56.7259C646.953 51.7948 653.055 48.9595 660.174 48.9595C667.293 48.9595 673.395 51.7948 676.97 56.7567C681.285 62.4582 682.179 70.3171 682.179 75.8953C682.179 83.9083 680.422 90.3186 676.97 94.8798V94.9107Z" fill="#4A4A49"></path><path d="M800 119.319V32.502H779.844V64.2147H741.999V32.502H721.843V119.319H741.999V84.6477H779.844V119.319H800Z" fill="#4A4A49"></path><path d="M411.434 119.319V66.6496C411.434 57.034 409.646 49.6067 405.979 43.936C399.414 33.8273 387.734 29.3586 369.119 30.0366H368.349L367.054 30.129C354.912 30.6221 343.909 35.8614 336.852 44.4907C330.164 52.9043 326.62 63.7526 326.62 75.9261C326.62 88.0996 329.979 98.6705 336.883 107.361C344.372 116.546 356.083 121.816 368.965 121.816C377.841 121.816 386.162 119.35 393.035 114.666L394.453 113.679V119.35H411.465L411.434 119.319ZM392.418 75.8953C392.418 83.939 390.6 90.3494 387.056 94.9106C383.327 99.9341 377.071 102.831 369.921 102.831C362.771 102.831 356.484 99.9341 352.754 94.9106C349.272 90.411 347.577 84.1856 347.577 75.9261C347.577 67.6666 349.334 61.1946 352.754 56.7567C356.391 51.8256 362.524 48.9903 369.582 48.9903C369.705 48.9903 369.797 48.9903 369.921 48.9903C376.639 49.0827 383.08 49.6375 388.258 55.678C392.449 60.5782 392.449 69.8239 392.418 75.3405V75.8953Z" fill="#4A4A49"></path><path d="M476.4 21.962C484.475 21.962 493.597 19.2808 503.09 12.0691L492.056 1.0359C476.431 11.7917 464.689 3.90207 460.898 0.635254L449.989 11.5452C455.413 16.6303 464.812 21.9928 476.37 21.9928L476.4 21.962Z" fill="#4A4A49"></path><path d="M119.085 10.7748L111.966 3.4707L105.278 12.2233C94.4603 26.4309 89.3135 32.6255 86.9096 35.3068L86.509 35.769C83.5504 39.5906 80.6226 43.1348 77.7256 46.6173C67.6478 58.8217 58.1247 70.3172 50.1425 88.8702C50.1117 88.9935 48.7557 92.3836 47.4921 97.7461C32.1134 96.4209 16.2108 94.1403 12.3276 93.3698L0 90.9967L4.77695 122.432C8.38277 146.933 14.8548 173.807 46.6908 182.529L47.4921 182.714C58.4329 184.656 68.2333 183.67 76.5544 181.327C80.2219 180.279 83.5504 178.954 86.6014 177.537C86.7555 186.197 89.6834 197.014 100.901 205.705L111.966 192.422C103.305 185.734 103.459 176.704 104.384 171.743C108.822 171.465 113.722 170.756 118.777 169.308C135.141 164.685 153.14 153.005 161.8 127.887C180.291 74.5394 121.581 13.3328 119.085 10.7748ZM89.406 152.542C84.0435 150.2 78.2803 146.07 71.3152 139.598C64.8432 132.479 62.9324 123.572 62.8708 115.59C63.2406 115.59 63.6413 115.59 64.0111 115.621C86.3857 120.614 89.3443 142.033 89.406 152.542ZM51.4369 166.195C33.9009 161.264 26.5044 149.46 22.1589 119.782L20.9569 111.861C27.922 112.786 36.7671 113.834 45.4889 114.573C45.3348 126.284 48.0469 139.999 58.4329 151.248L58.8643 151.679C64.6275 157.042 69.8667 161.141 74.921 164.254C68.6956 166.472 60.8059 167.798 51.4369 166.195ZM145.373 122.833C137.083 146.841 118.437 153.005 106.911 154.484C107.25 138.797 101.703 105.913 67.1238 98.948L65.4288 98.7631C65.4288 98.7631 65.2747 98.7631 65.1822 98.7631C65.8294 96.4517 66.3534 95.034 66.3842 95.0032C73.3493 78.854 81.6704 68.7454 91.3476 57.065C94.2754 53.5208 97.2648 49.915 100.254 46.0626C103.12 42.8574 107.404 37.5257 113.075 30.2216C127.128 47.1104 157.177 88.6853 145.373 122.833Z" fill="#45AC34"></path></svg> 