<?xml version="1.0" encoding="UTF-8"?> <svg xmlns="http://www.w3.org/2000/svg" width="800" height="116" viewBox="0 0 800 116" fill="none"><path fill-rule="evenodd" clip-rule="evenodd" d="M336.989 99.1178H304.254V88.8248L311.821 87.2216V38.0473L304.254 36.4561V26.1172H339.749C345.552 26.1172 350.602 27.1341 354.884 29.17C359.167 31.2199 362.453 34.0513 364.784 37.6685C367.101 41.3016 368.265 45.5189 368.265 50.3165C368.265 55.1141 367.101 59.3573 364.784 62.9744C362.453 66.5796 359.167 69.3772 354.884 71.3772C350.604 73.3871 345.552 74.3941 339.749 74.3941H329.41V87.2236L336.989 88.8267V99.1198V99.1178ZM329.41 39.5588V60.9007H339.749C343.332 60.9007 346.042 59.9176 347.895 57.9675C349.747 56.0054 350.68 53.4909 350.68 50.4142C350.68 47.3374 349.747 44.6375 347.895 42.6017C346.042 40.5757 343.332 39.5588 339.749 39.5588H329.41Z" fill="#0D0D0D"></path><path fill-rule="evenodd" clip-rule="evenodd" d="M406.457 100.148C401.418 100.148 396.794 99.2272 392.56 97.3767C388.331 95.5243 384.652 92.9241 381.549 89.5782C378.431 86.2263 376.042 82.316 374.359 77.8255C372.666 73.339 371.821 68.4437 371.821 63.1556V62.003C371.821 56.7528 372.666 51.8994 374.359 47.4209C376.042 42.9304 378.431 39.0301 381.524 35.6921C384.612 32.3581 388.267 29.734 392.501 27.8557C396.708 25.9813 401.33 25.0481 406.361 25.0481C411.392 25.0481 415.916 25.9813 420.169 27.8557C424.401 29.734 428.12 32.3581 431.306 35.6921C434.508 39.0301 436.999 42.9304 438.764 47.4209C440.532 51.8974 441.402 56.7528 441.402 62.003V63.1556C441.402 68.4437 440.532 73.339 438.764 77.8255C436.999 82.316 434.522 86.2283 431.332 89.5782C428.155 92.9241 424.453 95.5243 420.207 97.3767C415.962 99.2292 411.378 100.148 406.459 100.148H406.457ZM406.457 86.8165C410.15 86.8165 413.302 85.8334 415.902 83.8594C418.514 81.8973 420.488 79.1376 421.86 75.5922C423.222 72.0588 423.91 67.9153 423.91 63.1556V61.9053C423.91 57.2593 423.222 53.1736 421.838 49.6422C420.451 46.1228 418.463 43.375 415.85 41.399C413.25 39.4369 410.086 38.4538 406.359 38.4538C402.632 38.4538 399.256 39.4249 396.778 41.3491C394.289 43.2993 392.423 46.0211 391.224 49.5186C390.034 53.038 389.432 57.1696 389.432 61.9053V63.1556C389.432 67.9173 390.036 72.0608 391.248 75.6181C392.477 79.1754 394.353 81.9352 396.877 83.8973C399.406 85.8474 402.594 86.8165 406.457 86.8165Z" fill="#0D0D0D"></path><path fill-rule="evenodd" clip-rule="evenodd" d="M475.764 99.1178H443.007V88.8248L450.536 87.2216V38.0473L443.007 36.4561V26.1172H477.457L495.096 74.1927H495.401L512.548 26.1172H546.595V36.4561L539.016 38.0473V87.2196L546.595 88.8228V99.1158H513.91V88.8228L521.772 87.2196V77.7002L522.177 43.3474L521.87 43.2976L501.216 99.1178H487.391L466.432 43.9596L466.087 44.0094L467.29 75.2854V87.2196L475.764 88.8228V99.1158V99.1178Z" fill="#0D0D0D"></path><path fill-rule="evenodd" clip-rule="evenodd" d="M581.943 99.1178H549.182V88.8248L556.723 87.2216V38.0473L549.182 36.4561V26.1172H583.636L601.271 74.1927H601.578L618.725 26.1172H652.77V36.4561L645.191 38.0473V87.2196L652.77 88.8228V99.1158H620.085V88.8228L627.959 87.2196V77.7002L628.352 43.3474L628.045 43.2976L607.405 99.1178H593.57L572.621 43.9596L572.266 44.0094L573.469 75.2854V87.2196L581.943 88.8228V99.1158V99.1178Z" fill="#0D0D0D"></path><path fill-rule="evenodd" clip-rule="evenodd" d="M674.493 99.1178H647.141V88.8248L652.282 88.065L674.017 26.1172H693.061L714.896 88.065L720.008 88.8248V99.1178H692.744V88.8248L697.492 87.9294L695.281 80.0212H671.833L669.71 87.9294L674.491 88.8248V99.1178H674.493ZM682.453 45.826L675.524 67.6823H691.518L684.405 45.5687L683.608 42.9945H683.301L682.453 45.826Z" fill="#0D0D0D"></path><path fill-rule="evenodd" clip-rule="evenodd" d="M755.895 99.1178H723.159V88.8248L730.726 87.2216V38.0473L723.159 36.4561V26.1172H755.895V36.4561L748.339 38.0473V56.4939H774.893V38.0473L767.314 36.4561V26.1172H800V36.4561L792.445 38.0473V87.2196L800 88.8228V99.1158H767.314V88.8228L774.893 87.2196V69.9854H748.339V87.2196L755.895 88.8228V99.1158V99.1178Z" fill="#0D0D0D"></path><path fill-rule="evenodd" clip-rule="evenodd" d="M203.327 50.8047C203.327 44.8924 209.975 40.2584 218.448 40.2584H227.01V9.00428C227.01 4.34428 223.219 0.555664 218.557 0.555664H138.408C133.748 0.555664 129.959 4.34627 129.959 9.00428V69.8893C129.959 70.2442 129.981 70.6032 130.031 70.9441H203.327V50.8047Z" fill="#0D0D0D"></path><path fill-rule="evenodd" clip-rule="evenodd" d="M51.587 50.8047V70.9441H124.879C124.929 70.6012 124.966 70.2442 124.966 69.8893V9.00428C124.966 4.34428 121.176 0.555664 116.502 0.555664H36.3647C31.6928 0.555664 27.9041 4.34627 27.9041 9.00428V40.2584H36.4644C44.939 40.2663 51.589 44.8924 51.589 50.8047H51.587Z" fill="#0D0D0D"></path><path fill-rule="evenodd" clip-rule="evenodd" d="M36.4624 45.0538H10.327C4.24524 45.0538 0 48.0827 0 50.8065V110.154C0 112.876 4.24524 115.907 10.327 115.907H26.2112C25.3139 114.19 24.7875 112.104 24.7875 109.849V81.7974C24.7875 78.0466 26.2232 74.7825 28.4525 72.8423C29.8284 71.6419 31.4954 70.942 33.3219 70.942H46.7894V50.8025C46.7894 48.0807 42.5481 45.0498 36.4624 45.0498V45.0538Z" fill="#0D0D0D"></path><path fill-rule="evenodd" clip-rule="evenodd" d="M244.597 45.0538H218.448C212.366 45.0538 208.121 48.0827 208.121 50.8065V70.946H216.595C219.809 70.946 222.545 73.1035 224.005 76.3557C224.715 77.9489 225.133 79.7993 225.133 81.7993V109.851C225.133 112.106 224.605 114.19 223.712 115.909H244.585C250.683 115.909 254.916 112.878 254.916 110.156V50.8045C254.916 48.0827 250.683 45.0518 244.599 45.0518L244.597 45.0538Z" fill="#0D0D0D"></path><path fill-rule="evenodd" clip-rule="evenodd" d="M219.59 78.2657C218.864 76.6964 217.688 75.7373 216.595 75.7373H33.3218C32.6718 75.7373 31.9878 76.0942 31.3836 76.7084C30.3667 77.7513 29.593 79.5658 29.593 81.7971V109.849C29.593 113.416 31.5551 115.907 33.3198 115.907H216.593C216.753 115.907 216.9 115.881 217.062 115.847C218.691 115.466 220.336 113.111 220.336 109.849V81.7971C220.336 80.4352 220.041 79.2488 219.588 78.2657H219.59Z" fill="#0D0D0D"></path></svg> 