<?xml version="1.0" encoding="UTF-8"?> <svg xmlns="http://www.w3.org/2000/svg" width="800" height="175" viewBox="0 0 800 175" fill="none"><path d="M260.637 173.657V159.706L253.662 171.396H250.8L243.993 159.658V173.633H237.883V150.35H244.931L252.387 163.819L260.301 150.35H266.627L266.723 173.633H260.613L260.637 173.657Z" fill="#0D0D0D"></path><path d="M296.789 163.916H279.158C279.471 165.359 280.216 166.489 281.419 167.331C282.598 168.173 284.065 168.582 285.845 168.582C287.047 168.582 288.13 168.414 289.068 168.053C290.006 167.692 290.872 167.115 291.69 166.345L295.274 170.242C293.085 172.743 289.886 174.018 285.652 174.018C283.031 174.018 280.697 173.513 278.677 172.478C276.657 171.444 275.093 170.025 274.011 168.221C272.904 166.393 272.375 164.349 272.375 162.04C272.375 159.73 272.928 157.71 273.987 155.858C275.069 154.03 276.56 152.587 278.437 151.576C280.337 150.542 282.429 150.037 284.786 150.037C287.144 150.037 289.14 150.518 290.968 151.504C292.796 152.491 294.263 153.886 295.322 155.714C296.38 157.542 296.909 159.682 296.909 162.112C296.909 162.208 296.861 162.809 296.789 163.94V163.916ZM280.986 156.435C279.952 157.301 279.302 158.48 279.086 159.995H290.559C290.319 158.528 289.693 157.349 288.659 156.459C287.625 155.569 286.35 155.136 284.859 155.136C283.367 155.136 282.044 155.569 281.01 156.435H280.986Z" fill="#0D0D0D"></path><path d="M322.502 153.333C324.185 154.247 325.46 155.522 326.374 157.158C327.288 158.793 327.745 160.718 327.745 162.882C327.745 165.047 327.192 167.068 326.109 168.799C325.027 170.507 323.512 171.854 321.588 172.792C319.663 173.73 317.45 174.187 314.997 174.187C310.932 174.187 307.733 172.888 305.4 170.267C303.067 167.645 301.912 163.82 301.912 158.769C301.912 154.103 302.922 150.375 304.967 147.585C307.011 144.794 310.114 142.966 314.348 142.101L325.436 139.888L326.35 145.684L316.56 147.633C313.915 148.162 311.942 149.028 310.643 150.23C309.369 151.433 308.599 153.165 308.358 155.378C309.369 154.271 310.571 153.429 311.99 152.852C313.41 152.251 314.949 151.962 316.633 151.962C318.845 151.962 320.794 152.419 322.477 153.333H322.502ZM319.23 167.26C320.289 166.129 320.818 164.71 320.818 162.978C320.818 161.247 320.289 159.828 319.23 158.769C318.172 157.735 316.777 157.206 315.045 157.206C313.313 157.206 311.87 157.735 310.812 158.769C309.753 159.804 309.2 161.199 309.2 162.978C309.2 164.758 309.753 166.178 310.836 167.284C311.942 168.39 313.337 168.944 315.045 168.944C316.753 168.944 318.172 168.39 319.23 167.26Z" fill="#0D0D0D"></path><path d="M355.935 163.916H338.304C338.617 165.359 339.363 166.489 340.565 167.331C341.744 168.173 343.211 168.582 344.991 168.582C346.194 168.582 347.276 168.414 348.214 168.053C349.152 167.692 350.018 167.115 350.836 166.345L354.42 170.242C352.231 172.743 349.032 174.018 344.799 174.018C342.177 174.018 339.844 173.513 337.823 172.478C335.803 171.444 334.239 170.025 333.157 168.221C332.051 166.393 331.521 164.349 331.521 162.04C331.521 159.73 332.075 157.71 333.133 155.858C334.215 154.03 335.707 152.587 337.583 151.576C339.483 150.542 341.575 150.037 343.933 150.037C346.29 150.037 348.286 150.518 350.114 151.504C351.942 152.491 353.409 153.886 354.468 155.714C355.526 157.542 356.055 159.682 356.055 162.112C356.055 162.208 356.007 162.809 355.935 163.94V163.916ZM340.132 156.435C339.098 157.301 338.449 158.48 338.232 159.995H349.705C349.465 158.528 348.839 157.349 347.805 156.459C346.771 155.569 345.496 155.136 344.005 155.136C342.514 155.136 341.191 155.569 340.156 156.435H340.132Z" fill="#0D0D0D"></path><path d="M384.462 150.376V173.659H377.703V155.908H370.343L370.126 160.021C370.006 163.076 369.717 165.626 369.26 167.646C368.803 169.666 368.058 171.254 366.999 172.408C365.965 173.563 364.522 174.14 362.67 174.14C361.684 174.14 360.529 173.972 359.158 173.611L359.495 168.079C359.952 168.127 360.289 168.175 360.481 168.175C361.491 168.175 362.237 167.814 362.742 167.069C363.247 166.323 363.584 165.385 363.752 164.255C363.921 163.124 364.065 161.609 364.137 159.733L364.474 150.376H384.39H384.462Z" fill="#0D0D0D"></path><path d="M411.594 159.877C413.205 161.224 414.023 163.124 414.023 165.577C414.023 168.031 413.109 170.147 411.329 171.567C409.525 172.986 406.999 173.707 403.728 173.707L392.039 173.659V150.376H398.749V157.832H404.642C407.673 157.856 410.006 158.554 411.618 159.877H411.594ZM406.085 168.079C406.783 167.502 407.12 166.636 407.12 165.481C407.12 164.327 406.783 163.533 406.109 163.004C405.436 162.475 404.426 162.21 403.103 162.186L398.725 162.138V168.897H403.103C404.402 168.921 405.388 168.656 406.085 168.079Z" fill="#0D0D0D"></path><path d="M419.315 150.376H426.025V159.468H436.152V150.376H442.91V173.659H436.152V164.952H426.025V173.659H419.315V150.376Z" fill="#0D0D0D"></path><path d="M467.805 152.587C469.729 154.294 470.716 156.892 470.716 160.356V173.657H464.39V170.747C463.115 172.911 460.758 173.994 457.294 173.994C455.514 173.994 453.951 173.681 452.628 173.08C451.305 172.478 450.319 171.637 449.621 170.578C448.924 169.52 448.587 168.293 448.587 166.946C448.587 164.782 449.405 163.074 451.04 161.847C452.676 160.596 455.201 159.995 458.593 159.995H463.957C463.957 158.528 463.5 157.397 462.61 156.604C461.72 155.81 460.373 155.401 458.593 155.401C457.342 155.401 456.139 155.593 454.937 155.978C453.734 156.363 452.724 156.892 451.882 157.566L449.453 152.851C450.728 151.961 452.243 151.264 454.023 150.783C455.803 150.302 457.631 150.037 459.507 150.037C463.115 150.037 465.881 150.903 467.829 152.611L467.805 152.587ZM462.057 168.654C462.946 168.125 463.596 167.331 463.957 166.297V163.916H459.314C456.548 163.916 455.153 164.83 455.153 166.634C455.153 167.5 455.49 168.197 456.164 168.702C456.837 169.207 457.775 169.448 458.954 169.448C460.132 169.448 461.142 169.183 462.032 168.654H462.057Z" fill="#0D0D0D"></path><path d="M498.376 150.374V173.657H492.363V166.994H487.384L482.959 173.657H475.767L481.082 166.032C479.471 165.407 478.244 164.493 477.378 163.29C476.536 162.087 476.104 160.644 476.104 158.936C476.104 156.194 477.09 154.078 479.062 152.587C481.034 151.095 483.752 150.35 487.216 150.35H498.352L498.376 150.374ZM484.113 156.651C483.367 157.181 483.007 157.998 483.007 159.153C483.007 160.308 483.367 161.149 484.065 161.679C484.763 162.208 485.845 162.472 487.288 162.472H492.363V155.858H487.384C485.941 155.858 484.859 156.122 484.113 156.627V156.651Z" fill="#0D0D0D"></path><path d="M529.549 164.832H526.037V173.659H519.278V150.376H526.037V159.42H529.669L535.995 150.376H543.187L535.057 161.537L543.764 173.659H535.803L529.573 164.832H529.549Z" fill="#0D0D0D"></path><path d="M551.726 172.454C549.778 171.42 548.262 170.001 547.156 168.197C546.049 166.369 545.52 164.325 545.52 162.015C545.52 159.706 546.073 157.638 547.156 155.834C548.262 154.006 549.778 152.587 551.726 151.576C553.674 150.542 555.887 150.037 558.34 150.037C560.794 150.037 562.983 150.542 564.931 151.576C566.855 152.611 568.37 154.03 569.477 155.834C570.583 157.662 571.113 159.706 571.113 162.015C571.113 164.325 570.559 166.393 569.477 168.197C568.37 170.025 566.855 171.444 564.931 172.454C563.007 173.465 560.794 173.994 558.34 173.994C555.887 173.994 553.698 173.489 551.726 172.454ZM562.598 166.706C563.704 165.527 564.257 163.964 564.257 162.015C564.257 160.067 563.704 158.48 562.598 157.325C561.491 156.171 560.072 155.569 558.34 155.569C556.609 155.569 555.19 156.147 554.059 157.325C552.929 158.504 552.375 160.067 552.375 162.015C552.375 163.964 552.929 165.551 554.059 166.706C555.19 167.884 556.609 168.462 558.34 168.462C560.072 168.462 561.491 167.884 562.598 166.706Z" fill="#0D0D0D"></path><path d="M599.543 173.657V159.706L592.568 171.396H589.705L582.898 159.658V173.633H576.789V150.35H583.836L591.293 163.819L599.206 150.35H605.532L605.628 173.633H599.519L599.543 173.657Z" fill="#0D0D0D"></path><path d="M636.344 150.376V173.659H629.585V155.908H619.892V173.659H613.181V150.376H636.344Z" fill="#0D0D0D"></path><path d="M661.287 152.587C663.211 154.294 664.197 156.892 664.197 160.356V173.657H657.871V170.747C656.597 172.911 654.239 173.994 650.776 173.994C648.996 173.994 647.432 173.681 646.11 173.08C644.787 172.478 643.8 171.637 643.103 170.578C642.405 169.52 642.069 168.293 642.069 166.946C642.069 164.782 642.886 163.074 644.522 161.847C646.158 160.596 648.683 159.995 652.075 159.995H657.438C657.438 158.528 656.981 157.397 656.091 156.604C655.202 155.81 653.855 155.401 652.075 155.401C650.824 155.401 649.621 155.593 648.419 155.978C647.216 156.363 646.206 156.892 645.364 157.566L642.935 152.851C644.209 151.961 645.725 151.264 647.505 150.783C649.285 150.302 651.113 150.037 652.989 150.037C656.597 150.037 659.363 150.903 661.311 152.611L661.287 152.587ZM655.538 168.654C656.428 168.125 657.078 167.331 657.438 166.297V163.916H652.796C650.03 163.916 648.635 164.83 648.635 166.634C648.635 167.5 648.972 168.197 649.645 168.702C650.319 169.207 651.257 169.448 652.435 169.448C653.614 169.448 654.624 169.183 655.514 168.654H655.538Z" fill="#0D0D0D"></path><path d="M671.149 150.376H677.859V159.468H687.986V150.376H694.744V173.659H687.986V164.952H677.859V173.659H671.149V150.376Z" fill="#0D0D0D"></path><path d="M702.273 150.376H708.984V164.23L720.337 150.376H726.518V173.659H719.808V159.805L708.503 173.659H702.273V150.376Z" fill="#0D0D0D"></path><path d="M754.805 150.374V173.657H748.791V166.994H743.812L739.387 173.657H732.195L737.511 166.032C735.899 165.407 734.648 164.493 733.806 163.29C732.965 162.087 732.532 160.644 732.532 158.936C732.532 156.194 733.518 154.078 735.49 152.587C737.462 151.095 740.18 150.35 743.644 150.35H754.781L754.805 150.374ZM740.541 156.651C739.796 157.181 739.435 157.998 739.435 159.153C739.435 160.308 739.796 161.149 740.493 161.679C741.191 162.208 742.273 162.472 743.716 162.472H748.791V155.858H743.812C742.369 155.858 741.287 156.122 740.541 156.627V156.651Z" fill="#0D0D0D"></path><path d="M225.111 38.576C229.681 36.6518 234.949 35.6897 240.914 35.6897V56.4714C238.413 56.279 236.729 56.1828 235.863 56.1828C229.417 56.1828 224.366 57.9867 220.71 61.5947C217.054 65.2026 215.226 70.6145 215.226 77.8304V114.487H192.712V36.8442H214.215V47.0908C216.909 43.3385 220.541 40.5003 225.111 38.576Z" fill="#0D0D0D"></path><path d="M268.551 110.518C262.056 107.103 256.981 102.364 253.325 96.303C249.669 90.2417 247.841 83.3626 247.841 75.6656C247.841 67.9687 249.669 61.0896 253.325 55.0282C256.981 48.9669 262.056 44.2285 268.551 40.813C275.045 37.3975 282.381 35.6897 290.559 35.6897C298.737 35.6897 306.049 37.3975 312.495 40.813C318.942 44.2285 323.993 48.9669 327.649 55.0282C331.305 61.0896 333.133 67.9687 333.133 75.6656C333.133 83.3626 331.305 90.2417 327.649 96.303C323.993 102.364 318.942 107.103 312.495 110.518C306.049 113.934 298.737 115.642 290.559 115.642C282.381 115.642 275.045 113.934 268.551 110.518ZM304.774 91.3241C308.479 87.4275 310.331 82.208 310.331 75.6656C310.331 69.1232 308.479 63.9038 304.774 60.0072C301.07 56.1106 296.332 54.1623 290.559 54.1623C284.787 54.1623 280.024 56.1106 276.272 60.0072C272.52 63.9038 270.643 69.1232 270.643 75.6656C270.643 82.208 272.52 87.4275 276.272 91.3241C280.024 95.2207 284.787 97.169 290.559 97.169C296.332 97.169 301.07 95.2207 304.774 91.3241Z" fill="#0D0D0D"></path><path d="M363.079 110.518C356.584 107.103 351.509 102.364 347.853 96.303C344.197 90.2417 342.369 83.3626 342.369 75.6656C342.369 67.9687 344.197 61.0896 347.853 55.0282C351.509 48.9669 356.584 44.2285 363.079 40.813C369.573 37.3975 376.909 35.6897 385.087 35.6897C393.265 35.6897 400.577 37.3975 407.023 40.813C413.47 44.2285 418.521 48.9669 422.177 55.0282C425.833 61.0896 427.661 67.9687 427.661 75.6656C427.661 83.3626 425.833 90.2417 422.177 96.303C418.521 102.364 413.47 107.103 407.023 110.518C400.577 113.934 393.265 115.642 385.087 115.642C376.909 115.642 369.573 113.934 363.079 110.518ZM399.302 91.3241C403.007 87.4275 404.859 82.208 404.859 75.6656C404.859 69.1232 403.007 63.9038 399.302 60.0072C395.598 56.1106 390.86 54.1623 385.087 54.1623C379.314 54.1623 374.552 56.1106 370.8 60.0072C367.047 63.9038 365.171 69.1232 365.171 75.6656C365.171 82.208 367.047 87.4275 370.8 91.3241C374.552 95.2207 379.314 97.169 385.087 97.169C390.86 97.169 395.598 95.2207 399.302 91.3241Z" fill="#0D0D0D"></path><path d="M565.268 44.2766C570.992 50.0012 573.854 58.5881 573.854 70.0373V114.487H551.341V73.5009C551.341 67.3433 550.066 62.7492 547.517 59.7186C544.967 56.6879 541.335 55.1726 536.621 55.1726C531.329 55.1726 527.144 56.8803 524.065 60.2958C520.986 63.7113 519.447 68.7865 519.447 75.5213V114.487H496.933V73.5009C496.933 61.282 492.026 55.1726 482.213 55.1726C477.017 55.1726 472.88 56.8803 469.802 60.2958C466.723 63.7113 465.183 68.7865 465.183 75.5213V114.487H442.67V36.8442H464.173V45.7919C467.06 42.5207 470.595 40.0192 474.781 38.2874C478.966 36.5556 483.56 35.6897 488.563 35.6897C494.047 35.6897 499.002 36.7721 503.428 38.9368C507.853 41.1016 511.413 44.2525 514.107 48.3896C517.282 44.3487 521.299 41.2219 526.158 39.009C531.016 36.7961 536.332 35.6897 542.105 35.6897C551.822 35.6897 559.543 38.552 565.268 44.2766Z" fill="#0D0D0D"></path><path d="M595.213 22.4125C592.616 20.0072 591.317 17.0246 591.317 13.4648C591.317 9.90497 592.616 6.92241 595.213 4.51712C597.811 2.11183 601.179 0.90918 605.316 0.90918C609.453 0.90918 612.82 2.06372 615.418 4.3728C618.016 6.68188 619.314 9.56823 619.314 13.0318C619.314 16.7841 618.016 19.8869 615.418 22.3403C612.82 24.7937 609.453 26.0204 605.316 26.0204C601.179 26.0204 597.811 24.8178 595.213 22.4125ZM594.059 36.8442H616.572V114.487H594.059V36.8442Z" fill="#0D0D0D"></path><path d="M670.836 84.0369L660.012 94.7164V114.488H637.499V7.4043H660.012V68.0176L692.916 36.8451H719.759L687.432 69.7495L722.646 114.488H695.37L670.836 84.0369Z" fill="#0D0D0D"></path><path d="M790.331 44.2766C796.777 50.0012 800 58.6362 800 70.1816V114.487H778.93V104.818C774.696 112.034 766.807 115.642 755.262 115.642C749.296 115.642 744.125 114.631 739.747 112.611C735.37 110.59 732.026 107.8 729.717 104.241C727.408 100.681 726.254 96.6398 726.254 92.1178C726.254 84.902 728.972 79.2255 734.408 75.0884C739.844 70.9513 748.238 68.8827 759.591 68.8827H777.486C777.486 63.9759 775.995 60.1996 773.013 57.5538C770.03 54.908 765.556 53.5851 759.591 53.5851C755.454 53.5851 751.389 54.2345 747.396 55.5334C743.404 56.8322 740.012 58.5881 737.222 60.8009L729.14 45.0703C733.373 42.0878 738.449 39.7787 744.366 38.1431C750.283 36.5075 756.368 35.6897 762.622 35.6897C774.648 35.6897 783.885 38.552 790.331 44.2766ZM771.137 97.8184C774.119 96.0385 776.236 93.4167 777.486 89.9531V82.0156H762.045C752.808 82.0156 748.19 85.0463 748.19 91.1076C748.19 93.994 749.32 96.279 751.581 97.9627C753.842 99.6464 756.945 100.488 760.89 100.488C764.835 100.488 768.154 99.5983 771.137 97.8184Z" fill="#0D0D0D"></path><path d="M50.1743 57.2645H82.9585C84.9549 57.2645 86.5664 55.6529 86.5664 53.6565C86.5664 51.6601 84.9549 50.0486 82.9585 50.0486H50.1743C48.178 50.0486 46.5664 51.6601 46.5664 53.6565C46.5664 55.6529 48.178 57.2645 50.1743 57.2645Z" fill="#0D0D0D"></path><path d="M82.9585 87.3545H50.1743C48.178 87.3545 46.5664 88.966 46.5664 90.9624C46.5664 92.9588 48.178 94.5704 50.1743 94.5704H82.9585C84.9549 94.5704 86.5664 92.9588 86.5664 90.9624C86.5664 88.966 84.9549 87.3545 82.9585 87.3545Z" fill="#0D0D0D"></path><path d="M132.171 43.9148C132.171 37.2281 126.735 31.8162 120.072 31.8162H12.0986C5.41191 31.8162 0 37.2521 0 43.9148V64.5281C0 67.8474 1.34696 70.8781 3.53578 73.0669C1.37102 75.2557 0 78.2623 0 81.6057V102.219C0 108.906 5.43596 114.318 12.0986 114.318H22.9705L13.8304 148.834C13.3253 150.758 14.4799 152.73 16.4041 153.235C16.7168 153.307 17.0295 153.356 17.3181 153.356C18.9056 153.356 20.3728 152.297 20.8058 150.662L30.4269 114.294H102.129L111.75 150.662C112.183 152.273 113.65 153.356 115.238 153.356C115.55 153.356 115.863 153.307 116.152 153.235C118.076 152.73 119.23 150.758 118.725 148.834L109.585 114.318H120.024C126.711 114.318 132.123 108.882 132.123 102.219V81.6057C132.123 78.2864 130.776 75.2798 128.587 73.0669C130.752 70.8781 132.123 67.8715 132.123 64.5281V43.9148H132.171ZM7.21587 43.9148C7.21587 41.2208 9.40469 39.032 12.0986 39.032H120.072C122.766 39.032 124.955 41.2208 124.955 43.9148V64.5281C124.955 67.2221 122.766 69.4109 120.072 69.4109H12.0986C9.40469 69.4109 7.21587 67.2221 7.21587 64.5281V43.9148ZM124.955 102.171C124.955 104.865 122.766 107.054 120.072 107.054H12.0986C9.40469 107.054 7.21587 104.865 7.21587 102.171V81.5576C7.21587 78.8637 9.40469 76.6748 12.0986 76.6748H120.072C122.766 76.6748 124.955 78.8637 124.955 81.5576V102.171Z" fill="#0D0D0D"></path></svg> 