<?xml version="1.0" encoding="UTF-8"?> <svg xmlns="http://www.w3.org/2000/svg" width="16" height="17" viewBox="0 0 16 17" fill="none"><path d="M10.7917 12.0417L11.8542 10.9792L8.75 7.875V3.5H7.25V8.5L10.7917 12.0417ZM8 16.5C6.89756 16.5 5.86153 16.2917 4.89192 15.875C3.92231 15.4583 3.07292 14.8854 2.34375 14.1562C1.61458 13.4271 1.04167 12.5767 0.625 11.605C0.208333 10.6334 0 9.59519 0 8.49046C0 7.38571 0.208333 6.34722 0.625 5.375C1.04167 4.40278 1.61458 3.55556 2.34375 2.83333C3.07292 2.11111 3.92332 1.54167 4.89496 1.125C5.86661 0.708333 6.90481 0.5 8.00954 0.5C9.11429 0.5 10.1528 0.71 11.1251 1.13C12.0974 1.55 12.9432 2.12 13.6625 2.84C14.3817 3.56 14.9511 4.40667 15.3707 5.38C15.7902 6.35333 16 7.39333 16 8.5C16 9.60244 15.7917 10.6385 15.375 11.6081C14.9583 12.5777 14.3889 13.4271 13.6667 14.1562C12.9444 14.8854 12.0963 15.4583 11.1223 15.875C10.1482 16.2917 9.10747 16.5 8 16.5ZM8.00994 15C9.80823 15 11.3395 14.3646 12.6037 13.0938C13.8679 11.8229 14.5 10.2884 14.5 8.49006C14.5 6.69177 13.8679 5.16052 12.6037 3.89631C11.3395 2.6321 9.80823 2 8.00994 2C6.21165 2 4.67708 2.6321 3.40625 3.89631C2.13542 5.16052 1.5 6.69177 1.5 8.49006C1.5 10.2884 2.13542 11.8229 3.40625 13.0938C4.67708 14.3646 6.21165 15 8.00994 15Z" fill="#BF994C"></path></svg> 