<?xml version="1.0" encoding="UTF-8"?> <svg xmlns="http://www.w3.org/2000/svg" width="800" height="197" viewBox="0 0 800 197" fill="none"><path d="M24.667 34.9893C40.6673 34.9893 48.8856 44.553 48.8856 61.3048V64.5897H33.3338V60.2502C33.3338 52.7713 30.3399 49.9349 25.1155 49.9349C19.8912 49.9349 16.8972 52.7713 16.8972 60.2502C16.8972 81.7778 49.0432 85.8143 49.0432 115.718C49.0432 132.457 40.6673 142.033 24.5216 142.033C8.37588 142.033 0 132.47 0 115.718V109.293H15.5518V116.772C15.5518 124.251 18.8367 126.942 24.0731 126.942C29.3095 126.942 32.5944 124.251 32.5944 116.772C32.5944 95.2326 0.448492 91.1962 0.448492 61.3048C0.448492 44.5652 8.6668 34.9893 24.667 34.9893Z" fill="#0D0D0D"></path><path d="M58.4493 36.1777H74.8981V140.834H58.4493V36.1777Z" fill="#0D0D0D"></path><path d="M111.529 82.5294H134.548V115.718C134.548 132.457 126.172 142.033 110.026 142.033C93.8802 142.033 85.5044 132.47 85.5044 115.718V61.3048C85.5044 44.5652 93.8802 34.9893 110.026 34.9893C126.172 34.9893 134.548 44.553 134.548 61.3048V71.4747H118.996V60.2624C118.996 52.7835 115.711 49.9471 110.474 49.9471C105.238 49.9471 101.953 52.7835 101.953 60.2624V116.772C101.953 124.251 105.238 126.942 110.474 126.942C115.711 126.942 118.996 124.251 118.996 116.772V97.4872H111.517V82.5415L111.529 82.5294Z" fill="#0D0D0D"></path><path d="M179.991 110.482L191.203 36.1777H214.076V140.834H198.524V65.7903L187.166 140.846H171.615L159.36 66.8449V140.846H145.008V36.1777H167.881L179.991 110.482Z" fill="#0D0D0D"></path><path d="M279.265 140.834H262.671L259.834 121.852H239.652L236.816 140.834H221.712L238.452 36.1777H262.525L279.265 140.834ZM241.737 107.645H257.58L249.652 54.7235L241.725 107.645H241.737Z" fill="#0D0D0D"></path><path d="M513.135 36.1777H539.148C555.596 36.1777 563.669 45.293 563.669 62.0448V114.967C563.669 131.706 555.596 140.834 539.148 140.834H513.135V36.1777ZM529.584 51.1234V125.876H538.857C544.093 125.876 547.232 123.185 547.232 115.706V61.3054C547.232 53.8265 544.093 51.1355 538.857 51.1355H529.584V51.1234Z" fill="#0D0D0D"></path><path d="M572.784 61.3048C572.784 44.5652 581.609 34.9893 597.755 34.9893C613.9 34.9893 622.725 44.553 622.725 61.3048V115.718C622.725 132.457 613.9 142.033 597.755 142.033C581.609 142.033 572.784 132.47 572.784 115.718V61.3048ZM589.233 116.772C589.233 124.251 592.518 127.088 597.755 127.088C602.991 127.088 606.276 124.251 606.276 116.772V60.2502C606.276 52.7713 602.991 49.9349 597.755 49.9349C592.518 49.9349 589.233 52.7713 589.233 60.2502V116.76V116.772Z" fill="#0D0D0D"></path><path d="M631.985 61.3048C631.985 44.5652 640.81 34.9893 656.955 34.9893C673.101 34.9893 681.926 44.553 681.926 61.3048V115.718C681.926 132.457 673.101 142.033 656.955 142.033C640.81 142.033 631.985 132.47 631.985 115.718V61.3048ZM648.434 116.772C648.434 124.251 651.719 127.088 656.955 127.088C662.192 127.088 665.477 124.251 665.477 116.772V60.2502C665.477 52.7713 662.192 49.9349 656.955 49.9349C651.719 49.9349 648.434 52.7713 648.434 60.2502V116.76V116.772Z" fill="#0D0D0D"></path><path d="M726.92 140.834C726.023 138.143 725.429 136.494 725.429 127.973V111.524C725.429 101.803 722.144 98.215 714.665 98.215H708.98V140.822H692.532V36.1777H717.344C734.387 36.1777 741.708 44.1051 741.708 60.2508V68.4691C741.708 79.2329 738.266 86.2633 730.944 89.6937C739.163 93.1362 741.854 101.051 741.854 111.973V128.119C741.854 133.197 741.999 136.943 743.648 140.822H726.908L726.92 140.834ZM708.98 51.1355V83.2815H715.405C721.538 83.2815 725.272 80.5905 725.272 72.2146V61.8993C725.272 54.4204 722.726 51.1355 716.896 51.1355H708.968H708.98Z" fill="#0D0D0D"></path><path d="M774.751 34.9893C790.751 34.9893 798.97 44.553 798.97 61.3048V64.5897H783.418V60.2502C783.418 52.7713 780.424 49.9349 775.2 49.9349C769.975 49.9349 766.981 52.7713 766.981 60.2502C766.981 81.7778 799.127 85.8143 799.127 115.718C799.127 132.457 790.751 142.033 774.606 142.033C758.46 142.033 750.084 132.47 750.084 115.718V109.293H765.636V116.772C765.636 124.251 768.921 126.942 774.157 126.942C779.394 126.942 782.678 124.251 782.678 116.772C782.678 95.2447 750.533 91.2083 750.533 61.3048C750.533 44.5652 758.751 34.9893 774.751 34.9893Z" fill="#0D0D0D"></path><path d="M395.533 38.6257L470.965 70.8807V32.5529L440.358 19.4618L395.545 0.297852L350.708 19.4618L321.375 32.0074V37.6317V70.3353V75.9717L430.576 122.663L394.879 137.936L321.375 106.506V144.845L350.054 157.1L394.867 176.264L439.704 157.1L470.965 143.73V139.936V105.39V101.596L359.618 53.9956L395.533 38.6257Z" fill="#0F36FD"></path><path d="M514.105 180.64C514.105 179.282 514.347 177.961 514.844 176.652C515.329 175.342 516.044 174.155 516.99 173.088C517.923 172.009 519.075 171.161 520.432 170.518C521.79 169.888 523.329 169.561 525.063 169.561C527.111 169.561 528.869 170.009 530.372 170.906C531.863 171.803 532.978 172.967 533.705 174.409L530.384 176.688C530.008 175.852 529.523 175.197 528.917 174.7C528.311 174.203 527.669 173.864 526.978 173.67C526.287 173.476 525.608 173.367 524.941 173.367C523.863 173.367 522.917 173.585 522.105 174.021C521.305 174.458 520.626 175.027 520.093 175.742C519.547 176.446 519.147 177.246 518.893 178.118C518.638 178.991 518.505 179.876 518.505 180.749C518.505 181.73 518.662 182.676 518.978 183.585C519.293 184.494 519.729 185.294 520.311 185.997C520.881 186.7 521.572 187.246 522.372 187.658C523.172 188.058 524.056 188.264 525.014 188.264C525.705 188.264 526.396 188.155 527.111 187.924C527.826 187.694 528.481 187.331 529.087 186.834C529.693 186.337 530.166 185.682 530.493 184.894L534.032 186.931C533.596 188.034 532.881 188.979 531.887 189.743C530.893 190.518 529.79 191.1 528.553 191.5C527.317 191.9 526.105 192.094 524.893 192.094C523.305 192.094 521.862 191.767 520.541 191.112C519.22 190.458 518.093 189.585 517.147 188.482C516.202 187.391 515.462 186.155 514.929 184.785C514.396 183.415 514.129 182.033 514.129 180.64H514.105Z" fill="#0D0D0D"></path><path d="M553.524 173.511H546.42V191.936H542.129V173.511H535.026V169.729H553.511V173.511H553.524Z" fill="#0D0D0D"></path><path d="M560.287 169.729H564.663L572.833 191.948H568.397L566.554 186.409H558.396L556.542 191.948H552.105L560.299 169.729H560.287ZM565.536 183.366L562.481 174.202L559.415 183.366H565.536Z" fill="#0D0D0D"></path><path d="M589.415 191.936V173.512H582.906L582.785 177.269C582.676 180.215 582.445 182.639 582.07 184.554C581.694 186.47 581.148 187.985 580.445 189.076C579.742 190.167 578.845 190.942 577.766 191.391C576.688 191.839 575.403 192.057 573.9 192.057V188.336C574.675 188.336 575.342 188.167 575.9 187.839C576.457 187.5 576.942 186.906 577.318 186.021C577.706 185.148 578.009 183.9 578.239 182.3C578.469 180.688 578.627 178.615 578.712 176.069L578.93 169.718H593.694V191.936H589.403H589.415Z" fill="#0D0D0D"></path><path d="M598.421 191.936V169.718H602.712V177.669H607.282C608.93 177.669 610.324 177.96 611.464 178.542C612.603 179.124 613.464 179.948 614.058 181.003C614.652 182.057 614.955 183.306 614.955 184.736C614.955 186.167 614.664 187.403 614.094 188.494C613.524 189.573 612.676 190.421 611.573 191.027C610.47 191.633 609.124 191.936 607.536 191.936H598.433H598.421ZM602.712 188.433H606.93C607.767 188.433 608.458 188.264 608.991 187.936C609.537 187.609 609.924 187.16 610.179 186.603C610.434 186.045 610.555 185.427 610.555 184.736C610.555 184.13 610.433 183.56 610.191 183.015C609.949 182.469 609.561 182.033 609.027 181.682C608.494 181.342 607.779 181.16 606.882 181.16H602.688V188.421L602.712 188.433Z" fill="#0D0D0D"></path><path d="M636.81 169.729V191.948H632.519V182.469H622.446V191.948H618.131V169.729H622.446V178.711H632.519V169.729H636.81Z" fill="#0D0D0D"></path><path d="M641.44 191.936V169.718H645.755V177.669H650.289C651.937 177.669 653.331 177.96 654.471 178.542C655.61 179.124 656.483 179.948 657.089 181.003C657.695 182.057 657.998 183.306 657.998 184.736C657.998 186.167 657.707 187.403 657.125 188.494C656.543 189.573 655.695 190.421 654.592 191.027C653.489 191.633 652.143 191.936 650.555 191.936H641.452H641.44ZM645.755 188.433H649.949C650.81 188.433 651.501 188.264 652.034 187.936C652.567 187.609 652.955 187.16 653.21 186.603C653.465 186.045 653.586 185.427 653.586 184.736C653.586 184.13 653.465 183.56 653.222 183.015C652.98 182.469 652.592 182.033 652.071 181.682C651.537 181.342 650.822 181.16 649.925 181.16H645.767V188.421L645.755 188.433ZM661.271 191.936V169.754H665.586V191.936H661.271Z" fill="#0D0D0D"></path><path d="M685.647 188.154V191.936H670.228V169.718H685.368V173.5H674.544V178.845H683.901V182.348H674.544V188.13H685.647V188.154Z" fill="#0D0D0D"></path><path d="M695.162 196.19V188.154H696.35C696.908 188.154 697.405 187.936 697.817 187.499C698.229 187.063 698.592 186.36 698.883 185.402C699.174 184.445 699.405 183.196 699.586 181.669C699.768 180.142 699.889 178.275 699.95 176.081L700.144 169.729H714.944V188.154H717.89V196.19H714.108V191.936H698.968V196.19H695.186H695.162ZM701.514 188.154H710.653V173.511H704.047L703.987 176.639C703.926 178.808 703.805 180.651 703.623 182.178C703.441 183.705 703.199 184.954 702.871 185.936C702.544 186.918 702.096 187.657 701.514 188.154Z" fill="#0D0D0D"></path><path d="M739.114 186.215C739.114 187.463 738.787 188.518 738.145 189.354C737.502 190.203 736.629 190.845 735.526 191.282C734.435 191.718 733.235 191.936 731.938 191.936H721.211V169.718H733.102C734.145 169.718 735.042 169.997 735.805 170.542C736.569 171.1 737.151 171.803 737.563 172.675C737.975 173.536 738.169 174.445 738.169 175.378C738.169 176.445 737.902 177.451 737.357 178.409C736.811 179.366 736.023 180.082 734.981 180.53C736.254 180.906 737.26 181.585 737.999 182.566C738.739 183.548 739.114 184.76 739.114 186.191V186.215ZM725.538 173.415V179.015H731.296C731.781 179.015 732.217 178.906 732.605 178.675C733.005 178.445 733.32 178.118 733.563 177.706C733.805 177.294 733.926 176.785 733.926 176.203C733.926 175.621 733.817 175.148 733.599 174.736C733.381 174.324 733.09 173.997 732.726 173.766C732.363 173.536 731.951 173.427 731.49 173.427H725.55L725.538 173.415ZM734.763 185.391C734.763 184.833 734.654 184.324 734.423 183.876C734.193 183.427 733.89 183.076 733.502 182.809C733.114 182.554 732.678 182.421 732.169 182.421H725.538V188.276H731.951C732.472 188.276 732.945 188.142 733.369 187.888C733.793 187.621 734.132 187.282 734.387 186.833C734.641 186.397 734.763 185.912 734.763 185.391Z" fill="#0D0D0D"></path><path d="M757.915 188.154V191.936H742.496V169.718H757.636V173.5H746.811V178.845H756.169V182.348H746.811V188.13H757.915V188.154Z" fill="#0D0D0D"></path><path d="M761.296 191.936V169.718H770.715C771.733 169.718 772.678 169.924 773.527 170.348C774.388 170.76 775.127 171.33 775.757 172.033C776.4 172.736 776.885 173.536 777.248 174.409C777.6 175.281 777.782 176.178 777.782 177.1C777.782 178.348 777.491 179.536 776.909 180.663C776.327 181.791 775.527 182.712 774.497 183.415C773.478 184.13 772.266 184.482 770.872 184.482H765.612V191.924H761.296V191.936ZM765.612 180.7H770.618C771.139 180.7 771.612 180.554 772.024 180.263C772.436 179.972 772.775 179.548 773.03 179.003C773.284 178.445 773.406 177.815 773.406 177.112C773.406 176.336 773.26 175.682 772.981 175.136C772.703 174.591 772.339 174.191 771.891 173.912C771.442 173.645 770.957 173.5 770.436 173.5H765.624V180.7H765.612Z" fill="#0D0D0D"></path><path d="M780.945 191.936V169.718H785.236V185.863L796 169.718H800V191.936H795.709V175.985L785.066 191.936H780.933H780.945Z" fill="#0D0D0D"></path></svg> 