<?xml version="1.0" encoding="UTF-8"?> <svg xmlns="http://www.w3.org/2000/svg" width="800" height="197" viewBox="0 0 800 197" fill="none"><path d="M24.694 34.5424C40.7117 34.5424 48.939 44.1166 48.939 60.8867V64.1752H33.3702V59.831C33.3702 52.3439 30.373 49.5044 25.143 49.5044C19.9129 49.5044 16.9157 52.3439 16.9157 59.831C16.9157 81.3821 49.0967 85.4229 49.0967 115.359C49.0967 132.117 40.7117 141.703 24.5484 141.703C8.38503 141.703 0 132.117 0 115.359V108.928H15.5687V116.415C15.5687 123.902 18.8572 126.596 24.0994 126.596C29.3415 126.596 32.63 123.902 32.63 116.415C32.63 94.8515 0.448981 90.8107 0.448981 60.8746C0.448981 44.1166 8.67626 34.5303 24.694 34.5303V34.5424Z" fill="#0D0D0D"></path><path d="M58.5132 35.7314H74.9799V140.502H58.5132V35.7314Z" fill="#0D0D0D"></path><path d="M111.651 82.1344H134.694V115.359C134.694 132.117 126.309 141.703 110.146 141.703C93.9828 141.703 85.5977 132.129 85.5977 115.359V60.8746C85.5977 44.1166 93.9828 34.5303 110.146 34.5303C126.309 34.5303 134.694 44.1045 134.694 60.8746V71.0555H119.126V59.831C119.126 52.3439 115.837 49.5044 110.595 49.5044C105.353 49.5044 102.064 52.3439 102.064 59.831V116.403C102.064 123.89 105.353 126.584 110.595 126.584C115.837 126.584 119.126 123.89 119.126 116.403V97.0964H111.639V82.1344H111.651Z" fill="#0D0D0D"></path><path d="M180.187 110.117L191.412 35.7314H214.31V140.502H198.741V65.3642L187.371 140.502H171.802L159.534 66.4199V140.502H145.167V35.7314H168.065L180.187 110.117Z" fill="#0D0D0D"></path><path d="M279.57 140.502H262.958L260.118 121.499H239.914L237.074 140.502H221.955L238.713 35.7314H262.812L279.57 140.502ZM242.001 107.277H257.861L249.925 54.2974L241.989 107.277H242.001Z" fill="#0D0D0D"></path><path d="M513.695 35.7314H539.736C556.203 35.7314 564.285 44.8567 564.285 61.6268V114.607C564.285 131.364 556.203 140.502 539.736 140.502H513.695V35.7314ZM530.162 50.6934V125.528H539.445C544.687 125.528 547.83 122.834 547.83 115.347V60.8744C547.83 53.3873 544.687 50.6934 539.445 50.6934H530.162Z" fill="#0D0D0D"></path><path d="M573.41 60.8746C573.41 44.1166 582.244 34.5303 598.407 34.5303C614.571 34.5303 623.405 44.1045 623.405 60.8746V115.359C623.405 132.117 614.571 141.703 598.407 141.703C582.244 141.703 573.41 132.129 573.41 115.359V60.8746ZM589.877 116.403C589.877 123.89 593.165 126.729 598.407 126.729C603.649 126.729 606.938 123.89 606.938 116.403V59.831C606.938 52.3439 603.649 49.5044 598.407 49.5044C593.165 49.5044 589.877 52.3439 589.877 59.831V116.403Z" fill="#0D0D0D"></path><path d="M632.676 60.8746C632.676 44.1166 641.51 34.5303 657.673 34.5303C673.836 34.5303 682.67 44.1045 682.67 60.8746V115.359C682.67 132.117 673.836 141.703 657.673 141.703C641.51 141.703 632.676 132.129 632.676 115.359V60.8746ZM649.142 116.403C649.142 123.89 652.431 126.729 657.673 126.729C662.915 126.729 666.204 123.89 666.204 116.403V59.831C666.204 52.3439 662.915 49.5044 657.673 49.5044C652.431 49.5044 649.142 52.3439 649.142 59.831V116.403Z" fill="#0D0D0D"></path><path d="M727.714 140.502C726.816 137.808 726.221 136.158 726.221 127.627V111.16C726.221 101.428 722.933 97.8365 715.446 97.8365H709.755V140.49H693.288V35.7314H718.128C735.189 35.7314 742.518 43.6675 742.518 59.8308V68.0581C742.518 78.8337 739.072 85.8717 731.743 89.318C739.97 92.7642 742.664 100.688 742.664 111.621V127.785C742.664 132.869 742.809 136.619 744.46 140.502H727.702H727.714ZM709.755 50.7056V82.8866H716.186C722.326 82.8866 726.064 80.1927 726.064 71.8077V61.4811C726.064 53.9941 723.515 50.7056 717.679 50.7056H709.743H709.755Z" fill="#0D0D0D"></path><path d="M775.597 34.542C791.615 34.542 799.842 44.1162 799.842 60.8863V64.1748H784.273V59.8306C784.273 52.3435 781.276 49.504 776.046 49.504C770.816 49.504 767.819 52.3435 767.819 59.8306C767.819 81.3817 800 85.4225 800 115.359C800 132.117 791.615 141.703 775.452 141.703C759.288 141.703 750.903 132.129 750.903 115.359V108.927H766.472V116.414C766.472 123.901 769.76 126.595 775.003 126.595C780.245 126.595 783.533 123.901 783.533 116.414C783.533 94.8633 751.352 90.8224 751.352 60.8863C751.352 44.1284 759.579 34.542 775.597 34.542Z" fill="#0D0D0D"></path><path d="M467.195 30.6595L439.553 18.8404L438.06 18.2094L399.059 1.51213L395.953 0.189453L392.847 1.51213L352.353 18.8283L325.851 30.162L321.058 32.2128V82.3652L325.851 84.416L407.505 119.327L395.358 124.521L332.064 97.4607L321.058 92.7524V144.579L325.851 146.63L351.759 157.709L392.252 175.025L395.358 176.36L398.465 175.037L438.958 157.721L467.195 145.647L471.989 143.597V95.1066L467.195 93.0558L383.6 57.3072L395.953 52.0286L460.983 79.8412L471.989 84.5494V32.7103L467.195 30.6595ZM464.089 72.5604L395.953 43.4252L363.505 57.3072L464.101 100.312V138.379L435.864 150.453L395.371 167.769L354.877 150.453L328.97 139.374V104.741L395.371 133.137L427.624 119.339L328.97 77.1594V37.4306L355.472 26.0969L395.965 8.78077L436.458 26.0969L464.101 37.916V72.5483L464.089 72.5604Z" fill="#0F36FD"></path><path d="M513.768 180.729C513.768 179.37 514.011 178.047 514.508 176.736C514.994 175.426 515.71 174.237 516.656 173.169C517.591 172.089 518.743 171.239 520.102 170.596C521.462 169.965 523.003 169.638 524.738 169.638C526.789 169.638 528.548 170.087 530.041 170.985C531.533 171.883 532.65 173.048 533.378 174.492L530.053 176.773C529.677 175.936 529.191 175.28 528.585 174.783C527.978 174.297 527.335 173.945 526.643 173.751C525.951 173.557 525.272 173.448 524.604 173.448C523.524 173.448 522.578 173.666 521.765 174.103C520.964 174.54 520.285 175.11 519.751 175.826C519.205 176.53 518.804 177.331 518.549 178.205C518.282 179.078 518.161 179.964 518.161 180.838C518.161 181.821 518.319 182.767 518.634 183.677C518.95 184.588 519.387 185.388 519.969 186.092C520.539 186.796 521.231 187.342 522.032 187.755C522.833 188.155 523.719 188.361 524.677 188.361C525.369 188.361 526.061 188.252 526.777 188.022C527.48 187.791 528.148 187.427 528.754 186.93C529.361 186.432 529.834 185.777 530.162 184.988L533.705 187.027C533.269 188.131 532.553 189.077 531.558 189.842C530.563 190.618 529.458 191.201 528.221 191.601C526.983 192.002 525.769 192.196 524.556 192.196C522.966 192.196 521.522 191.868 520.2 191.213C518.889 190.558 517.748 189.684 516.802 188.58C515.855 187.488 515.115 186.25 514.581 184.879C514.047 183.508 513.78 182.124 513.78 180.729H513.768Z" fill="#0D0D0D"></path><path d="M553.23 173.594H546.119V192.038H541.824V173.594H534.713V169.808H553.218V173.594H553.23Z" fill="#0D0D0D"></path><path d="M559.989 169.808H564.37L572.548 192.05H568.107L566.263 186.505H558.096L556.239 192.05H551.786L559.989 169.808ZM565.243 183.459L562.185 174.285L559.115 183.459H565.255H565.243Z" fill="#0D0D0D"></path><path d="M589.149 192.038V173.593H582.632L582.511 177.355C582.402 180.304 582.171 182.73 581.795 184.648C581.419 186.565 580.873 188.082 580.169 189.174C579.465 190.266 578.567 191.043 577.487 191.492C576.407 191.941 575.121 192.159 573.616 192.159V188.434C574.393 188.434 575.06 188.264 575.618 187.936C576.177 187.596 576.662 187.002 577.038 186.116C577.426 185.242 577.73 183.992 577.96 182.391C578.191 180.777 578.349 178.702 578.434 176.153L578.652 169.795H593.432V192.038H589.136H589.149Z" fill="#0D0D0D"></path><path d="M598.177 192.038V169.795H602.472V177.755H607.047C608.697 177.755 610.093 178.046 611.234 178.629C612.374 179.211 613.236 180.037 613.83 181.092C614.425 182.148 614.728 183.398 614.728 184.83C614.728 186.262 614.437 187.499 613.867 188.591C613.297 189.671 612.447 190.521 611.343 191.128C610.239 191.734 608.892 192.038 607.302 192.038H598.189H598.177ZM602.472 188.531H606.695C607.533 188.531 608.224 188.361 608.758 188.033C609.304 187.706 609.693 187.257 609.947 186.698C610.202 186.14 610.324 185.521 610.324 184.83C610.324 184.223 610.202 183.653 609.959 183.107C609.717 182.561 609.328 182.124 608.795 181.772C608.261 181.432 607.545 181.25 606.647 181.25H602.448V188.519L602.472 188.531Z" fill="#0D0D0D"></path><path d="M636.607 169.808V192.05H632.311V182.561H622.228V192.05H617.908V169.808H622.228V178.799H632.311V169.808H636.607Z" fill="#0D0D0D"></path><path d="M641.243 192.038V169.795H645.562V177.755H650.101C651.751 177.755 653.147 178.046 654.287 178.629C655.428 179.211 656.302 180.037 656.896 181.092C657.503 182.148 657.806 183.398 657.806 184.83C657.806 186.262 657.515 187.499 656.933 188.591C656.35 189.671 655.501 190.521 654.397 191.128C653.292 191.734 651.945 192.038 650.356 192.038H641.243ZM645.562 188.531H649.761C650.623 188.531 651.314 188.361 651.848 188.033C652.382 187.706 652.77 187.257 653.025 186.698C653.28 186.14 653.401 185.521 653.401 184.83C653.401 184.223 653.28 183.653 653.037 183.107C652.795 182.561 652.406 182.124 651.873 181.772C651.339 181.432 650.623 181.25 649.725 181.25H645.562V188.519V188.531ZM661.095 192.038V169.831H665.415V192.038H661.095Z" fill="#0D0D0D"></path><path d="M685.498 188.252V192.038H670.062V169.795H685.218V173.581H674.382V178.932H683.75V182.439H674.382V188.227H685.498V188.252Z" fill="#0D0D0D"></path><path d="M695.011 196.298V188.252H696.2C696.758 188.252 697.256 188.034 697.669 187.597C698.081 187.16 698.445 186.456 698.736 185.498C699.028 184.539 699.258 183.289 699.44 181.76C699.622 180.231 699.744 178.363 699.804 176.166L699.986 169.808H714.803V188.252H717.751V196.298H713.965V192.038H698.809V196.298H695.023H695.011ZM701.37 188.252H710.519V173.594H703.906L703.845 176.724C703.784 178.896 703.663 180.741 703.481 182.27C703.299 183.799 703.056 185.049 702.729 186.032C702.401 187.015 701.952 187.755 701.37 188.252Z" fill="#0D0D0D"></path><path d="M739.011 186.31C739.011 187.56 738.684 188.616 738.041 189.453C737.397 190.302 736.524 190.946 735.419 191.382C734.327 191.819 733.126 192.038 731.828 192.038H721.088V169.795H732.993C734.036 169.795 734.934 170.074 735.699 170.62C736.463 171.178 737.045 171.882 737.458 172.756C737.871 173.617 738.065 174.527 738.065 175.462C738.065 176.53 737.798 177.537 737.252 178.495C736.706 179.454 735.917 180.17 734.873 180.619C736.148 180.995 737.155 181.675 737.895 182.658C738.635 183.641 739.011 184.854 739.011 186.286V186.31ZM725.421 173.496V179.102H731.184C731.67 179.102 732.107 178.993 732.495 178.762C732.895 178.532 733.211 178.204 733.454 177.792C733.696 177.379 733.818 176.869 733.818 176.287C733.818 175.704 733.708 175.231 733.49 174.819C733.272 174.406 732.98 174.078 732.616 173.848C732.252 173.617 731.84 173.508 731.379 173.508H725.433L725.421 173.496ZM734.655 185.485C734.655 184.927 734.546 184.417 734.315 183.968C734.085 183.519 733.781 183.167 733.393 182.9C733.005 182.646 732.568 182.512 732.058 182.512H725.421V188.373H731.84C732.361 188.373 732.835 188.24 733.26 187.985C733.684 187.718 734.024 187.378 734.279 186.929C734.534 186.492 734.655 186.007 734.655 185.485Z" fill="#0D0D0D"></path><path d="M757.844 188.252V192.038H742.409V169.795H757.565V173.581H746.729V178.932H756.097V182.439H746.729V188.227H757.844V188.252Z" fill="#0D0D0D"></path><path d="M761.218 192.038V169.795H770.646C771.666 169.795 772.612 170.001 773.462 170.426C774.323 170.838 775.063 171.409 775.706 172.113C776.35 172.816 776.835 173.617 777.199 174.491C777.551 175.365 777.733 176.263 777.733 177.185C777.733 178.435 777.442 179.624 776.859 180.752C776.277 181.881 775.476 182.803 774.444 183.507C773.425 184.223 772.212 184.575 770.816 184.575H765.55V192.026H761.23L761.218 192.038ZM765.538 180.789H770.549C771.071 180.789 771.544 180.643 771.957 180.352C772.369 180.061 772.709 179.636 772.964 179.09C773.219 178.532 773.34 177.901 773.34 177.197C773.34 176.42 773.195 175.765 772.915 175.219C772.636 174.673 772.272 174.273 771.823 173.993C771.374 173.727 770.889 173.581 770.367 173.581H765.538V180.789Z" fill="#0D0D0D"></path><path d="M780.888 192.038V169.795H785.184V185.958L795.959 169.795H799.964V192.038H795.668V176.069L785.014 192.038H780.876H780.888Z" fill="#0D0D0D"></path></svg> 