<?xml version="1.0" encoding="UTF-8"?> <svg xmlns="http://www.w3.org/2000/svg" width="800" height="332" viewBox="0 0 800 332" fill="none"><path fill-rule="evenodd" clip-rule="evenodd" d="M76.2203 320.699C76.0131 320.492 75.9302 320.16 75.9302 319.829V294.298C75.9302 293.925 76.0131 293.634 76.2203 293.427C76.4275 293.179 76.8006 293.054 77.0907 293.054H98.2698C98.6428 293.054 98.9744 293.179 99.1402 293.427C99.3474 293.676 99.4303 293.966 99.4303 294.298V319.829C99.4303 320.202 99.3474 320.492 99.1402 320.699C98.933 320.948 98.6428 321.031 98.2698 321.031H95.9074C95.6173 321.031 95.3271 320.906 95.037 320.699C94.8298 320.492 94.7469 320.16 94.7469 319.829V297.24H80.6965V319.829C80.6965 320.202 80.6136 320.492 80.3235 320.699C80.1163 320.948 79.8261 321.031 79.4531 321.031H77.0907C76.8006 321.031 76.3861 320.906 76.2203 320.699Z" fill="#494948"></path><path fill-rule="evenodd" clip-rule="evenodd" d="M129.313 314.938C130.474 313.321 131.095 311.207 131.261 308.596V307.021C131.261 300.141 128.692 296.701 123.594 296.701C121.024 296.701 119.159 297.53 117.915 299.188C116.631 300.846 115.967 302.835 115.843 305.073V309.26C115.926 311.456 116.631 313.321 117.998 314.938C119.283 316.554 121.148 317.342 123.594 317.342C126.246 317.342 128.111 316.554 129.272 314.938H129.313ZM111.367 330.936C111.16 330.729 111.077 330.397 111.077 330.024V294.297C111.077 293.924 111.16 293.593 111.367 293.386C111.657 293.178 111.947 293.054 112.237 293.054H114.475C114.848 293.054 115.18 293.178 115.47 293.386C115.677 293.593 115.76 293.924 115.76 294.297V296.66C117.833 293.883 120.775 292.515 124.588 292.515C128.401 292.515 131.261 293.717 133.126 296.08C134.991 298.483 135.986 301.509 136.069 305.198C136.152 305.571 136.152 306.192 136.152 307.021C136.152 307.85 136.152 308.472 136.069 308.845C135.986 312.492 134.991 315.518 133.126 317.922C131.261 320.326 128.401 321.528 124.588 321.528C120.775 321.528 117.915 320.16 115.843 317.424V329.983C115.843 330.356 115.76 330.646 115.553 330.853C115.346 331.102 115.056 331.226 114.683 331.226H112.237C111.947 331.226 111.657 331.102 111.367 330.895V330.936Z" fill="#494948"></path><path fill-rule="evenodd" clip-rule="evenodd" d="M163.092 315.352C164.46 313.901 165.164 311.829 165.247 309.093C165.247 308.762 165.33 308.057 165.33 307.062C165.33 306.068 165.247 305.363 165.247 305.032C165.164 302.296 164.46 300.224 163.092 298.773C161.724 297.322 159.859 296.576 157.58 296.576C155.3 296.576 153.476 297.281 152.067 298.773C150.782 300.224 149.995 302.296 149.912 305.032V309.093C149.995 311.829 150.782 313.943 152.067 315.352C153.435 316.802 155.217 317.548 157.58 317.548C159.942 317.548 161.683 316.844 163.092 315.352ZM148.461 318.253C146.306 316.015 145.228 313.072 145.021 309.383V304.741C145.228 301.053 146.389 298.11 148.544 295.872C150.699 293.675 153.642 292.556 157.58 292.556C161.517 292.556 164.543 293.675 166.698 295.872C168.853 298.11 169.931 301.053 170.138 304.741C170.221 305.529 170.221 306.316 170.221 307.062C170.221 307.808 170.221 308.596 170.138 309.383C169.931 313.072 168.853 316.015 166.698 318.253C164.543 320.491 161.6 321.61 157.58 321.61C153.559 321.61 150.617 320.491 148.461 318.253Z" fill="#494948"></path><path fill-rule="evenodd" clip-rule="evenodd" d="M198.114 316.803V297.199H188.209V301.716C188.209 309.052 187.131 314.067 185.059 316.844H198.114V316.803ZM177.723 326.584C177.516 326.377 177.433 326.045 177.433 325.672V318.046C177.433 317.673 177.516 317.383 177.723 317.134C178.013 316.886 178.303 316.761 178.593 316.761H178.883C180.458 316.761 181.536 315.518 182.323 312.99C183.111 310.462 183.484 306.524 183.484 301.095V294.215C183.484 293.842 183.567 293.551 183.774 293.344C184.064 293.096 184.354 292.971 184.644 292.971H201.72C202.093 292.971 202.425 293.096 202.591 293.303C202.798 293.51 202.964 293.842 202.964 294.215V316.72H205.409C205.782 316.72 206.114 316.844 206.404 317.052C206.611 317.259 206.694 317.549 206.694 317.963V325.672C206.694 326.045 206.611 326.377 206.404 326.584C206.114 326.792 205.823 326.916 205.409 326.916H203.047C202.756 326.916 202.466 326.792 202.176 326.584C201.969 326.336 201.886 326.045 201.886 325.672V320.989H182.158V325.672C182.158 326.045 182.075 326.336 181.867 326.584C181.577 326.792 181.287 326.916 180.997 326.916H178.552C178.262 326.916 177.971 326.792 177.681 326.584H177.723Z" fill="#494948"></path><path fill-rule="evenodd" clip-rule="evenodd" d="M239.229 293.386C239.519 293.593 239.602 293.842 239.602 294.132C239.602 294.298 239.519 294.588 239.312 295.085L228.992 319.29L228.494 320.409C227.5 322.688 226.629 324.554 225.925 326.004C225.137 327.455 224.142 328.657 222.982 329.693C221.821 330.729 220.412 331.226 218.879 331.226H216.806C216.516 331.226 216.226 331.102 215.936 330.853C215.729 330.605 215.646 330.315 215.646 329.983V328.325C215.646 327.952 215.729 327.662 215.936 327.413C216.226 327.206 216.516 327.082 216.806 327.082H218.257C219.045 327.082 219.625 326.916 220.122 326.584C220.619 326.253 221.117 325.755 221.49 325.009C221.904 324.305 222.485 323.186 223.065 321.694L224.06 319.497L213.574 295.085C213.366 294.629 213.283 294.298 213.283 294.173C213.283 293.842 213.366 293.593 213.698 293.386C213.905 293.179 214.071 293.054 214.485 293.054H216.848C217.428 293.054 217.843 293.344 218.133 293.925L226.463 313.819L234.919 293.925C235.126 293.344 235.623 293.054 236.203 293.054H238.441C238.732 293.054 239.022 293.179 239.229 293.386Z" fill="#494948"></path><path fill-rule="evenodd" clip-rule="evenodd" d="M276.489 293.386C276.696 293.593 276.779 293.842 276.779 294.09V319.87C276.779 320.243 276.696 320.533 276.489 320.74C276.282 320.948 275.992 321.072 275.619 321.072H273.256C272.883 321.072 272.552 320.948 272.386 320.74C272.179 320.533 272.096 320.243 272.096 319.87V301.841L265.05 315.145C264.76 315.643 264.553 316.016 264.345 316.223C264.055 316.471 263.765 316.596 263.268 316.596H261.9C261.527 316.596 261.112 316.471 260.905 316.223C260.615 315.974 260.408 315.643 260.118 315.145L253.155 302.172V319.87C253.155 320.243 253.072 320.533 252.865 320.74C252.657 320.948 252.367 321.072 251.994 321.072H249.549C249.259 321.072 248.969 320.948 248.761 320.74C248.471 320.533 248.388 320.243 248.388 319.87V294.09C248.388 293.842 248.471 293.593 248.761 293.386C248.969 293.179 249.134 293.054 249.466 293.054H252.119C252.616 293.054 253.113 293.344 253.403 293.925L262.646 311.208L271.971 293.925C272.262 293.344 272.676 293.054 273.256 293.054H275.909C275.909 293.054 276.406 293.179 276.613 293.386H276.489Z" fill="#494948"></path><path fill-rule="evenodd" clip-rule="evenodd" d="M302.891 315.311C304.383 313.777 305.129 311.539 305.129 308.596V307.104L298.746 308.016C296.177 308.389 294.229 308.969 292.944 309.84C291.576 310.71 290.872 311.788 290.872 313.073C290.872 314.565 291.576 315.684 292.737 316.471C293.897 317.259 295.389 317.632 296.964 317.632C299.327 317.632 301.275 316.886 302.85 315.311H302.891ZM291.12 320.491C289.628 319.787 288.468 318.792 287.597 317.549C286.727 316.305 286.23 314.938 286.23 313.446C286.23 311.083 287.224 309.135 289.172 307.643C291.12 306.151 293.69 305.156 297.006 304.617L305.129 303.498V301.923C305.129 298.235 302.974 296.37 298.664 296.37C297.089 296.37 295.721 296.701 294.726 297.364C293.731 298.027 292.944 298.815 292.488 299.685C292.405 300.058 292.198 300.307 292.074 300.431C291.866 300.556 291.701 300.639 291.369 300.639H289.214C288.924 300.639 288.634 300.514 288.426 300.266C288.219 300.017 288.053 299.768 288.053 299.437C288.053 298.608 288.426 297.654 289.214 296.535C290.001 295.458 291.162 294.505 292.861 293.676C294.436 292.847 296.384 292.474 298.746 292.474C302.767 292.474 305.627 293.385 307.367 295.292C309.15 297.157 310.02 299.478 310.02 302.296V319.787C310.02 320.16 309.937 320.45 309.605 320.657C309.398 320.906 309.108 320.989 308.735 320.989H306.373C306.082 320.989 305.792 320.864 305.502 320.657C305.295 320.45 305.212 320.118 305.212 319.787V317.424C304.425 318.626 303.264 319.621 301.772 320.367C300.197 321.155 298.332 321.569 295.887 321.569C294.229 321.569 292.571 321.196 291.079 320.491H291.12Z" fill="#494948"></path><path fill-rule="evenodd" clip-rule="evenodd" d="M321.459 320.699C321.252 320.492 321.169 320.16 321.169 319.829V294.298C321.169 293.925 321.252 293.634 321.459 293.427C321.749 293.179 322.039 293.054 322.329 293.054H324.692C325.065 293.054 325.396 293.179 325.562 293.427C325.852 293.676 325.935 293.966 325.935 294.298V304.701H340.731V294.298C340.731 293.925 340.939 293.634 341.104 293.427C341.395 293.179 341.685 293.054 341.975 293.054H344.337C344.71 293.054 345.042 293.179 345.332 293.386C345.539 293.593 345.622 293.925 345.622 294.298V319.829C345.622 320.202 345.539 320.492 345.249 320.699C345.042 320.948 344.752 321.031 344.379 321.031H342.016C341.726 321.031 341.436 320.906 341.146 320.699C340.939 320.492 340.773 320.16 340.773 319.829V308.845H325.977V319.829C325.977 320.202 325.894 320.492 325.603 320.699C325.396 320.948 325.106 321.031 324.733 321.031H322.371C322.081 321.031 321.79 320.906 321.5 320.699H321.459Z" fill="#494948"></path><path fill-rule="evenodd" clip-rule="evenodd" d="M391.379 316.803V297.199H381.473V301.716C381.473 309.052 380.478 314.067 378.323 316.844H391.379V316.803ZM370.987 326.584C370.78 326.377 370.697 326.045 370.697 325.672V318.046C370.697 317.673 370.78 317.383 370.987 317.134C371.194 316.886 371.484 316.761 371.858 316.761H372.148C373.64 316.761 374.8 315.518 375.588 312.99C376.292 310.462 376.665 306.524 376.665 301.095V294.215C376.665 293.842 376.873 293.551 377.038 293.344C377.246 293.096 377.536 292.971 378.033 292.971H395.026C395.399 292.971 395.731 293.096 395.896 293.303C396.104 293.51 396.187 293.842 396.187 294.215V316.72H398.756C399.129 316.72 399.461 316.844 399.627 317.052C399.834 317.259 400 317.549 400 317.963V325.672C400 326.045 399.792 326.377 399.627 326.584C399.419 326.792 399.129 326.916 398.756 326.916H396.394C396.021 326.916 395.689 326.792 395.523 326.584C395.316 326.336 395.233 326.045 395.233 325.672V320.989H375.505V325.672C375.505 326.045 375.422 326.336 375.132 326.584C374.925 326.792 374.634 326.916 374.261 326.916H371.899C371.526 326.916 371.194 326.792 371.029 326.584H370.987Z" fill="#494948"></path><path fill-rule="evenodd" clip-rule="evenodd" d="M425.822 315.352C427.106 313.901 427.894 311.829 427.977 309.093V305.032C427.894 302.296 427.106 300.224 425.822 298.773C424.454 297.322 422.589 296.576 420.309 296.576C418.03 296.576 416.206 297.281 414.797 298.773C413.512 300.224 412.724 302.296 412.642 305.032L412.559 307.062L412.642 309.093C412.724 311.829 413.512 313.943 414.797 315.352C416.165 316.802 418.03 317.548 420.309 317.548C422.589 317.548 424.412 316.844 425.822 315.352ZM411.191 318.253C409.036 316.015 407.875 313.072 407.751 309.383L407.668 307.062L407.751 304.741C407.834 301.053 409.036 298.11 411.191 295.872C413.346 293.675 416.496 292.556 420.309 292.556C424.122 292.556 427.189 293.675 429.344 295.872C431.5 298.11 432.702 301.053 432.867 304.741C432.867 305.529 432.95 306.316 432.95 307.062C432.95 307.808 432.867 308.596 432.867 309.383C432.66 313.072 431.583 316.015 429.427 318.253C427.272 320.491 424.247 321.61 420.309 321.61C416.372 321.61 413.346 320.491 411.191 318.253Z" fill="#494948"></path><path fill-rule="evenodd" clip-rule="evenodd" d="M487.742 293.386C487.949 293.593 488.032 293.842 488.032 294.09V319.87C488.032 320.243 487.949 320.533 487.742 320.74C487.452 320.948 487.244 321.072 486.871 321.072H484.426C484.053 321.072 483.721 320.948 483.556 320.74C483.348 320.533 483.265 320.243 483.265 319.87V301.841L476.22 315.145C476.012 315.643 475.847 316.016 475.515 316.223C475.308 316.471 474.935 316.596 474.437 316.596H473.153C472.655 316.596 472.282 316.471 472.075 316.223C471.868 315.974 471.578 315.643 471.37 315.145L464.324 302.172V319.87C464.324 320.243 464.242 320.533 464.034 320.74C463.827 320.948 463.537 321.072 463.164 321.072H460.801C460.428 321.072 460.097 320.948 459.931 320.74C459.724 320.533 459.641 320.243 459.641 319.87V294.09C459.641 293.842 459.724 293.593 459.931 293.386C460.138 293.179 460.428 293.054 460.719 293.054H463.288C463.869 293.054 464.283 293.344 464.573 293.925L473.816 311.208L483.141 293.925C483.431 293.344 483.846 293.054 484.509 293.054H487.079C487.369 293.054 487.576 293.179 487.866 293.386H487.742Z" fill="#494948"></path><path fill-rule="evenodd" clip-rule="evenodd" d="M518.081 305.073V304.907C518.081 302.379 517.376 300.348 516.008 298.773C514.641 297.198 512.776 296.411 510.496 296.411C508.216 296.411 506.268 297.198 504.984 298.773C503.616 300.348 503.036 302.42 503.036 304.907V305.073H518.039H518.081ZM501.792 318.17C499.554 315.891 498.352 312.782 498.145 308.845L498.062 307.021L498.145 305.239C498.352 301.343 499.513 298.276 501.792 295.996C503.947 293.717 506.89 292.556 510.537 292.556C514.475 292.556 517.5 293.841 519.656 296.328C521.811 298.856 523.013 302.255 523.013 306.565V307.518C523.013 307.891 522.806 308.181 522.64 308.389C522.35 308.637 522.06 308.762 521.769 308.762H503.118V309.259C503.201 311.58 503.906 313.57 505.274 315.227C506.559 316.885 508.299 317.714 510.455 317.714C512.112 317.714 513.48 317.383 514.558 316.719C515.635 316.056 516.423 315.352 517.003 314.647C517.293 314.233 517.5 313.943 517.708 313.86C517.915 313.777 518.205 313.735 518.702 313.735H521.065C521.355 313.735 521.645 313.818 521.852 313.984C522.06 314.15 522.225 314.398 522.225 314.689C522.225 315.476 521.728 316.429 520.733 317.548C519.739 318.667 518.371 319.621 516.63 320.45C514.848 321.237 512.817 321.652 510.537 321.652C506.89 321.652 503.947 320.533 501.792 318.212V318.17Z" fill="#494948"></path><path fill-rule="evenodd" clip-rule="evenodd" d="M530.225 320.658C530.018 320.409 529.935 320.077 529.935 319.746V317.839C529.935 317.508 530.018 317.259 530.225 317.052C530.432 316.844 530.723 316.72 531.013 316.679C532.795 316.679 534.038 315.394 534.826 312.99C535.696 310.545 536.193 306.649 536.193 301.178V294.298C536.193 293.925 536.276 293.634 536.484 293.427C536.774 293.179 537.064 293.054 537.354 293.054H554.223C554.596 293.054 554.927 293.179 555.093 293.386C555.383 293.593 555.466 293.925 555.466 294.298V319.829C555.466 320.202 555.383 320.492 555.093 320.699C554.886 320.948 554.596 321.031 554.223 321.031H551.86C551.487 321.031 551.156 320.906 550.99 320.699C550.783 320.492 550.617 320.16 550.617 319.829V297.24H540.918V301.758C540.918 308.597 540.131 313.487 538.556 316.554C536.981 319.58 534.536 321.113 531.178 321.113C530.805 321.113 530.474 320.989 530.184 320.74L530.225 320.658Z" fill="#494948"></path><path fill-rule="evenodd" clip-rule="evenodd" d="M583.732 315.352C585.1 313.901 585.887 311.829 585.97 309.093V305.032C585.887 302.296 585.1 300.224 583.732 298.773C582.447 297.322 580.582 296.576 578.344 296.576C576.106 296.576 574.241 297.281 572.832 298.773C571.547 300.224 570.759 302.296 570.677 305.032V309.093C570.759 311.829 571.547 313.943 572.832 315.352C574.2 316.802 576.065 317.548 578.344 317.548C580.624 317.548 582.447 316.844 583.732 315.352ZM569.226 318.253C567.071 316.015 565.993 313.072 565.786 309.383V304.741C565.993 301.053 567.154 298.11 569.309 295.872C571.464 293.675 574.407 292.556 578.344 292.556C582.282 292.556 585.224 293.675 587.38 295.872C589.535 298.11 590.695 301.053 590.82 304.741C590.902 305.529 591.027 306.316 591.027 307.062C591.027 307.808 590.944 308.596 590.82 309.383C590.737 313.072 589.535 316.015 587.504 318.253C585.349 320.491 582.323 321.61 578.386 321.61C574.448 321.61 571.423 320.491 569.267 318.253H569.226Z" fill="#494948"></path><path fill-rule="evenodd" clip-rule="evenodd" d="M617.76 320.699C617.47 320.492 617.387 320.16 617.387 319.829V309.591C615.522 311.332 612.786 312.202 609.139 312.202C602.549 312.202 599.233 309.26 599.233 303.457V294.298C599.233 293.925 599.441 293.593 599.606 293.386C599.814 293.179 600.104 293.054 600.477 293.054H602.922C603.212 293.054 603.502 293.179 603.792 293.427C604 293.676 604.083 293.966 604.083 294.298V303.126C604.083 304.784 604.58 305.986 605.533 306.69C606.404 307.436 607.896 307.809 609.968 307.809C612.33 307.809 614.196 307.519 615.48 306.939C616.765 306.359 617.345 305.364 617.345 303.996V294.298C617.345 293.925 617.428 293.634 617.718 293.427C617.926 293.179 618.216 293.054 618.589 293.054H621.034C621.407 293.054 621.739 293.179 621.905 293.427C622.195 293.676 622.278 293.966 622.278 294.298V319.829C622.278 320.202 622.195 320.492 621.905 320.699C621.697 320.948 621.407 321.031 621.034 321.031H618.589C618.216 321.031 617.884 320.906 617.718 320.699H617.76Z" fill="#494948"></path><path fill-rule="evenodd" clip-rule="evenodd" d="M652.409 305.073V304.907C652.409 302.379 651.705 300.348 650.337 298.773C648.969 297.198 647.187 296.411 644.825 296.411C642.462 296.411 640.721 297.198 639.312 298.773C638.027 300.348 637.364 302.42 637.364 304.907V305.073H652.368H652.409ZM636.121 318.17C633.966 315.891 632.805 312.782 632.474 308.845V305.239C632.764 301.343 633.966 298.276 636.121 295.996C638.276 293.717 641.219 292.556 644.866 292.556C648.804 292.556 651.912 293.841 654.109 296.328C656.264 298.856 657.342 302.255 657.342 306.565V307.518C657.342 307.891 657.259 308.181 656.968 308.389C656.761 308.637 656.471 308.762 656.098 308.762H637.447V309.259C637.53 311.58 638.318 313.57 639.602 315.227C640.97 316.885 642.752 317.714 644.908 317.714C646.565 317.714 647.933 317.383 649.011 316.719C650.005 316.056 650.876 315.352 651.373 314.647C651.663 314.233 651.953 313.943 652.161 313.86C652.368 313.777 652.658 313.735 653.031 313.735H655.394C655.684 313.735 655.974 313.818 656.264 313.984C656.471 314.15 656.554 314.398 656.554 314.689C656.554 315.476 656.057 316.429 655.062 317.548C654.192 318.667 652.824 319.621 651.042 320.45C649.177 321.237 647.229 321.652 644.866 321.652C641.219 321.652 638.276 320.533 636.121 318.212V318.17Z" fill="#494948"></path><path fill-rule="evenodd" clip-rule="evenodd" d="M673.505 287.459C672.22 286.215 671.64 284.599 671.64 282.651C671.64 282.361 671.723 282.112 671.93 281.905C672.138 281.698 672.303 281.615 672.635 281.615H674.417C674.707 281.615 674.997 281.698 675.205 281.905C675.288 282.112 675.412 282.361 675.412 282.651C675.412 283.604 675.785 284.433 676.407 285.055C677.111 285.676 678.189 286.008 679.722 286.008C681.256 286.008 682.375 285.676 683.079 285.055C683.66 284.392 683.95 283.604 683.95 282.651C683.95 282.361 684.033 282.112 684.24 281.905C684.447 281.698 684.737 281.615 685.027 281.615H686.685C687.058 281.615 687.266 281.698 687.473 281.905C687.68 282.112 687.763 282.361 687.763 282.651C687.763 284.599 687.058 286.174 685.898 287.459C684.613 288.702 682.582 289.324 679.722 289.324C676.862 289.324 674.832 288.702 673.547 287.459H673.505ZM691.576 293.386C691.783 293.593 691.866 293.841 691.866 294.132V319.787C691.866 320.16 691.783 320.45 691.576 320.657C691.369 320.906 691.079 320.989 690.706 320.989H688.343C687.97 320.989 687.639 320.865 687.473 320.657C687.183 320.45 687.1 320.119 687.1 319.787V300.1L672.096 320.243C671.723 320.782 671.226 321.03 670.728 321.03H668.366C668.076 321.03 667.786 320.906 667.578 320.699C667.371 320.492 667.288 320.201 667.288 319.911V294.297C667.288 293.924 667.371 293.634 667.578 293.427C667.786 293.178 668.076 293.054 668.449 293.054H670.811C671.184 293.054 671.516 293.178 671.682 293.427C671.972 293.676 672.055 293.966 672.055 294.297V313.984L687.058 293.883C687.431 293.344 687.929 293.054 688.426 293.054H690.664C690.954 293.054 691.244 293.178 691.535 293.386H691.576Z" fill="#494948"></path><path fill-rule="evenodd" clip-rule="evenodd" d="M26.1113 237.433C17.6562 233.869 11.3149 229.185 6.88012 223.383C2.56968 217.58 0.290125 211.239 0 204.359C0 203.323 0.373018 202.369 1.1605 201.499C1.94798 200.629 2.9427 200.214 4.1032 200.214H22.1739C23.6245 200.214 24.8264 200.546 25.6968 201.209C26.6915 201.872 27.479 202.784 28.2665 203.986C29.6342 208.462 32.5769 212.234 37.3018 215.259C42.0267 218.285 48.4095 219.818 56.6159 219.818C65.8585 219.818 72.8215 218.285 77.422 215.176C82.1469 212.068 84.4679 207.799 84.4679 202.411C84.4679 198.846 83.3074 195.904 80.945 193.5C78.5825 191.137 74.9767 189.065 70.1689 187.241C65.3611 185.459 58.1909 183.304 48.6996 180.817C33.1157 177.128 21.718 172.238 14.4648 166.187C7.21169 160.135 3.5644 151.39 3.5644 140.075C3.5644 132.408 5.71961 125.569 9.94716 119.601C14.1747 113.591 20.143 108.866 28.0178 105.426C35.8512 101.986 45.0109 100.287 55.4968 100.287C65.9828 100.287 75.8885 102.193 83.8462 106.006C91.8868 109.861 97.9795 114.627 102.083 120.347C106.186 126.066 108.465 131.786 108.673 137.464C108.673 138.542 108.3 139.495 107.512 140.324C106.725 141.194 105.73 141.609 104.569 141.609H85.7113C82.8515 141.609 80.8206 140.407 79.8259 138.044C79.1213 133.817 76.5931 130.294 72.0754 127.434C67.5578 124.616 62.0868 123.165 55.4968 123.165C48.2437 123.165 42.4412 124.533 38.338 127.31C34.2348 130.087 32.1625 134.107 32.1625 139.371C32.1625 142.935 33.1572 145.878 35.3124 148.282C37.3847 150.644 40.7004 152.716 45.2181 154.54C49.6529 156.322 56.2014 158.353 64.8223 160.591C76.5102 163.244 85.8357 166.187 92.7987 169.502C99.7617 172.818 104.86 176.963 108.092 181.978C111.45 186.993 113.107 193.375 113.107 201.167C113.107 209.747 110.745 217.166 106.062 223.424C101.337 229.683 94.7881 234.49 86.2501 237.765C77.795 241.08 67.8893 242.738 56.6988 242.738C44.8451 242.738 34.6078 240.956 26.1942 237.392L26.1113 237.433Z" fill="#494948"></path><path fill-rule="evenodd" clip-rule="evenodd" d="M174.158 239.381C173.288 238.469 172.79 237.35 172.79 236.024V107.166C172.79 105.716 173.163 104.514 174.075 103.602C174.945 102.69 176.147 102.234 177.515 102.234H195.378C196.746 102.234 198.031 102.69 198.901 103.602C199.896 104.514 200.269 105.716 200.269 107.166V153.462L244.41 105.757C246.358 103.395 249.01 102.193 252.16 102.193H272.386C273.381 102.193 274.334 102.607 275.246 103.395C276.116 104.182 276.531 105.177 276.531 106.379C276.531 107.291 276.241 108.078 275.536 108.741L221.656 168.507L279.432 234.034C280.012 234.946 280.219 235.816 280.219 236.604C280.219 237.806 279.846 238.8 279.059 239.588C278.271 240.375 277.401 240.79 276.323 240.79H255.517C252.782 240.79 250.792 240.251 249.632 239.132C248.347 238.013 247.767 237.391 247.56 237.267L200.269 185.003V236.065C200.269 237.391 199.896 238.51 198.901 239.422C198.031 240.334 196.746 240.831 195.378 240.831H177.515C176.23 240.831 175.07 240.375 174.158 239.422V239.381Z" fill="#494948"></path><path fill-rule="evenodd" clip-rule="evenodd" d="M376.002 190.101H420.764L398.383 129.133L376.002 190.101ZM333.603 239.588C332.815 238.8 332.442 237.806 332.442 236.604L332.815 234.822L380.313 107.166C381.68 103.851 384.043 102.193 387.483 102.193H409.284C412.641 102.193 415.086 103.851 416.454 107.166L463.952 234.822L464.325 236.604C464.325 237.806 463.827 238.8 462.957 239.588C462.169 240.375 461.175 240.79 460.097 240.79H442.441C439.706 240.79 437.84 239.546 436.763 237.018L427.645 213.062H369.081L359.962 237.018C358.968 239.505 357.02 240.79 354.284 240.79H336.628C335.468 240.79 334.473 240.417 333.685 239.588H333.603Z" fill="#494948"></path><path fill-rule="evenodd" clip-rule="evenodd" d="M511.201 239.381C510.331 238.469 509.833 237.35 509.833 236.024V107.166C509.833 105.716 510.206 104.514 511.118 103.602C511.988 102.69 513.19 102.234 514.558 102.234H530.059C532.629 102.234 534.452 103.353 535.737 105.592L592.353 193.458V107.166C592.353 105.716 592.726 104.514 593.638 103.602C594.508 102.69 595.71 102.234 597.161 102.234H614.154C615.646 102.234 616.807 102.69 617.677 103.602C618.672 104.514 619.169 105.716 619.169 107.166V235.816C619.169 237.267 618.672 238.469 617.677 239.381C616.807 240.293 615.729 240.79 614.361 240.79H598.777C596.125 240.79 594.177 239.671 592.809 237.433L536.483 151.556V236.065C536.483 237.391 535.986 238.51 535.116 239.422C534.328 240.334 533.168 240.831 531.676 240.831H514.6C513.315 240.831 512.237 240.375 511.284 239.422L511.201 239.381Z" fill="#494948"></path><path fill-rule="evenodd" clip-rule="evenodd" d="M740.027 217.829C751.01 217.829 758.885 215.383 763.776 210.493C768.666 205.602 771.236 197.52 771.526 186.163C771.733 178.247 771.899 173.315 771.899 171.326C771.899 169.212 771.692 164.321 771.526 156.695C771.236 145.878 768.501 137.92 763.403 132.822C758.305 127.724 750.14 125.196 739.074 125.196H714.952V217.829H740.068H740.027ZM688.426 239.381C687.431 238.469 687.058 237.35 687.058 236.024V107.167C687.058 105.716 687.431 104.514 688.343 103.602C689.131 102.69 690.291 102.234 691.783 102.234H740.068C779.028 102.234 798.839 120.181 799.627 156.073C799.917 163.741 800 168.88 800 171.533C800 174.02 799.917 179.118 799.627 186.785C799.13 205.27 794.115 218.865 784.706 227.651C775.298 236.438 760.75 240.79 741.063 240.79H691.825C690.457 240.79 689.379 240.334 688.509 239.381H688.426Z" fill="#494948"></path><path fill-rule="evenodd" clip-rule="evenodd" d="M229.903 28.1279C229.903 43.3387 217.635 55.6483 202.424 55.6483C187.214 55.6483 174.945 43.3387 174.945 28.1279C174.945 12.917 187.214 0.607422 202.424 0.607422C217.635 0.607422 229.903 12.917 229.903 28.1279Z" fill="#838AC3"></path><path fill-rule="evenodd" clip-rule="evenodd" d="M327.51 28.1279C327.51 43.3387 315.159 55.6483 299.948 55.6483C284.737 55.6483 272.469 43.3387 272.469 28.1279C272.469 12.917 284.737 0.607422 299.948 0.607422C315.159 0.607422 327.51 12.917 327.51 28.1279Z" fill="#9CC697"></path><path fill-rule="evenodd" clip-rule="evenodd" d="M425.034 28.1279C425.034 43.3387 412.683 55.6483 397.472 55.6483C382.261 55.6483 369.993 43.3387 369.993 28.1279C369.993 12.917 382.344 0.607422 397.472 0.607422C412.6 0.607422 425.034 12.917 425.034 28.1279Z" fill="#D092A1"></path><path fill-rule="evenodd" clip-rule="evenodd" d="M522.599 28.1279C522.599 43.3387 510.248 55.6483 495.12 55.6483C479.992 55.6483 467.558 43.3387 467.558 28.1279C467.558 12.917 479.826 0.607422 495.12 0.607422C510.414 0.607422 522.599 12.917 522.599 28.1279Z" fill="#EFB586"></path><path fill-rule="evenodd" clip-rule="evenodd" d="M620.122 28.1279C620.122 43.3387 607.854 55.6483 592.561 55.6483C577.267 55.6483 565.082 43.3387 565.082 28.1279C565.082 12.917 577.433 0.607422 592.561 0.607422C607.689 0.607422 620.122 12.917 620.122 28.1279Z" fill="#96C6DC"></path></svg> 