<?xml version="1.0" encoding="UTF-8"?> <svg xmlns="http://www.w3.org/2000/svg" width="800" height="130" viewBox="0 0 800 130" fill="none"><path d="M177.729 115.051C178.556 115.972 178.969 117.198 178.969 118.726C178.969 120.611 178.31 122.056 176.99 123.062C175.671 124.067 173.712 124.57 171.115 124.57H161.659V102.578H170.518C172.822 102.578 174.618 103.06 175.906 104.023C177.194 104.986 177.838 106.369 177.838 108.17C177.838 109.448 177.503 110.516 176.833 111.374C176.163 112.233 175.23 112.862 174.037 113.259C175.671 113.532 176.901 114.128 177.729 115.05V115.051ZM163.261 112.758H170.487C172.33 112.758 173.744 112.381 174.729 111.626C175.713 110.872 176.206 109.783 176.206 108.359C176.206 106.935 175.714 105.814 174.729 105.06C173.744 104.306 172.33 103.929 170.487 103.929H163.261V112.758ZM177.368 118.633C177.368 117.063 176.844 115.91 175.797 115.178C174.75 114.445 173.2 114.078 171.148 114.078H163.262V123.219H171.148C175.295 123.219 177.368 121.691 177.368 118.633Z" fill="#0D0D0D"></path><path d="M199.14 118.382H186.385L183.589 124.571H181.861L191.977 102.579H193.579L203.695 124.571H201.967L199.14 118.382ZM198.543 117.03L192.762 104.337L187.012 117.03H198.542H198.543Z" fill="#0D0D0D"></path><path d="M234.672 102.578V124.57H208.251V102.578H209.853V123.125H220.661V102.578H222.264V123.125H233.072V102.578H234.674H234.672Z" fill="#0D0D0D"></path><path d="M272.182 121.114V129.251H268.412V124.57H251.541V129.251H247.74L247.771 121.114H248.713C250.095 121.052 251.064 120.03 251.619 118.051C252.174 116.071 252.515 113.239 252.641 109.552L252.892 102.578H269.009V121.114H272.182ZM255.531 117.045C255.175 118.941 254.61 120.297 253.835 121.114H264.988V106.035H256.38L256.223 109.93C256.118 112.779 255.888 115.151 255.532 117.046L255.531 117.045Z" fill="#0D0D0D"></path><path d="M280.131 123.424C278.329 122.449 276.916 121.099 275.889 119.371C274.862 117.643 274.35 115.711 274.35 113.575C274.35 111.439 274.863 109.506 275.889 107.779C276.915 106.051 278.328 104.701 280.131 103.726C281.932 102.752 283.952 102.266 286.194 102.266C288.436 102.266 290.456 102.752 292.258 103.726C294.059 104.701 295.472 106.047 296.499 107.763C297.525 109.48 298.038 111.418 298.038 113.575C298.038 115.732 297.525 117.67 296.499 119.387C295.472 121.105 294.059 122.45 292.258 123.424C290.456 124.398 288.435 124.884 286.194 124.884C283.954 124.884 281.932 124.398 280.131 123.424ZM290.152 120.313C291.325 119.653 292.247 118.732 292.917 117.548C293.587 116.366 293.922 115.04 293.922 113.574C293.922 112.108 293.587 110.783 292.917 109.6C292.247 108.417 291.325 107.494 290.152 106.835C288.979 106.175 287.659 105.846 286.194 105.846C284.729 105.846 283.408 106.175 282.236 106.835C281.063 107.494 280.142 108.416 279.471 109.6C278.801 110.783 278.466 112.108 278.466 113.574C278.466 115.04 278.801 116.366 279.471 117.548C280.142 118.732 281.063 119.653 282.236 120.313C283.409 120.972 284.728 121.302 286.194 121.302C287.66 121.302 288.979 120.972 290.152 120.313Z" fill="#0D0D0D"></path><path d="M322.762 124.57L322.731 109.994L315.506 122.058H313.684L306.458 110.183V124.572H302.594V102.58H305.956L314.658 117.126L323.266 102.58H326.596L326.658 124.572H322.762V124.57Z" fill="#0D0D0D"></path><path d="M374.108 115.051C374.936 115.972 375.349 117.198 375.349 118.726C375.349 120.611 374.69 122.056 373.37 123.062C372.05 124.067 370.091 124.57 367.495 124.57H358.039V102.578H366.898C369.202 102.578 370.998 103.06 372.286 104.023C373.574 104.986 374.218 106.369 374.218 108.17C374.218 109.448 373.883 110.516 373.213 111.374C372.542 112.233 371.61 112.862 370.417 113.259C372.05 113.532 373.28 114.128 374.108 115.05V115.051ZM359.641 112.758H366.867C368.71 112.758 370.124 112.381 371.108 111.626C372.092 110.872 372.585 109.783 372.585 108.359C372.585 106.935 372.093 105.814 371.108 105.06C370.124 104.306 368.71 103.929 366.867 103.929H359.641V112.758ZM373.748 118.633C373.748 117.063 373.223 115.91 372.177 115.178C371.13 114.445 369.58 114.078 367.527 114.078H359.642V123.219H367.527C371.675 123.219 373.748 121.691 373.748 118.633Z" fill="#0D0D0D"></path><path d="M395.519 118.382H382.764L379.968 124.571H378.24L388.356 102.579H389.958L400.074 124.571H398.346L395.519 118.382ZM394.922 117.03L389.141 104.337L383.391 117.03H394.921H394.922Z" fill="#0D0D0D"></path><path d="M431.051 102.578V124.57H404.63V102.578H406.232V123.125H417.04V102.578H418.642V123.125H429.45V102.578H431.053H431.051Z" fill="#0D0D0D"></path><path d="M450.859 123.424C449.068 122.449 447.664 121.105 446.649 119.387C445.633 117.67 445.125 115.733 445.125 113.575C445.125 111.417 445.638 109.48 446.664 107.763C447.69 106.045 449.099 104.7 450.89 103.726C452.68 102.752 454.686 102.266 456.906 102.266C458.707 102.266 460.35 102.579 461.838 103.208C463.325 103.836 464.581 104.747 465.608 105.941L462.969 108.424C461.377 106.706 459.419 105.848 457.094 105.848C455.586 105.848 454.234 106.178 453.041 106.837C451.848 107.497 450.915 108.413 450.245 109.586C449.575 110.759 449.24 112.088 449.24 113.576C449.24 115.064 449.575 116.393 450.245 117.566C450.915 118.739 451.848 119.656 453.041 120.315C454.236 120.975 455.586 121.304 457.094 121.304C459.418 121.304 461.376 120.435 462.969 118.696L465.608 121.21C464.581 122.403 463.319 123.315 461.823 123.943C460.326 124.572 458.676 124.885 456.875 124.885C454.654 124.885 452.649 124.399 450.859 123.425V123.424Z" fill="#0D0D0D"></path><path d="M485.117 106.035H477.829V124.571H473.776V106.035H466.519V102.579H485.117V106.035Z" fill="#0D0D0D"></path><path d="M488.667 102.578H492.689V118.193L504.502 102.578H508.303V124.57H504.282V108.987L492.469 124.57H488.667V102.578Z" fill="#0D0D0D"></path><path d="M533.027 102.578V124.57H529.006V106.034H520.335L520.147 111.532C520.041 114.61 519.79 117.109 519.393 119.025C518.994 120.941 518.356 122.398 517.476 123.392C516.597 124.387 515.382 124.884 513.832 124.884C513.287 124.884 512.544 124.779 511.601 124.571L511.883 121.021C512.155 121.105 512.47 121.146 512.825 121.146C514.103 121.146 515.009 120.387 515.543 118.868C516.077 117.35 516.407 114.957 516.532 111.69L516.846 102.579H533.025L533.027 102.578Z" fill="#0D0D0D"></path><path d="M555.443 111.799C556.857 112.983 557.563 114.737 557.563 117.061C557.563 119.386 556.788 121.349 555.239 122.638C553.689 123.926 551.511 124.571 548.704 124.571H539.248V102.579H543.269V110.025H549.364C552.003 110.025 554.029 110.617 555.443 111.8V111.799ZM552.192 120.329C553.05 119.596 553.48 118.528 553.48 117.125C553.48 114.465 551.824 113.134 548.516 113.134H543.269V121.429H548.516C550.108 121.429 551.333 121.063 552.192 120.329Z" fill="#0D0D0D"></path><path d="M603.037 115.051C603.864 115.972 604.278 117.198 604.278 118.726C604.278 120.611 603.618 122.056 602.298 123.062C600.978 124.067 599.02 124.57 596.423 124.57H586.966V102.578H595.826C598.13 102.578 599.926 103.06 601.213 104.023C602.501 104.986 603.146 106.369 603.146 108.17C603.146 109.448 602.811 110.516 602.14 111.374C601.47 112.233 600.538 112.862 599.344 113.259C600.978 113.532 602.208 114.128 603.036 115.05L603.037 115.051ZM588.57 112.758H595.796C597.639 112.758 599.052 112.381 600.037 111.626C601.021 110.872 601.514 109.783 601.514 108.359C601.514 106.935 601.022 105.814 600.037 105.06C599.052 104.306 597.639 103.929 595.796 103.929H588.57V112.758ZM602.676 118.633C602.676 117.063 602.152 115.91 601.106 115.178C600.059 114.445 598.509 114.078 596.456 114.078H588.571V123.219H596.456C600.603 123.219 602.676 121.691 602.676 118.633Z" fill="#0D0D0D"></path><path d="M624.448 118.382H611.693L608.897 124.571H607.168L617.284 102.579H618.887L629.003 124.571H627.275L624.448 118.382ZM623.85 117.03L618.07 104.337L612.32 117.03H623.849H623.85Z" fill="#0D0D0D"></path><path d="M659.979 102.578V124.57H633.558V102.578H635.161V123.125H645.969V102.578H647.571V123.125H658.379V102.578H659.982H659.979Z" fill="#0D0D0D"></path><path d="M693.374 115.067C694.106 115.978 694.474 117.114 694.474 118.476C694.474 120.403 693.762 121.9 692.337 122.969C690.913 124.037 688.85 124.572 686.148 124.572H675.717V102.58H685.551C688.023 102.58 689.95 103.072 691.332 104.057C692.714 105.042 693.405 106.434 693.405 108.235C693.405 109.388 693.127 110.382 692.572 111.22C692.017 112.058 691.216 112.697 690.169 113.137C691.571 113.514 692.64 114.158 693.373 115.069L693.374 115.067ZM679.739 111.972H685.205C686.524 111.972 687.53 111.71 688.221 111.187C688.912 110.664 689.258 109.888 689.258 108.863C689.258 107.837 688.912 107.056 688.221 106.522C687.531 105.988 686.525 105.721 685.205 105.721H679.739V111.973V111.972ZM690.358 118.161C690.358 116.025 688.912 114.957 686.023 114.957H679.739V121.429H686.023C688.913 121.429 690.358 120.34 690.358 118.161Z" fill="#0D0D0D"></path><path d="M715.349 111.799C716.763 112.983 717.469 114.737 717.469 117.061C717.469 119.386 716.694 121.349 715.145 122.638C713.595 123.926 711.417 124.571 708.61 124.571H699.154V102.579H703.175V110.025H709.27C711.909 110.025 713.935 110.617 715.349 111.8V111.799ZM712.098 120.329C712.956 119.596 713.386 118.528 713.386 117.125C713.386 114.465 711.73 113.134 708.422 113.134H703.175V121.429H708.422C710.014 121.429 711.239 121.063 712.098 120.329ZM720.644 102.579H724.665V124.571H720.644V102.579Z" fill="#0D0D0D"></path><path d="M730.885 102.578H748.008V105.94H734.907V111.344H741.409C744.049 111.344 746.054 111.894 747.426 112.994C748.797 114.094 749.484 115.68 749.484 117.753C749.484 119.932 748.73 121.613 747.221 122.795C745.713 123.979 743.566 124.571 740.781 124.571H730.885V102.579V102.578ZM740.562 121.428C742.132 121.428 743.327 121.125 744.143 120.517C744.96 119.91 745.369 119.03 745.369 117.878C745.369 115.616 743.766 114.485 740.562 114.485H734.907V121.428H740.562Z" fill="#0D0D0D"></path><path d="M758.06 123.424C756.259 122.449 754.846 121.099 753.819 119.371C752.792 117.643 752.279 115.711 752.279 113.575C752.279 111.439 752.793 109.506 753.819 107.779C754.844 106.051 756.258 104.701 758.06 103.726C759.862 102.752 761.882 102.266 764.124 102.266C766.365 102.266 768.386 102.752 770.187 103.726C771.988 104.701 773.402 106.047 774.429 107.763C775.455 109.48 775.968 111.418 775.968 113.575C775.968 115.732 775.455 117.67 774.429 119.387C773.402 121.105 771.988 122.45 770.187 123.424C768.386 124.398 766.364 124.884 764.124 124.884C761.883 124.884 759.862 124.398 758.06 123.424ZM768.082 120.313C769.255 119.653 770.176 118.732 770.847 117.548C771.517 116.366 771.852 115.04 771.852 113.574C771.852 112.108 771.517 110.783 770.847 109.6C770.176 108.417 769.255 107.494 768.082 106.835C766.909 106.175 765.589 105.846 764.124 105.846C762.659 105.846 761.338 106.175 760.166 106.835C758.993 107.494 758.071 108.416 757.401 109.6C756.731 110.783 756.395 112.108 756.395 113.574C756.395 115.04 756.731 116.366 757.401 117.548C758.071 118.732 758.993 119.653 760.166 120.313C761.339 120.972 762.658 121.302 764.124 121.302C765.59 121.302 766.909 120.972 768.082 120.313Z" fill="#0D0D0D"></path><path d="M794.518 103.521C795.932 104.15 797.015 105.051 797.769 106.223C798.523 107.396 798.9 108.789 798.9 110.401C798.9 112.013 798.523 113.381 797.769 114.563C797.015 115.747 795.932 116.652 794.518 117.281C793.105 117.909 791.444 118.223 789.538 118.223H784.575V124.569H780.491V102.577H789.54C791.445 102.577 793.106 102.891 794.519 103.519L794.518 103.521ZM793.403 113.637C794.325 112.883 794.786 111.805 794.786 110.401C794.786 108.997 794.325 107.919 793.403 107.165C792.482 106.411 791.13 106.034 789.35 106.034H784.575V114.767H789.35C791.13 114.767 792.482 114.39 793.403 113.636V113.637Z" fill="#0D0D0D"></path><path d="M342.64 99.6455H341.183V127.309H342.64V99.6455Z" fill="#0D0D0D"></path><path d="M571.568 99.6455H570.111V127.309H571.568V99.6455Z" fill="#0D0D0D"></path><path d="M526.713 3.46387H539.175V60.0194H574.259V70.564H526.715V3.46387H526.713Z" fill="#0D0D0D"></path><path d="M628.129 55.0355H594.579L587.965 70.564H575.121L605.315 3.46387H617.585L647.876 70.564H634.839L628.129 55.0355ZM624.007 45.2578L611.354 15.9258L598.796 45.2578H624.007Z" fill="#0D0D0D"></path><path d="M716.03 3.46387V70.564H705.773L668.772 25.1277V70.564H656.407V3.46387H666.663L703.665 48.9001V3.46387H716.03Z" fill="#0D0D0D"></path><path d="M734.05 3.46387H763.382C770.538 3.46387 776.898 4.85378 782.458 7.63359C788.017 10.4134 792.331 14.3436 795.399 19.4242C798.466 24.5048 800 30.3684 800 37.0139C800 43.6595 798.466 49.5231 795.399 54.6037C792.331 59.6842 788.017 63.6144 782.458 66.3943C776.898 69.1741 770.538 70.564 763.382 70.564H734.05V3.46387ZM762.808 60.0194C767.728 60.0194 772.058 59.0774 775.796 57.1912C779.534 55.3072 782.41 52.623 784.423 49.1396C786.436 45.6573 787.443 41.6144 787.443 37.0139C787.443 32.4135 786.436 28.3716 784.423 24.8882C782.41 21.4059 779.535 18.7217 775.796 16.8366C772.058 14.9526 767.727 14.0085 762.808 14.0085H746.512V60.0194H762.808Z" fill="#0D0D0D"></path><path d="M175.195 67.0658C169.731 64.0937 165.449 59.9884 162.35 54.7478C159.25 49.5083 157.701 43.5974 157.701 37.0141C157.701 30.4309 159.266 24.5211 162.399 19.2804C165.529 14.0409 169.827 9.93455 175.291 6.96247C180.755 3.99039 186.873 2.50488 193.648 2.50488C199.143 2.50488 204.159 3.463 208.697 5.3803C213.234 7.2976 217.068 10.0774 220.2 13.7197L212.148 21.2923C207.291 16.0527 201.317 13.4319 194.224 13.4319C189.622 13.4319 185.501 14.4383 181.858 16.4512C178.216 18.4641 175.372 21.26 173.327 24.839C171.28 28.419 170.259 32.476 170.259 37.0131C170.259 41.5501 171.28 45.6092 173.327 49.1871C175.371 52.7671 178.215 55.562 181.858 57.5749C185.501 59.5878 189.623 60.5942 194.224 60.5942C201.317 60.5942 207.291 57.9433 212.148 52.6382L220.2 60.3064C217.068 63.9487 213.217 66.7285 208.649 68.6458C204.08 70.5631 199.046 71.5212 193.551 71.5212C186.777 71.5212 180.659 70.0357 175.195 67.0636V67.0658Z" fill="#0D0D0D"></path><path d="M242.918 67.0666C237.42 64.0945 233.108 59.9731 229.977 54.7013C226.845 49.4296 225.28 43.5337 225.28 37.016C225.28 30.4982 226.845 24.6024 229.977 19.3306C233.107 14.0589 237.42 9.93641 242.918 6.9654C248.413 3.99332 254.579 2.50781 261.418 2.50781C268.257 2.50781 274.422 3.99332 279.919 6.9654C285.414 9.93748 289.728 14.0438 292.86 19.2834C295.99 24.524 297.557 30.4359 297.557 37.0171C297.557 43.5982 295.99 49.5112 292.86 54.7507C289.728 59.9914 285.414 64.0966 279.919 67.0687C274.422 70.0408 268.256 71.5263 261.418 71.5263C254.58 71.5263 248.413 70.0408 242.918 67.0687V67.0666ZM273.496 57.5767C277.074 55.5638 279.886 52.7529 281.931 49.1417C283.975 45.5316 284.998 41.4897 284.998 37.016C284.998 32.5423 283.976 28.5015 281.931 24.8903C279.884 21.2802 277.074 18.4681 273.496 16.4552C269.916 14.4423 265.89 13.4359 261.417 13.4359C256.945 13.4359 252.918 14.4423 249.339 16.4552C245.759 18.4681 242.948 21.2812 240.904 24.8903C238.857 28.5015 237.836 32.5434 237.836 37.016C237.836 41.4886 238.857 45.5327 240.904 49.1417C242.948 52.7529 245.76 55.5638 249.339 57.5767C252.917 59.5896 256.942 60.5961 261.417 60.5961C265.892 60.5961 269.916 59.5896 273.496 57.5767Z" fill="#0D0D0D"></path><path d="M378.841 57.8158C372.705 62.9297 363.983 65.7095 352.672 66.1553V73.2487H341.169V66.1553C329.858 65.5806 321.119 62.7686 314.952 57.7202C308.785 52.6729 305.702 45.7384 305.702 36.9189C305.702 28.0993 308.785 21.1508 314.952 16.0702C321.119 10.9897 329.858 8.16259 341.169 7.58686V0.78125H352.672V7.58686C363.984 8.16151 372.707 10.9897 378.841 16.0702C384.976 21.1508 388.043 28.1004 388.043 36.9189C388.043 45.7374 384.975 52.7041 378.841 57.8158ZM323.866 50.5312C327.86 53.79 333.627 55.7406 341.168 56.3786V17.4601C325.64 18.6105 317.875 25.0971 317.875 36.9189C317.875 42.7352 319.872 47.2712 323.866 50.5301V50.5312ZM370.118 50.5795C374.079 47.2884 376.061 42.7041 376.061 36.8243C376.061 30.9446 374.063 26.3764 370.07 23.1164C366.075 19.8576 360.276 17.9736 352.671 17.4612V56.3797C360.339 55.8051 366.154 53.8727 370.117 50.5806L370.118 50.5795Z" fill="#0D0D0D"></path><path d="M444.695 55.0363H411.145L404.53 70.5649H391.685L421.882 3.46582H434.151L464.443 70.5659H451.406L444.696 55.0374L444.695 55.0363ZM440.572 45.2587L427.919 15.9267L415.362 45.2587H440.572Z" fill="#0D0D0D"></path><path d="M489.917 46.2266C495.63 46.2266 500.261 41.5955 500.261 35.8828C500.261 30.1701 495.63 25.5391 489.917 25.5391C484.205 25.5391 479.574 30.1701 479.574 35.8828C479.574 41.5955 484.205 46.2266 489.917 46.2266Z" fill="#0D0D0D"></path><path d="M40.1972 6.22316C49.1714 3.45193 58.2767 2.82035 67.4959 4.50027C81.3166 7.01908 92.7022 13.7688 101.73 24.5165C119.136 45.7786 116.974 72.2771 107.936 88.1482C107.842 88.1525 107.736 88.1622 107.628 88.1622C105.229 88.1783 102.829 88.1719 100.43 88.2148C98.771 88.2449 97.1115 88.3147 95.4552 88.4179C93.4122 88.5446 91.3724 88.7164 89.3327 88.8819C87.7634 89.0097 86.1952 89.1515 84.6281 89.3008C83.772 89.3824 82.9191 89.4963 82.0652 89.5886C81.2822 89.6724 80.4981 89.7412 79.7161 89.826C78.9095 89.913 78.1039 90.0086 77.2983 90.1031C76.6484 90.1794 75.9997 90.2578 75.3509 90.3384C74.5335 90.4393 73.7172 90.5425 72.8998 90.6445C72.3477 90.7132 71.7945 90.7831 71.2424 90.8507C69.5958 91.0537 67.9492 91.2492 66.3036 91.4608C65.2112 91.6005 64.1221 91.7734 63.0286 91.9109C61.8278 92.0613 60.6226 92.1826 59.4196 92.3266C58.2048 92.4716 56.9921 92.6273 55.7783 92.7777C55.2381 92.8443 54.6978 92.912 54.1564 92.9732C52.8933 93.116 51.629 93.2514 50.3659 93.3964C49.1381 93.5371 47.9136 93.7036 46.6849 93.826C44.7085 94.0215 42.7332 94.2653 40.7407 94.0784C39.9287 94.0022 39.1413 93.8357 38.4238 93.4103C37.9426 93.1246 37.6913 92.709 37.6526 92.1708C37.5946 91.362 37.542 90.551 37.5291 89.7401C37.4883 87.1354 37.5194 84.5317 37.6365 81.9291C37.6838 80.8765 37.6666 79.8217 37.6999 78.768C37.7525 77.1214 37.8116 75.4758 37.89 73.8303C37.9641 72.2578 38.0747 70.6874 38.1521 69.1149C38.2412 67.3125 38.3089 65.5091 38.3894 63.7067C38.4474 62.4242 38.513 61.1428 38.572 59.8603C38.6698 57.7432 38.7718 55.6261 38.8588 53.509C38.9029 52.4317 38.9061 51.3533 38.9491 50.2759C39.0371 48.0622 39.1413 45.8484 39.2348 43.6336C39.2584 43.0643 39.2659 42.495 39.2853 41.9268C39.3497 40.0138 39.4142 38.1019 39.4807 36.1889C39.543 34.4101 39.6118 32.6303 39.6687 30.8516C39.731 28.915 39.745 26.9762 39.8513 25.0417C40.0296 21.7732 39.9587 18.5014 40.0232 15.2318C40.0801 12.3617 40.1274 9.49062 40.1789 6.62058C40.1811 6.51209 40.1897 6.40468 40.1993 6.22316H40.1972Z" fill="#0D0D0D"></path><path d="M35.427 8.0166C35.4345 8.14227 35.4496 8.25828 35.4485 8.37428C35.4335 10.3367 35.427 12.2991 35.398 14.2615C35.3518 17.4226 35.3003 20.5838 35.2326 23.7449C35.1886 25.8276 35.1177 27.9103 35.0511 29.992C34.9995 31.6021 34.9437 33.2122 34.8771 34.8212C34.7965 36.7933 34.702 38.7654 34.6161 40.7374C34.5935 41.2455 34.5828 41.7546 34.5645 42.2627C34.4743 44.7439 34.383 47.2251 34.2906 49.7063C34.2648 50.4088 34.2358 51.1102 34.2079 51.8116C34.1424 53.4818 34.0822 55.1521 34.0081 56.8224C33.919 58.831 33.8191 60.8385 33.7235 62.846C33.717 62.9792 33.7052 63.1124 33.6988 63.2445C33.6171 65.1801 33.5398 67.1167 33.4517 69.0523C33.383 70.5646 33.2981 72.0759 33.2219 73.5883C33.1982 74.0598 33.1639 74.5313 33.152 75.0039C33.079 77.9825 32.9222 80.9578 32.891 83.9385C32.8706 85.9009 32.7954 87.8611 32.8642 89.8235C32.8964 90.7312 32.8792 91.6431 32.9576 92.5464C33.1574 94.8612 34.3078 96.5669 36.3593 97.6614C37.6204 98.3338 38.9813 98.656 40.3937 98.7688C42.1016 98.9052 43.8073 98.8483 45.5098 98.656C46.3637 98.5593 47.223 98.4992 48.078 98.4111C48.7761 98.3391 49.4732 98.25 50.1714 98.1684C50.9534 98.0771 51.7343 97.9847 52.5162 97.8923C53.2982 97.7999 54.0801 97.7086 54.861 97.6163C55.571 97.5325 56.2799 97.4465 56.9899 97.3617C58.3251 97.2017 59.6591 97.0395 60.9932 96.8794C61.7386 96.7903 62.4851 96.7065 63.2295 96.6163C63.8664 96.5389 64.5034 96.4562 65.1393 96.3735C65.86 96.2801 66.5796 96.1855 67.3004 96.0889C67.961 96.0008 68.6205 95.9084 69.28 95.8193C69.8557 95.7419 70.4314 95.6614 71.0082 95.5926C72.1747 95.4541 73.3423 95.3295 74.5088 95.1866C75.6624 95.0459 76.8138 94.888 77.9674 94.743C78.5679 94.6678 79.1694 94.6001 79.772 94.5346C80.4938 94.4573 81.2177 94.3896 81.9395 94.3133C82.8429 94.2188 83.7451 94.1189 84.6485 94.0233C85.2392 93.961 85.8289 93.8966 86.4197 93.844C87.3853 93.7591 88.3509 93.6828 89.3166 93.6023C90.2092 93.5271 91.1017 93.4487 91.9954 93.3767C92.5625 93.3316 93.1308 93.294 93.699 93.2586C95.1855 93.1651 96.6732 93.0706 98.1598 92.9868C98.7881 92.9514 99.4186 92.9288 100.048 92.9202C101.587 92.8998 103.125 92.8923 104.665 92.8794C104.792 92.8794 104.92 92.8794 105.136 92.8794C102.691 96.5314 99.9299 99.7903 96.7989 102.734C90.4444 108.712 83.1168 113.058 74.7988 115.698C66.1382 118.447 57.3014 119.092 48.3336 117.666C20.2884 113.208 -0.399099 88.7752 0.0058429 60.2391C0.381784 33.7761 18.0596 14.7868 35.427 8.0166Z" fill="#0D0D0D"></path></svg> 