<?xml version="1.0" encoding="UTF-8"?> <svg xmlns="http://www.w3.org/2000/svg" width="800" height="614" viewBox="0 0 800 614" fill="none"><path d="M20.3458 231.207C20.3458 238.907 21.2167 245.77 22.9587 251.867C24.7006 257.963 27.1742 263.12 30.4141 267.3C33.6541 271.516 37.5212 274.721 42.0154 276.916C46.5096 279.11 51.5612 280.225 57.0657 280.225C64.7651 280.225 71.3496 277.961 76.8192 273.397C82.2889 268.833 86.365 261.656 89.0476 251.797H93.6463C93.0192 255.385 92.5663 259.009 92.2528 262.632C91.9392 266.29 91.6953 269.6 91.556 272.63C91.4166 275.661 91.3121 278.205 91.3121 280.295V284.371C88.8386 284.998 86.0863 285.625 83.0205 286.287C79.9547 286.949 76.7844 287.611 73.4747 288.203C70.1999 288.83 66.8554 289.318 63.476 289.736C60.0967 290.154 56.9612 290.363 54.1044 290.363C46.5096 290.363 39.4374 288.97 32.818 286.218C26.1987 283.465 20.4851 279.494 15.6077 274.303C10.7303 269.147 6.93289 262.91 4.1458 255.629C1.39355 248.348 0 240.196 0 231.207C0 222.219 1.39355 214.032 4.1458 206.785C6.93289 199.504 10.7303 193.303 15.6077 188.182C20.4851 183.06 26.1987 179.089 32.818 176.267C39.4374 173.445 46.5096 172.051 54.1044 172.051C56.9612 172.051 60.0967 172.26 63.476 172.678C66.8554 173.096 70.1999 173.619 73.4747 174.211C76.7496 174.838 79.9199 175.465 83.0205 176.127C86.0863 176.789 88.8734 177.451 91.3121 178.044V182.12C91.3121 184.21 91.3818 186.788 91.556 189.784C91.6953 192.815 91.9392 196.125 92.2528 199.783C92.5663 203.441 93.0192 207.029 93.6463 210.618H89.0476C86.365 200.793 82.3237 193.582 76.8192 189.018C71.3496 184.454 64.7651 182.189 57.0657 182.189C51.5264 182.189 46.5096 183.304 42.0154 185.499C37.5212 187.694 33.6541 190.899 30.4141 195.114C27.1742 199.295 24.7006 204.451 22.9587 210.548C21.2167 216.645 20.3458 223.543 20.3458 231.207Z" fill="#293274"></path><path d="M194.644 249.95C194.644 262.457 190.811 272.317 183.182 279.528C175.552 286.74 164.578 290.363 150.224 290.363C135.871 290.363 124.862 286.775 117.163 279.598C109.498 272.421 105.631 262.527 105.631 249.915V212.429C105.631 199.817 109.463 189.923 117.163 182.781C124.862 175.604 135.871 172.016 150.224 172.016C164.578 172.016 175.552 175.639 183.182 182.851C190.811 190.063 194.644 199.957 194.644 212.429V249.915V249.95ZM123.329 254.723C123.329 259.844 124.13 264.095 125.698 267.474C127.266 270.853 129.356 273.571 131.934 275.626C134.477 277.682 137.404 279.145 140.609 280.016C143.849 280.887 147.089 281.34 150.364 281.34C153.639 281.34 156.704 280.922 159.805 280.12C162.941 279.319 165.762 277.856 168.341 275.835C170.884 273.78 172.974 271.062 174.577 267.613C176.179 264.199 176.946 259.914 176.946 254.793V207.761C176.946 202.639 176.144 198.354 174.577 194.94C172.974 191.491 170.919 188.773 168.341 186.718C165.762 184.663 162.941 183.234 159.805 182.433C156.67 181.597 153.534 181.214 150.364 181.214C147.193 181.214 143.814 181.666 140.609 182.537C137.369 183.408 134.477 184.872 131.934 186.927C129.356 188.983 127.301 191.7 125.698 195.149C124.095 198.598 123.329 202.813 123.329 207.83V254.862V254.723Z" fill="#293274"></path><path d="M207.848 281.932C211.227 281.932 213.875 281.514 215.756 280.713C217.637 279.876 219.031 278.553 219.902 276.636C220.773 274.755 221.295 272.247 221.435 269.111C221.609 265.976 221.679 262.074 221.679 257.371V205.113C221.679 200.409 221.609 196.473 221.435 193.372C221.295 190.237 220.808 187.728 219.972 185.847C219.135 183.966 217.916 182.607 216.279 181.771C214.641 180.935 212.272 180.551 209.206 180.551H207.674V173.619H253.173V180.551C249.794 180.551 247.146 180.969 245.264 181.771C243.383 182.607 241.99 183.931 241.119 185.847C240.248 187.728 239.725 190.237 239.586 193.372C239.412 196.507 239.342 200.409 239.342 205.113V226.329H263.311C265.959 226.329 268.572 225.981 271.08 225.249C273.588 224.518 275.783 223.264 277.699 221.487C279.581 219.71 281.113 217.376 282.228 214.484C283.343 211.627 283.901 208.039 283.901 203.719V201.42C283.901 196.717 283.831 192.954 283.657 190.202C283.517 187.449 282.995 185.324 282.124 183.896C281.253 182.468 279.859 181.527 277.978 181.109C276.097 180.691 273.449 180.482 270.07 180.482V173.549H315.569V180.482H314.036C311.075 180.482 308.741 180.726 307.103 181.178C305.466 181.631 304.246 182.607 303.41 184.035C302.574 185.464 302.086 187.484 301.877 190.028C301.668 192.606 301.564 195.915 301.564 200.026C301.564 207.517 299.926 213.892 296.651 219.153C293.377 224.413 288.813 228.42 282.96 231.067C289.126 233.82 294.039 238.07 297.732 243.749C301.424 249.427 303.271 256.256 303.271 264.269C303.271 267.962 303.41 270.923 303.654 273.187C303.898 275.452 304.455 277.229 305.326 278.587C306.197 279.911 307.451 280.817 309.089 281.27C310.726 281.723 312.921 281.967 315.708 281.967H317.241V288.865H271.742V281.967C275.121 281.967 277.769 281.758 279.65 281.34C281.532 280.922 282.925 280.016 283.796 278.587C284.667 277.159 285.19 275.034 285.329 272.282C285.468 269.494 285.573 265.767 285.573 261.064V258.311C285.573 254.026 284.911 250.438 283.587 247.546C282.263 244.689 280.521 242.39 278.431 240.648C276.341 238.906 273.937 237.687 271.289 236.955C268.606 236.224 265.959 235.875 263.311 235.875H239.342V257.405C239.342 262.109 239.412 266.045 239.586 269.146C239.725 272.282 240.213 274.79 241.049 276.671C241.885 278.587 243.105 279.911 244.742 280.747C246.379 281.583 248.748 281.967 251.814 281.967H253.347V288.865H207.848V281.967V281.932Z" fill="#293274"></path><path d="M419.631 249.95C419.631 262.457 415.799 272.317 408.169 279.528C400.54 286.74 389.565 290.363 375.212 290.363C360.858 290.363 349.849 286.775 342.15 279.598C334.486 272.421 330.618 262.527 330.618 249.915V212.429C330.618 199.817 334.451 189.923 342.15 182.781C349.849 175.604 360.858 172.016 375.212 172.016C389.565 172.016 400.54 175.639 408.169 182.851C415.799 190.063 419.631 199.957 419.631 212.429V249.915V249.95ZM348.316 254.723C348.316 259.844 349.118 264.095 350.685 267.474C352.288 270.853 354.344 273.571 356.922 275.626C359.465 277.682 362.391 279.145 365.596 280.016C368.836 280.887 372.076 281.34 375.351 281.34C378.626 281.34 381.692 280.922 384.793 280.12C387.928 279.319 390.75 277.856 393.328 275.835C395.871 273.78 397.962 271.062 399.564 267.613C401.167 264.199 401.933 259.914 401.933 254.793V207.761C401.933 202.639 401.132 198.354 399.564 194.94C397.962 191.491 395.906 188.773 393.328 186.718C390.75 184.663 387.928 183.234 384.793 182.433C381.657 181.597 378.522 181.214 375.351 181.214C372.181 181.214 368.802 181.666 365.596 182.537C362.356 183.408 359.465 184.872 356.922 186.927C354.344 188.983 352.288 191.7 350.685 195.149C349.083 198.598 348.316 202.813 348.316 207.83V254.862V254.723Z" fill="#293274"></path><path d="M488.159 180.482C485.093 180.482 482.724 180.9 481.017 181.701C479.345 182.537 478.091 183.861 477.254 185.777C476.418 187.658 475.931 190.167 475.791 193.302C475.617 196.438 475.547 200.34 475.547 205.043V248.382C475.547 254.618 474.572 260.227 472.621 265.209C470.67 270.191 467.848 274.407 464.085 277.89C460.358 281.374 455.794 284.057 450.429 285.973C445.029 287.854 438.932 288.83 432.069 288.83C431.058 288.83 430.083 288.83 429.142 288.76C428.202 288.725 427.366 288.621 426.529 288.516V278.97C427.54 279.179 428.585 279.354 429.595 279.528C430.606 279.667 431.686 279.772 432.835 279.772C435.587 279.772 438.479 279.319 441.44 278.483C444.402 277.612 447.119 276.114 449.593 274.023C452.066 271.933 454.052 269.181 455.585 265.801C457.118 262.422 457.884 258.241 457.884 253.19V205.078C457.884 200.374 457.815 196.438 457.64 193.337C457.501 190.202 456.978 187.693 456.107 185.812C455.236 183.931 453.843 182.572 451.962 181.736C450.08 180.9 447.433 180.516 444.053 180.516V173.583H544.249V180.516H530.418V257.37C530.418 262.074 530.488 266.01 530.662 269.111C530.836 272.247 531.289 274.755 532.125 276.636C532.961 278.552 534.181 279.876 535.818 280.712C537.456 281.548 539.825 281.932 542.89 281.932H544.423V288.83H498.924V281.932C502.303 281.932 504.951 281.514 506.833 280.712C508.714 279.876 510.107 278.552 510.978 276.636C511.849 274.755 512.372 272.247 512.511 269.111C512.651 265.976 512.755 262.074 512.755 257.37V180.516H488.159V180.482Z" fill="#293274"></path><path d="M646.466 249.95C646.466 262.457 642.634 272.317 635.004 279.528C627.375 286.74 616.4 290.363 602.047 290.363C587.693 290.363 576.684 286.775 568.985 279.598C561.32 272.421 557.453 262.527 557.453 249.915V212.429C557.453 199.817 561.286 189.923 568.985 182.781C576.684 175.604 587.693 172.016 602.047 172.016C616.4 172.016 627.375 175.639 635.004 182.851C642.634 190.063 646.466 199.957 646.466 212.429V249.915V249.95ZM575.151 254.723C575.151 259.844 575.953 264.095 577.52 267.474C579.088 270.853 581.178 273.571 583.757 275.626C586.3 277.682 589.226 279.145 592.431 280.016C595.671 280.887 598.911 281.34 602.186 281.34C605.461 281.34 608.527 280.922 611.627 280.12C614.763 279.319 617.585 277.856 620.163 275.835C622.706 273.78 624.796 271.062 626.399 267.613C628.002 264.199 628.768 259.914 628.768 254.793V207.761C628.768 202.639 627.967 198.354 626.399 194.94C624.796 191.491 622.741 188.773 620.163 186.718C617.585 184.663 614.763 183.234 611.627 182.433C608.492 181.597 605.357 181.214 602.186 181.214C599.016 181.214 595.637 181.666 592.431 182.537C589.191 183.408 586.3 184.872 583.757 186.927C581.178 188.983 579.123 191.7 577.52 195.149C575.918 198.598 575.151 202.813 575.151 207.83V254.862V254.723Z" fill="#293274"></path><path d="M751.61 255.489C751.61 261.133 750.669 266.046 748.753 270.261C746.871 274.477 744.224 277.926 740.844 280.713C737.465 283.465 733.459 285.52 728.86 286.844C724.261 288.168 719.244 288.83 713.81 288.83H663.259V281.932C666.638 281.932 669.286 281.514 671.167 280.713C673.048 279.877 674.442 278.553 675.313 276.637C676.184 274.755 676.706 272.247 676.846 269.111C677.02 265.976 677.09 262.074 677.09 257.371V205.113C677.09 200.41 677.02 196.473 676.846 193.372C676.706 190.237 676.219 187.728 675.383 185.847C674.546 183.966 673.327 182.607 671.69 181.771C670.052 180.935 667.683 180.552 664.617 180.552H663.084V173.619H708.723C721.126 173.619 730.637 176.162 737.326 181.213C743.98 186.3 747.324 193.233 747.324 202.047C747.324 207.9 745.861 212.986 742.935 217.341C740.008 221.696 735.897 225.11 730.567 227.549C737.535 229.709 742.795 232.984 746.314 237.373C749.833 241.763 751.61 247.825 751.61 255.489ZM694.753 222.288C694.753 223.403 695.101 224.065 695.833 224.274C696.53 224.483 697.679 224.588 699.212 224.588C705.065 224.588 709.977 224.17 714.053 223.368C718.095 222.532 721.37 221.278 723.878 219.536C726.386 217.794 728.198 215.564 729.348 212.847C730.462 210.13 731.02 206.82 731.02 202.953C731.02 195.776 728.999 190.724 724.958 187.798C720.917 184.872 714.193 183.408 704.752 183.408C702.382 183.408 700.641 183.513 699.456 183.722C698.272 183.931 697.435 184.384 696.913 185.115C696.39 185.743 695.972 186.857 695.693 188.495C695.38 190.132 695.171 191.944 694.997 193.86C694.822 195.811 694.753 197.762 694.753 199.782V222.288ZM699.979 232.6C698.237 232.6 696.913 232.705 696.042 232.914C695.171 233.123 694.753 233.68 694.753 234.586V257.336C694.753 261.935 694.822 265.802 694.997 268.937C695.136 272.073 695.693 274.616 696.599 276.532C697.54 278.483 698.899 279.877 700.745 280.678C702.591 281.479 705.204 281.897 708.584 281.897C717.293 281.897 723.808 279.563 728.163 274.895C732.518 270.226 734.713 264.025 734.713 256.221C734.713 252.319 734.12 248.905 732.936 246.013C731.751 243.087 729.801 240.613 727.013 238.628C724.226 236.642 720.673 235.109 716.248 234.099C711.859 233.088 706.424 232.566 699.979 232.566V232.6Z" fill="#293274"></path><path d="M800 235.04V246.571H761.573V235.04H800Z" fill="#293274"></path><path d="M130.192 395.716L100.231 362.515V414.459C100.231 419.162 100.3 423.099 100.474 426.234C100.614 429.37 101.102 431.878 101.938 433.76C102.774 435.676 103.993 437 105.631 437.836C107.268 438.672 109.637 439.055 112.703 439.055H114.236V445.953H68.7364V439.055C72.1157 439.055 74.7635 438.637 76.6448 437.836C78.5261 437 79.9196 435.676 80.7906 433.76C81.6615 431.878 82.1841 429.37 82.3235 426.234C82.4977 423.099 82.5673 419.197 82.5673 414.459V347.011C82.0448 343.632 80.8254 341.228 78.8745 339.8C76.9235 338.371 73.997 337.64 70.1299 337.64H68.597V330.742H114.096V337.64C109.498 337.64 106.223 338.406 104.342 339.939C102.46 341.472 101.241 344.155 100.718 347.917L130.366 381.118L130.192 381.293H130.505L160.014 347.952C159.491 344.155 158.307 341.507 156.39 339.974C154.509 338.441 151.234 337.675 146.636 337.675V330.777H192.135V337.675H190.602C186.7 337.675 183.774 338.406 181.858 339.835C179.907 341.263 178.687 343.667 178.165 347.046V414.494C178.165 419.197 178.234 423.134 178.408 426.269C178.548 429.405 179.07 431.913 179.941 433.794C180.812 435.711 182.206 437.034 184.087 437.871C185.968 438.707 188.616 439.09 191.996 439.09V445.988H146.496V439.09H148.029C151.095 439.09 153.464 438.672 155.101 437.871C156.739 437.069 157.958 435.711 158.794 433.794C159.63 431.913 160.083 429.405 160.258 426.269C160.397 423.134 160.501 419.232 160.501 414.494V362.549L130.227 395.751L130.192 395.716Z" fill="#293274"></path><path d="M234.394 434.456H278.953C281.601 434.456 283.656 434.352 285.085 434.143C286.513 433.934 287.628 433.411 288.394 432.54C289.161 431.669 289.648 430.311 289.857 428.464C290.067 426.618 290.276 424.005 290.485 420.625H297.383V445.988H202.865V434.456H216.696V362.236C216.696 357.533 216.627 353.596 216.452 350.46C216.313 347.325 215.79 344.817 214.92 342.935C214.049 341.054 212.655 339.695 210.774 338.859C208.892 338.023 206.245 337.64 202.865 337.64V330.742H297.383V356.104H290.485C290.276 352.725 290.067 350.112 289.857 348.266C289.648 346.419 289.161 345.06 288.394 344.189C287.628 343.318 286.513 342.796 285.085 342.587C283.656 342.378 281.601 342.273 278.953 342.273H234.394V380.84H276.34V387.738H234.394V434.456Z" fill="#293274"></path><path d="M304.315 330.707H392.387V337.605H347.829C344.763 337.605 342.394 338.023 340.756 338.824C339.119 339.66 337.9 340.984 337.133 342.9C336.367 344.781 335.914 347.29 335.809 350.425C335.705 353.561 335.67 357.463 335.67 362.201V374.499C338.631 373.07 341.906 371.816 345.494 370.736C349.083 369.656 353.438 369.134 358.559 369.134C365.004 369.134 370.613 370.109 375.386 372.06C380.159 374.011 384.096 376.763 387.231 380.282C390.367 383.801 392.666 388.051 394.129 392.963C395.627 397.875 396.359 403.31 396.359 409.268C396.359 421.043 393.293 430.38 387.127 437.243C380.995 444.106 371.205 447.555 357.792 447.555C350.72 447.555 344.693 446.58 339.642 444.629C334.625 442.678 330.479 439.926 327.274 436.407C324.034 432.888 321.7 428.673 320.202 423.795C318.703 418.918 317.972 413.518 317.972 407.561L318.111 362.236C318.111 357.532 318.042 353.596 317.867 350.46C317.728 347.325 317.205 344.816 316.334 342.935C315.463 341.054 314.07 339.695 312.189 338.859C310.307 338.023 307.66 337.639 304.28 337.639V330.741L304.315 330.707ZM335.67 411.846C335.67 416.967 336.192 421.217 337.203 424.597C338.213 427.976 339.676 430.693 341.592 432.749C343.474 434.804 345.773 436.268 348.421 437.139C351.103 438.01 354.065 438.462 357.34 438.462C360.614 438.462 363.401 438.044 366.014 437.243C368.627 436.442 370.892 434.979 372.773 432.958C374.654 430.903 376.118 428.185 377.163 424.736C378.173 421.322 378.696 417.037 378.696 411.915V405.923C378.696 400.802 378.173 396.482 377.163 392.928C376.152 389.375 374.689 386.553 372.773 384.393C370.892 382.233 368.627 380.7 366.014 379.69C363.401 378.714 360.51 378.226 357.34 378.226C354.169 378.226 351.103 378.714 348.421 379.69C345.773 380.665 343.474 382.268 341.592 384.463C339.711 386.657 338.248 389.549 337.203 393.068C336.192 396.621 335.67 400.872 335.67 405.888V411.881V411.846Z" fill="#293274"></path><path d="M439.419 434.456H483.978C486.626 434.456 488.681 434.352 490.11 434.143C491.538 433.934 492.653 433.411 493.419 432.54C494.186 431.669 494.673 430.311 494.883 428.464C495.092 426.618 495.301 424.005 495.51 420.625H502.408V445.988H407.89V434.456H421.721V362.236C421.721 357.533 421.652 353.596 421.477 350.46C421.338 347.325 420.816 344.817 419.945 342.935C419.074 341.054 417.68 339.695 415.799 338.859C413.917 338.023 411.27 337.64 407.89 337.64V330.742H502.408V356.104H495.51C495.301 352.725 495.092 350.112 494.883 348.266C494.673 346.419 494.186 345.06 493.419 344.189C492.653 343.318 491.538 342.796 490.11 342.587C488.681 342.378 486.626 342.273 483.978 342.273H439.419V380.84H481.365V387.738H439.419V434.456Z" fill="#293274"></path><path d="M570.97 337.605C567.905 337.605 565.536 338.023 563.829 338.824C562.156 339.66 560.902 340.984 560.066 342.9C559.23 344.781 558.777 347.29 558.603 350.425C558.429 353.561 558.359 357.463 558.359 362.201V405.54C558.359 411.776 557.383 417.385 555.432 422.367C553.481 427.349 550.66 431.564 546.897 435.048C543.169 438.532 538.605 441.215 533.24 443.131C527.84 445.012 521.743 445.988 514.88 445.988C513.87 445.988 512.894 445.988 511.954 445.918C511.013 445.883 510.177 445.779 509.341 445.674V436.128C510.351 436.337 511.396 436.512 512.407 436.686C513.417 436.825 514.497 436.93 515.647 436.93C518.399 436.93 521.291 436.477 524.252 435.606C527.213 434.735 529.931 433.237 532.404 431.146C534.878 429.056 536.863 426.304 538.396 422.924C539.929 419.545 540.696 415.33 540.696 410.313V362.201C540.696 357.497 540.626 353.561 540.452 350.425C540.312 347.29 539.79 344.781 538.919 342.9C538.048 341.019 536.654 339.66 534.773 338.824C532.892 337.988 530.244 337.605 526.865 337.605V330.707H627.061V337.605H613.23V414.459C613.23 419.162 613.299 423.099 613.474 426.234C613.648 429.37 614.101 431.878 614.937 433.759C615.773 435.675 616.992 436.999 618.63 437.835C620.267 438.672 622.636 439.055 625.702 439.055H627.235V445.953H581.736V439.055C585.115 439.055 587.763 438.637 589.644 437.835C591.525 437.034 592.919 435.675 593.79 433.759C594.661 431.878 595.183 429.37 595.323 426.234C595.462 423.099 595.566 419.197 595.566 414.459V337.605H570.97Z" fill="#293274"></path><path d="M631.067 330.707H676.078V337.605H674.546C671.48 337.605 669.111 338.023 667.473 338.824C665.836 339.66 664.617 340.984 663.85 342.9C663.084 344.781 662.631 347.29 662.526 350.425C662.422 353.561 662.387 357.463 662.387 362.201V374.499C665.348 373.07 668.623 371.816 672.211 370.736C675.8 369.656 680.155 369.134 685.276 369.134C691.721 369.134 697.33 370.109 702.103 372.06C706.876 374.011 710.813 376.763 713.948 380.282C717.084 383.801 719.383 388.051 720.846 392.963C722.344 397.875 723.076 403.31 723.076 409.268C723.076 421.043 720.01 430.38 713.844 437.243C707.712 444.106 697.922 447.555 684.475 447.555C677.402 447.555 671.375 446.58 666.359 444.629C661.342 442.678 657.196 439.926 653.991 436.407C650.751 432.888 648.417 428.673 646.919 423.795C645.42 418.918 644.689 413.518 644.689 407.561V362.236C644.689 357.532 644.619 353.596 644.445 350.46C644.306 347.325 643.818 344.816 642.982 342.935C642.146 341.054 640.787 339.695 638.906 338.859C637.024 338.023 634.377 337.639 630.997 337.639V330.741L631.067 330.707ZM662.422 411.846C662.422 416.967 662.944 421.217 663.955 424.597C664.965 427.976 666.428 430.693 668.344 432.749C670.226 434.804 672.525 436.268 675.173 437.139C677.855 438.01 680.817 438.462 684.091 438.462C687.366 438.462 690.153 438.044 692.766 437.243C695.379 436.442 697.644 434.979 699.525 432.958C701.406 430.903 702.869 428.185 703.915 424.736C704.925 421.322 705.448 417.037 705.448 411.915V405.923C705.448 400.802 704.925 396.482 703.915 392.928C702.869 389.375 701.441 386.553 699.525 384.393C697.644 382.233 695.379 380.7 692.766 379.69C690.153 378.714 687.262 378.226 684.091 378.226C680.921 378.226 677.855 378.714 675.173 379.69C672.525 380.665 670.226 382.268 668.344 384.463C666.463 386.657 665 389.549 663.955 393.068C662.944 396.621 662.422 400.872 662.422 405.888V411.881V411.846Z" fill="#293274"></path><path d="M273.274 57.3618L207.046 143.378H218.821L273.274 72.656L313.792 125.297L319.679 117.633L273.274 57.3618Z" fill="#293274"></path><path d="M273.274 85.895L228.994 143.379H244.707L273.274 106.276L300.867 142.09L308.705 131.917L273.274 85.895Z" fill="#293274"></path><path d="M369.952 0.226562L316.23 70.0084L322.118 77.638L369.952 15.5207L468.371 143.379H480.181L369.952 0.226562Z" fill="#293274"></path><path d="M369.951 32L318.53 98.7857L326.368 108.959L369.951 52.3806L440.012 143.379H455.724L369.951 32Z" fill="#293274"></path><path d="M273.274 57.3618L207.046 143.378H218.821L273.274 72.656L313.792 125.297L319.679 117.633L273.274 57.3618Z" fill="#293274"></path><path d="M433.881 558.934L500.109 472.917H488.333L433.881 543.639L393.363 490.998L387.475 498.663L433.881 558.934Z" fill="#293274"></path><path d="M433.88 530.401L478.16 472.917H462.448L433.88 510.02L406.288 474.206L398.449 484.379L433.88 530.401Z" fill="#293274"></path><path d="M337.203 613.177L390.959 546.287L385.036 538.658L337.203 600.775L238.784 472.917H226.974L337.203 613.177Z" fill="#293274"></path><path d="M337.203 584.296L388.625 517.51L380.786 507.338L337.203 563.916L267.143 472.917H251.43L337.203 584.296Z" fill="#293274"></path><path d="M433.881 558.934L500.109 472.917H488.333L433.881 543.639L393.363 490.998L387.475 498.663L433.881 558.934Z" fill="#293274"></path></svg> 