<?xml version="1.0" encoding="UTF-8"?> <svg xmlns="http://www.w3.org/2000/svg" width="800" height="263" viewBox="0 0 800 263" fill="none"><path d="M139.942 219.504C132.855 219.504 128.633 222.595 125.617 226.666L129.538 230.436C132.101 226.666 135.644 224.781 139.716 224.781C147.104 224.781 151.929 230.059 152.909 238.126H133.307V243.705H152.985C152.155 251.998 147.255 257.502 139.716 257.502C135.569 257.502 132.101 255.541 129.538 251.847L125.617 255.617C128.633 259.688 132.855 262.779 139.942 262.779C151.703 262.779 159.544 253.355 159.544 241.066C159.544 228.777 151.703 219.504 139.942 219.504Z" fill="#575756"></path><path d="M195.054 225.234C199.125 225.234 202.442 226.817 205.005 230.587L209.077 226.666C206.061 222.595 201.839 219.504 194.752 219.504C183.066 219.504 175.225 228.853 175.225 241.066C175.225 253.28 183.066 262.779 194.752 262.779C201.839 262.779 206.061 259.688 209.077 255.617L205.005 251.696C202.442 255.391 199.125 257.049 195.054 257.049C186.685 257.049 181.558 250.189 181.558 241.066C181.558 231.944 186.76 225.158 195.054 225.158V225.234Z" fill="#575756"></path><path d="M221.441 226.143H232.825V261.804H238.856V226.143H250.316V220.564H221.441V226.143Z" fill="#575756"></path><path d="M283.338 219.504C272.18 219.504 264.113 229.154 264.113 241.066C264.113 253.958 272.481 262.779 284.016 262.779C290.424 262.779 295.702 260.593 299.547 256.446L296.607 252.299C293.515 255.617 288.992 257.502 284.544 257.502C276.1 257.502 270.973 251.018 270.445 243.252H302.11V241.669C302.11 229.305 295.174 219.579 283.338 219.579V219.504ZM270.445 238.503C270.747 232.17 274.894 224.781 283.262 224.781C292.158 224.781 296.079 232.396 296.154 238.503H270.521H270.445Z" fill="#575756"></path><path d="M315.831 226.143H327.14V261.804H333.172V226.143H344.631V220.564H315.831V226.143Z" fill="#575756"></path><path d="M366.721 252.003V220.564H360.69V261.804H366.495L387.153 229.687V261.804H393.184V220.564H387.228L366.721 252.003Z" fill="#575756"></path><path d="M447.768 220.564H440.078L419.496 242.504V220.564H413.464V261.804H419.496V249.967L425.979 243.257L440.078 261.804H447.843L430.503 239.262L447.768 220.564Z" fill="#575756"></path><path d="M478.603 219.506C472.195 219.506 467.219 221.692 462.997 226.367L465.862 230.815C469.33 226.894 473.175 225.085 477.849 225.085C483.504 225.085 487.726 228.252 487.726 233.755V241.219C484.559 237.374 480.111 235.565 474.758 235.565C468.124 235.565 461.112 239.937 461.112 249.135C461.112 258.333 468.124 262.781 474.758 262.781C480.036 262.781 484.484 260.821 487.726 257.051V261.726H493.832V233.378C493.832 223.351 486.972 219.431 478.679 219.431L478.603 219.506ZM487.65 253.056C485.313 256.448 481.167 258.182 476.869 258.182C471.215 258.182 467.219 254.413 467.219 249.211C467.219 244.008 471.215 240.163 476.869 240.163C481.167 240.163 485.313 241.898 487.65 245.29V253.056Z" fill="#575756"></path><path d="M560.554 225.234C564.626 225.234 567.943 226.817 570.506 230.587L574.577 226.666C571.562 222.595 567.415 219.504 560.253 219.504C548.567 219.504 540.726 228.853 540.726 241.066C540.726 253.28 548.567 262.779 560.253 262.779C567.34 262.779 571.562 259.688 574.577 255.617L570.506 251.696C567.943 255.391 564.626 257.049 560.554 257.049C552.186 257.049 547.059 250.189 547.059 241.066C547.059 231.944 552.261 225.158 560.554 225.158V225.234Z" fill="#575756"></path><path d="M617.626 237.678H597.195V220.564H591.164V261.804H597.195V243.333H617.626V261.804H623.733V220.564H617.626V237.678Z" fill="#575756"></path><path d="M659.318 219.506C652.91 219.506 647.934 221.692 643.712 226.367L646.577 230.815C650.045 226.894 653.89 225.085 658.564 225.085C664.219 225.085 668.441 228.252 668.441 233.755V241.219C665.274 237.374 660.826 235.565 655.473 235.565C648.839 235.565 641.827 239.937 641.827 249.135C641.827 258.333 648.839 262.781 655.473 262.781C660.751 262.781 665.199 260.821 668.441 257.051V261.726H674.548V233.378C674.548 223.351 667.687 219.431 659.394 219.431L659.318 219.506ZM668.365 253.056C666.028 256.448 661.882 258.182 657.584 258.182C651.93 258.182 647.934 254.413 647.934 249.211C647.934 244.008 651.93 240.163 657.584 240.163C661.882 240.163 666.028 241.898 668.365 245.29V253.056Z" fill="#575756"></path><path d="M133.081 108.078L123.733 101.821L120.566 106.495C111.67 119.764 98.1747 128.736 82.5685 131.827C66.9624 134.918 51.0546 131.751 37.7856 122.855C24.5166 113.959 15.545 100.464 12.4539 84.8575C9.3628 69.2513 12.5293 53.3436 21.4255 40.0746C39.6704 12.7826 76.8387 5.39419 104.206 23.7145L108.88 26.8809L115.138 17.5323L110.464 14.3659C77.9696 -7.42247 33.7898 1.32301 12.0015 33.817C1.52202 49.574 -2.32298 68.4974 1.37123 87.0439C5.06545 105.666 15.7711 121.649 31.4527 132.204C43.2893 140.12 56.8598 144.191 70.8074 144.191C75.4063 144.191 80.0806 143.739 84.7549 142.834C103.377 139.14 119.36 128.434 129.915 112.753L133.081 108.078Z" fill="#575756"></path><path d="M291.857 73.3209C291.857 34.1924 260.042 2.37695 220.913 2.37695C181.785 2.37695 149.969 34.1924 149.969 73.3209C149.969 112.449 181.785 144.265 220.913 144.265C260.042 144.265 291.857 112.449 291.857 73.3209ZM161.278 73.3209C161.278 40.45 188.042 13.6858 220.913 13.6858C253.784 13.6858 280.548 40.45 280.548 73.3209C280.548 106.192 253.784 132.956 220.913 132.956C188.042 132.956 161.278 106.192 161.278 73.3209Z" fill="#575756"></path><path d="M796.306 2.67484C794.044 1.92092 791.481 2.67484 790.048 4.55965L726.116 86.4355L662.108 4.48426C660.6 2.59945 658.112 1.84553 655.85 2.59945C653.589 3.35337 652.081 5.53974 652.081 7.95229V144.186H663.314V24.3124L721.592 99.026C722.648 100.383 724.306 101.212 726.04 101.212C727.774 101.212 729.433 100.383 730.489 99.026L788.767 24.3124V144.186H800V7.95229C800 5.53974 798.492 3.42877 796.23 2.59945L796.306 2.67484Z" fill="#575756"></path><path d="M563.269 85.082H563.118L508.006 0.19043L498.582 6.29719L556.408 95.4107L527.307 140.269L536.731 146.376L567.415 99.1049C567.415 99.1049 567.792 98.8033 567.943 98.6526L627.805 6.29719L618.381 0.19043L563.269 85.082Z" fill="#575756"></path><path d="M466.993 144.19V110.112V98.8035V2.37695H455.759V98.8035H333.85V2.37695H322.617V98.8035V110.112V144.19H333.85V110.112H455.759V144.19H466.993Z" fill="#575756"></path></svg> 