<?xml version="1.0" encoding="UTF-8"?> <svg xmlns="http://www.w3.org/2000/svg" width="800" height="116" viewBox="0 0 800 116" fill="none"><path fill-rule="evenodd" clip-rule="evenodd" d="M479.695 89.002L475.209 115.166H444.705L449.19 89.002L455.504 52.3675L459.99 26.2038H437.115L432.629 52.3675L426.315 89.002L421.829 115.166H391.325L395.81 89.002L406.61 26.2038L411.096 0.0400391H441.587H464.475H494.967L490.494 26.2038L479.695 89.002Z" fill="#2C2C2C"></path><path fill-rule="evenodd" clip-rule="evenodd" d="M248.444 89.002H225.568L231.843 52.3675L236.329 26.2038H259.204L254.718 52.3675L248.444 89.002ZM221.043 115.166H190.539L195.024 89.002L205.863 26.3222C208.126 9.64262 222.175 -0.420359 235.802 0.158427H240.841L263.676 0.0400391H294.181L289.695 26.2038L278.909 89.002C276.646 105.682 262.584 115.745 248.97 115.166H243.932H221.043Z" fill="#2C2C2C"></path><path fill-rule="evenodd" clip-rule="evenodd" d="M99.0644 26.2038H58.3915C54.8004 47.1321 51.2225 68.0605 47.6445 89.002H88.3174C86.0943 105.708 71.9798 115.758 58.3521 115.179H12.6149L17.1005 89.002L27.9395 26.3222C30.2021 9.64262 44.2508 -0.420359 57.8785 0.158427L103.537 0.0400391L99.0512 26.2038H99.0644Z" fill="#2C2C2C"></path><path fill-rule="evenodd" clip-rule="evenodd" d="M339.971 0.158427H334.933C321.318 -0.420359 307.256 9.64262 304.994 26.3222L294.168 89.0152L289.682 115.179H294.72C308.335 115.758 322.397 105.695 324.659 89.0152L330.96 52.3807L335.446 26.2169H358.321L353.835 52.3807L347.521 89.0152L343.036 115.179H371.515L373.527 113.863L378.013 89.0152L388.812 26.2169L393.298 0.0400391H362.793L339.958 0.158427H339.971Z" fill="#2C2C2C"></path><path fill-rule="evenodd" clip-rule="evenodd" d="M540.77 0.158427H535.732C522.117 -0.420359 508.055 9.64262 505.793 26.3222L494.967 89.0152L490.481 113.863L491.902 115.179C505.517 115.758 523.196 105.695 525.472 89.0152L531.772 52.3807L536.258 26.2169H559.133L554.648 52.3807L548.334 89.0152L543.848 113.863L546.545 115.179H574.339L578.825 89.0152L589.625 26.2169L594.097 0.0400391H563.592L540.757 0.158427H540.77Z" fill="#2C2C2C"></path><path fill-rule="evenodd" clip-rule="evenodd" d="M680.507 89.0152C678.245 105.695 664.183 115.758 650.568 115.179L645.53 113.863L655.106 62.4831L622.642 115.166H596.544L592.15 113.85L596.636 89.002L607.435 26.2038L611.895 0.0400391H642.399L637.914 26.2038L633.191 53.0121L665.261 0.0400391H695.766L691.28 26.2038L680.494 89.002L680.507 89.0152Z" fill="#2C2C2C"></path><path fill-rule="evenodd" clip-rule="evenodd" d="M729.414 26.2169H704L708.473 0.0400391H789.805L785.32 26.2038H759.906L749.133 89.002C746.87 105.682 735.755 115.731 722.127 115.166L714.142 113.85L729.401 26.2038L729.414 26.2169Z" fill="#2C2C2C"></path><path fill-rule="evenodd" clip-rule="evenodd" d="M137.185 26.2169H111.771L116.244 0.0400391H197.576L193.091 26.2038H167.677L156.903 89.002C154.628 105.682 140.579 115.745 126.964 115.166H121.926L137.185 26.2038V26.2169Z" fill="#2C2C2C"></path><path fill-rule="evenodd" clip-rule="evenodd" d="M480.787 88.9883L476.169 115.152H444.784L449.388 88.9883L455.899 52.3538L460.503 26.1901H436.957L432.353 52.3538L425.841 88.9883L421.237 115.152H389.838L394.455 88.9883L405.558 26.1901L410.175 0.0263672H441.574H465.12H496.519L491.902 26.1901L480.787 88.9883Z" fill="url(#paint0_radial_135_3170)"></path><path fill-rule="evenodd" clip-rule="evenodd" d="M242.748 88.9883H219.202L225.661 52.3538L230.278 26.1901H253.824L249.207 52.3538L242.748 88.9883ZM214.545 115.152H183.146L187.763 88.9883L198.918 26.3085C201.246 9.62894 215.716 -0.43403 229.738 0.131601H234.921L258.428 0.0263672H289.827L285.21 26.1901L274.108 88.9883C271.779 105.668 257.31 115.731 243.287 115.152H238.091H214.532H214.545Z" fill="url(#paint1_radial_135_3170)"></path><path fill-rule="evenodd" clip-rule="evenodd" d="M88.9883 26.1901H47.1316C43.4352 47.1185 39.752 68.0468 36.0689 88.9883H77.9256C75.6367 105.694 61.1013 115.744 47.0789 115.165H0L4.61713 88.9883L15.7719 26.2953C18.1134 9.62894 32.5698 -0.43403 46.5922 0.131601L93.5923 0.0263672L88.9751 26.1901H88.9883Z" fill="url(#paint2_radial_135_3170)"></path><path fill-rule="evenodd" clip-rule="evenodd" d="M336.959 0.144296H331.776C317.753 -0.434489 303.297 9.62849 300.955 26.308L289.814 89.001L285.197 115.165H290.393C304.415 115.744 318.871 105.681 321.213 89.001L327.698 52.3665L332.315 26.2028H355.861L351.244 52.3665L344.746 89.001L340.129 115.165H371.528L376.145 89.001L387.26 26.2028L391.877 0.0390625H360.478L336.972 0.15745L336.959 0.144296Z" fill="url(#paint3_radial_135_3170)"></path><path fill-rule="evenodd" clip-rule="evenodd" d="M543.651 0.144296H538.455C524.432 -0.434489 509.976 9.62849 507.634 26.308L496.493 89.001L491.876 115.165H497.058C511.081 115.744 525.537 105.681 527.879 89.001L534.364 52.3665L538.981 26.2028H562.527L557.91 52.3665L551.412 89.001L546.794 115.165H578.194L582.811 89.001L593.926 26.2028L598.543 0.0390625H567.144L543.637 0.15745L543.651 0.144296Z" fill="url(#paint4_radial_135_3170)"></path><path fill-rule="evenodd" clip-rule="evenodd" d="M687.492 88.9888C685.164 105.668 670.694 115.731 656.672 115.153H651.476L661.328 62.4567L627.903 115.139H596.504L601.121 88.9756L612.237 26.1774L616.854 0.0136719H648.253L643.636 26.1774L638.782 52.9857L671.812 0.0268261H703.211L698.594 26.1906L687.492 88.9888Z" fill="url(#paint5_radial_135_3170)"></path><path fill-rule="evenodd" clip-rule="evenodd" d="M737.833 26.1901H711.669L716.287 0.0263672H800L795.383 26.1901H769.219L758.13 88.9883C755.802 105.668 741.332 115.731 727.31 115.152H722.114L737.82 26.1901H737.833Z" fill="url(#paint6_radial_135_3170)"></path><path fill-rule="evenodd" clip-rule="evenodd" d="M128.227 26.1901H102.064L106.681 0.0263672H190.394L185.777 26.1901H159.613L148.524 88.9883C146.183 105.668 131.726 115.731 117.704 115.152H112.521L128.227 26.1901Z" fill="url(#paint7_radial_135_3170)"></path><defs><radialGradient id="paint0_radial_135_3170" cx="0" cy="0" r="1" gradientUnits="userSpaceOnUse" gradientTransform="translate(443.179 57.5892) scale(55.4845 55.4845)"><stop stop-color="#4F99FD"></stop><stop offset="0.15" stop-color="#4687FA"></stop><stop offset="0.34" stop-color="#4079F9"></stop><stop offset="0.58" stop-color="#3C71F8"></stop><stop offset="1" stop-color="#3B6FF8"></stop></radialGradient><radialGradient id="paint1_radial_135_3170" cx="0" cy="0" r="1" gradientUnits="userSpaceOnUse" gradientTransform="translate(236.486 57.6024) scale(55.4976 55.4976)"><stop stop-color="#4F99FD"></stop><stop offset="0.51" stop-color="#4585FA"></stop><stop offset="1" stop-color="#3B6FF8"></stop></radialGradient><radialGradient id="paint2_radial_135_3170" cx="0" cy="0" r="1" gradientUnits="userSpaceOnUse" gradientTransform="translate(46.8027 57.6024) scale(52.4722 52.4722)"><stop stop-color="#4F99FD"></stop><stop offset="0.51" stop-color="#4585FA"></stop><stop offset="1" stop-color="#3B6FF8"></stop></radialGradient><radialGradient id="paint3_radial_135_3170" cx="0" cy="0" r="1" gradientUnits="userSpaceOnUse" gradientTransform="translate(338.537 57.6019) scale(55.4976 55.4976)"><stop stop-color="#4F99FD"></stop><stop offset="0.09" stop-color="#4B91FC"></stop><stop offset="0.38" stop-color="#427EF9"></stop><stop offset="0.69" stop-color="#3C72F8"></stop><stop offset="1" stop-color="#3B6FF8"></stop></radialGradient><radialGradient id="paint4_radial_135_3170" cx="0" cy="0" r="1" gradientUnits="userSpaceOnUse" gradientTransform="translate(545.216 57.6019) scale(55.4976 55.4976)"><stop stop-color="#4F99FD"></stop><stop offset="0.13" stop-color="#498CFB"></stop><stop offset="0.38" stop-color="#417CF9"></stop><stop offset="0.66" stop-color="#3C72F8"></stop><stop offset="1" stop-color="#3B6FF8"></stop></radialGradient><radialGradient id="paint5_radial_135_3170" cx="0" cy="0" r="1" gradientUnits="userSpaceOnUse" gradientTransform="translate(649.871 0.684537) scale(55.4977 55.4976)"><stop stop-color="#4F99FD"></stop><stop offset="0.51" stop-color="#4585FA"></stop><stop offset="1" stop-color="#3B6FF8"></stop></radialGradient><radialGradient id="paint6_radial_135_3170" cx="0" cy="0" r="1" gradientUnits="userSpaceOnUse" gradientTransform="translate(755.841 0.684077) scale(51.3146 51.3146)"><stop stop-color="#4F99FD"></stop><stop offset="0.51" stop-color="#4585FA"></stop><stop offset="1" stop-color="#3B6FF8"></stop></radialGradient><radialGradient id="paint7_radial_135_3170" cx="0" cy="0" r="1" gradientUnits="userSpaceOnUse" gradientTransform="translate(146.235 0.684077) scale(51.3146 51.3146)"><stop stop-color="#4F99FD"></stop><stop offset="0.51" stop-color="#4585FA"></stop><stop offset="1" stop-color="#3B6FF8"></stop></radialGradient></defs></svg> 