<?xml version="1.0" encoding="UTF-8"?> <svg xmlns="http://www.w3.org/2000/svg" width="800" height="376" viewBox="0 0 800 376" fill="none"><path d="M199.625 198.641L104.53 103.547C103.552 102.568 101.965 102.568 100.986 103.547L5.89128 198.641C4.91249 199.62 4.91248 201.207 5.89127 202.186L100.986 297.28C101.965 298.259 103.552 298.259 104.53 297.28L199.625 202.186C200.604 201.207 200.604 199.62 199.625 198.641Z" fill="#B0B0B0"></path><path d="M205.614 323.145C195.553 295.097 185.625 266.996 175.679 238.903C175.325 237.902 174.988 236.893 174.652 235.883L199.822 212.502L200.256 201.131L102.561 287.596C99.8775 289.774 96.2198 289.686 93.6249 287.383L5.49517 201.645L6.53136 215.372L21.2506 230.242C20.8787 232.172 7.00075 294.202 0.331902 323.26C-0.544878 327.095 0.331902 327.378 2.7674 327.139C4.92836 326.927 5.05235 324.899 5.55716 323.18C10.1536 307.664 25.9002 253.011 30.665 239.727L89.8166 298.294C91.7119 299.994 92.819 302.554 92.8278 305.264L92.8632 313.005L93.1024 371.651C93.1024 373.44 94.3688 374.919 95.9718 375.008C97.6368 375.097 99.0538 373.662 99.1336 371.811L102.632 316.6L103.358 305.158C103.526 302.917 104.545 300.862 106.148 299.507L131.353 276.1C132.442 287.224 133.939 302.696 133.992 303.103C134.355 305.601 138.093 305.193 137.951 302.669C137.367 292.325 136.782 281.963 136.197 271.592L166.052 243.491C171.703 255.226 194.269 308.842 200.636 323.694C201.336 325.333 201.717 327.343 203.798 327.29C206.154 327.237 206.951 326.847 205.623 323.145H205.614Z" fill="#0D0D0D"></path><path d="M148.189 45.6148L104.597 2.02226C103.618 1.04346 102.031 1.04347 101.052 2.02226L57.4594 45.6148C56.4806 46.5936 56.4806 48.1805 57.4594 49.1593L101.052 92.7519C102.031 93.7307 103.618 93.7307 104.597 92.7519L148.189 49.1593C149.168 48.1805 149.168 46.5936 148.189 45.6148Z" fill="#F8DC69"></path><path d="M198.927 96.3492L155.335 52.7566C154.356 51.7778 152.769 51.7778 151.79 52.7566L108.197 96.3492C107.219 97.328 107.219 98.9149 108.197 99.8937L151.79 143.486C152.769 144.465 154.356 144.465 155.335 143.486L198.927 99.8937C199.906 98.9149 199.906 97.328 198.927 96.3492Z" fill="#F8DC69"></path><path d="M97.392 96.4176L53.7995 52.825C52.8207 51.8462 51.2338 51.8462 50.255 52.825L6.6624 96.4176C5.68361 97.3963 5.68361 98.9833 6.6624 99.9621L50.255 143.555C51.2338 144.533 52.8207 144.533 53.7995 143.555L97.392 99.9621C98.3708 98.9833 98.3708 97.3963 97.392 96.4176Z" fill="#F8DC69"></path><path d="M148.121 147.144L104.529 103.552C103.55 102.573 101.963 102.573 100.984 103.552L57.3918 147.144C56.413 148.123 56.413 149.71 57.3918 150.689L100.984 194.281C101.963 195.26 103.55 195.26 104.529 194.281L148.121 150.689C149.1 149.71 149.1 148.123 148.121 147.144Z" fill="#F8DC69"></path><path d="M303.016 238.903L295.887 244.376C291.954 239.248 287.225 235.369 281.716 232.73C276.199 230.082 270.15 228.762 263.552 228.762C256.334 228.762 249.656 230.498 243.51 233.952C237.364 237.415 232.599 242.064 229.216 247.91C225.833 253.746 224.141 260.317 224.141 267.615C224.141 278.641 227.923 287.843 235.486 295.22C243.049 302.598 252.588 306.282 264.101 306.282C276.766 306.282 287.358 301.322 295.887 291.403L303.016 296.814C298.508 302.553 292.884 306.99 286.136 310.126C279.396 313.261 271.859 314.828 263.543 314.828C247.726 314.828 235.238 309.559 226.107 299.029C218.446 290.137 214.612 279.394 214.612 266.818C214.612 253.578 219.252 242.445 228.534 233.403C237.815 224.36 249.444 219.844 263.419 219.844C271.859 219.844 279.485 221.509 286.286 224.856C293.088 228.195 298.668 232.88 303.007 238.903H303.016Z" fill="#0D0D0D"></path><path d="M312.235 245.669H356.252V253.108H338.548V312.561H329.939V253.108H312.235V245.669Z" fill="#0D0D0D"></path><path d="M399.595 243.942C409.904 243.942 418.441 247.671 425.216 255.128C431.371 261.93 434.453 269.989 434.453 279.288C434.453 288.587 431.203 296.797 424.694 303.785C418.184 310.773 409.824 314.271 399.595 314.271C389.366 314.271 380.943 310.781 374.434 303.785C367.924 296.797 364.674 288.632 364.674 279.288C364.674 269.945 367.756 261.992 373.911 255.19C380.686 247.689 389.242 243.942 399.595 243.942ZM399.568 252.365C392.412 252.365 386.266 255.013 381.12 260.3C375.975 265.587 373.406 271.982 373.406 279.483C373.406 284.319 374.576 288.826 376.922 293.007C379.269 297.187 382.431 300.411 386.425 302.687C390.411 304.963 394.795 306.096 399.568 306.096C404.342 306.096 408.717 304.963 412.711 302.687C416.696 300.411 419.867 297.187 422.214 293.007C424.561 288.826 425.73 284.319 425.73 279.483C425.73 271.982 423.153 265.587 417.989 260.3C412.826 255.013 406.689 252.365 399.577 252.365H399.568Z" fill="#0D0D0D"></path><path d="M506.854 312.216L476.238 245.669H474.706L444.027 312.552H453.255L475.458 263.842L497.697 312.216H506.854Z" fill="#0D0D0D"></path><path d="M608.136 312.216V304.13H601.095L563.606 222.12H560.471L524.983 304.13H517.632V312.216H608.127H608.136ZM562.091 240.727L590.405 304.13H535.203L562.1 240.727H562.091Z" fill="#0D0D0D"></path><path d="M651.231 243.942C661.54 243.942 670.077 247.671 676.852 255.128C683.016 261.93 686.089 269.989 686.089 279.288C686.089 288.587 682.83 296.797 676.33 303.785C669.82 310.773 661.451 314.271 651.231 314.271C641.01 314.271 632.579 310.781 626.079 303.785C619.569 296.797 616.319 288.632 616.319 279.288C616.319 269.945 619.401 261.992 625.556 255.19C632.331 247.689 640.886 243.942 651.24 243.942H651.231ZM651.204 252.365C644.048 252.365 637.902 255.013 632.756 260.3C627.62 265.587 625.042 271.982 625.042 279.483C625.042 284.319 626.211 288.826 628.558 293.007C630.905 297.187 634.067 300.411 638.061 302.687C642.047 304.963 646.431 306.096 651.204 306.096C655.978 306.096 660.353 304.963 664.347 302.687C668.332 300.411 671.503 297.187 673.85 293.007C676.197 288.826 677.366 284.319 677.366 279.483C677.366 271.982 674.789 265.587 669.625 260.3C664.462 255.013 658.325 252.365 651.213 252.365H651.204Z" fill="#0D0D0D"></path><path d="M774.662 245.669H777.124L799.841 312.552H790.86L774.281 263.346L748.553 312.552H746.959L721.169 263.275L704.652 312.552H695.672L718.53 245.669H720.868L747.818 298.001L774.662 245.669Z" fill="#0D0D0D"></path><path d="M218.571 354.018C219.058 354.895 219.713 355.586 220.554 356.091C221.396 356.595 222.343 356.852 223.406 356.852C224.283 356.852 225.098 356.719 225.868 356.445C226.639 356.17 227.303 355.807 227.87 355.347C228.437 354.886 228.835 354.399 229.074 353.876V357.419C228.507 358.083 227.701 358.597 226.648 358.96C225.594 359.323 224.513 359.509 223.406 359.509C221.821 359.509 220.395 359.146 219.12 358.411C217.844 357.676 216.835 356.666 216.091 355.382C215.347 354.098 214.975 352.637 214.975 351.007C214.975 349.377 215.347 347.89 216.091 346.614C216.835 345.339 217.844 344.338 219.12 343.603C220.395 342.868 221.821 342.505 223.406 342.505C224.513 342.505 225.594 342.691 226.648 343.054C227.701 343.417 228.507 343.931 229.074 344.595V348.138C228.835 347.597 228.437 347.101 227.87 346.65C227.303 346.198 226.639 345.844 225.868 345.569C225.098 345.295 224.283 345.162 223.406 345.162C222.343 345.162 221.396 345.41 220.554 345.906C219.713 346.402 219.058 347.092 218.571 347.978C218.083 348.864 217.844 349.873 217.844 351.007C217.844 352.141 218.083 353.141 218.571 354.018Z" fill="#0D0D0D"></path><path d="M240.977 349.307H251.853C251.755 348.456 251.525 347.704 251.162 347.057C250.799 346.411 250.285 345.897 249.639 345.534C248.992 345.171 248.195 344.985 247.247 344.985C246.3 344.985 245.441 345.188 244.661 345.587C243.882 345.985 243.262 346.561 242.802 347.305C242.341 348.049 242.111 348.926 242.111 349.944L242.04 351.007C242.04 352.256 242.252 353.319 242.678 354.195C243.103 355.072 243.705 355.727 244.484 356.179C245.264 356.631 246.185 356.852 247.247 356.852C248.053 356.852 248.762 356.728 249.391 356.48C250.019 356.232 250.577 355.887 251.073 355.453C251.569 355.019 251.994 354.505 252.349 353.912L254.651 355.364C254.111 356.188 253.509 356.914 252.845 357.543C252.18 358.172 251.383 358.65 250.436 358.995C249.488 359.341 248.31 359.509 246.893 359.509C245.476 359.509 244.112 359.146 242.943 358.411C241.774 357.676 240.853 356.666 240.18 355.382C239.507 354.098 239.17 352.637 239.17 351.007C239.17 350.697 239.179 350.405 239.206 350.121C239.232 349.838 239.268 349.555 239.312 349.271C239.551 347.925 240.021 346.747 240.729 345.729C241.438 344.71 242.35 343.922 243.475 343.355C244.599 342.788 245.857 342.505 247.247 342.505C248.78 342.505 250.126 342.85 251.286 343.532C252.446 344.214 253.341 345.18 253.978 346.419C254.616 347.659 254.935 349.138 254.935 350.865V351.29C254.935 351.432 254.926 351.574 254.899 351.716H240.977V349.307Z" fill="#0D0D0D"></path><path d="M273.002 342.858V345.515H263.437V342.858H273.002ZM269.636 343.567V359.154H266.802V343.567H269.636Z" fill="#0D0D0D"></path><path d="M285.755 342.858V359.154H282.921V342.858H285.755ZM284.586 349.022H289.652C291.326 349.022 292.743 349.43 293.885 350.245C295.028 351.059 295.603 352.344 295.603 354.088C295.603 355.248 295.346 356.205 294.824 356.958C294.301 357.711 293.593 358.268 292.698 358.623C291.804 358.977 290.785 359.154 289.652 359.154H284.586V356.674H289.652C290.334 356.674 290.909 356.577 291.37 356.373C291.83 356.17 292.176 355.877 292.415 355.488C292.654 355.098 292.769 354.629 292.769 354.088C292.769 353.265 292.512 352.627 291.99 352.175C291.467 351.724 290.688 351.502 289.652 351.502H284.586V349.022Z" fill="#0D0D0D"></path><path d="M331.516 341.619L333.11 346.224L330.453 359.155H327.265L331.516 341.619ZM331.162 347.287L331.516 341.619L338.849 356.71L337.786 360.253L331.162 347.287ZM344.163 341.619L344.517 347.287L337.786 360.253L336.723 356.71L344.163 341.619ZM342.569 346.224L344.163 341.619L348.414 359.155H345.225L342.569 346.224Z" fill="#0D0D0D"></path><path d="M358.723 349.307H369.598C369.501 348.456 369.27 347.704 368.907 347.057C368.544 346.411 368.031 345.897 367.384 345.534C366.738 345.171 365.941 344.985 364.993 344.985C364.045 344.985 363.186 345.188 362.407 345.587C361.627 345.985 361.007 346.561 360.547 347.305C360.086 348.049 359.856 348.926 359.856 349.944L359.785 351.007C359.785 352.256 359.998 353.319 360.423 354.195C360.848 355.072 361.45 355.727 362.23 356.179C363.009 356.631 363.93 356.852 364.993 356.852C365.799 356.852 366.507 356.728 367.136 356.48C367.765 356.232 368.323 355.887 368.819 355.453C369.315 355.019 369.74 354.505 370.094 353.912L372.397 355.364C371.857 356.188 371.254 356.914 370.59 357.543C369.926 358.172 369.129 358.65 368.181 358.995C367.234 359.341 366.056 359.509 364.639 359.509C363.222 359.509 361.858 359.146 360.689 358.411C359.52 357.676 358.599 356.666 357.925 355.382C357.252 354.098 356.916 352.637 356.916 351.007C356.916 350.697 356.925 350.405 356.951 350.121C356.978 349.838 357.013 349.555 357.058 349.271C357.297 347.925 357.766 346.747 358.475 345.729C359.183 344.71 360.095 343.922 361.22 343.355C362.345 342.788 363.602 342.505 364.993 342.505C366.525 342.505 367.871 342.85 369.031 343.532C370.192 344.214 371.086 345.18 371.724 346.419C372.361 347.659 372.68 349.138 372.68 350.865V351.29C372.68 351.432 372.671 351.574 372.645 351.716H358.723V349.307Z" fill="#0D0D0D"></path><path d="M382.883 343C383.308 341.3 384.061 339.856 385.132 338.661C386.204 337.465 387.692 336.553 389.578 335.915C391.181 335.375 392.386 334.72 393.174 333.949C393.962 333.179 394.44 332.373 394.609 331.522H397.407C397.292 332.559 396.911 333.515 396.274 334.374C395.636 335.233 394.803 335.986 393.776 336.624C392.749 337.261 391.589 337.793 390.287 338.218C388.825 338.687 387.683 339.396 386.868 340.343C386.053 341.291 385.495 342.354 385.185 343.549C384.875 344.745 384.725 345.932 384.725 347.11V350.758L382.245 348.881C382.245 346.658 382.458 344.701 382.883 343ZM390.676 342.504C392.279 342.504 393.714 342.867 394.981 343.603C396.247 344.338 397.248 345.338 397.992 346.614C398.736 347.889 399.108 349.35 399.108 351.006C399.108 352.663 398.736 354.097 397.992 355.382C397.248 356.666 396.247 357.675 394.981 358.41C393.714 359.145 392.279 359.509 390.676 359.509C389.073 359.509 387.665 359.11 386.39 358.322C385.115 357.534 384.105 356.347 383.361 354.762C382.617 353.176 382.245 351.219 382.245 348.881L385.079 351.006C385.079 352.14 385.327 353.141 385.823 354.018C386.319 354.894 386.983 355.585 387.825 356.09C388.666 356.595 389.614 356.852 390.676 356.852C391.739 356.852 392.687 356.595 393.528 356.09C394.369 355.585 395.025 354.894 395.512 354.018C395.999 353.141 396.238 352.14 396.238 351.006C396.238 349.873 395.999 348.863 395.512 347.978C395.025 347.092 394.369 346.401 393.528 345.905C392.687 345.409 391.739 345.161 390.676 345.161V342.504ZM384.3 347.446C384.627 346.392 385.106 345.507 385.717 344.772C386.328 344.037 387.054 343.479 387.895 343.089C388.737 342.699 389.658 342.504 390.676 342.504V345.161C390.065 345.161 389.428 345.294 388.763 345.551C388.099 345.808 387.497 346.189 386.939 346.685C386.381 347.181 385.938 347.792 385.593 348.509C385.247 349.226 385.079 350.059 385.079 351.006H383.804C383.804 349.687 383.972 348.5 384.3 347.446Z" fill="#0D0D0D"></path><path d="M410.479 349.307H421.355C421.257 348.456 421.027 347.704 420.664 347.057C420.301 346.411 419.787 345.897 419.141 345.534C418.494 345.171 417.697 344.985 416.749 344.985C415.802 344.985 414.943 345.188 414.163 345.587C413.384 345.985 412.764 346.561 412.304 347.305C411.843 348.049 411.613 348.926 411.613 349.944L411.542 351.007C411.542 352.256 411.754 353.319 412.18 354.195C412.605 355.072 413.207 355.727 413.986 356.179C414.766 356.631 415.687 356.852 416.749 356.852C417.555 356.852 418.264 356.728 418.893 356.48C419.522 356.232 420.079 355.887 420.575 355.453C421.071 355.019 421.496 354.505 421.851 353.912L424.153 355.364C423.613 356.188 423.011 356.914 422.347 357.543C421.682 358.172 420.885 358.65 419.938 358.995C418.99 359.341 417.812 359.509 416.395 359.509C414.978 359.509 413.614 359.146 412.445 358.411C411.276 357.676 410.355 356.666 409.682 355.382C409.009 354.098 408.672 352.637 408.672 351.007C408.672 350.697 408.681 350.405 408.708 350.121C408.734 349.838 408.77 349.555 408.814 349.271C409.053 347.925 409.523 346.747 410.231 345.729C410.94 344.71 411.852 343.922 412.977 343.355C414.101 342.788 415.359 342.505 416.749 342.505C418.282 342.505 419.628 342.85 420.788 343.532C421.948 344.214 422.843 345.18 423.48 346.419C424.118 347.659 424.437 349.138 424.437 350.865V351.29C424.437 351.432 424.428 351.574 424.401 351.716H410.479V349.307Z" fill="#0D0D0D"></path><path d="M449.695 359.154H446.861V345.515H438.536V353.486C438.536 354.761 438.341 355.815 437.952 356.657C437.562 357.498 436.969 358.118 436.163 358.534C435.357 358.95 434.347 359.154 433.116 359.154V356.568C433.825 356.568 434.436 356.347 434.94 355.895C435.445 355.443 435.702 354.646 435.702 353.486V342.858H449.695V359.154Z" fill="#0D0D0D"></path><path d="M465.105 342.858V359.154H462.271V342.858H465.105ZM463.936 349.022H469.002C470.676 349.022 472.093 349.43 473.235 350.245C474.378 351.059 474.954 352.344 474.954 354.088C474.954 355.248 474.697 356.205 474.174 356.958C473.652 357.711 472.943 358.268 472.049 358.623C471.154 358.977 470.136 359.154 469.002 359.154H463.936V356.674H469.002C469.684 356.674 470.26 356.577 470.72 356.373C471.181 356.17 471.526 355.877 471.765 355.488C472.004 355.098 472.12 354.629 472.12 354.088C472.12 353.265 471.863 352.627 471.34 352.175C470.818 351.724 470.038 351.502 469.002 351.502H463.936V349.022Z" fill="#0D0D0D"></path><path d="M489.301 342.858V359.154H486.467V342.858H489.301ZM488.132 349.235H500.177V351.892H488.132V349.235ZM501.168 342.858V359.154H498.334V342.858H501.168Z" fill="#0D0D0D"></path><path d="M516.401 342.858V359.154H513.567V342.858H516.401ZM515.232 349.022H520.298C521.972 349.022 523.389 349.43 524.531 350.245C525.674 351.059 526.25 352.344 526.25 354.088C526.25 355.248 525.993 356.205 525.47 356.958C524.948 357.711 524.239 358.268 523.345 358.623C522.45 358.977 521.432 359.154 520.298 359.154H515.232V356.674H520.298C520.98 356.674 521.556 356.577 522.016 356.373C522.477 356.17 522.822 355.877 523.061 355.488C523.3 355.098 523.416 354.629 523.416 354.088C523.416 353.265 523.159 352.627 522.636 352.175C522.114 351.724 521.334 351.502 520.298 351.502H515.232V349.022ZM531.103 342.858V359.154H528.269V342.858H531.103Z" fill="#0D0D0D"></path><path d="M555.369 342.858L549.808 350.758L555.724 359.154H552.535L548.284 352.99L544.033 359.154H540.845L546.761 350.758L541.199 342.858H544.387L548.284 348.526L552.181 342.858H555.369Z" fill="#0D0D0D"></path><path d="M589.856 341.619L591.45 346.224L588.793 359.155H585.605L589.856 341.619ZM589.502 347.287L589.856 341.619L597.189 356.71L596.126 360.253L589.502 347.287ZM602.503 341.619L602.857 347.287L596.126 360.253L595.064 356.71L602.503 341.619ZM600.909 346.224L602.503 341.619L606.754 359.155H603.566L600.909 346.224Z" fill="#0D0D0D"></path><path d="M618.409 355.807C618.719 356.197 619.126 356.489 619.649 356.693C620.171 356.896 620.747 356.994 621.385 356.994C622.332 356.994 623.165 356.852 623.9 356.569C624.635 356.285 625.202 355.834 625.618 355.223C626.034 354.612 626.238 353.797 626.238 352.778L626.805 354.55C626.805 355.586 626.53 356.48 625.972 357.224C625.414 357.968 624.679 358.535 623.758 358.925C622.837 359.314 621.81 359.509 620.676 359.509C619.658 359.509 618.728 359.323 617.878 358.942C617.027 358.561 616.345 358.004 615.841 357.26C615.336 356.516 615.079 355.586 615.079 354.479C615.079 353.372 615.362 352.344 615.929 351.538C616.496 350.732 617.302 350.113 618.338 349.679C619.374 349.245 620.605 349.023 622.022 349.023C623.059 349.023 623.953 349.156 624.697 349.431C625.441 349.705 626.034 350.006 626.486 350.352C626.938 350.697 627.239 350.972 627.407 351.184V352.849C626.601 352.282 625.786 351.866 624.963 351.592C624.139 351.317 623.2 351.184 622.164 351.184C621.216 351.184 620.437 351.317 619.808 351.574C619.179 351.831 618.719 352.203 618.409 352.672C618.099 353.141 617.948 353.708 617.948 354.372C617.948 354.939 618.099 355.417 618.409 355.807ZM616.567 344.524C617.178 344.072 618.01 343.63 619.047 343.178C620.083 342.726 621.34 342.505 622.802 342.505C624.051 342.505 625.149 342.7 626.079 343.089C627.009 343.479 627.744 344.037 628.275 344.772C628.806 345.507 629.072 346.402 629.072 347.464V359.155H626.238V347.464C626.238 346.641 625.893 346.021 625.193 345.605C624.493 345.188 623.696 344.985 622.802 344.985C622.022 344.985 621.314 345.082 620.676 345.286C620.039 345.489 619.489 345.72 619.029 345.994C618.568 346.269 618.205 346.499 617.948 346.685L616.567 344.524Z" fill="#0D0D0D"></path><path d="M649.796 342.858V345.515H643.951V359.154H641.117V342.858H649.796Z" fill="#0D0D0D"></path><path d="M661.451 355.807C661.761 356.197 662.168 356.489 662.691 356.693C663.213 356.896 663.789 356.994 664.427 356.994C665.374 356.994 666.207 356.852 666.942 356.569C667.677 356.285 668.244 355.834 668.66 355.223C669.076 354.612 669.28 353.797 669.28 352.778L669.847 354.55C669.847 355.586 669.572 356.48 669.014 357.224C668.456 357.968 667.721 358.535 666.8 358.925C665.879 359.314 664.852 359.509 663.718 359.509C662.7 359.509 661.77 359.323 660.92 358.942C660.069 358.561 659.387 358.004 658.883 357.26C658.378 356.516 658.121 355.586 658.121 354.479C658.121 353.372 658.404 352.344 658.971 351.538C659.538 350.732 660.344 350.113 661.38 349.679C662.416 349.245 663.647 349.023 665.064 349.023C666.101 349.023 666.995 349.156 667.739 349.431C668.483 349.705 669.076 350.006 669.528 350.352C669.98 350.697 670.281 350.972 670.449 351.184V352.849C669.643 352.282 668.828 351.866 668.005 351.592C667.181 351.317 666.242 351.184 665.206 351.184C664.258 351.184 663.479 351.317 662.85 351.574C662.221 351.831 661.761 352.203 661.451 352.672C661.141 353.141 660.99 353.708 660.99 354.372C660.99 354.939 661.141 355.417 661.451 355.807ZM659.609 344.524C660.22 344.072 661.052 343.63 662.089 343.178C663.125 342.726 664.382 342.505 665.844 342.505C667.093 342.505 668.191 342.7 669.121 343.089C670.051 343.479 670.786 344.037 671.317 344.772C671.848 345.507 672.114 346.402 672.114 347.464V359.155H669.28V347.464C669.28 346.641 668.935 346.021 668.235 345.605C667.535 345.188 666.738 344.985 665.844 344.985C665.064 344.985 664.356 345.082 663.718 345.286C663.081 345.489 662.531 345.72 662.071 345.994C661.61 346.269 661.247 346.499 660.99 346.685L659.609 344.524Z" fill="#0D0D0D"></path><path d="M685.452 357.95C684.309 356.914 683.636 355.603 683.45 354.018H686.32C686.488 354.798 686.842 355.497 687.382 356.108C687.923 356.719 688.808 357.029 690.039 357.029C690.792 357.029 691.439 356.923 691.97 356.711C692.501 356.498 692.909 356.188 693.192 355.789C693.476 355.391 693.617 354.93 693.617 354.408C693.617 353.841 693.467 353.354 693.174 352.955C692.882 352.557 692.439 352.247 691.864 352.034C691.288 351.822 690.58 351.716 689.756 351.716V349.944C691.784 349.944 693.405 350.298 694.609 351.007C695.814 351.716 696.416 352.84 696.416 354.372C696.416 355.435 696.124 356.347 695.548 357.118C694.972 357.888 694.193 358.473 693.228 358.889C692.262 359.305 691.2 359.509 690.039 359.509C688.126 359.509 686.594 358.987 685.452 357.95ZM689.756 349.236C690.845 349.236 691.625 349.032 692.094 348.616C692.563 348.2 692.803 347.704 692.803 347.11C692.803 346.473 692.563 345.968 692.094 345.605C691.625 345.242 690.96 345.056 690.11 345.056C689.402 345.056 688.817 345.188 688.357 345.463C687.896 345.737 687.56 346.065 687.347 346.455C687.134 346.844 687.028 347.225 687.028 347.606H684.159C684.159 346.685 684.416 345.835 684.938 345.056C685.461 344.276 686.169 343.656 687.064 343.196C687.958 342.735 688.977 342.505 690.11 342.505C691.173 342.505 692.129 342.709 692.98 343.107C693.83 343.506 694.494 344.037 694.981 344.701C695.468 345.365 695.707 346.092 695.707 346.898C695.707 348.076 695.185 349.059 694.131 349.838C693.077 350.617 691.625 351.007 689.756 351.007V349.236Z" fill="#0D0D0D"></path><path d="M707.929 360.395L708.106 356.321L721.568 341.619L721.391 345.693L707.929 360.395ZM710.763 356.498L707.929 360.395V342.859H710.763V356.498ZM721.568 359.155H718.734V345.516L721.568 341.619V359.155Z" fill="#0D0D0D"></path><path d="M736.978 342.858V359.154H734.144V342.858H736.978ZM735.809 349.235H747.854V351.892H735.809V349.235ZM748.846 342.858V359.154H746.012V342.858H748.846Z" fill="#0D0D0D"></path><path d="M760.943 346.614C761.687 345.339 762.697 344.338 763.972 343.603C765.248 342.868 766.673 342.505 768.259 342.505C769.844 342.505 771.297 342.868 772.563 343.603C773.829 344.338 774.83 345.339 775.574 346.614C776.318 347.89 776.69 349.351 776.69 351.007C776.69 352.663 776.318 354.098 775.574 355.382C774.83 356.666 773.829 357.676 772.563 358.411C771.297 359.146 769.862 359.509 768.259 359.509C766.656 359.509 765.248 359.146 763.972 358.411C762.697 357.676 761.687 356.666 760.943 355.382C760.199 354.098 759.828 352.637 759.828 351.007C759.828 349.377 760.199 347.89 760.943 346.614ZM763.423 354.018C763.91 354.895 764.566 355.586 765.407 356.091C766.248 356.595 767.196 356.852 768.259 356.852C769.322 356.852 770.269 356.595 771.111 356.091C771.952 355.586 772.607 354.895 773.094 354.018C773.581 353.141 773.821 352.141 773.821 351.007C773.821 349.873 773.581 348.864 773.094 347.978C772.607 347.092 771.952 346.402 771.111 345.906C770.269 345.41 769.322 345.162 768.259 345.162C767.196 345.162 766.248 345.41 765.407 345.906C764.566 346.402 763.91 347.092 763.423 347.978C762.936 348.864 762.697 349.873 762.697 351.007C762.697 352.141 762.936 353.141 763.423 354.018Z" fill="#0D0D0D"></path><path d="M790.506 342.858V359.154H787.672V342.858H790.506ZM789.337 349.696H793.694C794.119 349.696 794.5 349.642 794.846 349.536C795.191 349.43 795.474 349.27 795.713 349.058C795.953 348.845 796.13 348.606 796.263 348.332C796.395 348.057 796.457 347.774 796.457 347.464C796.457 346.826 796.209 346.312 795.713 345.923C795.218 345.533 794.544 345.338 793.694 345.338H789.337V342.858H793.694C794.713 342.858 795.634 343.009 796.475 343.301C797.317 343.593 797.99 344.072 798.512 344.718C799.035 345.365 799.291 346.224 799.291 347.287C799.291 348.208 799.035 348.969 798.512 349.572C797.99 350.174 797.317 350.625 796.475 350.918C795.634 351.21 794.713 351.361 793.694 351.361H789.337V349.696ZM794.049 350.652C795.182 350.652 796.201 350.767 797.095 351.006C797.99 351.245 798.698 351.653 799.221 352.246C799.743 352.84 800 353.663 800 354.726C800 355.957 799.593 357.002 798.778 357.861C797.963 358.72 796.626 359.154 794.757 359.154H789.337V356.674H794.049C795.111 356.674 795.899 356.453 796.404 356.001C796.909 355.55 797.166 355.009 797.166 354.372C797.166 354.044 797.104 353.743 796.971 353.486C796.838 353.229 796.652 352.99 796.404 352.778C796.156 352.565 795.837 352.406 795.448 352.299C795.058 352.193 794.589 352.14 794.049 352.14H789.337V350.652H794.049Z" fill="#0D0D0D"></path></svg> 