<?xml version="1.0" encoding="UTF-8"?> <svg xmlns="http://www.w3.org/2000/svg" width="800" height="272" viewBox="0 0 800 272" fill="none"><path fill-rule="evenodd" clip-rule="evenodd" d="M160.419 165.64C160.264 167.636 158.603 169.178 156.598 169.178H11.4004C9.39917 169.178 7.73757 167.636 7.5799 165.64L6.06015 145.996C5.97947 144.932 6.34226 143.883 7.06312 143.101C7.78713 142.314 8.80909 141.866 9.87798 141.866H158.129C159.192 141.866 160.207 142.314 160.931 143.101C161.664 143.883 162.022 144.932 161.942 145.996L160.419 165.64Z" fill="#0D0D0D"></path><path fill-rule="evenodd" clip-rule="evenodd" d="M141.126 134.764H26.872L20.7034 4.2187C20.6533 3.17249 21.0345 2.15054 21.7554 1.39488C22.4805 0.632895 23.4834 0.203125 24.5275 0.203125H143.466C144.511 0.203125 145.513 0.632895 146.238 1.39488C146.963 2.15054 147.345 3.17196 147.295 4.2187L141.126 134.764Z" fill="#0D0D0D"></path><path fill-rule="evenodd" clip-rule="evenodd" d="M140.054 235.061V175.012H126.49V230.917C128.569 231.733 130.628 232.536 132.663 233.276C135.355 234.209 137.845 234.802 140.054 235.061Z" fill="#0D0D0D"></path><path fill-rule="evenodd" clip-rule="evenodd" d="M41.512 230.909V175.012H27.9449V235.061C30.1608 234.796 32.6835 234.193 35.4778 233.225C37.4442 232.509 39.4717 231.718 41.512 230.909Z" fill="#0D0D0D"></path><path fill-rule="evenodd" clip-rule="evenodd" d="M166.657 213.636C165.577 209.618 162.593 205.493 158.78 206.326C160.538 206.326 162.119 207.351 163.175 208.955C164.239 210.498 164.691 212.479 165.037 214.317C165.542 218.132 165.157 221.771 164.397 224.959C162.867 231.348 159.816 235.906 156.482 238.951C149.515 244.834 141.203 245.629 129.621 241.642C118.393 237.548 106.815 232.123 97.3606 228.916C92.0025 227.107 87.3409 226.029 83.9903 226.243C80.6365 226.029 75.9829 227.107 70.6157 228.916C61.1693 232.123 49.5987 237.548 38.3682 241.642C26.7866 245.629 18.4781 244.834 11.5116 238.951C8.17204 235.906 5.11461 231.348 3.57588 224.959C2.82813 221.771 2.43106 218.132 2.95944 214.317C3.29851 212.479 3.75411 210.498 4.81826 208.955C5.84759 207.366 7.45963 206.326 9.19716 206.349C5.4078 205.493 2.41629 209.618 1.32842 213.636C0.0986979 217.73 -0.147563 221.928 0.0718043 225.803C0.453588 233.715 2.72847 240.604 6.07804 246.523C12.9918 258.173 24.5613 265.349 40.1564 265.808C55.4831 266.101 69.1429 258.043 77.8064 249.985C80.2284 247.725 82.2939 245.462 83.9908 243.253C85.6988 245.462 87.758 247.726 90.1832 249.985C98.8688 258.042 112.503 266.101 127.843 265.808C143.4 265.349 155.006 258.173 161.907 246.523C165.25 240.604 167.551 233.715 167.941 225.803C168.122 221.928 167.887 217.73 166.657 213.636V213.636Z" fill="#0D0D0D"></path><path fill-rule="evenodd" clip-rule="evenodd" d="M69.4794 267.444C78.7324 274.526 91.6403 273.084 99.3556 264.459C102.91 260.495 97.0728 254.628 93.5059 258.606C88.0123 264.745 80.1277 265.25 73.6548 260.295C69.4177 257.053 65.2993 264.248 69.4794 267.444Z" fill="#0D0D0D"></path><path fill-rule="evenodd" clip-rule="evenodd" d="M306.058 76.1488C306.505 81.6562 305.464 88.9464 303.379 92.6683C300.999 96.9829 296.386 99.8109 291.176 99.8109C285.966 99.8109 280.163 97.5787 277.187 88.5014C276.146 85.2262 275.103 79.8685 275.103 65.2838C275.103 50.699 276.146 45.4912 277.187 42.2175C280.164 33.1381 286.117 30.9059 291.176 30.9059C296.683 30.9059 300.85 34.0314 303.082 38.0506C305.314 42.2175 305.91 50.254 305.76 54.7178H332.549C332.549 42.9616 328.382 30.0142 321.089 22.2752C316.029 16.9176 306.654 10.5169 290.581 10.6666C278.081 10.8164 266.919 14.6859 258.436 25.8457C251.738 34.6262 247.571 47.7228 247.571 65.7304C247.571 83.7381 251.738 96.8347 258.436 105.615C266.77 116.48 278.228 120.647 290.581 120.794C306.208 121.092 316.179 114.842 321.536 109.187C329.573 100.704 333.442 86.7137 333.59 76.1483H306.058V76.1488ZM339.544 13.6429V34.1816H360.975V117.819H387.168V34.1816H408.896V13.6429H339.545H339.544ZM411.872 13.6429L432.261 75.4047C433.898 80.166 435.832 88.2024 446.993 88.2024H452.798L452.5 89.6921C451.012 97.1321 445.505 99.9607 437.171 99.5135V120.497H437.766C444.91 120.497 452.203 120.497 458.899 116.33C469.466 109.782 473.93 94.8999 475.865 88.2019L496.998 13.6423H470.358L456.816 71.2378H454.731L438.509 13.6423H411.87L411.872 13.6429ZM523.935 13.6429L499.975 117.819H527.954L543.73 33.2884H546.408L562.184 117.819H590.161L566.201 13.6429H523.934H523.935ZM306.058 216.841C306.505 222.348 305.464 229.638 303.379 233.36C300.999 237.675 296.386 240.503 291.176 240.503C285.966 240.503 280.163 238.271 277.187 229.193C276.146 225.918 275.103 220.56 275.103 205.976C275.103 191.391 276.146 186.183 277.187 182.909C280.164 173.83 286.117 171.598 291.176 171.598C296.683 171.598 300.85 174.723 303.082 178.742C305.314 182.909 305.91 190.946 305.76 195.41H332.549C332.549 183.653 328.382 170.706 321.089 162.967C316.029 157.609 306.654 151.209 290.581 151.358C278.081 151.508 266.919 155.377 258.436 166.537C251.738 175.318 247.571 188.414 247.571 206.422C247.571 224.429 251.738 237.526 258.436 246.307C266.77 257.172 278.228 261.338 290.581 261.486C306.208 261.783 316.179 255.534 321.536 249.879C329.573 241.396 333.442 227.405 333.59 216.84H306.058V216.841ZM339.544 154.335V174.873H360.975V258.511H387.168V174.873H408.896V154.335H339.545H339.544ZM411.872 154.335L432.261 216.097C433.898 220.858 435.832 228.894 446.993 228.894H452.798L452.5 230.384C451.012 237.824 445.505 240.653 437.171 240.205V261.189H437.766C444.91 261.189 452.203 261.189 458.899 257.022C469.466 250.474 473.93 235.592 475.865 228.894L496.998 154.334H470.358L456.816 211.93H454.731L438.509 154.334H411.87L411.872 154.335ZM523.935 154.335L499.975 258.511H527.954L543.73 173.98H546.408L562.184 258.511H590.161L566.201 154.335H523.934H523.935ZM684.366 154.335V258.511H710.708V154.335H684.366ZM599.091 154.335V258.511H631.534C641.355 258.511 651.774 257.917 660.107 252.559C667.102 247.945 674.394 238.718 674.394 223.39C674.394 208.061 667.102 198.983 660.107 194.369C649.988 187.671 639.718 188.415 631.534 188.415H625.432V154.335H599.091H599.091ZM625.433 207.911H632.873C635.254 207.911 640.612 208.208 644.184 211.93C647.161 215.056 647.607 219.52 647.607 223.092C647.607 226.664 647.161 231.129 644.184 234.252C640.612 237.974 635.255 238.272 632.873 238.272H625.433V207.911V207.911ZM722.612 154.335V181.867C722.612 192.285 721.868 205.976 727.97 215.947C731.691 222.049 739.429 229.341 754.46 229.491C765.026 229.491 770.533 225.622 773.659 221.752V258.511H800V154.335H773.659V183.356C773.659 190.947 773.808 194.667 772.765 198.239C771.277 203 767.259 207.167 761.009 207.167C757.139 207.167 751.335 205.382 749.699 197.494C749.103 194.37 749.252 190.798 749.252 183.356V154.335H722.612V154.335Z" fill="#0D0D0D"></path></svg> 