<?xml version="1.0" encoding="UTF-8"?> <svg xmlns="http://www.w3.org/2000/svg" width="18" height="15" viewBox="0 0 18 15" fill="none"><path d="M17.9952 1.2842C17.746 3.9193 16.6662 10.3236 16.118 13.2755C15.8854 14.5264 15.4203 14.9433 14.9883 14.9934C14.0248 15.0767 13.2939 14.3596 12.3636 13.7425C10.9016 12.7752 10.071 12.1748 8.659 11.2408C7.0143 10.1568 8.0775 9.5564 9.0244 8.5891C9.2736 8.3389 13.5264 4.453 13.6095 4.1027C13.621 4.0497 13.6195 3.9946 13.605 3.9423C13.5905 3.89 13.5635 3.842 13.5264 3.8025C13.4268 3.7192 13.2939 3.7525 13.1776 3.7692C13.0281 3.8025 10.7023 5.3536 6.167 8.4223C5.5025 8.8726 4.9045 9.1061 4.3729 9.0894C3.7748 9.0727 2.6452 8.7558 1.798 8.4723C0.751357 8.1388 -0.0626531 7.9553 0.00379689 7.3716C0.0370169 7.0714 0.452336 6.7712 1.2331 6.4543C6.084 4.3362 9.3068 2.9353 10.9183 2.2682C15.5365 0.3336 16.4835 0 17.1147 0C17.2476 0 17.5633 0.0333999 17.7626 0.2001C17.9288 0.3336 17.9786 0.517 17.9952 0.6504C17.9786 0.7505 18.0118 1.0507 17.9952 1.2842Z" fill="white"></path></svg> 