<?xml version="1.0" encoding="UTF-8"?> <svg xmlns="http://www.w3.org/2000/svg" width="800" height="754" viewBox="0 0 800 754" fill="none"><path d="M790.289 57.6687C673.188 20.0594 538.254 0.177734 400 0.177734C261.746 0.177734 126.777 20.0594 9.71131 57.6687L0 60.7763L2.15415 70.7348C28.1098 190.978 78.3968 317.79 147.506 437.504C216.615 557.218 301.333 664.184 392.443 746.783L400 753.634L407.557 746.783C498.667 664.184 583.385 557.254 652.494 437.504C721.639 317.79 771.89 190.943 797.846 70.7348L800 60.7763L790.289 57.6687Z" fill="white"></path><path d="M399.965 11.478C261.887 11.478 128.542 31.3597 13.172 68.404C38.7745 186.847 88.2139 312.317 157.253 431.889C226.291 551.462 310.197 657.015 399.965 738.414C489.768 657.015 573.674 551.462 642.677 431.889C711.715 312.317 761.19 186.882 786.757 68.4393C671.387 31.3597 538.042 11.478 399.965 11.478ZM626.644 422.602C562.232 534.194 484.082 634.308 399.965 713.164C315.847 634.308 237.733 534.194 173.32 422.602C143.763 371.432 117.772 318.956 95.7358 266.303C185.857 239.429 290.386 225.021 400 225.021C509.614 225.021 614.143 239.429 704.264 266.303C682.228 318.956 656.202 371.397 626.68 422.567L626.644 422.602Z" fill="#A7A9AC"></path><path d="M137.3 290.034C217.18 269.764 307.724 258.781 399.964 258.781C492.204 258.781 582.749 269.799 662.629 290.069C633.353 347.807 596.556 406.075 554.074 461.235C506.824 522.575 454.03 578.089 399.964 624.103C345.899 578.089 293.105 522.575 245.855 461.235C203.372 406.075 166.575 347.807 137.3 290.069" fill="#ED1C24"></path><path d="M635.438 248.823C635.614 246.845 635.614 246.351 636.003 243.631C637.839 241.053 640.452 236.251 640.24 229.965V229.859V229.753C639.887 225.268 635.579 222.478 628.975 222.443H625.762L624.314 225.303C622.972 227.952 620.924 230.954 620.005 231.554L619.229 232.084C618.84 238.122 615.662 244.867 615.662 244.867C614.85 244.726 614.037 244.585 613.225 244.444C613.649 248.681 614.143 252.283 614.885 253.766C615.944 249.953 618.381 247.728 618.381 247.728C618.381 247.728 622.124 240.312 622.901 235.862C625.762 233.955 628.975 227.634 628.975 227.634C628.975 227.634 634.908 227.634 635.12 230.177C635.332 235.898 632.401 240.065 631.094 241.618C630.741 244.196 630.564 245.715 630.423 247.127H630.352L629.823 253.625L633.531 262.454C633.531 262.454 636.885 275.379 633.531 286.255C633.001 288.021 629.964 290.034 627.774 291.552C627.774 291.552 627.386 306.313 622.619 321.958C605.562 359.037 586.457 360.273 583.35 375.034C560.078 378.318 556.334 366.453 556.334 366.453C556.334 366.453 562.444 364.299 564.88 356.141C562.055 345.371 553.968 344.099 553.968 344.099C553.968 344.099 568.377 336.189 564.563 317.473C565.728 318.956 566.858 320.757 567.882 322.805C575.616 337.955 564.88 365.464 564.88 365.464L565.622 368.642C565.622 368.642 593.414 364.228 609.199 329.162C601.077 340.074 585.327 349.184 581.478 350.597C577.629 351.974 575.016 351.233 577.911 346.677C580.842 342.122 588.364 330.115 593.096 322.063C589.671 333.752 591.401 336.648 591.401 336.648C591.401 336.648 617.533 310.728 619.582 290.458C620.712 290.14 611.919 255.567 609.764 243.773C607.963 243.42 606.162 243.102 604.326 242.784C604.856 246.28 606.268 252.919 609.517 266.974C611.354 274.919 613.79 285.443 614.355 289.116C603.408 307.797 579.677 315.177 570.743 317.367C563.574 305.784 553.651 303.947 548.036 303.947C547.047 303.947 546.129 304.018 545.317 304.089C539.878 297.026 524.87 279.722 508.696 279.722C504.282 279.722 500.15 280.993 496.442 283.501C485.071 273.86 470.592 271.953 464.801 271.211C464.589 271.211 464.342 271.141 464.13 271.141C461.658 267.645 456.714 255.815 455.054 251.153C459.857 234.45 460.281 224.597 456.467 219.265C454.878 217.04 452.865 215.91 451.205 215.345L449.086 203.833L448.98 203.338L448.804 202.879C447.073 198.394 444.213 192.673 440.576 190.767C436.691 188.718 418.363 186.458 410.947 186.458C409.111 186.458 407.769 186.564 406.71 186.811C401.589 187.977 384.25 195.499 380.189 198.995L379.659 199.454L379.271 200.054C367.723 217.393 364.58 227.458 368.5 234.768C370.231 238.016 371.572 241.159 372.667 243.667C373.091 244.62 373.444 245.468 373.762 246.174C374.256 247.269 374.539 249.317 374.539 251.436V252.954L375.351 254.226L379.13 260.194L379.483 270.011V270.611L379.659 271.211C380.012 272.553 381.955 278.663 387.393 284.843C378.776 290.387 374.292 297.202 371.784 301.299C366.734 300.275 361.685 299.745 356.67 299.745C327.112 299.745 307.937 317.225 301.58 324.041C299.885 323.723 298.049 323.582 296.142 323.582C281.981 323.582 262.841 332.693 253.836 345.512C236.497 325.665 221.524 313.518 210.294 304.442C200.83 296.743 194.332 291.517 191.966 286.149C192.319 282.123 191.648 275.979 191.154 272.342C194.014 268.351 200.406 259.593 197.051 242.431C196.169 242.572 192.425 243.172 191.648 243.419C191.648 243.419 192.425 240.488 189.989 237.24C189.635 237.24 186.528 237.381 184.621 235.862C184.621 235.686 184.621 235.509 184.621 235.333C184.48 230.777 181.831 227.281 177.841 226.469C172.791 225.445 167.317 222.62 167.247 222.62L164.527 221.207L161.985 222.902L147.824 232.366L145.493 233.92V236.71L145.564 243.031L140.337 249.14L138.678 251.083L139.207 253.59L140.231 258.463L139.207 263.76L138.854 265.491L139.631 267.08L141.397 270.611L141.044 274.672L140.867 276.579L141.997 278.133L156.829 298.862L157.465 299.78L158.418 300.345C160.431 301.511 162.762 303.171 163.362 303.841C166.011 308.15 168.659 314.294 171.731 321.392C181.019 342.934 195.039 375.493 229.364 400.354L231.694 402.014L234.343 400.955C235.296 400.566 236.568 400.39 238.086 400.39C243.136 400.39 250.128 402.332 258.25 404.592C269.48 407.735 282.228 411.266 295.471 411.266C310.691 411.266 323.404 406.534 334.034 396.858C335.129 416.14 346.641 422.743 357.058 428.711C363.203 432.243 369.065 435.562 372.667 441.566C371.608 449.652 370.407 456.08 369.383 461.271C367.229 472.606 365.922 479.457 369.842 486.132L371.361 488.745C365.428 497.397 360.837 515.654 360.837 515.654C360.837 515.654 367.158 517.808 365.64 522.399C364.086 527.025 349.749 540.338 349.749 540.338C349.749 540.338 357.094 535.006 357.306 537.584C358.189 548.92 349.89 546.095 352.15 557.748C353.28 563.61 348.089 570.355 345.193 573.604C363.203 591.402 381.496 608.212 399.965 623.926C400.035 623.856 400.106 623.82 400.212 623.75C439.093 590.661 477.302 552.628 513.252 511.063C511.733 505.13 509.332 496.832 506.719 491.605L506.613 490.793C500.751 449.405 512.051 426.628 522.998 404.592C527.271 395.975 531.403 387.677 534.299 378.636C539.031 383.192 546.199 386.97 556.511 386.97C564.88 386.97 574.627 384.498 585.433 379.625L587.835 378.53L588.364 375.952C589.282 371.503 592.178 368.748 598.075 363.416C609.482 353.104 626.574 337.637 639.146 289.893C639.322 289.469 639.428 289.186 639.428 289.186H639.322C639.428 288.798 639.534 288.374 639.64 287.986C642.324 286.538 644.831 283.359 645.961 276.862C646.844 271.953 646.809 266.303 646.809 261.747C646.809 259.876 646.809 257.545 646.915 256.768L649.104 251.718C649.104 251.718 641.512 250.023 635.402 248.681L635.438 248.823Z" fill="#000F24"></path><path d="M444.037 233.214C446.579 218.912 459.363 219.477 447.956 244.761C447.25 246.315 444.39 249.07 444.107 250.2C442.589 255.921 447.074 255.921 448.204 255.815L449.581 251.153C454.101 235.933 455.055 226.186 452.194 222.266C451.064 220.713 449.581 220.183 448.698 220.006C445.732 220.642 441.282 223.114 442.306 232.19C442.447 233.461 443.613 234.132 444.001 233.214H444.037Z" fill="white"></path><path d="M442.695 309.033C443.472 308.786 446.968 308.786 450.994 306.208L447.78 262.489L442.695 309.033Z" fill="white"></path><path d="M471.405 510.957H471.123C458.516 510.957 445.591 505.73 431.96 500.186C417.022 494.147 401.554 487.862 385.239 487.862C384.003 487.862 382.803 487.897 381.567 487.968C419.953 491.64 477.62 551.78 503.753 498.597C499.939 503.929 491.216 510.78 471.44 510.922L471.405 510.957Z" fill="white"></path><path d="M175.546 289.646L160.608 278.169C160.608 278.169 178.124 270.894 181.373 268.21C184.621 265.526 184.551 261.783 184.551 261.783C184.551 261.783 190.272 260.547 191.72 258.004C192.249 257.086 192.638 256.345 192.991 255.674C193.167 254.226 193.203 252.778 192.92 251.401C192.85 251.083 192.744 250.694 192.638 250.341L187.129 250.094C187.129 250.094 189.636 245.75 186.776 241.689C186.316 241.689 182.008 241.901 176.252 241.301C171.061 241.478 166.576 241.866 166.223 239.959C165.94 238.335 176.641 240.1 176.641 240.1C176.641 240.1 176.852 240.136 177.206 240.206C179.783 239.5 180.666 232.437 176.782 231.66C170.92 230.46 164.846 227.317 164.846 227.317L150.685 236.781L150.755 245.044L144.258 252.637L145.494 258.534L144.258 264.855L146.659 269.693L146.165 275.238L160.996 295.967C160.996 295.967 166.47 299.145 167.671 301.087C175.122 313.023 181.478 336.189 197.299 359.779C201.431 364.158 218.593 380.543 234.379 368.395C251.259 355.4 175.193 313.482 175.51 289.716L175.546 289.646Z" fill="white"></path><path d="M320.898 354.905C319.732 352.221 318.249 349.855 316.413 348.16C315.142 346.995 308.962 344.947 307.69 343.958C287.35 328.385 266.197 337.707 257.227 355.188C254.225 355.965 250.093 357.059 250.093 357.059C250.093 357.059 247.339 371.256 253.872 382.839C250.623 386.476 247.021 388.383 243.243 389.054C248.222 396.293 272.094 403.25 272.412 391.561C272.412 391.561 299.356 399.295 303.1 375.175C272.659 383.333 267.009 367.936 267.009 367.936C284.171 339.968 319.626 356.565 319.626 356.565C320.615 357.165 321.498 357.942 322.31 358.755C322.063 357.942 321.781 357.165 321.498 356.424L320.898 354.941V354.905Z" fill="white"></path><path d="M429.699 392.868L460.669 387.924C461.799 384.958 468.05 366.7 455.831 352.222C451.523 347.101 457.456 335.342 452.441 329.727C449.757 326.725 442.094 328.385 434.784 324.747C428.64 321.675 424.155 315.142 419.034 315.636C413.949 316.131 395.833 322.487 374.08 307.232C367.935 305.643 362.108 304.972 356.599 304.972C346.217 304.972 337.071 307.373 329.337 310.763C314.929 317.932 313.34 333.894 313.34 333.894C315.671 336.825 317.684 340.25 319.343 343.888C322.945 345.335 328.242 347.878 329.69 350.597C331.032 353.104 330.22 360.556 329.372 366.171C332.409 363.769 339.755 358.755 347.1 359.32C356.67 360.061 372.808 376.8 412.113 389.796C413.278 391.703 417.198 400.425 429.664 392.868H429.699Z" fill="white"></path><path d="M405.969 417.058C415.327 439.27 436.586 431.077 436.586 431.077C436.586 431.077 426.875 436.798 416.528 435.809C407.346 448.628 421.224 452.619 424.297 452.16C428.146 451.595 428.676 446.827 433.725 446.933C438.775 447.075 444.708 471.688 442.448 471.229C440.718 471.159 439.446 470.664 438.493 469.887L429.064 480.27C434.326 487.791 438.034 496.902 445.52 499.622C445.873 499.763 446.191 499.869 446.509 499.975C454.066 501.14 463.354 502.094 464.166 499.939C465.543 496.267 464.625 483.483 464.625 483.483C464.625 483.483 452.689 482.035 447.039 476.173C441.389 470.311 464.343 479.74 465.437 476.491C466.532 473.242 466.497 461.341 466.497 461.341C466.497 461.341 450.111 459.187 446.933 455.903C443.79 452.619 463.036 458.092 466.391 452.689C469.746 447.322 469.075 438.493 469.075 438.493C469.075 438.493 451.135 437.893 451.736 434.75C452.336 431.607 473.665 421.437 473.665 421.437L482.953 423.167L484.86 413.067L459.646 401.414L486.484 397.105L489.839 389.725H491.393C491.146 387.041 490.581 384.145 489.451 381.32C509.933 359.602 479.633 336.648 466.25 320.58C465.014 325.206 463.601 328.349 462.471 330.504C462.471 330.504 479.139 372.209 480.693 376.058C482.247 379.908 472.818 392.974 469.039 393.68L419.776 403.815L419.565 403.886C418.399 404.274 417.199 404.521 415.998 404.627H415.821H415.892C400.919 405.687 382.273 385.417 382.273 385.417L383.156 392.832C383.156 392.832 369.949 389.69 351.02 385.063C346.924 408.123 373.092 416.74 381.991 418.223C381.991 418.223 398.447 414.692 406.039 416.987L405.969 417.058Z" fill="white"></path><path d="M494.96 461.623C494.289 461.164 493.406 468.474 490.228 472.359C487.049 476.243 481.434 475.82 482.353 476.985C484.26 479.28 491.181 478.786 493.512 476.879C495.842 475.007 496.337 462.506 494.96 461.623Z" fill="white"></path><path d="M488.215 494.501C486.096 498.28 480.163 497.962 480.94 498.633C482.529 499.939 488.073 499.975 490.404 497.75C492.735 495.525 493.406 483.095 491.852 483.483C491.075 483.695 490.404 490.652 488.215 494.501Z" fill="white"></path><path d="M495.772 439.27C494.606 439.199 494.253 445.591 491.463 449.617C488.285 454.243 483.412 455.02 484.189 456.15C485.071 457.386 491.181 458.163 494.889 455.832C498.561 453.502 498.244 439.376 495.772 439.27Z" fill="white"></path><path d="M400.742 445.909C398.976 454.879 398.588 465.367 402.826 469.64C408.158 475.078 412.855 473.03 416.669 472.041L428.675 456.433C428.146 456.715 427.404 456.962 426.097 457.139C421.966 457.739 406.71 454.243 400.742 445.874V445.909Z" fill="white"></path><path d="M392.196 483.059C391.207 480.516 389.618 475.89 388.665 470.381C387.464 463.424 389.901 442.059 393.044 433.16C386.546 436.48 378.848 440.718 377.753 442.695C374.575 466.92 369.913 476.102 374.327 483.624C378 482.988 381.637 482.706 385.239 482.706C387.57 482.706 389.901 482.847 392.196 483.059Z" fill="white"></path><path d="M534.44 354.835C534.44 354.835 540.514 337.249 542.81 310.163C542.033 311.858 538.854 318.991 535.641 331.104C531.898 345.124 508.626 358.755 505.836 366.277C503.011 373.798 505.907 374.681 504.882 377.471C504.282 379.06 499.868 386.158 496.16 392.02L497.678 394.351L528.649 379.378C529.92 375.705 530.979 371.927 531.792 368.007L532.745 361.968C532.745 361.968 539.137 369.384 548.989 372.315C539.066 363.028 534.511 354.87 534.511 354.87L534.44 354.835Z" fill="white"></path><path d="M629.788 253.59L630.317 247.092C630.317 247.092 630.353 247.092 630.388 247.092C630.529 245.644 630.706 244.126 631.059 241.583C632.366 240.029 635.297 235.827 635.085 230.141C634.873 227.634 628.94 227.599 628.94 227.599C628.94 227.599 625.762 233.92 622.866 235.827C622.125 240.241 618.346 247.692 618.346 247.692C618.346 247.692 615.909 249.882 614.85 253.731C614.108 252.248 613.614 248.646 613.19 244.408C612.025 244.196 610.86 243.984 609.694 243.772C611.848 255.567 620.677 290.139 619.547 290.457C617.499 310.763 591.366 336.648 591.366 336.648C591.366 336.648 589.636 333.752 593.061 322.063C588.329 330.115 580.807 342.157 577.876 346.677C574.945 351.232 577.559 351.974 581.443 350.597C585.292 349.184 601.042 340.073 609.164 329.161C593.344 364.228 565.587 368.642 565.587 368.642L564.846 365.464C564.846 365.464 575.546 337.954 567.847 322.805C566.823 320.757 565.693 318.991 564.528 317.472C568.306 336.189 553.934 344.099 553.934 344.099C553.934 344.099 562.02 345.37 564.846 356.141C562.409 364.299 556.3 366.453 556.3 366.453C556.3 366.453 560.078 378.283 583.315 375.034C586.422 360.237 605.562 359.037 622.584 321.957C627.351 306.313 627.74 291.552 627.74 291.552C629.929 290.034 632.966 287.985 633.496 286.255C636.851 275.378 633.496 262.453 633.496 262.453L629.788 253.625V253.59Z" fill="white"></path><path d="M377.399 241.689C377.788 242.572 378.106 243.384 378.423 244.09C379.553 246.633 379.659 250.164 379.659 251.471L383.968 258.251C384.109 258.498 384.18 258.746 384.215 259.028L384.603 269.834C384.886 270.823 386.828 277.144 392.796 283.041C393.467 282.547 394.067 282.159 394.597 281.841C395.657 293.035 400.318 294.413 406.392 303.064C407.946 304.548 409.005 306.843 415.22 305.925C416.103 305.748 414.655 304.371 415.468 304.124C416.28 303.841 419.282 305.678 422.177 305.042C429.558 303.453 434.678 295.331 437.327 289.186C435.914 283.96 439.587 274.072 430.017 268.104C430.935 262.771 432.948 254.367 432.948 254.367L438.457 240.594L439.128 239.005L433.937 236.886L431.288 239.429L420.623 233.743L421.436 209.553L412.678 201.572L418.01 195.64L441.423 199.206C440.329 197.335 439.199 195.816 438.21 195.322C435.738 194.015 418.752 191.579 410.983 191.579C409.676 191.579 408.617 191.649 407.946 191.79C403.002 192.921 386.722 200.195 383.579 202.879C371.325 221.242 370.972 228.34 373.056 232.295C374.927 235.792 376.305 239.04 377.435 241.689H377.399ZM415.891 294.024C412.077 293.459 409.888 294.907 408.228 295.119C406.569 295.331 405.438 294.695 405.191 293.706C404.944 292.717 411.159 291.517 415.114 291.729C415.114 291.729 418.046 291.058 419.952 288.833C421.859 286.608 421.895 289.786 421.895 289.786C421.895 289.786 419.67 294.236 415.891 293.989V294.024ZM405.227 256.662H405.191C405.121 254.19 405.085 251.683 405.191 249.564L416.421 241.901L429.346 242.219L418.646 246.809L421.365 247.374L426.38 250.871L421.859 250.058L418.222 249.423L416.951 254.543L412.183 255.426L411.089 252.283L409.182 253.766C409.076 262.877 411.654 272.412 412.642 273.719C413.066 274.284 415.362 273.542 415.927 273.083C416.492 272.624 416.209 270.187 416.35 270.258C417.057 270.682 418.363 270.894 418.434 271.423C418.575 273.189 419.67 274.707 419.211 275.555C419.07 275.802 416.068 276.897 415.432 277.144C414.973 277.321 416.492 275.449 415.927 275.59C414.62 275.908 415.009 275.802 414.267 275.979C413.525 276.155 411.548 278.804 410.771 279.475C409.994 280.146 405.403 280.887 404.52 280.252C403.637 279.581 402.331 277.674 402.331 277.674C402.331 277.674 407.84 277.533 407.522 275.837C407.275 274.46 405.721 265.808 405.297 256.733L405.227 256.662ZM401.13 286.255C401.13 286.255 404.768 284.489 410.171 285.478C411.83 281.77 424.19 280.428 424.19 280.428L426.521 282.159L426.344 282.724L424.367 282.194C424.367 282.194 413.878 285.443 411.442 289.327C408.087 287.209 401.519 287.385 401.519 287.385L400.318 288.268L399.965 287.809L401.095 286.29L401.13 286.255ZM385.239 250.341L397.422 251.965C397.563 253.66 397.775 255.426 398.058 257.156L391.913 254.684L390.783 259.275L386.122 260.123L384.109 254.261L385.839 252.813L384.215 252.495L381.743 252.601L385.274 250.341H385.239Z" fill="white"></path><path d="M147.576 85.3904C147.223 83.8366 146.482 83.1656 145.387 83.4128L73.5586 99.9397C72.4639 100.187 72.1108 101.105 72.4639 102.659L76.1012 118.409C76.525 120.351 77.5844 121.128 79.2089 120.74L101.527 115.619L103.081 116.573L122.998 203.197L126.459 204.963L143.763 200.973L146.093 197.865L126.176 111.24L126.988 109.722L150.26 104.389C151.355 104.142 151.673 103.047 151.249 101.105L147.647 85.3551L147.576 85.3904Z" fill="#000F24"></path><path d="M225.091 70.7349L208.317 73.3128C206.586 73.5953 205.209 75.7847 204.22 79.8812L191.931 133.064L190.872 135.112L182.326 79.7752L179.077 77.8329L161.385 80.5521L159.372 83.3066L175.899 190.519C176.252 192.709 177.205 193.662 178.794 193.415L195.568 190.837C197.546 190.519 198.782 189.213 199.347 186.917L211.672 128.438L212.696 126.566L221.595 184.304L224.914 186.317L242.465 183.598L244.725 180.738L228.092 72.7124L225.091 70.7349Z" fill="#000F24"></path><path d="M317.119 64.4845C316.978 62.8954 316.342 62.1185 315.212 62.2244L241.794 68.5809C240.664 68.6868 240.17 69.5344 240.311 71.1235L241.688 87.2266C241.865 89.2042 242.783 90.1223 244.443 89.9811L267.256 88.0035L268.633 89.1689L276.296 177.701L279.474 179.925L297.166 178.407L299.921 175.652L292.258 87.1207L293.282 85.7434L317.048 83.6952C318.178 83.5893 318.637 82.5652 318.461 80.5876L317.083 64.4845H317.119Z" fill="#000F24"></path><path d="M466.778 62.0476L463.706 64.343L462.258 99.904L460.916 101.634L440.682 100.822L439.375 99.7981L440.858 63.4248L438.068 60.8822L420.164 60.1406L417.657 62.436L413.243 170.814C413.137 173.004 413.914 174.134 415.538 174.204L433.442 174.946C435.384 175.017 436.373 173.957 436.479 171.768L438.421 124.412L460.034 125.295L461.27 126.142L459.327 173.498L462.188 176.111L479.915 176.818L482.67 174.452L487.119 65.2611L484.577 62.7538L466.849 62.0476H466.778Z" fill="#000F24"></path><path d="M535.252 124.129L501.492 120.951C499.832 120.81 498.914 121.586 498.773 123.352L497.537 136.736C497.36 138.502 498.102 139.455 499.762 139.597L533.522 142.775C535.111 142.916 535.994 142.139 536.17 140.373L537.406 126.99C537.583 125.224 536.841 124.27 535.252 124.129Z" fill="#000F24"></path><path d="M576.746 108.909C577.84 101.634 581.866 97.3967 588.823 96.0901C590.907 95.8782 594.332 96.0901 599.029 96.7964C604.644 97.6439 610.647 99.4449 617.074 102.199C618.875 101.776 619.829 101.281 619.899 100.752L622.795 81.5055C622.901 80.6933 621.877 79.7398 619.723 78.6097C617.215 77.1619 614.284 76.1024 610.929 75.4315L601.642 74.0189L592.354 72.6064C588.293 72.1473 583.42 72.6064 577.699 73.913C564.103 77.0912 556.193 86.1669 553.933 101.14L546.623 149.767C546.058 153.475 546.199 158.066 547.082 163.504C548.989 175.017 555.275 182.786 565.94 186.811C568.659 187.765 572.79 188.648 578.299 189.495C585.468 190.555 591.154 190.625 595.427 189.636C607.327 186.599 614.108 179.36 615.838 167.918L621.63 129.285L620.288 127.449L585.963 122.293L583.914 123.6L581.407 140.374L582.89 142.81L595.356 144.682L592.919 160.962C592.46 164.105 591.154 166.294 589.035 167.565C586.916 168.837 583.95 169.19 580.136 168.625C572.084 167.424 568.729 162.304 570.107 153.299L576.781 108.874L576.746 108.909Z" fill="#000F24"></path><path d="M704.017 97.1849C698.402 94.0773 691.657 91.6407 683.747 89.8396C678.061 88.533 672.976 88.0386 668.526 88.2858C653.942 89.204 644.937 96.973 641.617 111.664C639.357 121.657 642.006 131.475 649.563 141.151C652.388 144.859 657.226 150.368 664.112 157.642C668.668 163.187 670.398 168.413 669.268 173.322C668.173 178.089 664.924 180.879 659.451 181.726C657.509 181.832 654.895 181.514 651.576 180.773C648.503 180.067 645.043 179.007 641.264 177.595C640.346 177.241 639.039 176.641 637.309 175.864C636.709 175.511 636.108 175.123 635.402 174.664C634.696 174.204 633.848 173.639 632.789 172.968L631.623 172.686C629.681 172.262 628.657 172.333 628.516 172.968L624.208 191.932C623.96 193.097 624.843 194.121 626.856 195.075C632.753 198.077 640.099 200.549 648.821 202.561L655.248 204.009C659.981 204.928 664.042 205.033 667.396 204.292C682.723 201.184 691.904 192.991 694.906 179.643C695.895 175.264 696.283 170.885 696.001 166.541C695.612 158.772 692.045 150.403 685.23 141.504C682.723 138.255 678.803 133.876 673.47 128.367C670.822 125.507 669.303 123.423 668.88 122.046C667.608 119.715 667.185 117.49 667.679 115.336C668.668 110.957 671.669 109.156 676.649 109.969C677.072 109.969 678.873 110.322 682.016 111.028C684.771 111.664 686.325 112.052 686.607 112.229C688.832 113.006 693.105 114.842 699.391 117.702C699.461 117.844 699.885 117.985 700.627 118.126C702.463 118.55 703.487 118.161 703.77 117.031L707.372 101.281C707.69 99.9394 706.595 98.5622 704.123 97.1496L704.017 97.1849Z" fill="#000F24"></path><path d="M368.853 60.5994L345.157 61.235C343.815 61.2703 342.756 63.0007 342.014 66.3908L320.402 172.862V173.674C320.473 175.334 321.073 176.146 322.168 176.111L339.931 175.617C341.308 175.581 342.368 174.169 343.109 171.414C343.533 169.472 344.557 165.199 346.217 158.631L347.771 156.83L372.526 156.159C373.126 156.159 373.691 156.971 374.221 158.701C375.845 163.892 377.116 168.095 378.035 171.308C378.741 173.498 379.871 174.557 381.425 174.522L399.964 174.027C400.671 174.027 401.13 173.78 401.377 173.392C401.624 172.968 401.765 172.368 401.73 171.485L372.455 64.6605C371.749 61.9413 370.548 60.5994 368.888 60.67L368.853 60.5994ZM351.302 133.84L357.341 101.599C357.341 101.599 357.447 101.352 357.658 101.352C358.471 101.352 358.965 101.669 359.142 102.376L367.228 133.417L351.337 133.84H351.302Z" fill="#000F24"></path></svg> 