<?xml version="1.0" encoding="UTF-8"?> <svg xmlns="http://www.w3.org/2000/svg" width="800" height="315" viewBox="0 0 800 315" fill="none"><path d="M106.392 113.117L85.2103 149.619V167.607L116.821 113.117H106.392Z" fill="#0D0D0D"></path><path d="M207.124 167.243C217.149 161.988 222.404 153.216 222.404 141.938C222.404 119.827 208.256 113.117 178.141 113.117H125.835L85.2103 183.169V228.644H184.043C212.864 228.644 227.174 217.488 227.174 195.7C227.174 181.229 220.342 171.487 207.124 167.202V167.243ZM129.917 140.2H159.992C170.502 140.2 175.595 140.524 175.595 148.325C175.595 156.127 170.663 156.612 159.992 156.612H129.917V140.2ZM161.609 199.904H129.917V180.825H161.609C173.695 180.825 179.112 181.957 179.112 190.526C179.112 199.096 173.372 199.904 161.609 199.904Z" fill="#0D0D0D"></path><path d="M97.3774 113.117H85.2103V134.096L97.3774 113.117Z" fill="#0D0D0D"></path><path d="M565.954 181.714H328.028V193.033H565.954V181.714Z" fill="#EC1C29"></path><path d="M629.822 181.714H597.241V193.033H629.822V181.714Z" fill="#EC1C29"></path><path d="M798.949 181.714H659.128V193.033H798.949V181.714Z" fill="#EC1C29"></path><path d="M338.659 186.363H328.028C328.028 92.8253 262.382 10.7274 188.005 10.7274V0.136719C227.821 0.136719 265.737 20.6309 294.76 57.8599C322.45 93.3508 338.699 140.2 338.699 186.403L338.659 186.363Z" fill="#EC1C29"></path><path d="M35.8951 180.017C35.8951 180.017 35.9759 179.936 35.9759 179.895C36.3802 179.168 36.7844 178.723 36.7844 178.723L46.0411 173.226L45.7986 164.212L44.5455 163.807C44.5455 163.807 43.5349 167.728 39.614 169.143C33.591 171.285 30.3168 165.828 30.3168 165.828L28.2553 155.157L19.7666 152.408L18.9581 153.459C18.9581 153.459 22.2727 155.723 22.2727 159.927C22.2727 166.394 16.1285 167.728 16.1285 167.728L5.25491 166.394L0 173.711L0.848871 174.762C0.848871 174.762 2.91041 173.226 5.61872 173.226C12.4097 173.226 13.2586 179.653 13.3394 180.461C13.3394 180.583 13.3394 180.623 13.3394 180.623L8.24617 190.203L13.0564 197.803L14.35 197.479C14.35 197.479 13.2181 193.599 15.8456 190.365C19.9282 185.352 25.5065 188.303 25.5065 188.303L33.0655 196.307L41.7564 194.043V192.669C41.7564 192.669 39.2097 192.548 37.1078 190.769C32.0146 186.525 35.3292 180.946 35.9759 179.976L35.8951 180.017ZM24.213 183.453C20.4133 183.453 17.3412 180.381 17.3412 176.581C17.3412 172.781 20.4133 169.709 24.213 169.709C28.0127 169.709 31.0848 172.781 31.0848 176.581C31.0848 180.381 28.0127 183.453 24.213 183.453Z" fill="#0D0D0D"></path><path d="M51.094 123.546C51.094 123.546 51.1748 123.465 51.1748 123.425C51.579 122.697 51.9832 122.252 51.9832 122.252L61.24 116.755L60.9974 107.741L59.7443 107.337C59.7443 107.337 58.7338 111.258 54.8128 112.672C48.7899 114.815 45.5157 109.358 45.5157 109.358L43.4541 98.6862L34.9654 95.9375L34.157 96.9885C34.157 96.9885 37.4716 99.2521 37.4716 103.456C37.4716 109.924 31.3274 111.258 31.3274 111.258L20.4538 109.924L15.1989 117.24L16.0477 118.291C16.0477 118.291 18.1093 116.755 20.8176 116.755C27.6085 116.755 28.4574 123.182 28.5382 123.991C28.5382 124.112 28.5382 124.152 28.5382 124.152L23.445 133.732L28.2553 141.332L29.5488 141.008C29.5488 141.008 28.417 137.128 31.0444 133.894C35.1271 128.882 40.7054 131.833 40.7054 131.833L48.2644 139.836L56.9552 137.573V136.198C56.9552 136.198 54.4086 136.077 52.3066 134.298C47.2134 130.054 50.528 124.476 51.1748 123.506L51.094 123.546ZM39.4119 126.982C35.6122 126.982 32.5401 123.91 32.5401 120.11C32.5401 116.31 35.6122 113.238 39.4119 113.238C43.2116 113.238 46.2837 116.31 46.2837 120.11C46.2837 123.91 43.2116 126.982 39.4119 126.982Z" fill="#0D0D0D"></path><path d="M98.0648 79.8497C98.0648 79.8497 98.1456 79.7689 98.1456 79.7285C98.5498 79.0008 98.9541 78.5562 98.9541 78.5562L108.211 73.0588L107.968 64.0446L106.715 63.6403C106.715 63.6403 105.705 67.5613 101.784 68.9761C95.7607 71.1185 92.4865 65.6614 92.4865 65.6614L90.4249 54.9899L81.9362 52.2412L81.1278 53.2922C81.1278 53.2922 84.4424 55.5558 84.4424 59.7598C84.4424 66.2274 78.2982 67.5613 78.2982 67.5613L67.4246 66.2274L62.1697 73.5438L63.0185 74.5948C63.0185 74.5948 65.0801 73.0588 67.7884 73.0588C74.5794 73.0588 75.4282 79.4859 75.5091 80.2944C75.5091 80.4156 75.5091 80.4561 75.5091 80.4561L70.4158 90.0362L75.2261 97.6356L76.5196 97.3122C76.5196 97.3122 75.3878 93.4316 78.0153 90.1979C82.0979 85.1855 87.6762 88.1363 87.6762 88.1363L95.2352 96.1399L103.926 93.8763V92.5019C103.926 92.5019 101.379 92.3807 99.2774 90.6021C94.1842 86.3577 97.4989 80.7794 98.1456 79.8093L98.0648 79.8497ZM86.3827 83.2856C82.583 83.2856 79.5109 80.2135 79.5109 76.4138C79.5109 72.6141 82.583 69.542 86.3827 69.542C90.1824 69.542 93.2545 72.6141 93.2545 76.4138C93.2545 80.2135 90.1824 83.2856 86.3827 83.2856Z" fill="#0D0D0D"></path><path d="M161.366 62.5895C161.366 62.5895 161.447 62.5086 161.447 62.4682C161.851 61.7406 162.255 61.2959 162.255 61.2959L171.512 55.7985L171.27 46.7843L170.017 46.3801C170.017 46.3801 169.006 50.3011 165.085 51.7158C159.062 53.8582 155.788 48.4012 155.788 48.4012L153.726 37.7297L145.238 34.981L144.429 36.0319C144.429 36.0319 147.744 38.2956 147.744 42.4995C147.744 48.9671 141.6 50.3011 141.6 50.3011L130.726 48.9671L125.471 56.2836L126.32 57.3345C126.32 57.3345 128.381 55.7985 131.09 55.7985C137.881 55.7985 138.73 62.2257 138.81 63.0341C138.81 63.1554 138.81 63.1958 138.81 63.1958L133.717 72.7759L138.528 80.3753L139.821 80.0519C139.821 80.0519 138.689 76.1714 141.317 72.9376C145.399 67.9252 150.978 70.8761 150.978 70.8761L158.537 78.8797L167.227 76.616V75.2417C167.227 75.2417 164.681 75.1204 162.579 73.3418C157.486 69.0975 160.8 63.5192 161.447 62.549L161.366 62.5895ZM149.684 66.0254C145.884 66.0254 142.812 62.9533 142.812 59.1536C142.812 55.3539 145.884 52.2817 149.684 52.2817C153.484 52.2817 156.556 55.3539 156.556 59.1536C156.556 62.9533 153.484 66.0254 149.684 66.0254Z" fill="#0D0D0D"></path><path d="M221.394 79.9713C221.394 79.9713 221.474 79.8905 221.474 79.85C221.879 79.1224 222.283 78.6778 222.283 78.6778L231.54 73.1803L231.297 64.1661L230.044 63.7619C230.044 63.7619 229.033 67.6829 225.112 69.0977C219.09 71.2401 215.815 65.783 215.815 65.783L213.754 55.1115L205.265 52.3628L204.457 53.4138C204.457 53.4138 207.771 55.6774 207.771 59.8814C207.771 66.3489 201.627 67.6829 201.627 67.6829L190.753 66.3489L185.499 73.6654L186.347 74.7164C186.347 74.7164 188.409 73.1803 191.117 73.1803C197.908 73.1803 198.757 79.6075 198.838 80.4159C198.838 80.5372 198.838 80.5776 198.838 80.5776L193.745 90.1577L198.555 97.7572L199.848 97.4338C199.848 97.4338 198.717 93.5532 201.344 90.3194C205.427 85.3071 211.005 88.2579 211.005 88.2579L218.564 96.2615L227.255 93.9979V92.6235C227.255 92.6235 224.708 92.5022 222.606 90.7237C217.513 86.4793 220.828 80.901 221.474 79.9309L221.394 79.9713ZM209.712 83.4072C205.912 83.4072 202.84 80.3351 202.84 76.5354C202.84 72.7357 205.912 69.6636 209.712 69.6636C213.511 69.6636 216.583 72.7357 216.583 76.5354C216.583 80.3351 213.511 83.4072 209.712 83.4072Z" fill="#0D0D0D"></path><path d="M267.071 124.718C267.071 124.718 267.152 124.638 267.152 124.597C267.556 123.87 267.96 123.425 267.96 123.425L277.217 117.927L276.974 108.913L275.721 108.509C275.721 108.509 274.711 112.43 270.79 113.845C264.767 115.987 261.493 110.53 261.493 110.53L259.431 99.8586L250.942 97.1099L250.134 98.1608C250.134 98.1608 253.449 100.425 253.449 104.628C253.449 111.096 247.304 112.43 247.304 112.43L236.431 111.096L231.176 118.412L232.025 119.463C232.025 119.463 234.086 117.927 236.795 117.927C243.585 117.927 244.434 124.355 244.515 125.163C244.515 125.284 244.515 125.325 244.515 125.325L239.422 134.905L244.232 142.504L245.526 142.181C245.526 142.181 244.394 138.3 247.021 135.067C251.104 130.054 256.682 133.005 256.682 133.005L264.241 141.009L272.932 138.745V137.371C272.932 137.371 270.386 137.249 268.284 135.471C263.19 131.226 266.505 125.648 267.152 124.678L267.071 124.718ZM255.389 128.154C251.589 128.154 248.517 125.082 248.517 121.282C248.517 117.483 251.589 114.411 255.389 114.411C259.189 114.411 262.261 117.483 262.261 121.282C262.261 125.082 259.189 128.154 255.389 128.154Z" fill="#0D0D0D"></path><path d="M284.452 181.229C284.452 181.229 284.533 181.148 284.533 181.108C284.938 180.38 285.342 179.936 285.342 179.936L294.599 174.438L294.356 165.424L293.103 165.02C293.103 165.02 292.092 168.941 288.171 170.355C282.148 172.498 278.874 167.041 278.874 167.041L276.813 156.369L268.324 153.621L267.515 154.672C267.515 154.672 270.83 156.935 270.83 161.139C270.83 167.607 264.686 168.941 264.686 168.941L253.812 167.607L248.557 174.923L249.406 175.974C249.406 175.974 251.468 174.438 254.176 174.438C260.967 174.438 261.816 180.865 261.897 181.674C261.897 181.795 261.897 181.835 261.897 181.835L256.804 191.416L261.614 199.015L262.907 198.692C262.907 198.692 261.776 194.811 264.403 191.577C268.486 186.565 274.064 189.516 274.064 189.516L281.623 197.519L290.314 195.256V193.881C290.314 193.881 287.767 193.76 285.665 191.981C280.572 187.737 283.887 182.159 284.533 181.189L284.452 181.229ZM272.77 184.665C268.971 184.665 265.899 181.593 265.899 177.793C265.899 173.993 268.971 170.921 272.77 170.921C276.57 170.921 279.642 173.993 279.642 177.793C279.642 181.593 276.57 184.665 272.77 184.665Z" fill="#0D0D0D"></path><path d="M268.526 237.012C268.526 237.012 268.607 236.931 268.607 236.891C269.011 236.163 269.415 235.719 269.415 235.719L278.672 230.221L278.43 221.207L277.176 220.803C277.176 220.803 276.166 224.724 272.245 226.139C266.222 228.281 262.948 222.824 262.948 222.824L260.886 212.153L252.397 209.404L251.589 210.455C251.589 210.455 254.904 212.718 254.904 216.922C254.904 223.39 248.759 224.724 248.759 224.724L237.886 223.39L232.631 230.706L233.48 231.757C233.48 231.757 235.541 230.221 238.25 230.221C245.041 230.221 245.889 236.649 245.97 237.457C245.97 237.578 245.97 237.619 245.97 237.619L240.877 247.199L245.687 254.798L246.981 254.475C246.981 254.475 245.849 250.594 248.477 247.36C252.559 242.348 258.137 245.299 258.137 245.299L265.696 253.303L274.387 251.039V249.665C274.387 249.665 271.841 249.543 269.739 247.765C264.646 243.52 267.96 237.942 268.607 236.972L268.526 237.012ZM256.844 240.448C253.044 240.448 249.972 237.376 249.972 233.576C249.972 229.777 253.044 226.705 256.844 226.705C260.644 226.705 263.716 229.777 263.716 233.576C263.716 237.376 260.644 240.448 256.844 240.448Z" fill="#0D0D0D"></path><path d="M222.768 281.881C222.768 281.881 222.849 281.8 222.849 281.76C223.253 281.032 223.657 280.587 223.657 280.587L232.914 275.09L232.671 266.076L231.418 265.672C231.418 265.672 230.408 269.593 226.487 271.007C220.464 273.15 217.149 267.693 217.149 267.693L215.088 257.021L206.599 254.272L205.79 255.323C205.79 255.323 209.105 257.587 209.105 261.791C209.105 268.259 202.961 269.593 202.961 269.593L192.087 268.259L186.832 275.575L187.681 276.626C187.681 276.626 189.743 275.09 192.451 275.09C199.242 275.09 200.091 281.517 200.172 282.326C200.172 282.447 200.172 282.487 200.172 282.487L195.078 292.067L199.889 299.667L201.182 299.343C201.182 299.343 200.05 295.463 202.678 292.229C206.761 287.217 212.339 290.168 212.339 290.168L219.898 298.171L228.589 295.908V294.533C228.589 294.533 226.042 294.412 223.94 292.633C218.847 288.389 222.161 282.811 222.808 281.841L222.768 281.881ZM211.086 285.317C207.286 285.317 204.214 282.245 204.214 278.445C204.214 274.645 207.286 271.573 211.086 271.573C214.885 271.573 217.958 274.645 217.958 278.445C217.958 282.245 214.885 285.317 211.086 285.317Z" fill="#0D0D0D"></path><path d="M159.426 297.08C159.426 297.08 159.507 296.999 159.507 296.958C159.911 296.231 160.315 295.786 160.315 295.786L169.572 290.289L169.329 281.275L168.076 280.87C168.076 280.87 167.066 284.791 163.145 286.206C157.122 288.348 153.807 282.891 153.807 282.891L151.746 272.22L143.257 269.471L142.449 270.522C142.449 270.522 145.763 272.786 145.763 276.99C145.763 283.457 139.619 284.791 139.619 284.791L128.745 283.457L123.49 290.774L124.339 291.825C124.339 291.825 126.401 290.289 129.109 290.289C135.9 290.289 136.749 296.716 136.83 297.524C136.83 297.646 136.83 297.686 136.83 297.686L131.737 307.266L136.547 314.866L137.84 314.542C137.84 314.542 136.709 310.662 139.336 307.428C143.419 302.415 148.997 305.366 148.997 305.366L156.556 313.37L165.247 311.106V309.732C165.247 309.732 162.7 309.611 160.598 307.832C155.505 303.588 158.82 298.009 159.466 297.039L159.426 297.08ZM147.744 300.516C143.944 300.516 140.872 297.444 140.872 293.644C140.872 289.844 143.944 286.772 147.744 286.772C151.544 286.772 154.616 289.844 154.616 293.644C154.616 297.444 151.544 300.516 147.744 300.516Z" fill="#0D0D0D"></path><path d="M97.4988 279.941C97.4988 279.941 97.5797 279.86 97.5797 279.819C97.9839 279.092 98.3881 278.647 98.3881 278.647L107.645 273.15L107.402 264.135L106.149 263.731C106.149 263.731 105.139 267.652 101.218 269.067C95.1948 271.209 91.9205 265.752 91.9205 265.752L89.859 255.081L81.3703 252.332L80.5618 253.383C80.5618 253.383 83.8765 255.647 83.8765 259.851C83.8765 266.318 77.7323 267.652 77.7323 267.652L66.8586 266.318L61.6037 273.635L62.4526 274.686C62.4526 274.686 64.5141 273.15 67.2224 273.15C74.0134 273.15 74.8623 279.577 74.9431 280.385C74.9431 280.506 74.9431 280.547 74.9431 280.547L69.8499 290.127L74.6602 297.726L75.9537 297.403C75.9537 297.403 74.8219 293.522 77.4493 290.289C81.532 285.276 87.1103 288.227 87.1103 288.227L94.6693 296.231L103.36 293.967V292.593C103.36 292.593 100.813 292.471 98.7115 290.693C93.6183 286.449 96.9329 280.87 97.5797 279.9L97.4988 279.941ZM85.8168 283.376C82.017 283.376 78.9449 280.304 78.9449 276.505C78.9449 272.705 82.017 269.633 85.8168 269.633C89.6165 269.633 92.6886 272.705 92.6886 276.505C92.6886 280.304 89.6165 283.376 85.8168 283.376Z" fill="#0D0D0D"></path><path d="M51.1344 234.506C51.1344 234.506 51.2153 234.425 51.2153 234.385C51.6195 233.657 52.0237 233.212 52.0237 233.212L61.2804 227.715L61.0379 218.701L59.7848 218.297C59.7848 218.297 58.7743 222.218 54.8533 223.632C48.8303 225.775 45.5561 220.318 45.5561 220.318L43.4946 209.646L35.0059 206.897L34.1974 207.948C34.1974 207.948 37.5121 210.212 37.5121 214.416C37.5121 220.884 31.3679 222.218 31.3679 222.218L20.4942 220.884L15.2393 228.2L16.0882 229.251C16.0882 229.251 18.1497 227.715 20.858 227.715C27.649 227.715 28.4979 234.142 28.5787 234.951C28.5787 235.072 28.5787 235.112 28.5787 235.112L23.4855 244.692L28.2958 252.292L29.5893 251.968C29.5893 251.968 28.4574 248.088 31.0849 244.854C35.1676 239.842 40.7459 242.793 40.7459 242.793L48.3049 250.796L56.9957 248.533V247.158C56.9957 247.158 54.4491 247.037 52.3471 245.258C47.2539 241.014 50.5685 235.436 51.2153 234.466L51.1344 234.506ZM39.4523 237.942C35.6526 237.942 32.5805 234.87 32.5805 231.07C32.5805 227.27 35.6526 224.198 39.4523 224.198C43.2521 224.198 46.3242 227.27 46.3242 231.07C46.3242 234.87 43.2521 237.942 39.4523 237.942Z" fill="#0D0D0D"></path><path fill-rule="evenodd" clip-rule="evenodd" d="M471.689 82.3159H451.195C450.387 82.3159 449.942 82.6393 449.699 83.2861C446.708 91.9769 424.314 157.38 420.999 166.96C420.716 167.728 421.687 168.173 421.687 168.173H439.068C440.483 168.173 440.523 166.92 440.523 166.92L447.517 142.99C447.517 142.99 447.961 141.737 448.931 141.737H474.155C475.853 141.737 475.933 142.869 475.933 142.869L484.018 167.001C484.018 167.001 484.22 168.173 485.837 168.173C487.171 168.173 497.115 168.173 500.874 168.173C501.763 168.173 502.127 167.688 501.844 166.799C498.328 156.612 476.419 92.6641 473.266 83.4477C473.023 82.7201 472.902 82.3563 471.649 82.3563L471.689 82.3159ZM453.539 124.436L459.603 103.255C459.603 103.255 459.886 102.446 460.452 102.446H462.311C463.12 102.446 463.362 103.295 463.362 103.295L469.385 124.396C469.385 124.396 469.708 125.325 468.536 125.325H454.429C453.256 125.325 453.539 124.396 453.539 124.396V124.436Z" fill="#0D0D0D"></path><path fill-rule="evenodd" clip-rule="evenodd" d="M534.384 80.8203C525.572 80.8203 516.801 81.4267 513.526 81.6692C512.314 81.6692 512.152 82.8819 512.152 82.8819V167.082C512.152 167.082 512.152 168.173 513.163 168.173H530.544C531.757 168.173 531.757 167.163 531.757 167.163V136.32C531.757 136.32 531.676 135.229 532.929 135.229H538.305C542.954 135.229 573.271 133.814 573.271 108.469C573.271 83.1244 551.281 80.8607 534.384 80.8607V80.8203ZM531.797 117.807V96.7467C531.797 95.9787 532.282 95.8575 533.172 95.817C537.78 95.5341 552.372 95.5341 552.372 107.742C552.372 119.181 537.456 119.181 533.01 118.939C532.242 118.898 531.797 118.777 531.797 117.807Z" fill="#0D0D0D"></path><path fill-rule="evenodd" clip-rule="evenodd" d="M646.233 150.589V84.7817C646.233 83.6094 645.627 82.8818 644.374 82.8818H608.115C607.508 82.8818 606.781 83.1648 606.417 83.7307C604.477 86.9645 597.484 99.0508 590.571 115.584C585.276 128.236 579.334 145.941 577.838 150.468C577.596 151.155 577.394 151.56 576.464 151.56H573.432C572.058 151.56 570.926 152.368 570.926 154.025V171.205C570.926 181.715 573.028 187.293 574.16 189.597C574.604 190.446 574.807 190.85 575.777 190.85H589.803C590.288 190.85 590.369 190.527 590.086 189.84C589.197 187.616 587.378 181.472 587.297 169.143C587.297 168.779 587.378 167.931 588.267 167.971C595.826 167.971 629.822 168.214 635.521 168.254C636.491 168.173 636.33 169.224 636.33 169.224V189.718C636.33 189.718 636.249 190.891 637.3 190.891H651.811C652.781 190.891 652.701 190.486 652.701 189.718V154.632C652.701 152.328 652.701 151.64 650.639 151.64H647.042C646.273 151.64 646.152 151.56 646.152 150.67L646.233 150.589ZM625.456 151.56H598.292C597.605 151.56 597.281 151.196 597.484 150.549C598.575 146.547 603.021 131.065 610.297 115.584C615.835 103.78 618.342 99.0104 619.393 97.1509C619.958 96.1808 620.241 95.9787 621.333 95.9787H625.537C626.749 95.9787 626.628 97.3531 626.628 97.3531V150.549C626.628 151.56 626.507 151.56 625.456 151.56Z" fill="#0D0D0D"></path><path fill-rule="evenodd" clip-rule="evenodd" d="M665.878 166.92V84.4178C665.878 83.4072 666.444 82.8413 667.455 82.8413H719.923C720.934 82.8413 721.5 82.8413 721.5 84.4178V97.838C721.5 98.6869 721.621 99.2124 720.206 99.2124H690.01C689.242 99.2124 688.798 99.6166 688.798 100.587V114.33C688.798 115.098 688.919 115.543 690.091 115.543H713.738C714.507 115.543 714.951 116.149 714.951 116.756V130.176C714.951 131.065 714.83 131.874 713.779 131.874H690.496C689.445 131.874 688.798 132.359 688.798 133.288V150.266C688.798 151.034 689.081 151.479 690.172 151.479H723.399C724.572 151.479 724.774 152.004 724.774 152.893V166.718C724.774 167.567 724.572 168.092 723.399 168.092C722.348 168.092 675.095 168.092 667.051 168.092C666.283 168.092 665.878 167.648 665.878 166.88V166.92Z" fill="#0D0D0D"></path><path fill-rule="evenodd" clip-rule="evenodd" d="M738.922 82.8817H756.142C757.516 82.8817 757.435 83.3668 757.435 84.2561V114.371C757.435 115.341 757.435 115.583 758.405 115.583H762.205C767.783 115.583 777.04 107.661 777.04 95.9786V83.9731C777.04 83.2051 777.242 82.8817 778.051 82.8817H792.279C792.967 82.8817 793.371 83.3264 793.371 84.054C793.371 86.641 793.371 92.7448 793.371 92.7044C793.371 112.673 778.657 122.577 774.696 124.881C774.089 125.244 774.089 125.608 774.696 126.053C779.061 129.125 797.049 143.232 797.696 166.88C797.696 167.324 797.575 168.173 796.685 168.173H780.759C779.587 168.173 779.465 167.688 779.425 166.88C779.183 162.595 777.808 148.811 770.492 141.737C764.509 135.956 760.588 134.137 758.688 133.571C757.839 133.288 757.395 133.693 757.395 134.339V166.718C757.395 167.89 756.869 168.213 755.98 168.213H739.366C737.79 168.213 737.79 167.526 737.79 166.718V84.0136C737.79 83.2455 738.194 82.8413 738.881 82.8413L738.922 82.8817Z" fill="#0D0D0D"></path><path fill-rule="evenodd" clip-rule="evenodd" d="M400.99 120.434C400.99 120.111 401.314 119.949 401.839 119.747C404.75 118.615 414.087 113.845 414.087 102.487C414.087 84.7816 392.421 80.2139 376.333 80.2139C363.6 80.2139 355.717 81.8712 353.009 82.5584C351.958 82.8009 351.958 83.3668 351.958 84.0136V163.605C351.958 164.252 352.201 164.899 353.332 165.222C356 166.031 361.215 166.758 382.275 166.192C402.85 165.667 419.666 157.744 419.666 141.858C419.666 125.972 405.599 121.768 401.839 121C401.314 120.879 400.99 120.717 400.99 120.434ZM381.385 97.4742C388.459 97.4742 394.482 100.061 394.482 106.408C394.482 112.754 388.742 115.543 381.385 115.543H372.25C371.765 115.543 371.563 115.22 371.563 114.654V98.1614C371.563 97.7572 371.846 97.5147 372.371 97.5147C373.746 97.5147 376.899 97.4742 381.345 97.4742H381.385ZM381.385 151.519H372.371C371.886 151.519 371.603 151.236 371.603 150.751V129.408C371.603 128.882 371.927 128.64 372.29 128.64H381.426C381.426 128.64 387.247 128.438 391.855 130.984C395.25 132.884 397.797 135.673 397.797 140.767C397.797 146.345 394.199 148.649 390.036 150.185C386.802 151.398 383.124 151.519 381.466 151.519H381.385Z" fill="#0D0D0D"></path><path d="M500.672 258.76L512.152 218.095H527.149V278.445H516.801V231.596L517.205 234.264L505.684 271.735H495.66L484.139 235.113L484.543 231.636V278.486H474.195V218.135H489.192L500.672 258.8V258.76Z" fill="#0D0D0D"></path><path d="M540.407 278.405V218.054H551.766V278.405H540.407ZM544.53 229.009V218.054H580.83V229.009H544.53ZM544.53 253.909V242.954H576.262V253.909H544.53ZM544.53 278.405V267.45H580.83V278.405H544.53Z" fill="#0D0D0D"></path><path d="M591.218 278.405V218.054H602.577V278.405H591.218ZM595.341 229.009V218.054H629.983V229.009H595.341ZM596.433 278.405V267.45H615.714C617.776 267.45 619.433 266.763 620.686 265.348C621.939 263.934 622.586 262.074 622.586 259.77C622.586 257.466 621.939 255.526 620.686 254.111C619.433 252.696 617.776 252.009 615.674 252.009H596.392V241.055H615.391C619.191 241.055 622.546 241.823 625.375 243.359C628.205 244.895 630.428 247.077 632.005 249.907C633.581 252.696 634.349 256.011 634.349 259.77C634.349 263.529 633.541 266.763 632.005 269.552C630.428 272.342 628.205 274.524 625.375 276.06C622.505 277.596 619.191 278.405 615.431 278.405H596.433Z" fill="#0D0D0D"></path><path d="M645.384 278.405V218.054H656.743V278.405H645.384ZM649.507 229.009V218.054H685.807V229.009H649.507ZM649.507 253.909V242.954H681.239V253.909H649.507ZM649.507 278.405V267.45H685.807V278.405H649.507Z" fill="#0D0D0D"></path><path d="M693.648 278.405V267.45C696.68 267.45 698.984 266.278 700.682 263.974C702.339 261.67 703.188 258.396 703.188 254.192V218.054H714.547V255.364C714.547 262.681 712.809 268.38 709.292 272.382C705.775 276.384 700.844 278.405 694.497 278.405H693.648ZM709.252 229.009V218.054H736.941V229.009H709.252ZM732.454 278.405V218.054H743.813V278.405H732.454Z" fill="#0D0D0D"></path><path d="M757.112 278.405V218.054H768.47V278.405H757.112ZM762.286 278.405V267.45H781.365C783.427 267.45 785.084 266.763 786.337 265.348C787.631 263.934 788.237 262.074 788.237 259.77C788.237 257.466 787.59 255.526 786.337 254.111C785.084 252.696 783.427 252.009 781.325 252.009H762.245V241.055H781.042C784.842 241.055 788.197 241.823 791.026 243.359C793.856 244.895 796.079 247.077 797.655 249.907C799.232 252.737 800 256.011 800 259.77C800 263.529 799.191 266.763 797.655 269.552C796.119 272.342 793.856 274.524 791.026 276.06C788.156 277.596 784.842 278.405 781.082 278.405H762.286Z" fill="#0D0D0D"></path></svg> 