<svg width="538" height="222" viewBox="0 0 538 222" fill="none" xmlns="http://www.w3.org/2000/svg">
<path d="M234.416 121.008C234.416 118.832 235.284 116.745 236.829 115.206C238.374 113.668 240.47 112.803 242.655 112.803H297.899C300.082 112.805 302.175 113.669 303.72 115.206C305.265 116.743 306.134 118.827 306.137 121.001V167.51H234.416V121.008Z" stroke="#BF994C" stroke-width="2" stroke-miterlimit="10" stroke-linejoin="round"/>
<path d="M314.482 112.803H370.171C372.367 112.802 374.476 113.661 376.041 115.196C376.814 115.95 377.427 116.85 377.844 117.844C378.261 118.837 378.474 119.904 378.47 120.981V147.236V167.315L306.148 167.275V120.975C306.148 119.9 306.364 118.837 306.782 117.847C307.2 116.857 307.813 115.96 308.584 115.209C310.152 113.661 312.274 112.795 314.482 112.803Z" stroke="#BF994C" stroke-width="2" stroke-miterlimit="10" stroke-linejoin="round"/>
<path d="M306.135 167.295V183.476L234.306 183.456L234.299 167.288L306.135 167.295Z" stroke="#BF994C" stroke-width="2" stroke-miterlimit="10" stroke-linejoin="round"/>
<path d="M378.378 167.295H306.197V183.463H378.378V167.295Z" stroke="#BF994C" stroke-width="2" stroke-miterlimit="10" stroke-linejoin="round"/>
<path d="M238.599 220.845L229.253 220.825L229.186 206.787L238.531 206.733L238.599 220.845Z" stroke="#BF994C" stroke-width="2" stroke-miterlimit="10" stroke-linejoin="round"/>
<path d="M383.405 221L373.992 220.98V206.888H383.412L383.405 221Z" stroke="#BF994C" stroke-width="2" stroke-miterlimit="10" stroke-linejoin="round"/>
<path d="M388.26 206.781H224.406C223.927 206.78 223.452 206.687 223.009 206.505C222.121 206.134 221.415 205.429 221.045 204.543C220.862 204.105 220.77 203.634 220.775 203.159V163.511C220.796 162.371 220.432 161.257 219.74 160.348C219.049 159.439 218.071 158.787 216.963 158.498C213.66 157.681 210.772 155.688 208.844 152.895C206.915 150.102 206.08 146.703 206.495 143.339C206.91 139.975 208.547 136.879 211.097 134.634C213.647 132.39 216.934 131.152 220.337 131.155H220.573C224.248 131.279 227.73 132.82 230.285 135.453C232.839 138.087 234.266 141.606 234.264 145.267V183.456H378.469V145.28C378.452 141.614 379.874 138.087 382.432 135.45C384.99 132.814 388.481 131.277 392.161 131.169H392.404C395.812 131.159 399.105 132.394 401.661 134.639C404.217 136.884 405.858 139.984 406.273 143.353C406.689 146.722 405.85 150.126 403.916 152.92C401.982 155.715 399.086 157.706 395.777 158.519C394.675 158.8 393.7 159.441 393.005 160.338C392.311 161.235 391.938 162.338 391.945 163.471V203.118C391.946 203.595 391.855 204.068 391.675 204.509C391.495 204.951 391.228 205.354 390.891 205.693C390.554 206.032 390.153 206.301 389.711 206.485C389.254 206.684 388.759 206.784 388.26 206.781Z" stroke="#BF994C" stroke-width="2" stroke-miterlimit="10" stroke-linejoin="round"/>
<path d="M1 167.794C1 167.794 9.61336 163.295 23.5189 163.295C37.4245 163.295 46.042 167.794 46.042 167.794V178.775H1V167.794Z" stroke="#BF994C" stroke-width="2" stroke-miterlimit="10" stroke-linejoin="round"/>
<path d="M6.09816 221L1.03516 220.821L7.04826 181.262H12.1113L6.09816 221Z" stroke="#BF994C" stroke-width="2" stroke-miterlimit="10" stroke-linejoin="round"/>
<path d="M46.042 178.763H1V181.258H46.042V178.763Z" stroke="#BF994C" stroke-width="2" stroke-miterlimit="10" stroke-linejoin="round"/>
<path d="M34.0293 181.262H39.0881L45.893 220.817L40.8216 221L34.0293 181.262Z" stroke="#BF994C" stroke-width="2" stroke-miterlimit="10" stroke-linejoin="round"/>
<path d="M1 167.794H46.042" stroke="#BF994C" stroke-width="2" stroke-miterlimit="10" stroke-linejoin="round"/>
<path d="M536.999 165.664L475.742 165.685V169.72H478.028L535.089 169.704H536.999V165.664Z" stroke="#BF994C" stroke-width="2" stroke-miterlimit="10" stroke-linejoin="round"/>
<path d="M534.039 221L534.023 169.721L478.701 169.742L478.717 221H484.61V179.257H528.124V221H534.039Z" stroke="#BF994C" stroke-width="2" stroke-miterlimit="10" stroke-linejoin="round"/>
<path d="M529.851 165.664L529.84 112.803H482.885V165.649H487.779V145.218H524.962V165.664H529.851ZM497.78 140.573H487.779V117.689H497.78V140.573ZM504.871 140.573H500.383V117.684H504.897L504.871 140.573ZM511.967 140.573H507.5V117.684H511.988L511.967 140.573ZM524.946 140.573H514.575V117.679H524.946V140.573Z" stroke="#BF994C" stroke-width="2" stroke-miterlimit="10" stroke-linejoin="round"/>
<path d="M194.712 167.652C194.712 166.373 194.752 165.163 194.712 163.868C192.818 164.164 190.908 164.419 188.982 164.635L188.128 164.71C182.811 165.284 177.467 165.574 172.119 165.576C164.555 165.588 157.002 165.017 149.525 163.868C149.525 165.506 149.525 166.676 149.525 167.812C149.525 168.529 149.525 169.266 149.525 170.112C151.214 170.376 152.882 170.61 154.546 170.809L155.847 170.964C161.043 171.554 166.268 171.852 171.498 171.855C179.261 171.844 187.011 171.223 194.677 169.998C194.682 169.171 194.697 168.399 194.712 167.652Z" stroke="#BF994C" stroke-width="2" stroke-miterlimit="10" stroke-linejoin="round"/>
<path d="M185.848 171.192L190.585 220.89H196.484L191.747 170.505L185.848 171.192Z" stroke="#BF994C" stroke-width="2" stroke-miterlimit="10" stroke-linejoin="round"/>
<path d="M154.242 170.809L152.568 170.609L147.836 221H153.745L158.492 171.301L155.513 170.953L154.242 170.809Z" stroke="#BF994C" stroke-width="2" stroke-miterlimit="10" stroke-linejoin="round"/>
<path d="M193.145 134.57C193.822 133.891 194.203 132.97 194.203 132.01V121.833C194.203 121.357 194.109 120.887 193.928 120.448C193.747 120.008 193.481 119.609 193.145 119.273C192.81 118.937 192.412 118.67 191.974 118.488C191.536 118.307 191.067 118.213 190.593 118.213H153.649C152.692 118.213 151.773 118.594 151.096 119.273C150.419 119.952 150.039 120.873 150.039 121.833V132.01C150.039 132.971 150.419 133.893 151.096 134.574C151.773 135.254 152.691 135.638 153.649 135.64H190.593C191.551 135.634 192.468 135.25 193.145 134.57Z" stroke="#BF994C" stroke-width="2" stroke-miterlimit="10" stroke-linejoin="round"/>
<path d="M187.922 135.631H184.471V165.058L187.773 164.764L187.922 164.749V135.631Z" stroke="#BF994C" stroke-width="2" stroke-miterlimit="10" stroke-linejoin="round"/>
<path d="M156.826 135.631V164.754L160.277 165.058V135.631H156.826Z" stroke="#BF994C" stroke-width="2" stroke-miterlimit="10" stroke-linejoin="round"/>
<path d="M97.7617 220.731V208.914V194.712V134.938H95.2246V220.731H97.7617Z" stroke="#BF994C" stroke-width="2" stroke-miterlimit="10" stroke-linejoin="round"/>
<path d="M127.26 134.343C127.642 133.962 127.86 133.446 127.868 132.905V132.864C127.863 132.327 127.65 131.814 127.275 131.432C127.082 131.238 126.853 131.086 126.601 130.984C126.348 130.882 126.078 130.832 125.805 130.837H68.0514C67.5166 130.839 67.0046 131.054 66.6269 131.434C66.2492 131.814 66.0365 132.328 66.0352 132.864V132.905C66.0342 133.173 66.0861 133.437 66.1879 133.684C66.2897 133.931 66.4393 134.155 66.6282 134.343C67.0081 134.718 67.5182 134.932 68.0514 134.938H125.805C126.349 134.94 126.872 134.726 127.26 134.343Z" stroke="#BF994C" stroke-width="2" stroke-miterlimit="10" stroke-linejoin="round"/>
<path d="M115.315 217.876C116.975 219.945 121.792 220.979 124.922 220.979C125.956 220.985 126.99 220.917 128.016 220.777V216.992C127.369 217.074 126.718 217.116 126.066 217.116C123.143 217.116 119.017 216.345 115.934 212.663C114.537 210.934 113.234 209.132 112.03 207.264C108.477 201.958 105.12 196.92 97.7617 195.819V207.667C98.1617 207.615 98.565 207.591 98.9684 207.595C103.867 207.621 109.4 210.548 115.315 217.876Z" stroke="#BF994C" stroke-width="2" stroke-miterlimit="10" stroke-linejoin="round"/>
<path d="M77.0409 212.679C73.947 216.361 69.8217 217.132 66.9133 217.132C66.2599 217.132 65.6072 217.091 64.959 217.008V220.794C65.9844 220.933 67.0181 221.002 68.0529 221C71.183 221 75.4217 220.369 77.8144 217.422C84.7604 208.878 90.9431 207.595 94.0113 207.595C94.4198 207.594 94.828 207.618 95.2334 207.668V195.835C87.8543 196.952 84.4819 201.969 80.9445 207.275C79.7416 209.146 78.4385 210.95 77.0409 212.679Z" stroke="#BF994C" stroke-width="2" stroke-miterlimit="10" stroke-linejoin="round"/>
<path d="M409.53 213.08H459.949C462.201 213.08 464.03 214.923 464.03 217.194V221H405.449V217.194C405.449 214.923 407.277 213.08 409.53 213.08Z" stroke="#BF994C" stroke-width="2" stroke-linecap="round" stroke-linejoin="round"/>
<path d="M416.678 213.083C416.865 211.929 417.858 211.051 419.053 211.051C420.248 211.051 421.241 211.929 421.428 213.083" stroke="#BF994C" stroke-width="2" stroke-linecap="round" stroke-linejoin="round"/>
<path d="M418.902 8.11105C421.692 3.82628 426.5 1 431.963 1C440.59 1 447.586 8.05301 447.586 16.7495" stroke="#BF994C" stroke-width="2" stroke-linecap="round" stroke-linejoin="round"/>
<path d="M421.039 9.55906C423.368 5.96725 427.391 3.59448 431.966 3.59448C439.174 3.59448 445.015 9.48287 445.015 16.7499" stroke="#BF994C" stroke-width="2" stroke-linecap="round" stroke-linejoin="round"/>
<path d="M445.012 16.7493V25.4059V213.083" stroke="#BF994C" stroke-width="2" stroke-linecap="round" stroke-linejoin="round"/>
<path d="M447.588 213.083V16.7493" stroke="#BF994C" stroke-width="2" stroke-linecap="round" stroke-linejoin="round"/>
<path d="M429.466 19.8954C430.481 17.9617 429.71 15.4402 427.691 14.0724L420.065 8.89871L412.439 3.72506C410.42 2.35727 407.814 2.58946 406.418 4.26201L379.354 36.7588L394.577 47.0843L409.801 57.4099L429.466 19.8954Z" stroke="#BF994C" stroke-width="2" stroke-linecap="round" stroke-linejoin="round"/>
</svg>
