<svg width="40" height="50" viewBox="0 0 40 50" fill="none" xmlns="http://www.w3.org/2000/svg">
<path d="M32.1413 32.6203C31.531 32.8001 30.6349 32.8204 29.6743 32.6813C28.6432 32.532 27.5916 32.2174 26.5579 31.7537C28.4012 31.486 29.8312 31.5685 31.0543 32.0011C31.344 32.1036 31.82 32.3776 32.1413 32.6203ZM21.8568 30.9324C21.7818 30.9527 21.7079 30.972 21.6344 30.9924C21.1384 31.1271 20.6558 31.2586 20.1908 31.3756L19.5637 31.5344C18.3023 31.853 17.0125 32.1785 15.7387 32.5661C16.2228 31.4008 16.6726 30.2225 17.1129 29.0705C17.439 28.2177 17.772 27.3466 18.1163 26.4867C18.291 26.7747 18.4733 27.0629 18.663 27.3517C19.5272 28.6657 20.6136 29.8806 21.8568 30.9324ZM18.6481 17.7908C18.7299 19.2288 18.4191 20.6121 17.9632 21.9392C17.4016 20.2982 17.1399 18.4861 17.842 17.0231C18.022 16.6481 18.1695 16.4476 18.2652 16.343C18.4129 16.5707 18.6073 17.0803 18.6481 17.7908ZM12.0627 36.0068C11.7471 36.5703 11.4251 37.0978 11.095 37.5959C10.2983 38.7944 8.99546 40.0776 8.32615 40.0776C8.26029 40.0776 8.18059 40.067 8.06412 39.9443C7.98916 39.8658 7.97715 39.8095 7.98078 39.7327C8.00334 39.2921 8.58818 38.5074 9.43539 37.7798C10.2044 37.1196 11.0735 36.5328 12.0627 36.0068ZM34.2725 32.6826C34.1702 31.2149 31.6951 30.2732 31.6707 30.2645C30.714 29.9259 29.6745 29.7614 28.4932 29.7614C27.2287 29.7614 25.8653 29.944 24.1144 30.3524C22.5565 29.2499 21.2107 27.8696 20.2052 26.3416C19.7611 25.6665 19.362 24.9926 19.014 24.3344C19.8635 22.3068 20.6284 20.1266 20.4894 17.6849C20.3773 15.727 19.4929 14.4119 18.2902 14.4119C17.4652 14.4119 16.7548 15.0219 16.1772 16.2266C15.1468 18.3734 15.4176 21.1203 16.9818 24.398C16.4185 25.7189 15.8951 27.0883 15.3885 28.4139C14.7581 30.0623 14.1086 31.7629 13.3766 33.3806C11.3237 34.1915 9.63725 35.1749 8.23175 36.3821C7.31101 37.1716 6.201 38.3785 6.13764 39.6384C6.10672 40.2317 6.31052 40.7759 6.72467 41.2119C7.16467 41.6748 7.71745 41.9185 8.32526 41.9193C10.3327 41.9193 12.2648 39.1659 12.6313 38.6136C13.369 37.5036 14.0594 36.2655 14.736 34.8374C16.4399 34.2226 18.2558 33.7638 20.0158 33.3203L20.6462 33.1604C21.12 33.0401 21.6125 32.9071 22.1176 32.7691C22.6521 32.6249 23.2021 32.4753 23.7611 32.3331C25.5683 33.4805 27.5118 34.2289 29.4072 34.5035C31.0037 34.7354 32.4215 34.6009 33.3813 34.1014C34.2449 33.6524 34.2925 32.9595 34.2725 32.6826ZM38.1603 45.3035C38.1603 47.9915 35.7871 48.1573 35.3083 48.1626H4.68918C2.00627 48.1626 1.84471 45.7773 1.83959 45.3035L1.83923 4.69552C1.83923 2.00487 4.21682 1.84175 4.68882 1.83635H25.3726L25.3836 1.84725V9.90495C25.3836 11.522 26.3629 14.5836 30.0717 14.5836H38.0912L38.1601 14.6522L38.1603 45.3035ZM36.2592 12.747H30.0731C27.391 12.747 27.2287 10.3746 27.225 9.90521V3.69134L36.2592 12.747ZM40 45.3035V13.8946L27.225 1.08878V1.0292H27.1639L26.1379 0H4.68924C3.06723 0 0 0.98167 0 4.69639V45.3044C0 46.9284 0.980389 50 4.68924 50H35.3111C36.9328 49.9996 40 49.0179 40 45.3035Z" fill="#663780"/>
</svg>
