<svg width="199" height="32" viewBox="0 0 199 32" fill="none" xmlns="http://www.w3.org/2000/svg">
<path d="M63.6467 28.3611H61.239L60.4177 26.9406C60.1036 26.398 59.7171 25.584 59.2742 24.4908L59.2179 24.5307C59.3064 25.2648 59.3547 26.1905 59.3547 27.3157V31.7686H55.1514V18.4977H59.3547L62.4549 23.8603L65.5551 18.4977H69.7585V31.7686H65.5551V27.3157C65.5551 26.1905 65.5954 25.2648 65.692 24.5307L65.6356 24.4908C65.1928 25.576 64.8062 26.39 64.4841 26.9406L63.6628 28.3611H63.6467Z" fill="white"/>
<path d="M76.4422 18.4256H78.6405C79.3813 18.4256 79.953 18.5772 80.3637 18.8805C80.7744 19.1837 81.1206 19.6546 81.4025 20.3089L86.1212 31.7763H81.9178L81.0723 29.6935H75.9268L75.2021 31.7763H70.8779L76.4422 18.4336V18.4256ZM79.8 26.5573L78.4794 22.7428L77.1588 26.5573H79.8Z" fill="white"/>
<path d="M100.083 18.4658V31.7685H96.1055L91.3948 24.778V31.7685H87.2236V18.4658H91.2096L95.9122 25.4563V18.4658H100.083Z" fill="white"/>
<path d="M106.775 18.4256H108.973C109.714 18.4256 110.286 18.5772 110.697 18.8805C111.107 19.1837 111.454 19.6546 111.735 20.3089L116.446 31.7763H112.251L111.405 29.6935H106.26L105.535 31.7763H101.211L106.775 18.4336V18.4256ZM110.133 26.5573L108.812 22.7428L107.492 26.5573H110.133Z" fill="white"/>
<path d="M124.756 23.7724H128.774V30.731C127.333 31.5769 125.602 31.9999 123.589 31.9999C121.213 31.9999 119.417 31.3934 118.193 30.1724C116.969 28.9515 116.357 27.2677 116.357 25.1211C116.357 22.9744 116.977 21.2906 118.226 20.0697C119.466 18.8487 121.277 18.2422 123.645 18.2422C125.263 18.2422 126.536 18.5056 127.454 19.0403C128.106 19.4313 128.428 19.9739 128.428 20.6522C128.428 21.5619 128.162 22.336 127.623 22.9664C126.64 22.1285 125.424 21.7136 123.967 21.7136C121.753 21.7136 120.641 22.8467 120.641 25.1211C120.641 27.3954 121.632 28.5365 123.605 28.5365C124.217 28.5365 124.764 28.4647 125.247 28.329V26.4537H122.799V25.7116C122.799 25.0014 122.96 24.5066 123.266 24.2113C123.58 23.924 124.072 23.7724 124.748 23.7724" fill="white"/>
<path d="M138.349 26.5017H135.112V28.377H141.095V31.7685H130.973V18.4658H141.07V21.8573H135.104V23.4533H140.442V24.4189C140.442 25.169 140.273 25.6957 139.927 26.0229C139.581 26.3421 139.049 26.5017 138.341 26.5017" fill="white"/>
<path d="M151.724 28.3611H149.309L148.487 26.9406C148.165 26.398 147.787 25.584 147.344 24.4908L147.287 24.5307C147.376 25.2648 147.424 26.1905 147.424 27.3157V31.7686H143.213V18.4977H147.424L150.524 23.8603L153.625 18.4977H157.828V31.7686H153.625V27.3157C153.625 26.1905 153.673 25.2648 153.762 24.5307L153.705 24.4908C153.262 25.576 152.876 26.39 152.562 26.9406L151.74 28.3611H151.724Z" fill="white"/>
<path d="M167.628 26.5017H164.391V28.377H170.374V31.7685H160.26V18.4658H170.358V21.8573H164.391V23.4533H169.729V24.4189C169.729 25.169 169.56 25.6957 169.214 26.0229C168.868 26.3421 168.336 26.5017 167.628 26.5017Z" fill="white"/>
<path d="M185.343 18.4658V31.7685H181.365L176.662 24.778V31.7685H172.491V18.4658H176.469L181.172 25.4563V18.4658H185.343Z" fill="white"/>
<path d="M186.647 18.4977H199V21.9691L194.925 21.9132V31.7686H190.722V21.9132L186.647 21.9691V18.4977Z" fill="white"/>
<path d="M61.4881 9.36024H59.3462V13.5338H55.1348V0.223083H61.2546C64.8218 0.223083 66.6095 1.74727 66.6095 4.78767C66.6095 7.82807 64.9024 9.36024 61.4801 9.36024M59.2979 3.61461V5.96872H61.3432C62.1001 5.96872 62.4705 5.5777 62.4705 4.79565C62.4705 4.45251 62.382 4.17321 62.1968 3.94977C62.0115 3.72633 61.7297 3.61461 61.3432 3.61461H59.2979Z" fill="white"/>
<path d="M73.7924 8.98518H72.3188V13.5338H68.1074V0.223083H74.4366C76.2323 0.223083 77.5771 0.606126 78.4629 1.38019C79.3486 2.15426 79.7915 3.24752 79.7915 4.67595C79.7915 6.36772 79.091 7.58069 77.6898 8.31486L80.1136 13.5258H77.8026C77.0859 13.5258 76.5303 13.3981 76.1196 13.1348C75.7089 12.8715 75.3788 12.4645 75.1292 11.9139L73.7924 8.9772V8.98518ZM72.2786 3.62259V5.74528H74.5333C75.2821 5.74528 75.6606 5.38618 75.6606 4.68393C75.6606 4.35675 75.564 4.09341 75.3788 3.90987C75.1855 3.71835 74.9037 3.62259 74.5333 3.62259H72.2786Z" fill="white"/>
<path d="M82.7223 11.9302C81.5708 10.7092 80.999 9.02544 80.999 6.87881C80.999 4.73217 81.5708 3.04838 82.7223 1.82743C83.8657 0.606484 85.5567 0 87.7872 0C90.0178 0 91.7088 0.606484 92.8522 1.82743C94.0037 3.04838 94.5754 4.73217 94.5754 6.87881C94.5754 9.02544 94.0037 10.7092 92.8522 11.9302C91.7088 13.1511 90.0178 13.7576 87.7872 13.7576C85.5567 13.7576 83.8657 13.1511 82.7223 11.9302ZM89.6876 9.38454C90.0983 8.77806 90.2996 7.94015 90.2996 6.87881C90.2996 5.81746 90.0983 4.97955 89.6876 4.37307C89.2769 3.76659 88.6488 3.46334 87.7953 3.46334C86.9417 3.46334 86.3136 3.76659 85.903 4.37307C85.4923 4.97955 85.291 5.81746 85.291 6.87881C85.291 7.94015 85.4923 8.77806 85.903 9.38454C86.3136 9.99103 86.9417 10.2943 87.7953 10.2943C88.6488 10.2943 89.2769 9.99103 89.6876 9.38454Z" fill="white"/>
<path d="M105.801 8.90538H100.623V13.5338H96.4521V0.223083H106.171V3.62259H100.623V5.70538H105.801V8.90538Z" fill="white"/>
<path d="M113.419 0.263245H125.779V3.73457L121.705 3.67871V13.5341H117.502V3.67871L113.419 3.73457V0.263245Z" fill="white"/>
<path d="M107.935 4.53254V2.31409C107.935 1.60386 108.096 1.08516 108.418 0.742016C108.74 0.398874 109.279 0.231293 110.036 0.231293H112.106V1.57992C110.906 2.79289 109.497 3.7904 107.935 4.53254Z" fill="#E24F0D"/>
<path d="M112.098 3.47121V13.5341H107.927V6.41585C109.489 5.68168 110.898 4.67619 112.098 3.46323" fill="white"/>
<path d="M31.9199 0.223083H30.1081C26.8951 0.223083 24.3023 0.749767 22.3053 1.78717C21.5564 2.1782 20.9202 2.657 20.3405 3.19964C20.1794 3.35126 20.0425 3.52683 19.8976 3.68643C19.5111 4.10937 19.1648 4.56423 18.8749 5.059C18.738 5.28244 18.6172 5.51386 18.5045 5.76124C18.2549 6.28792 18.0616 6.85451 17.9006 7.45301C17.8362 7.70837 17.7476 7.9398 17.6993 8.21112C17.5302 9.08892 17.4174 10.0306 17.4174 11.06C17.4174 12.9193 16.5317 13.845 14.744 13.845H9.80787V11.06C9.80787 10.254 10.0253 9.58369 10.4682 9.057C10.903 8.53032 11.5794 8.26698 12.4893 8.26698H14.7521C15.0339 8.26698 15.2513 8.3388 15.4848 8.38668C15.9116 5.58568 17.1114 2.80862 19.7848 0.845528C18.2629 0.446525 16.5236 0.231064 14.5266 0.231064H12.7148C4.23558 0.223083 0 3.83007 0 11.052V23.4211V31.7682H4.89588C6.65132 31.7682 7.9075 31.3692 8.66443 30.5792C9.42136 29.7812 9.79982 28.5603 9.79982 26.9164V23.4211V21.8889H15.0581C23.1588 21.8889 27.2092 18.2819 27.2092 11.06C27.2092 10.254 27.4266 9.58369 27.8695 9.057C28.3043 8.53032 28.9807 8.26698 29.8907 8.26698H32.1534C33.0633 8.26698 33.7317 8.53032 34.1746 9.057C34.6174 9.58369 34.8349 10.246 34.8349 11.06V23.4291V26.9243C34.8349 28.5682 35.2133 29.7892 35.9702 30.5872C36.7272 31.3772 37.9834 31.7762 39.7388 31.7762H44.6347V11.052C44.6186 3.83007 40.383 0.223083 31.9199 0.223083Z" fill="#E24F0D"/>
<path d="M17.4092 23.8526V25.3289V26.9169C17.4092 28.5608 17.7876 29.7817 18.5446 30.5797C19.3015 31.3698 20.5577 31.7688 22.3131 31.7688H27.209V18.881C25.2362 21.7378 21.9024 23.4137 17.4092 23.8526Z" fill="#E24F0D"/>
</svg>
