<svg width="39" height="40" viewBox="0 0 39 40" fill="none" xmlns="http://www.w3.org/2000/svg">
<path d="M18.2812 37.0625H2.43753V2.93755H18.2812C18.954 2.93755 19.4999 2.39151 19.4999 1.71884C19.4999 1.04616 18.9539 0.500122 18.2812 0.500122H1.21872C0.546041 0.500122 0 1.04606 0 1.71884V38.2812C0 38.954 0.546041 39.4999 1.21872 39.4999H18.2811C18.9539 39.4999 19.4998 38.9539 19.4998 38.2812C19.4999 37.6084 18.9539 37.0625 18.2812 37.0625Z" fill="#BF994C"/>
<path d="M38.6466 19.1493L30.2373 10.6193C29.7608 10.1379 28.9893 10.1391 28.514 10.6193C28.0374 11.0995 28.0374 11.8794 28.514 12.3596L34.8515 18.7885H9.75387C9.0811 18.7885 8.53516 19.3394 8.53516 20.0195C8.53516 20.6995 9.0812 21.2505 9.75387 21.2505H34.8515L28.514 27.6794C28.0374 28.1608 28.0374 28.9395 28.514 29.4197C28.9905 29.9011 29.762 29.9011 30.2373 29.4197L38.6454 20.8897C39.1159 20.4156 39.1208 19.6222 38.6466 19.1493Z" fill="#BF994C"/>
</svg>
