<svg width="22" height="22" viewBox="0 0 22 22" fill="none" xmlns="http://www.w3.org/2000/svg">
<path d="M14.75 10.67C15.7191 9.89235 16.4229 8.83302 16.7642 7.63827C17.1055 6.44351 17.0675 5.17227 16.6553 4.00006C16.2432 2.82786 15.4773 1.81253 14.4634 1.09427C13.4494 0.376 12.2375 -0.00976562 10.995 -0.00976562C9.75245 -0.00976562 8.54056 0.376 7.52664 1.09427C6.51273 1.81253 5.74683 2.82786 5.33468 4.00006C4.92253 5.17227 4.88448 6.44351 5.22577 7.63827C5.56706 8.83302 6.27087 9.89235 7.24 10.67C5.11937 11.4413 3.28726 12.8462 1.99214 14.6941C0.697007 16.5419 0.0015238 18.7434 0 21V22H22V21C21.9977 18.7422 21.3008 16.5399 20.0038 14.6918C18.7068 12.8438 16.8725 11.4397 14.75 10.67ZM7 5.99998C7 5.20885 7.2346 4.43549 7.67412 3.77769C8.11365 3.1199 8.73836 2.60721 9.46927 2.30446C10.2002 2.00171 11.0044 1.92249 11.7804 2.07683C12.5563 2.23118 13.269 2.61214 13.8284 3.17155C14.3878 3.73096 14.7688 4.44369 14.9231 5.21961C15.0775 5.99554 14.9983 6.7998 14.6955 7.53071C14.3928 8.26161 13.8801 8.88633 13.2223 9.32585C12.5645 9.76538 11.7911 9.99998 11 9.99998C9.93913 9.99998 8.92172 9.57855 8.17157 8.8284C7.42143 8.07826 7 7.06084 7 5.99998ZM2.06 20C2.3045 17.7986 3.35218 15.7647 5.00255 14.2874C6.65292 12.8102 8.79007 11.9934 11.005 11.9934C13.2199 11.9934 15.3571 12.8102 17.0075 14.2874C18.6578 15.7647 19.7055 17.7986 19.95 20H2.06Z" fill="#BF994C"/>
</svg>
