<svg width="94" height="197" viewBox="0 0 94 197" fill="none" xmlns="http://www.w3.org/2000/svg">
<path d="M89.6496 94.7922C89.6496 92.3645 89.7247 90.0691 89.6496 87.613C86.0685 88.1735 82.4561 88.6584 78.8125 89.0678L77.1972 89.2095C67.1414 90.2998 57.0349 90.8485 46.9209 90.8531C32.6165 90.8758 18.3315 89.7926 4.19214 87.613C4.19214 90.7209 4.19214 92.9408 4.19214 95.0945C4.19214 96.4548 4.19214 97.8528 4.19214 99.4587C7.38505 99.9594 10.5404 100.403 13.6864 100.781L16.1468 101.074C25.9743 102.195 35.8566 102.759 45.747 102.765C60.4283 102.743 75.0854 101.565 89.5839 99.2414C89.5933 97.6733 89.6214 96.2092 89.6496 94.7922Z" stroke="#663780" stroke-width="2" stroke-miterlimit="10" stroke-linejoin="round"/>
<path d="M72.8847 101.509L81.8437 195.792H93.0001L84.0411 100.205L72.8847 101.509Z" stroke="#663780" stroke-width="2" stroke-miterlimit="10" stroke-linejoin="round"/>
<path d="M13.1143 100.781L9.94956 100.403L1 196H12.1752L21.1529 101.716L15.5184 101.055L13.1143 100.781Z" stroke="#663780" stroke-width="2" stroke-miterlimit="10" stroke-linejoin="round"/>
<path d="M86.6895 32.0311C87.9699 30.7435 88.6894 28.9969 88.6897 27.1757V7.86746C88.6897 6.96561 88.5131 6.0726 88.17 5.2394C87.827 4.4062 87.3241 3.64914 86.6901 3.01143C86.0561 2.37373 85.3035 1.86788 84.4752 1.52275C83.6469 1.17763 82.7591 1 81.8625 1H11.994C10.1833 1 8.4468 1.72353 7.16645 3.01143C5.8861 4.29933 5.16681 6.0461 5.16681 7.86746V27.1757C5.1668 28.9988 5.8855 30.7475 7.16531 32.0384C8.44512 33.3293 10.1816 34.0571 11.994 34.0621H81.8625C83.6745 34.0505 85.409 33.3208 86.6895 32.0311Z" stroke="#663780" stroke-width="2" stroke-miterlimit="10" stroke-linejoin="round"/>
<path d="M76.8096 34.0432H70.2829V89.8709L76.5278 89.3135L76.8096 89.2852V34.0432Z" stroke="#663780" stroke-width="2" stroke-miterlimit="10" stroke-linejoin="round"/>
<path d="M18.0052 34.0432V89.2946L24.5319 89.8709V34.0432H18.0052Z" stroke="#663780" stroke-width="2" stroke-miterlimit="10" stroke-linejoin="round"/>
</svg>
