<svg width="294" height="160" viewBox="0 0 294 160" fill="none" xmlns="http://www.w3.org/2000/svg">
<path d="M41.918 12.9817C41.918 9.80398 43.1854 6.75638 45.4414 4.50937C47.6974 2.26236 50.7572 1 53.9477 1H134.609C137.797 1.00259 140.853 2.26444 143.109 4.50877C145.364 6.7531 146.633 9.79667 146.638 12.9719V80.8881H41.918V12.9817Z" fill="white" stroke="#0D0D0D" stroke-width="2" stroke-miterlimit="10" stroke-linejoin="round"/>
<path d="M158.824 1.00008H240.135C243.342 0.997904 246.421 2.2528 248.707 4.49353C249.834 5.59453 250.729 6.90942 251.338 8.36056C251.948 9.8117 252.259 11.3697 252.253 12.9426V51.2822V80.6036L146.656 80.5447V12.9328C146.656 11.3641 146.971 9.81132 147.582 8.36546C148.192 6.91961 149.087 5.60988 150.213 4.51315C152.503 2.25203 155.6 0.988497 158.824 1.00008Z" fill="white" stroke="#0D0D0D" stroke-width="2" stroke-miterlimit="10" stroke-linejoin="round"/>
<path d="M146.638 80.5741V104.204L41.7599 104.174L41.75 80.5643L146.638 80.5741Z" fill="white" stroke="#0D0D0D" stroke-width="2" stroke-miterlimit="10" stroke-linejoin="round"/>
<path d="M252.117 80.5742H146.727V104.184H252.117V80.5742Z" fill="white" stroke="#0D0D0D" stroke-width="2" stroke-miterlimit="10" stroke-linejoin="round"/>
<path d="M48.0252 158.774L34.3798 158.745L34.2812 138.245L47.9267 138.167L48.0252 158.774Z" fill="white" stroke="#0D0D0D" stroke-width="2" stroke-miterlimit="10" stroke-linejoin="round"/>
<path d="M259.455 159L245.711 158.971V138.393H259.465L259.455 159Z" fill="white" stroke="#0D0D0D" stroke-width="2" stroke-miterlimit="10" stroke-linejoin="round"/>
<path d="M266.548 138.236H27.3038C26.6042 138.235 25.9114 138.098 25.2643 137.833C23.9676 137.291 22.9377 136.261 22.3973 134.968C22.1296 134.328 21.9956 133.64 22.0032 132.946V75.0494C22.0335 73.3843 21.5012 71.7573 20.4917 70.4297C19.4822 69.1022 18.0541 68.1509 16.4366 67.7288C11.6143 66.5347 7.39737 63.6241 4.5816 59.546C1.76582 55.4679 0.545877 50.5044 1.15193 45.592C1.75799 40.6796 4.14813 36.1579 7.87141 32.8802C11.5947 29.6024 16.3936 27.7952 21.3628 27.7995H21.7076C27.0728 27.9803 32.1574 30.231 35.8875 34.0762C39.6175 37.9214 41.7011 43.0601 41.698 48.4069V104.175H252.252V48.4265C252.227 43.0731 254.303 37.9217 258.037 34.0716C261.772 30.2216 266.87 27.9778 272.242 27.8191H272.597C277.573 27.805 282.382 29.6079 286.114 32.8867C289.846 36.1655 292.241 40.6928 292.848 45.6122C293.455 50.5315 292.231 55.5018 289.407 59.5827C286.583 63.6637 282.355 66.5723 277.523 67.7583C275.914 68.1697 274.49 69.1049 273.476 70.4153C272.462 71.7257 271.917 73.3361 271.927 74.9905V132.888C271.93 133.584 271.796 134.274 271.533 134.919C271.27 135.564 270.881 136.152 270.389 136.647C269.897 137.142 269.311 137.535 268.666 137.804C267.998 138.094 267.276 138.241 266.548 138.236Z" fill="white" stroke="#0D0D0D" stroke-width="2" stroke-miterlimit="10" stroke-linejoin="round"/>
</svg>
