<svg width="108" height="197" viewBox="0 0 108 197" fill="none" xmlns="http://www.w3.org/2000/svg">
<path d="M22.7909 184.417C19.8749 184.367 17.0108 185.195 14.5674 186.793C13.5737 187.391 12.742 188.225 12.1459 189.223C11.5498 190.22 11.2076 191.349 11.1494 192.511V196H96.8317V192.525C96.7726 191.366 96.4315 190.238 95.8382 189.242C95.245 188.245 94.4176 187.409 93.4283 186.807C90.9744 185.22 88.1091 184.394 85.1902 184.432H22.7909V184.417Z" stroke="white" stroke-width="2" stroke-miterlimit="10" stroke-linejoin="round"/>
<path d="M79.57 180.766C78.3355 179.899 76.87 179.424 75.3633 179.403C73.8643 179.429 72.408 179.909 71.1859 180.781C70.6969 181.116 70.2982 181.566 70.0254 182.094C69.7527 182.621 69.6144 183.207 69.6229 183.801C69.5938 184.006 69.5938 184.213 69.6229 184.417H81.1475C81.1767 184.213 81.1767 184.006 81.1475 183.801C81.1583 183.203 81.0195 182.612 80.7439 182.082C80.4683 181.552 80.0647 181.1 79.57 180.766Z" stroke="white" stroke-width="2" stroke-miterlimit="10" stroke-linejoin="round"/>
<path d="M56.3877 91.2871H51.626V184.432H56.3877V91.2871Z" stroke="white" stroke-width="2" stroke-miterlimit="10" stroke-linejoin="round"/>
<path d="M91.1665 8.00939C90.9037 6.95343 90.4252 5.96378 89.7614 5.10315C89.0976 4.24252 88.263 3.52967 87.3103 3.0098C84.9854 1.66151 82.3413 0.967598 79.6565 1.00116H28.3143C25.6451 0.9819 23.0188 1.67511 20.7043 3.0098C19.7533 3.5298 18.9206 4.24289 18.2592 5.10366C17.5978 5.96443 17.1222 6.95401 16.8628 8.00939L1 91.2871H107L91.1665 8.00939Z" stroke="white" stroke-width="2" stroke-miterlimit="10" stroke-linejoin="round"/>
</svg>
