<svg width="138" height="197" viewBox="0 0 138 197" fill="none" xmlns="http://www.w3.org/2000/svg">
<path d="M71.7406 195.418V169.861V139.147V9.87048H66.269V195.418H71.7406Z" stroke="white" stroke-width="2" stroke-miterlimit="10" stroke-linejoin="round"/>
<path d="M135.362 8.58415C136.187 7.75996 136.658 6.64384 136.675 5.47473V5.38525C136.664 4.22476 136.205 3.11383 135.396 2.287C134.98 1.86945 134.486 1.54035 133.941 1.31935C133.397 1.09835 132.813 0.989984 132.226 1.00073H7.67085C6.51749 1.00663 5.41321 1.47081 4.59869 2.29211C3.78417 3.11341 3.32546 4.22524 3.32254 5.38525V5.47473C3.3204 6.05237 3.43234 6.62468 3.65189 7.15846C3.87143 7.69224 4.1942 8.17684 4.60146 8.58415C5.4208 9.39585 6.52087 9.85685 7.67085 9.87043H132.226C133.399 9.87435 134.526 9.41204 135.362 8.58415Z" stroke="white" stroke-width="2" stroke-miterlimit="10" stroke-linejoin="round"/>
<path d="M109.609 189.244C113.19 193.718 123.577 195.955 130.327 195.955C132.559 195.968 134.789 195.822 137 195.519V187.332C135.606 187.511 134.202 187.6 132.796 187.6C126.491 187.6 117.594 185.934 110.943 177.97C107.932 174.231 105.122 170.333 102.525 166.293C94.8624 154.817 87.6226 143.923 71.7529 141.54V167.165C72.6157 167.052 73.4852 166.999 74.3552 167.009C84.9202 167.064 96.853 173.395 109.609 189.244Z" stroke="white" stroke-width="2" stroke-miterlimit="10" stroke-linejoin="round"/>
<path d="M27.0565 178.003C20.3839 185.967 11.4871 187.634 5.21486 187.634C3.80568 187.634 2.39791 187.544 1 187.365V195.553C3.21155 195.854 5.44089 196.003 7.6726 196C14.4231 196 23.5645 194.635 28.7247 188.26C43.7047 169.782 57.0387 167.008 63.6557 167.008C64.5367 167.005 65.417 167.057 66.2914 167.165V141.574C50.3773 143.99 43.1041 154.839 35.4751 166.315C32.8809 170.361 30.0706 174.263 27.0565 178.003Z" stroke="white" stroke-width="2" stroke-miterlimit="10" stroke-linejoin="round"/>
</svg>
